<svg width="49" height="49" viewBox="0 0 49 49" fill="none" xmlns="http://www.w3.org/2000/svg">
<g filter="url(#filter0_f_0_3)">
<path fill-rule="evenodd" clip-rule="evenodd" d="M23.4144 6.00662L23.4144 8.02252L25.7752 8.02252L28.1359 8.02252L25.1689 10.8784L22.2018 13.7342L17.1062 13.7393L12.0107 13.7443L9.55452 16.6596C8.20362 18.2629 6.50464 20.2876 5.77866 21.1588L4.45898 22.7433L6.22604 23.9851L7.99309 25.2272L8.7738 24.2744C9.20329 23.7502 10.5882 22.1093 11.8518 20.6276L14.1486 17.934L19.3958 17.8416L24.6425 17.7496L28.0637 14.4882L31.4848 11.2271L31.4848 13.6566L31.4848 16.0861L33.5901 16.0861L35.6954 16.0861L35.6954 10.0384L35.6954 3.99072L29.5549 3.99072L23.4144 3.99072L23.4144 6.00662ZM38.1516 26.6696L38.1516 44.6447L41.485 44.6447L44.8184 44.6447L44.8184 26.6696L44.8184 8.69449L41.485 8.69449L38.1516 8.69449L38.1516 26.6696ZM27.9759 31.8773L27.9759 44.6447L31.4848 44.6447L34.9936 44.6447L34.9936 31.8773L34.9936 19.11L31.4848 19.11L27.9759 19.11L27.9759 31.8773ZM17.8003 34.3972L17.8003 44.6447L21.1337 44.6447L24.4671 44.6447L24.4671 34.3972L24.4671 24.1497L21.1337 24.1497L17.8003 24.1497L17.8003 34.3972ZM7.50781 31.4295C7.37904 31.5524 7.27378 34.6519 7.27378 38.3171L7.27378 44.9807L10.6072 44.9807L13.9406 44.9807L13.9406 38.093L13.9406 31.2054L10.8412 31.2054C9.13627 31.2054 7.63624 31.3061 7.50781 31.4295Z" fill="#C3ADDE"/>
<path d="M25.7752 7.67012L23.7668 7.67012L23.7668 6.00662L23.7668 4.34313L29.5549 4.34313L35.343 4.34313L35.343 10.0384L35.343 15.7337L33.5901 15.7337L31.8372 15.7337L31.8372 13.6566L31.8372 11.2271L31.8372 10.4044L31.2416 10.972L27.8205 14.2331L27.8205 14.2331L24.4989 17.3996L19.3896 17.4893L19.3896 17.4893L14.1424 17.5817L13.9836 17.5845L13.8805 17.7054L11.5836 20.3989C10.3204 21.8803 8.93324 23.5238 8.50122 24.051L8.77381 24.2744L8.50122 24.051L7.92796 24.7507L6.42869 23.6968L6.42866 23.6967L4.97457 22.6749L6.04939 21.3844C6.0494 21.3844 6.04942 21.3843 6.04944 21.3843C6.77485 20.5138 8.4733 18.4898 9.82402 16.8867L9.82402 16.8867L12.1747 14.0966L17.1066 14.0917L22.2021 14.0866L22.344 14.0865L22.4462 13.9881L25.4132 11.1323L28.3803 8.27642L29.0102 7.67012L28.1359 7.67012L25.7752 7.67012ZM13.5882 31.5578L13.5882 38.093L13.5882 44.6283L10.6072 44.6283L7.62618 44.6283L7.62618 38.3171C7.62618 36.4873 7.65246 34.8003 7.6947 33.5569C7.71585 32.9346 7.74088 32.4268 7.76829 32.069C7.78001 31.916 7.79186 31.7947 7.80341 31.7055C7.82972 31.7009 7.85969 31.6961 7.8935 31.6912C8.06604 31.6663 8.30878 31.6428 8.60695 31.6228C9.20157 31.5828 9.99473 31.5578 10.8412 31.5578L13.5882 31.5578ZM41.485 44.2923L38.504 44.2923L38.504 26.6696L38.504 9.04689L41.485 9.04689L44.466 9.04689L44.466 26.6696L44.466 44.2923L41.485 44.2923ZM31.4848 44.2923L28.3283 44.2923L28.3283 31.8773L28.3283 19.4624L31.4848 19.4624L34.6412 19.4624L34.6412 31.8773L34.6412 44.2923L31.4848 44.2923ZM21.1337 44.2923L18.1527 44.2923L18.1527 34.3972L18.1527 24.5021L21.1337 24.5021L24.1147 24.5021L24.1147 34.3972L24.1147 44.2923L21.1337 44.2923Z" stroke="white" stroke-width="0.704805"/>
</g>
<path d="M25.7752 7.67012L23.7668 7.67012L23.7668 6.00662L23.7668 4.34313L29.5549 4.34313L35.343 4.34313L35.343 10.0384L35.343 15.7337L33.5901 15.7337L31.8372 15.7337L31.8372 13.6566L31.8372 11.2271L31.8372 10.4044L31.2416 10.972L27.8205 14.2331L27.8205 14.2331L24.4989 17.3996L19.3896 17.4893L19.3896 17.4893L14.1424 17.5817L13.9836 17.5845L13.8805 17.7054L11.5836 20.3989C10.3204 21.8803 8.93324 23.5238 8.50122 24.051L8.77381 24.2744L8.50122 24.051L7.92796 24.7507L6.42869 23.6968L6.42866 23.6967L4.97457 22.6749L6.04939 21.3844C6.0494 21.3844 6.04942 21.3843 6.04944 21.3843C6.77485 20.5138 8.4733 18.4898 9.82402 16.8867L9.82402 16.8867L12.1747 14.0966L17.1066 14.0917L22.2021 14.0866L22.344 14.0865L22.4462 13.9881L25.4132 11.1323L28.3803 8.27642L29.0102 7.67012L28.1359 7.67012L25.7752 7.67012ZM13.5882 31.5578L13.5882 38.093L13.5882 44.6283L10.6072 44.6283L7.62618 44.6283L7.62618 38.3171C7.62618 36.4873 7.65246 34.8003 7.6947 33.5569C7.71585 32.9346 7.74088 32.4268 7.76829 32.069C7.78001 31.916 7.79186 31.7947 7.80341 31.7055C7.82972 31.7009 7.85969 31.6961 7.8935 31.6912C8.06604 31.6663 8.30878 31.6428 8.60695 31.6228C9.20157 31.5828 9.99473 31.5578 10.8412 31.5578L13.5882 31.5578ZM41.485 44.2923L38.504 44.2923L38.504 26.6696L38.504 9.04689L41.485 9.04689L44.466 9.04689L44.466 26.6696L44.466 44.2923L41.485 44.2923ZM31.4848 44.2923L28.3283 44.2923L28.3283 31.8773L28.3283 19.4624L31.4848 19.4624L34.6412 19.4624L34.6412 31.8773L34.6412 44.2923L31.4848 44.2923ZM21.1337 44.2923L18.1527 44.2923L18.1527 34.3972L18.1527 24.5021L21.1337 24.5021L24.1147 24.5021L24.1147 34.3972L24.1147 44.2923L21.1337 44.2923Z" fill="#C3ADDE" stroke="white" stroke-width="0.704805"/>
<defs>
<filter id="filter0_f_0_3" x="0.934958" y="0.466697" width="47.4074" height="48.038" filterUnits="userSpaceOnUse" color-interpolation-filters="sRGB">
<feFlood flood-opacity="0" result="BackgroundImageFix"/>
<feBlend mode="normal" in="SourceGraphic" in2="BackgroundImageFix" result="shape"/>
<feGaussianBlur stdDeviation="1.76201" result="effect1_foregroundBlur_0_3"/>
</filter>
</defs>
</svg>
