<svg width="207" height="122" viewBox="0 0 207 122" fill="none" xmlns="http://www.w3.org/2000/svg">
<g filter="url(#filter0_b_1_29)">
<rect x="0.103027" width="206.794" height="122" rx="4.32624" fill="#B296D7" fill-opacity="0.33"/>
<rect x="0.535651" y="0.432624" width="205.929" height="121.135" rx="3.89362" stroke="#2E2042" stroke-width="0.865248"/>
</g>
<g filter="url(#filter1_b_1_29)">
<rect x="18.273" y="14.7092" width="18.1702" height="87.3901" rx="4.32624" fill="#B296D7" fill-opacity="0.33"/>
<rect x="18.7057" y="15.1418" width="17.305" height="86.5248" rx="3.89362" stroke="#6B459E" stroke-width="0.865248"/>
</g>
<g filter="url(#filter2_b_1_29)">
<rect x="18.2731" y="55.3759" width="18.1702" height="46.7234" rx="4.32624" fill="url(#paint0_linear_1_29)"/>
</g>
<g filter="url(#filter3_b_1_29)">
<rect x="48.5568" y="14.7092" width="18.1702" height="87.3901" rx="4.32624" fill="#B296D7" fill-opacity="0.33"/>
<rect x="48.9895" y="15.1418" width="17.305" height="86.5248" rx="3.89362" stroke="#6B459E" stroke-width="0.865248"/>
</g>
<g filter="url(#filter4_b_1_29)">
<rect x="48.5569" y="46.7234" width="18.1702" height="55.3759" rx="4.32624" fill="url(#paint1_linear_1_29)"/>
</g>
<path d="M52.8416 112.426V108.182H51.1804V107.58H55.1882V108.182H53.5269V112.426H52.8416ZM57.4047 112.467C57.0909 112.467 56.8141 112.409 56.5741 112.294C56.3388 112.179 56.1542 112.003 56.0203 111.768C55.8911 111.528 55.8265 111.228 55.8265 110.868V108.757H56.491V110.792C56.491 111.152 56.5764 111.422 56.7472 111.602C56.9225 111.782 57.1671 111.872 57.4809 111.872C57.7116 111.872 57.9124 111.826 58.0831 111.733C58.2538 111.636 58.3854 111.498 58.4777 111.318C58.5699 111.133 58.6161 110.912 58.6161 110.653V108.757H59.2806V112.426H58.6507V111.436L58.7545 111.699C58.6346 111.943 58.4546 112.132 58.2146 112.266C57.9747 112.4 57.7047 112.467 57.4047 112.467ZM62.2831 112.467C61.8908 112.467 61.5447 112.386 61.2448 112.225C60.9494 112.063 60.7187 111.842 60.5526 111.56C60.3911 111.279 60.3103 110.956 60.3103 110.591C60.3103 110.227 60.3888 109.904 60.5457 109.622C60.7072 109.341 60.9264 109.121 61.2032 108.965C61.4847 108.803 61.8008 108.722 62.1516 108.722C62.5069 108.722 62.8207 108.801 63.0929 108.958C63.3652 109.114 63.5775 109.336 63.7298 109.622C63.8867 109.904 63.9651 110.234 63.9651 110.612C63.9651 110.64 63.9628 110.672 63.9582 110.709C63.9582 110.746 63.9559 110.78 63.9513 110.813H60.8295V110.335H63.6052L63.3352 110.501C63.3398 110.266 63.2914 110.056 63.1899 109.871C63.0883 109.687 62.9476 109.544 62.7676 109.442C62.5923 109.336 62.3869 109.283 62.1516 109.283C61.9208 109.283 61.7155 109.336 61.5355 109.442C61.3555 109.544 61.2148 109.689 61.1133 109.878C61.0117 110.063 60.961 110.275 60.961 110.515V110.626C60.961 110.87 61.0163 111.09 61.1271 111.283C61.2425 111.473 61.4017 111.62 61.6047 111.726C61.8078 111.833 62.0408 111.886 62.3038 111.886C62.5207 111.886 62.7168 111.849 62.8922 111.775C63.0722 111.701 63.2291 111.59 63.3629 111.443L63.7298 111.872C63.5636 112.066 63.356 112.213 63.1068 112.315C62.8622 112.416 62.5876 112.467 62.2831 112.467Z" fill="#AEAEAE"/>
<g filter="url(#filter5_b_1_29)">
<rect x="78.8405" y="14.7092" width="18.1702" height="87.3901" rx="4.32624" fill="#B296D7" fill-opacity="0.33"/>
<rect x="79.2732" y="15.1418" width="17.305" height="86.5248" rx="3.89362" stroke="#6B459E" stroke-width="0.865248"/>
</g>
<g filter="url(#filter6_b_1_29)">
<rect x="78.8406" y="70.9503" width="18.1702" height="31.1489" rx="4.32624" fill="url(#paint2_linear_1_29)"/>
</g>
<path d="M81.5471 112.426L79.9274 107.58H80.6403L82.1286 112.052H81.7686L83.3122 107.58H83.949L85.458 112.052H85.1119L86.6209 107.58H87.2785L85.6588 112.426H84.932L83.5199 108.279H83.7068L82.2878 112.426H81.5471ZM89.4886 112.467C89.0964 112.467 88.7503 112.386 88.4503 112.225C88.155 112.063 87.9243 111.842 87.7581 111.56C87.5966 111.279 87.5159 110.956 87.5159 110.591C87.5159 110.227 87.5943 109.904 87.7512 109.622C87.9127 109.341 88.1319 109.121 88.4088 108.965C88.6903 108.803 89.0064 108.722 89.3571 108.722C89.7124 108.722 90.0262 108.801 90.2985 108.958C90.5708 109.114 90.783 109.336 90.9353 109.622C91.0922 109.904 91.1707 110.234 91.1707 110.612C91.1707 110.64 91.1684 110.672 91.1638 110.709C91.1638 110.746 91.1614 110.78 91.1568 110.813H88.035V110.335H90.8107L90.5408 110.501C90.5454 110.266 90.4969 110.056 90.3954 109.871C90.2939 109.687 90.1531 109.544 89.9732 109.442C89.7978 109.336 89.5925 109.283 89.3571 109.283C89.1264 109.283 88.921 109.336 88.7411 109.442C88.5611 109.544 88.4203 109.689 88.3188 109.878C88.2173 110.063 88.1665 110.275 88.1665 110.515V110.626C88.1665 110.87 88.2219 111.09 88.3327 111.283C88.448 111.473 88.6072 111.62 88.8103 111.726C89.0133 111.833 89.2464 111.886 89.5094 111.886C89.7263 111.886 89.9224 111.849 90.0978 111.775C90.2777 111.701 90.4346 111.59 90.5685 111.443L90.9353 111.872C90.7692 112.066 90.5615 112.213 90.3124 112.315C90.0678 112.416 89.7932 112.467 89.4886 112.467ZM93.7132 112.467C93.3578 112.467 93.0394 112.389 92.7579 112.232C92.481 112.075 92.2618 111.856 92.1003 111.574C91.9388 111.293 91.8581 110.965 91.8581 110.591C91.8581 110.217 91.9388 109.892 92.1003 109.615C92.2618 109.334 92.481 109.114 92.7579 108.958C93.0394 108.801 93.3578 108.722 93.7132 108.722C94.0223 108.722 94.3015 108.791 94.5507 108.93C94.7999 109.068 94.9983 109.276 95.146 109.553C95.2983 109.83 95.3744 110.176 95.3744 110.591C95.3744 111.007 95.3006 111.353 95.1529 111.629C95.0099 111.906 94.8138 112.116 94.5646 112.259C94.3154 112.398 94.0316 112.467 93.7132 112.467ZM93.7685 111.886C93.9993 111.886 94.2069 111.833 94.3915 111.726C94.5807 111.62 94.7284 111.47 94.8345 111.276C94.9453 111.078 95.0006 110.85 95.0006 110.591C95.0006 110.328 94.9453 110.102 94.8345 109.913C94.7284 109.719 94.5807 109.569 94.3915 109.463C94.2069 109.357 93.9993 109.304 93.7685 109.304C93.5332 109.304 93.3232 109.357 93.1386 109.463C92.954 109.569 92.8064 109.719 92.6956 109.913C92.5849 110.102 92.5295 110.328 92.5295 110.591C92.5295 110.85 92.5849 111.078 92.6956 111.276C92.8064 111.47 92.954 111.62 93.1386 111.726C93.3232 111.833 93.5332 111.886 93.7685 111.886ZM95.0214 112.426V111.436L95.0629 110.584L94.9937 109.733V107.289H95.6582V112.426H95.0214Z" fill="#AEAEAE"/>
<g filter="url(#filter7_b_1_29)">
<rect x="109.124" y="14.7092" width="18.1702" height="87.3901" rx="4.32624" fill="#B296D7" fill-opacity="0.33"/>
<rect x="109.557" y="15.1418" width="17.305" height="86.5248" rx="3.89362" stroke="#6B459E" stroke-width="0.865248"/>
</g>
<g filter="url(#filter8_b_1_29)">
<rect x="109.124" y="85.6596" width="18.1702" height="16.4397" rx="4.32624" fill="url(#paint3_linear_1_29)"/>
</g>
<path d="M113.409 112.426V108.182H111.748V107.58H115.756V108.182H114.094V112.426H113.409ZM118.475 108.722C118.775 108.722 119.038 108.78 119.264 108.895C119.495 109.011 119.675 109.186 119.804 109.421C119.934 109.657 119.998 109.954 119.998 110.314V112.426H119.334V110.39C119.334 110.035 119.246 109.767 119.071 109.587C118.9 109.408 118.658 109.318 118.344 109.318C118.108 109.318 117.903 109.364 117.728 109.456C117.552 109.548 117.416 109.684 117.319 109.864C117.227 110.044 117.181 110.268 117.181 110.536V112.426H116.516V107.289H117.181V109.747L117.049 109.484C117.169 109.244 117.354 109.057 117.603 108.923C117.852 108.789 118.143 108.722 118.475 108.722ZM122.875 112.467C122.562 112.467 122.285 112.409 122.045 112.294C121.809 112.179 121.625 112.003 121.491 111.768C121.362 111.528 121.297 111.228 121.297 110.868V108.757H121.962V110.792C121.962 111.152 122.047 111.422 122.218 111.602C122.393 111.782 122.638 111.872 122.952 111.872C123.182 111.872 123.383 111.826 123.554 111.733C123.724 111.636 123.856 111.498 123.948 111.318C124.041 111.133 124.087 110.912 124.087 110.653V108.757H124.751V112.426H124.121V111.436L124.225 111.699C124.105 111.943 123.925 112.132 123.685 112.266C123.445 112.4 123.175 112.467 122.875 112.467Z" fill="#AEAEAE"/>
<g filter="url(#filter9_b_1_29)">
<rect x="139.408" y="14.7092" width="18.1702" height="87.3901" rx="4.32624" fill="#B296D7" fill-opacity="0.33"/>
<rect x="139.841" y="15.1418" width="17.305" height="86.5248" rx="3.89362" stroke="#6B459E" stroke-width="0.865248"/>
</g>
<g filter="url(#filter10_b_1_29)">
<rect x="139.408" y="46.7234" width="18.1702" height="55.3759" rx="4.32624" fill="url(#paint4_linear_1_29)"/>
</g>
<path d="M145.084 109.871H147.583V110.467H145.084V109.871ZM145.153 112.426H144.461V107.58H147.88V108.182H145.153V112.426ZM148.794 112.426V108.757H149.431V109.754L149.369 109.504C149.47 109.251 149.641 109.057 149.881 108.923C150.121 108.789 150.416 108.722 150.767 108.722V109.366C150.739 109.361 150.712 109.359 150.684 109.359C150.661 109.359 150.638 109.359 150.615 109.359C150.259 109.359 149.978 109.465 149.77 109.677C149.563 109.89 149.459 110.197 149.459 110.598V112.426H148.794ZM151.69 112.426V108.757H152.354V112.426H151.69ZM152.022 108.051C151.893 108.051 151.784 108.009 151.697 107.926C151.614 107.843 151.572 107.742 151.572 107.622C151.572 107.497 151.614 107.393 151.697 107.31C151.784 107.227 151.893 107.186 152.022 107.186C152.151 107.186 152.257 107.227 152.34 107.31C152.428 107.389 152.472 107.488 152.472 107.608C152.472 107.732 152.43 107.839 152.347 107.926C152.264 108.009 152.156 108.051 152.022 108.051Z" fill="#AEAEAE"/>
<g filter="url(#filter11_b_1_29)">
<rect x="169.692" y="14.7092" width="18.1702" height="87.3901" rx="4.32624" fill="#B296D7" fill-opacity="0.33"/>
<rect x="170.124" y="15.1418" width="17.305" height="86.5248" rx="3.89362" stroke="#6B459E" stroke-width="0.865248"/>
</g>
<g filter="url(#filter12_b_1_29)">
<rect x="169.692" y="60.5674" width="18.1702" height="41.5319" rx="4.32624" fill="url(#paint5_linear_1_29)"/>
</g>
<path d="M175.292 112.481C174.922 112.481 174.569 112.426 174.232 112.315C173.896 112.199 173.63 112.052 173.436 111.872L173.693 111.332C173.877 111.493 174.113 111.627 174.399 111.733C174.685 111.839 174.982 111.893 175.292 111.893C175.573 111.893 175.801 111.86 175.977 111.796C176.152 111.731 176.281 111.643 176.364 111.533C176.448 111.417 176.489 111.288 176.489 111.145C176.489 110.979 176.434 110.845 176.323 110.743C176.217 110.642 176.076 110.561 175.901 110.501C175.73 110.437 175.541 110.381 175.333 110.335C175.125 110.289 174.915 110.236 174.703 110.176C174.496 110.111 174.304 110.031 174.129 109.934C173.958 109.837 173.819 109.707 173.713 109.546C173.607 109.38 173.554 109.168 173.554 108.909C173.554 108.66 173.619 108.432 173.748 108.224C173.882 108.012 174.085 107.843 174.357 107.719C174.634 107.589 174.985 107.525 175.409 107.525C175.691 107.525 175.97 107.562 176.247 107.635C176.524 107.709 176.764 107.815 176.967 107.954L176.738 108.508C176.531 108.369 176.311 108.27 176.081 108.21C175.85 108.145 175.626 108.113 175.409 108.113C175.137 108.113 174.913 108.148 174.738 108.217C174.562 108.286 174.433 108.378 174.35 108.494C174.272 108.609 174.232 108.738 174.232 108.881C174.232 109.052 174.286 109.188 174.392 109.29C174.502 109.391 174.643 109.472 174.814 109.532C174.989 109.592 175.181 109.647 175.388 109.698C175.596 109.744 175.804 109.797 176.011 109.857C176.224 109.917 176.415 109.996 176.586 110.093C176.761 110.19 176.902 110.319 177.008 110.48C177.114 110.642 177.167 110.85 177.167 111.103C177.167 111.348 177.1 111.576 176.967 111.789C176.833 111.996 176.625 112.165 176.344 112.294C176.067 112.419 175.716 112.481 175.292 112.481ZM179.729 112.467C179.415 112.467 179.139 112.409 178.899 112.294C178.663 112.179 178.479 112.003 178.345 111.768C178.216 111.528 178.151 111.228 178.151 110.868V108.757H178.815V110.792C178.815 111.152 178.901 111.422 179.072 111.602C179.247 111.782 179.492 111.872 179.805 111.872C180.036 111.872 180.237 111.826 180.408 111.733C180.578 111.636 180.71 111.498 180.802 111.318C180.894 111.133 180.941 110.912 180.941 110.653V108.757H181.605V112.426H180.975V111.436L181.079 111.699C180.959 111.943 180.779 112.132 180.539 112.266C180.299 112.4 180.029 112.467 179.729 112.467ZM184.234 112.467C183.865 112.467 183.578 112.368 183.375 112.169C183.172 111.971 183.071 111.687 183.071 111.318V107.954H183.735V111.29C183.735 111.489 183.784 111.641 183.881 111.747C183.982 111.853 184.125 111.906 184.31 111.906C184.518 111.906 184.691 111.849 184.829 111.733L185.037 112.211C184.935 112.299 184.813 112.363 184.67 112.405C184.531 112.446 184.386 112.467 184.234 112.467ZM182.448 109.304V108.757H184.787V109.304H182.448Z" fill="#AEAEAE"/>
<path d="M19.8651 112.426V107.58H20.4327L22.6062 111.242H22.3016L24.4475 107.58H25.0151L25.022 112.426H24.3575L24.3506 108.625H24.5098L22.5993 111.837H22.2809L20.3566 108.625H20.5296V112.426H19.8651ZM28.0544 112.467C27.6852 112.467 27.3575 112.386 27.0714 112.225C26.7853 112.063 26.5592 111.842 26.3931 111.56C26.227 111.274 26.1439 110.951 26.1439 110.591C26.1439 110.227 26.227 109.904 26.3931 109.622C26.5592 109.341 26.7853 109.121 27.0714 108.965C27.3575 108.803 27.6852 108.722 28.0544 108.722C28.4189 108.722 28.7442 108.803 29.0304 108.965C29.3211 109.121 29.5472 109.341 29.7087 109.622C29.8748 109.899 29.9579 110.222 29.9579 110.591C29.9579 110.956 29.8748 111.279 29.7087 111.56C29.5472 111.842 29.3211 112.063 29.0304 112.225C28.7442 112.386 28.4189 112.467 28.0544 112.467ZM28.0544 111.886C28.2897 111.886 28.4997 111.833 28.6843 111.726C28.8735 111.62 29.0211 111.47 29.1273 111.276C29.2334 111.078 29.2865 110.85 29.2865 110.591C29.2865 110.328 29.2334 110.102 29.1273 109.913C29.0211 109.719 28.8735 109.569 28.6843 109.463C28.4997 109.357 28.2897 109.304 28.0544 109.304C27.819 109.304 27.609 109.357 27.4245 109.463C27.2399 109.569 27.0922 109.719 26.9814 109.913C26.8707 110.102 26.8153 110.328 26.8153 110.591C26.8153 110.85 26.8707 111.078 26.9814 111.276C27.0922 111.47 27.2399 111.62 27.4245 111.726C27.609 111.833 27.819 111.886 28.0544 111.886ZM32.9397 108.722C33.2396 108.722 33.5026 108.78 33.7288 108.895C33.9595 109.011 34.1395 109.186 34.2687 109.421C34.3979 109.657 34.4625 109.954 34.4625 110.314V112.426H33.798V110.39C33.798 110.035 33.7103 109.767 33.5349 109.588C33.3642 109.408 33.1219 109.318 32.8081 109.318C32.5728 109.318 32.3674 109.364 32.1921 109.456C32.0167 109.548 31.8806 109.684 31.7837 109.864C31.6914 110.044 31.6452 110.268 31.6452 110.536V112.426H30.9807V108.757H31.6176V109.747L31.5137 109.484C31.6337 109.244 31.8183 109.057 32.0675 108.923C32.3167 108.789 32.6074 108.722 32.9397 108.722Z" fill="#AEAEAE"/>
<defs>
<filter id="filter0_b_1_29" x="-6.81896" y="-6.92199" width="220.638" height="135.844" filterUnits="userSpaceOnUse" color-interpolation-filters="sRGB">
<feFlood flood-opacity="0" result="BackgroundImageFix"/>
<feGaussianBlur in="BackgroundImageFix" stdDeviation="3.46099"/>
<feComposite in2="SourceAlpha" operator="in" result="effect1_backgroundBlur_1_29"/>
<feBlend mode="normal" in="SourceGraphic" in2="effect1_backgroundBlur_1_29" result="shape"/>
</filter>
<filter id="filter1_b_1_29" x="11.3511" y="7.78724" width="32.0142" height="101.234" filterUnits="userSpaceOnUse" color-interpolation-filters="sRGB">
<feFlood flood-opacity="0" result="BackgroundImageFix"/>
<feGaussianBlur in="BackgroundImageFix" stdDeviation="3.46099"/>
<feComposite in2="SourceAlpha" operator="in" result="effect1_backgroundBlur_1_29"/>
<feBlend mode="normal" in="SourceGraphic" in2="effect1_backgroundBlur_1_29" result="shape"/>
</filter>
<filter id="filter2_b_1_29" x="11.3512" y="48.4539" width="32.0142" height="60.5674" filterUnits="userSpaceOnUse" color-interpolation-filters="sRGB">
<feFlood flood-opacity="0" result="BackgroundImageFix"/>
<feGaussianBlur in="BackgroundImageFix" stdDeviation="3.46099"/>
<feComposite in2="SourceAlpha" operator="in" result="effect1_backgroundBlur_1_29"/>
<feBlend mode="normal" in="SourceGraphic" in2="effect1_backgroundBlur_1_29" result="shape"/>
</filter>
<filter id="filter3_b_1_29" x="41.6349" y="7.78723" width="32.0142" height="101.234" filterUnits="userSpaceOnUse" color-interpolation-filters="sRGB">
<feFlood flood-opacity="0" result="BackgroundImageFix"/>
<feGaussianBlur in="BackgroundImageFix" stdDeviation="3.46099"/>
<feComposite in2="SourceAlpha" operator="in" result="effect1_backgroundBlur_1_29"/>
<feBlend mode="normal" in="SourceGraphic" in2="effect1_backgroundBlur_1_29" result="shape"/>
</filter>
<filter id="filter4_b_1_29" x="41.6349" y="39.8014" width="32.0142" height="69.2199" filterUnits="userSpaceOnUse" color-interpolation-filters="sRGB">
<feFlood flood-opacity="0" result="BackgroundImageFix"/>
<feGaussianBlur in="BackgroundImageFix" stdDeviation="3.46099"/>
<feComposite in2="SourceAlpha" operator="in" result="effect1_backgroundBlur_1_29"/>
<feBlend mode="normal" in="SourceGraphic" in2="effect1_backgroundBlur_1_29" result="shape"/>
</filter>
<filter id="filter5_b_1_29" x="71.9185" y="7.78723" width="32.0142" height="101.234" filterUnits="userSpaceOnUse" color-interpolation-filters="sRGB">
<feFlood flood-opacity="0" result="BackgroundImageFix"/>
<feGaussianBlur in="BackgroundImageFix" stdDeviation="3.46099"/>
<feComposite in2="SourceAlpha" operator="in" result="effect1_backgroundBlur_1_29"/>
<feBlend mode="normal" in="SourceGraphic" in2="effect1_backgroundBlur_1_29" result="shape"/>
</filter>
<filter id="filter6_b_1_29" x="71.9186" y="64.0284" width="32.0142" height="44.9929" filterUnits="userSpaceOnUse" color-interpolation-filters="sRGB">
<feFlood flood-opacity="0" result="BackgroundImageFix"/>
<feGaussianBlur in="BackgroundImageFix" stdDeviation="3.46099"/>
<feComposite in2="SourceAlpha" operator="in" result="effect1_backgroundBlur_1_29"/>
<feBlend mode="normal" in="SourceGraphic" in2="effect1_backgroundBlur_1_29" result="shape"/>
</filter>
<filter id="filter7_b_1_29" x="102.202" y="7.78723" width="32.0142" height="101.234" filterUnits="userSpaceOnUse" color-interpolation-filters="sRGB">
<feFlood flood-opacity="0" result="BackgroundImageFix"/>
<feGaussianBlur in="BackgroundImageFix" stdDeviation="3.46099"/>
<feComposite in2="SourceAlpha" operator="in" result="effect1_backgroundBlur_1_29"/>
<feBlend mode="normal" in="SourceGraphic" in2="effect1_backgroundBlur_1_29" result="shape"/>
</filter>
<filter id="filter8_b_1_29" x="102.202" y="78.7376" width="32.0142" height="30.2837" filterUnits="userSpaceOnUse" color-interpolation-filters="sRGB">
<feFlood flood-opacity="0" result="BackgroundImageFix"/>
<feGaussianBlur in="BackgroundImageFix" stdDeviation="3.46099"/>
<feComposite in2="SourceAlpha" operator="in" result="effect1_backgroundBlur_1_29"/>
<feBlend mode="normal" in="SourceGraphic" in2="effect1_backgroundBlur_1_29" result="shape"/>
</filter>
<filter id="filter9_b_1_29" x="132.486" y="7.78723" width="32.0142" height="101.234" filterUnits="userSpaceOnUse" color-interpolation-filters="sRGB">
<feFlood flood-opacity="0" result="BackgroundImageFix"/>
<feGaussianBlur in="BackgroundImageFix" stdDeviation="3.46099"/>
<feComposite in2="SourceAlpha" operator="in" result="effect1_backgroundBlur_1_29"/>
<feBlend mode="normal" in="SourceGraphic" in2="effect1_backgroundBlur_1_29" result="shape"/>
</filter>
<filter id="filter10_b_1_29" x="132.486" y="39.8014" width="32.0142" height="69.2199" filterUnits="userSpaceOnUse" color-interpolation-filters="sRGB">
<feFlood flood-opacity="0" result="BackgroundImageFix"/>
<feGaussianBlur in="BackgroundImageFix" stdDeviation="3.46099"/>
<feComposite in2="SourceAlpha" operator="in" result="effect1_backgroundBlur_1_29"/>
<feBlend mode="normal" in="SourceGraphic" in2="effect1_backgroundBlur_1_29" result="shape"/>
</filter>
<filter id="filter11_b_1_29" x="162.77" y="7.78723" width="32.0142" height="101.234" filterUnits="userSpaceOnUse" color-interpolation-filters="sRGB">
<feFlood flood-opacity="0" result="BackgroundImageFix"/>
<feGaussianBlur in="BackgroundImageFix" stdDeviation="3.46099"/>
<feComposite in2="SourceAlpha" operator="in" result="effect1_backgroundBlur_1_29"/>
<feBlend mode="normal" in="SourceGraphic" in2="effect1_backgroundBlur_1_29" result="shape"/>
</filter>
<filter id="filter12_b_1_29" x="162.77" y="53.6454" width="32.0142" height="55.3759" filterUnits="userSpaceOnUse" color-interpolation-filters="sRGB">
<feFlood flood-opacity="0" result="BackgroundImageFix"/>
<feGaussianBlur in="BackgroundImageFix" stdDeviation="3.46099"/>
<feComposite in2="SourceAlpha" operator="in" result="effect1_backgroundBlur_1_29"/>
<feBlend mode="normal" in="SourceGraphic" in2="effect1_backgroundBlur_1_29" result="shape"/>
</filter>
<linearGradient id="paint0_linear_1_29" x1="27.3583" y1="55.3759" x2="27.3583" y2="102.099" gradientUnits="userSpaceOnUse">
<stop stop-color="#3D1C69"/>
<stop offset="0.792885" stop-color="#2C164A"/>
</linearGradient>
<linearGradient id="paint1_linear_1_29" x1="57.642" y1="46.7234" x2="57.642" y2="102.099" gradientUnits="userSpaceOnUse">
<stop stop-color="#3D1C69"/>
<stop offset="0.792885" stop-color="#2C164A"/>
</linearGradient>
<linearGradient id="paint2_linear_1_29" x1="87.9257" y1="70.9503" x2="87.9257" y2="102.099" gradientUnits="userSpaceOnUse">
<stop stop-color="#3D1C69"/>
<stop offset="0.792885" stop-color="#2C164A"/>
</linearGradient>
<linearGradient id="paint3_linear_1_29" x1="118.209" y1="85.6596" x2="118.209" y2="102.099" gradientUnits="userSpaceOnUse">
<stop stop-color="#3D1C69"/>
<stop offset="0.792885" stop-color="#2C164A"/>
</linearGradient>
<linearGradient id="paint4_linear_1_29" x1="148.493" y1="46.7234" x2="148.493" y2="102.099" gradientUnits="userSpaceOnUse">
<stop stop-color="#3D1C69"/>
<stop offset="0.792885" stop-color="#2C164A"/>
</linearGradient>
<linearGradient id="paint5_linear_1_29" x1="178.777" y1="60.5674" x2="178.777" y2="102.099" gradientUnits="userSpaceOnUse">
<stop stop-color="#3D1C69"/>
<stop offset="0.792885" stop-color="#2C164A"/>
</linearGradient>
</defs>
</svg>
