<svg width="77" height="77" viewBox="0 0 77 77" fill="none" xmlns="http://www.w3.org/2000/svg">
<circle cx="40.2068" cy="38.5007" r="24.7283" fill="#9E40B5"/>
<path d="M76 24.3333C70.197 10.6456 56.2367 1 39.9372 1C18.4328 1 1 17.7893 1 38.5C1 59.2107 18.4328 76 39.9372 76C56.2367 76 70.197 66.3544 76 52.6667" stroke="#9E40B5" stroke-width="1.41304"/>
<path d="M39.7994 51.6134C40.2133 52.0273 40.8843 52.0273 41.2982 51.6134L48.0426 44.869C48.4565 44.4551 48.4565 43.7841 48.0426 43.3702C47.6288 42.9563 46.9577 42.9563 46.5439 43.3702L40.5488 49.3652L34.5538 43.3702C34.1399 42.9563 33.4689 42.9563 33.055 43.3702C32.6412 43.7841 32.6412 44.4551 33.055 44.869L39.7994 51.6134ZM39.489 26.1357V50.864H41.6086V26.1357H39.489Z" fill="#D4E5FF"/>
</svg>
