<svg width="44" height="50" viewBox="0 0 44 50" fill="none" xmlns="http://www.w3.org/2000/svg">
<g filter="url(#filter0_f_0_6)">
<mask id="path-1-inside-1_0_6" fill="white">
<path fill-rule="evenodd" clip-rule="evenodd" d="M21.4917 2.18006C21.4033 2.24706 21.292 2.43781 21.2444 2.60374C21.1954 2.77453 21.1561 4.54541 21.154 6.68332L21.15 10.4612L11.9607 15.8572C6.90649 18.825 2.65892 21.3614 2.5215 21.4936C2.17157 21.8305 2.17678 22.2963 2.53463 22.6541C2.76747 22.8869 2.85992 22.917 3.34403 22.917H3.89056L3.89074 23.8388C3.89092 25.2835 4.17673 25.6716 5.31089 25.7666L5.95904 25.8209V32.6308V39.4406L5.32132 39.4863C4.14453 39.5705 3.89092 39.9512 3.89074 41.6334L3.89056 42.7677L3.2952 42.8155C2.65811 42.8666 2.31303 43.0466 2.11572 43.4305C2.0382 43.5814 2.0042 44.211 2.0033 45.5142L2.00195 47.3816L2.3098 47.7176L2.61764 48.0535H21.8773H41.137L41.4448 47.7176L41.7527 47.3816L41.7513 45.5142C41.7504 44.211 41.7164 43.5814 41.6389 43.4305C41.4428 43.0489 41.096 42.8666 40.4709 42.8164L39.8871 42.7696L39.8459 41.6283C39.7834 39.8977 39.4769 39.4652 38.3127 39.465L37.7956 39.4648V32.6429V25.8209L38.4437 25.7666C39.5779 25.6716 39.8637 25.2835 39.8639 23.8388L39.8641 22.917H40.4106C40.8947 22.917 40.9871 22.8869 41.22 22.6541C41.5521 22.322 41.5769 21.8617 41.2805 21.5346C40.9932 21.2177 32.6766 16.3518 32.4221 16.3518C32.1472 16.3518 31.77 16.7339 31.77 17.0123C31.77 17.1327 31.8409 17.315 31.9274 17.4174C32.0451 17.5567 36.2041 20.0573 38.65 21.4594C38.7857 21.5372 34.6701 21.5632 21.8812 21.5653L4.93253 21.568L7.58171 20.0086C9.03873 19.151 12.8525 16.9039 16.0568 15.0151L21.8828 11.581L25.6994 13.8315C28.0247 15.2026 29.6066 16.082 29.7478 16.082C30.0002 16.082 30.421 15.7218 30.421 15.5058C30.421 15.1294 30.1685 14.9043 28.9056 14.1553C28.1809 13.7255 26.4752 12.718 25.1149 11.9164L22.6417 10.459L22.616 9.58323L22.5903 8.70745H23.7557H24.9211L24.9506 9.91931C24.9778 11.04 24.9954 11.1465 25.1849 11.3358L25.3898 11.5404H29.6665H33.9432L34.2056 11.2466L34.468 10.9529V8.58793V6.22294L34.1926 5.95881L33.9171 5.69467L32.3939 5.66625L30.8707 5.63784V4.69659C30.8707 3.71829 30.7662 3.29057 30.4662 3.04163C30.3292 2.92795 29.695 2.89962 26.4342 2.86176L22.5647 2.81679L22.4962 2.56093C22.3733 2.10065 21.8553 1.90424 21.4917 2.18006ZM29.5217 5.78461V7.35845H26.0592H22.5968V5.78461V4.21077H26.0592H29.5217V5.78461ZM33.119 8.61752V10.2363H30.5859C29.1927 10.2363 28.0824 10.2059 28.1185 10.1689C28.1547 10.1318 28.7382 9.75356 29.4151 9.32836C30.1018 8.89703 30.695 8.45978 30.7569 8.33909C30.8181 8.22019 30.8686 7.86999 30.8693 7.5608L30.8707 6.99871H31.9949H33.119V8.61752ZM27.6851 8.78606C27.6287 8.87725 26.4385 9.60679 26.3461 9.60679C26.2664 9.60679 26.2645 8.84685 26.344 8.76744C26.4343 8.67715 27.7412 8.69531 27.6851 8.78606ZM21.0071 14.4075C20.1423 14.6902 19.4056 15.3955 19.0835 16.2487C18.8301 16.9204 18.8734 17.899 19.1858 18.5552C19.4567 19.1245 20.0008 19.6715 20.5756 19.9525C21.1677 20.242 22.2088 20.3025 22.8624 20.0855C24.3839 19.5801 25.2407 17.7583 24.6692 16.2437C24.4179 15.5779 23.802 14.8978 23.1701 14.5887C22.5729 14.2966 21.5964 14.2147 21.0071 14.4075ZM22.484 15.7707C22.9112 15.9492 23.1154 16.1384 23.3258 16.5506C23.7269 17.3363 23.3923 18.318 22.5788 18.7431C22.2156 18.9328 21.4678 18.904 21.0786 18.6853C20.5345 18.3796 20.3035 17.9518 20.3035 17.2507C20.3035 16.7301 20.337 16.6086 20.5628 16.3125C21.0233 15.7089 21.807 15.4878 22.484 15.7707ZM38.4962 23.6589L38.4701 24.4009H21.8773H5.28453L5.25845 23.6589L5.23228 22.917H21.8773H38.5223L38.4962 23.6589ZM9.46645 32.5849V39.3749H8.38725H7.30804V32.5849V25.7949H8.38725H9.46645V32.5849ZM12.7041 32.6298V39.4648H11.7598H10.8155V32.6298V25.7949H11.7598H12.7041V32.6298ZM16.2115 29.8297C16.2115 33.7756 16.2156 33.8698 16.3979 34.1016C16.6315 34.3986 17.1128 34.4265 17.3806 34.1587C17.5552 33.9841 17.5605 33.859 17.5605 29.8869V25.7949H18.5048H19.4491V32.6298V39.4648H18.5048H17.5605V38.0259C17.5605 36.7068 17.5455 36.5719 17.3806 36.407C17.1128 36.1392 16.6315 36.1672 16.3979 36.4642C16.2283 36.6797 16.2115 36.8216 16.2115 38.038V39.3749H15.1323H14.0531V32.5849V25.7949H15.1323H16.2115V29.8297ZM22.9565 32.5849V39.3749H21.8773H20.7981V32.5849V25.7949H21.8773H22.9565V32.5849ZM26.1941 32.6298V39.4648H25.2498H24.3055V32.6298V25.7949H25.2498H26.1941V32.6298ZM29.7015 32.5849V39.3749H28.6223H27.5431V32.5849V25.7949H28.6223H29.7015V32.5849ZM32.9392 32.6298V39.4648H31.9949H31.0506V32.6298V25.7949H31.9949H32.9392V32.6298ZM36.4466 32.5849V39.3749H35.3674H34.2882V32.5849V25.7949H35.3674H36.4466V32.5849ZM38.4605 40.9561C38.4905 41.0343 38.515 41.4776 38.515 41.9411V42.784L36.1411 42.8106C33.9542 42.8352 33.7522 42.8508 33.578 43.0086C33.4492 43.1253 33.3888 43.2887 33.3888 43.5206C33.3888 44.1466 33.3579 44.1413 37.0962 44.1413H40.4037V45.4454V46.7494H21.8773H3.35096V45.4454V44.1413H17.2457C31.0206 44.1413 31.142 44.1398 31.3204 43.9615C31.5627 43.7191 31.558 43.2322 31.3109 43.0086C31.1269 42.8421 30.7628 42.8367 18.1806 42.8139L5.23957 42.7905V41.8622C5.23957 41.3515 5.26655 40.9067 5.29955 40.8738C5.33247 40.8408 12.7949 40.8138 21.8827 40.8138C36.8667 40.8138 38.411 40.827 38.4605 40.9561Z"/>
</mask>
<path fill-rule="evenodd" clip-rule="evenodd" d="M21.4917 2.18006C21.4033 2.24706 21.292 2.43781 21.2444 2.60374C21.1954 2.77453 21.1561 4.54541 21.154 6.68332L21.15 10.4612L11.9607 15.8572C6.90649 18.825 2.65892 21.3614 2.5215 21.4936C2.17157 21.8305 2.17678 22.2963 2.53463 22.6541C2.76747 22.8869 2.85992 22.917 3.34403 22.917H3.89056L3.89074 23.8388C3.89092 25.2835 4.17673 25.6716 5.31089 25.7666L5.95904 25.8209V32.6308V39.4406L5.32132 39.4863C4.14453 39.5705 3.89092 39.9512 3.89074 41.6334L3.89056 42.7677L3.2952 42.8155C2.65811 42.8666 2.31303 43.0466 2.11572 43.4305C2.0382 43.5814 2.0042 44.211 2.0033 45.5142L2.00195 47.3816L2.3098 47.7176L2.61764 48.0535H21.8773H41.137L41.4448 47.7176L41.7527 47.3816L41.7513 45.5142C41.7504 44.211 41.7164 43.5814 41.6389 43.4305C41.4428 43.0489 41.096 42.8666 40.4709 42.8164L39.8871 42.7696L39.8459 41.6283C39.7834 39.8977 39.4769 39.4652 38.3127 39.465L37.7956 39.4648V32.6429V25.8209L38.4437 25.7666C39.5779 25.6716 39.8637 25.2835 39.8639 23.8388L39.8641 22.917H40.4106C40.8947 22.917 40.9871 22.8869 41.22 22.6541C41.5521 22.322 41.5769 21.8617 41.2805 21.5346C40.9932 21.2177 32.6766 16.3518 32.4221 16.3518C32.1472 16.3518 31.77 16.7339 31.77 17.0123C31.77 17.1327 31.8409 17.315 31.9274 17.4174C32.0451 17.5567 36.2041 20.0573 38.65 21.4594C38.7857 21.5372 34.6701 21.5632 21.8812 21.5653L4.93253 21.568L7.58171 20.0086C9.03873 19.151 12.8525 16.9039 16.0568 15.0151L21.8828 11.581L25.6994 13.8315C28.0247 15.2026 29.6066 16.082 29.7478 16.082C30.0002 16.082 30.421 15.7218 30.421 15.5058C30.421 15.1294 30.1685 14.9043 28.9056 14.1553C28.1809 13.7255 26.4752 12.718 25.1149 11.9164L22.6417 10.459L22.616 9.58323L22.5903 8.70745H23.7557H24.9211L24.9506 9.91931C24.9778 11.04 24.9954 11.1465 25.1849 11.3358L25.3898 11.5404H29.6665H33.9432L34.2056 11.2466L34.468 10.9529V8.58793V6.22294L34.1926 5.95881L33.9171 5.69467L32.3939 5.66625L30.8707 5.63784V4.69659C30.8707 3.71829 30.7662 3.29057 30.4662 3.04163C30.3292 2.92795 29.695 2.89962 26.4342 2.86176L22.5647 2.81679L22.4962 2.56093C22.3733 2.10065 21.8553 1.90424 21.4917 2.18006ZM29.5217 5.78461V7.35845H26.0592H22.5968V5.78461V4.21077H26.0592H29.5217V5.78461ZM33.119 8.61752V10.2363H30.5859C29.1927 10.2363 28.0824 10.2059 28.1185 10.1689C28.1547 10.1318 28.7382 9.75356 29.4151 9.32836C30.1018 8.89703 30.695 8.45978 30.7569 8.33909C30.8181 8.22019 30.8686 7.86999 30.8693 7.5608L30.8707 6.99871H31.9949H33.119V8.61752ZM27.6851 8.78606C27.6287 8.87725 26.4385 9.60679 26.3461 9.60679C26.2664 9.60679 26.2645 8.84685 26.344 8.76744C26.4343 8.67715 27.7412 8.69531 27.6851 8.78606ZM21.0071 14.4075C20.1423 14.6902 19.4056 15.3955 19.0835 16.2487C18.8301 16.9204 18.8734 17.899 19.1858 18.5552C19.4567 19.1245 20.0008 19.6715 20.5756 19.9525C21.1677 20.242 22.2088 20.3025 22.8624 20.0855C24.3839 19.5801 25.2407 17.7583 24.6692 16.2437C24.4179 15.5779 23.802 14.8978 23.1701 14.5887C22.5729 14.2966 21.5964 14.2147 21.0071 14.4075ZM22.484 15.7707C22.9112 15.9492 23.1154 16.1384 23.3258 16.5506C23.7269 17.3363 23.3923 18.318 22.5788 18.7431C22.2156 18.9328 21.4678 18.904 21.0786 18.6853C20.5345 18.3796 20.3035 17.9518 20.3035 17.2507C20.3035 16.7301 20.337 16.6086 20.5628 16.3125C21.0233 15.7089 21.807 15.4878 22.484 15.7707ZM38.4962 23.6589L38.4701 24.4009H21.8773H5.28453L5.25845 23.6589L5.23228 22.917H21.8773H38.5223L38.4962 23.6589ZM9.46645 32.5849V39.3749H8.38725H7.30804V32.5849V25.7949H8.38725H9.46645V32.5849ZM12.7041 32.6298V39.4648H11.7598H10.8155V32.6298V25.7949H11.7598H12.7041V32.6298ZM16.2115 29.8297C16.2115 33.7756 16.2156 33.8698 16.3979 34.1016C16.6315 34.3986 17.1128 34.4265 17.3806 34.1587C17.5552 33.9841 17.5605 33.859 17.5605 29.8869V25.7949H18.5048H19.4491V32.6298V39.4648H18.5048H17.5605V38.0259C17.5605 36.7068 17.5455 36.5719 17.3806 36.407C17.1128 36.1392 16.6315 36.1672 16.3979 36.4642C16.2283 36.6797 16.2115 36.8216 16.2115 38.038V39.3749H15.1323H14.0531V32.5849V25.7949H15.1323H16.2115V29.8297ZM22.9565 32.5849V39.3749H21.8773H20.7981V32.5849V25.7949H21.8773H22.9565V32.5849ZM26.1941 32.6298V39.4648H25.2498H24.3055V32.6298V25.7949H25.2498H26.1941V32.6298ZM29.7015 32.5849V39.3749H28.6223H27.5431V32.5849V25.7949H28.6223H29.7015V32.5849ZM32.9392 32.6298V39.4648H31.9949H31.0506V32.6298V25.7949H31.9949H32.9392V32.6298ZM36.4466 32.5849V39.3749H35.3674H34.2882V32.5849V25.7949H35.3674H36.4466V32.5849ZM38.4605 40.9561C38.4905 41.0343 38.515 41.4776 38.515 41.9411V42.784L36.1411 42.8106C33.9542 42.8352 33.7522 42.8508 33.578 43.0086C33.4492 43.1253 33.3888 43.2887 33.3888 43.5206C33.3888 44.1466 33.3579 44.1413 37.0962 44.1413H40.4037V45.4454V46.7494H21.8773H3.35096V45.4454V44.1413H17.2457C31.0206 44.1413 31.142 44.1398 31.3204 43.9615C31.5627 43.7191 31.558 43.2322 31.3109 43.0086C31.1269 42.8421 30.7628 42.8367 18.1806 42.8139L5.23957 42.7905V41.8622C5.23957 41.3515 5.26655 40.9067 5.29955 40.8738C5.33247 40.8408 12.7949 40.8138 21.8827 40.8138C36.8667 40.8138 38.411 40.827 38.4605 40.9561Z" fill="#C3ADDE"/>
<path fill-rule="evenodd" clip-rule="evenodd" d="M21.4917 2.18006C21.4033 2.24706 21.292 2.43781 21.2444 2.60374C21.1954 2.77453 21.1561 4.54541 21.154 6.68332L21.15 10.4612L11.9607 15.8572C6.90649 18.825 2.65892 21.3614 2.5215 21.4936C2.17157 21.8305 2.17678 22.2963 2.53463 22.6541C2.76747 22.8869 2.85992 22.917 3.34403 22.917H3.89056L3.89074 23.8388C3.89092 25.2835 4.17673 25.6716 5.31089 25.7666L5.95904 25.8209V32.6308V39.4406L5.32132 39.4863C4.14453 39.5705 3.89092 39.9512 3.89074 41.6334L3.89056 42.7677L3.2952 42.8155C2.65811 42.8666 2.31303 43.0466 2.11572 43.4305C2.0382 43.5814 2.0042 44.211 2.0033 45.5142L2.00195 47.3816L2.3098 47.7176L2.61764 48.0535H21.8773H41.137L41.4448 47.7176L41.7527 47.3816L41.7513 45.5142C41.7504 44.211 41.7164 43.5814 41.6389 43.4305C41.4428 43.0489 41.096 42.8666 40.4709 42.8164L39.8871 42.7696L39.8459 41.6283C39.7834 39.8977 39.4769 39.4652 38.3127 39.465L37.7956 39.4648V32.6429V25.8209L38.4437 25.7666C39.5779 25.6716 39.8637 25.2835 39.8639 23.8388L39.8641 22.917H40.4106C40.8947 22.917 40.9871 22.8869 41.22 22.6541C41.5521 22.322 41.5769 21.8617 41.2805 21.5346C40.9932 21.2177 32.6766 16.3518 32.4221 16.3518C32.1472 16.3518 31.77 16.7339 31.77 17.0123C31.77 17.1327 31.8409 17.315 31.9274 17.4174C32.0451 17.5567 36.2041 20.0573 38.65 21.4594C38.7857 21.5372 34.6701 21.5632 21.8812 21.5653L4.93253 21.568L7.58171 20.0086C9.03873 19.151 12.8525 16.9039 16.0568 15.0151L21.8828 11.581L25.6994 13.8315C28.0247 15.2026 29.6066 16.082 29.7478 16.082C30.0002 16.082 30.421 15.7218 30.421 15.5058C30.421 15.1294 30.1685 14.9043 28.9056 14.1553C28.1809 13.7255 26.4752 12.718 25.1149 11.9164L22.6417 10.459L22.616 9.58323L22.5903 8.70745H23.7557H24.9211L24.9506 9.91931C24.9778 11.04 24.9954 11.1465 25.1849 11.3358L25.3898 11.5404H29.6665H33.9432L34.2056 11.2466L34.468 10.9529V8.58793V6.22294L34.1926 5.95881L33.9171 5.69467L32.3939 5.66625L30.8707 5.63784V4.69659C30.8707 3.71829 30.7662 3.29057 30.4662 3.04163C30.3292 2.92795 29.695 2.89962 26.4342 2.86176L22.5647 2.81679L22.4962 2.56093C22.3733 2.10065 21.8553 1.90424 21.4917 2.18006ZM29.5217 5.78461V7.35845H26.0592H22.5968V5.78461V4.21077H26.0592H29.5217V5.78461ZM33.119 8.61752V10.2363H30.5859C29.1927 10.2363 28.0824 10.2059 28.1185 10.1689C28.1547 10.1318 28.7382 9.75356 29.4151 9.32836C30.1018 8.89703 30.695 8.45978 30.7569 8.33909C30.8181 8.22019 30.8686 7.86999 30.8693 7.5608L30.8707 6.99871H31.9949H33.119V8.61752ZM27.6851 8.78606C27.6287 8.87725 26.4385 9.60679 26.3461 9.60679C26.2664 9.60679 26.2645 8.84685 26.344 8.76744C26.4343 8.67715 27.7412 8.69531 27.6851 8.78606ZM21.0071 14.4075C20.1423 14.6902 19.4056 15.3955 19.0835 16.2487C18.8301 16.9204 18.8734 17.899 19.1858 18.5552C19.4567 19.1245 20.0008 19.6715 20.5756 19.9525C21.1677 20.242 22.2088 20.3025 22.8624 20.0855C24.3839 19.5801 25.2407 17.7583 24.6692 16.2437C24.4179 15.5779 23.802 14.8978 23.1701 14.5887C22.5729 14.2966 21.5964 14.2147 21.0071 14.4075ZM22.484 15.7707C22.9112 15.9492 23.1154 16.1384 23.3258 16.5506C23.7269 17.3363 23.3923 18.318 22.5788 18.7431C22.2156 18.9328 21.4678 18.904 21.0786 18.6853C20.5345 18.3796 20.3035 17.9518 20.3035 17.2507C20.3035 16.7301 20.337 16.6086 20.5628 16.3125C21.0233 15.7089 21.807 15.4878 22.484 15.7707ZM38.4962 23.6589L38.4701 24.4009H21.8773H5.28453L5.25845 23.6589L5.23228 22.917H21.8773H38.5223L38.4962 23.6589ZM9.46645 32.5849V39.3749H8.38725H7.30804V32.5849V25.7949H8.38725H9.46645V32.5849ZM12.7041 32.6298V39.4648H11.7598H10.8155V32.6298V25.7949H11.7598H12.7041V32.6298ZM16.2115 29.8297C16.2115 33.7756 16.2156 33.8698 16.3979 34.1016C16.6315 34.3986 17.1128 34.4265 17.3806 34.1587C17.5552 33.9841 17.5605 33.859 17.5605 29.8869V25.7949H18.5048H19.4491V32.6298V39.4648H18.5048H17.5605V38.0259C17.5605 36.7068 17.5455 36.5719 17.3806 36.407C17.1128 36.1392 16.6315 36.1672 16.3979 36.4642C16.2283 36.6797 16.2115 36.8216 16.2115 38.038V39.3749H15.1323H14.0531V32.5849V25.7949H15.1323H16.2115V29.8297ZM22.9565 32.5849V39.3749H21.8773H20.7981V32.5849V25.7949H21.8773H22.9565V32.5849ZM26.1941 32.6298V39.4648H25.2498H24.3055V32.6298V25.7949H25.2498H26.1941V32.6298ZM29.7015 32.5849V39.3749H28.6223H27.5431V32.5849V25.7949H28.6223H29.7015V32.5849ZM32.9392 32.6298V39.4648H31.9949H31.0506V32.6298V25.7949H31.9949H32.9392V32.6298ZM36.4466 32.5849V39.3749H35.3674H34.2882V32.5849V25.7949H35.3674H36.4466V32.5849ZM38.4605 40.9561C38.4905 41.0343 38.515 41.4776 38.515 41.9411V42.784L36.1411 42.8106C33.9542 42.8352 33.7522 42.8508 33.578 43.0086C33.4492 43.1253 33.3888 43.2887 33.3888 43.5206C33.3888 44.1466 33.3579 44.1413 37.0962 44.1413H40.4037V45.4454V46.7494H21.8773H3.35096V45.4454V44.1413H17.2457C31.0206 44.1413 31.142 44.1398 31.3204 43.9615C31.5627 43.7191 31.558 43.2322 31.3109 43.0086C31.1269 42.8421 30.7628 42.8367 18.1806 42.8139L5.23957 42.7905V41.8622C5.23957 41.3515 5.26655 40.9067 5.29955 40.8738C5.33247 40.8408 12.7949 40.8138 21.8827 40.8138C36.8667 40.8138 38.411 40.827 38.4605 40.9561Z" stroke="white" mask="url(#path-1-inside-1_0_6)"/>
</g>
<mask id="path-2-inside-2_0_6" fill="white">
<path fill-rule="evenodd" clip-rule="evenodd" d="M21.4917 2.18006C21.4033 2.24706 21.292 2.43781 21.2444 2.60374C21.1954 2.77453 21.1561 4.54541 21.154 6.68332L21.15 10.4612L11.9607 15.8572C6.90649 18.825 2.65892 21.3614 2.5215 21.4936C2.17157 21.8305 2.17678 22.2963 2.53463 22.6541C2.76747 22.8869 2.85992 22.917 3.34403 22.917H3.89056L3.89074 23.8388C3.89092 25.2835 4.17673 25.6716 5.31089 25.7666L5.95904 25.8209V32.6308V39.4406L5.32132 39.4863C4.14453 39.5705 3.89092 39.9512 3.89074 41.6334L3.89056 42.7677L3.2952 42.8155C2.65811 42.8666 2.31303 43.0466 2.11572 43.4305C2.0382 43.5814 2.0042 44.211 2.0033 45.5142L2.00195 47.3816L2.3098 47.7176L2.61764 48.0535H21.8773H41.137L41.4448 47.7176L41.7527 47.3816L41.7513 45.5142C41.7504 44.211 41.7164 43.5814 41.6389 43.4305C41.4428 43.0489 41.096 42.8666 40.4709 42.8164L39.8871 42.7696L39.8459 41.6283C39.7834 39.8977 39.4769 39.4652 38.3127 39.465L37.7956 39.4648V32.6429V25.8209L38.4437 25.7666C39.5779 25.6716 39.8637 25.2835 39.8639 23.8388L39.8641 22.917H40.4106C40.8947 22.917 40.9871 22.8869 41.22 22.6541C41.5521 22.322 41.5769 21.8617 41.2805 21.5346C40.9932 21.2177 32.6766 16.3518 32.4221 16.3518C32.1472 16.3518 31.77 16.7339 31.77 17.0123C31.77 17.1327 31.8409 17.315 31.9274 17.4174C32.0451 17.5567 36.2041 20.0573 38.65 21.4594C38.7857 21.5372 34.6701 21.5632 21.8812 21.5653L4.93253 21.568L7.58171 20.0086C9.03873 19.151 12.8525 16.9039 16.0568 15.0151L21.8828 11.581L25.6994 13.8315C28.0247 15.2026 29.6066 16.082 29.7478 16.082C30.0002 16.082 30.421 15.7218 30.421 15.5058C30.421 15.1294 30.1685 14.9043 28.9056 14.1553C28.1809 13.7255 26.4752 12.718 25.1149 11.9164L22.6417 10.459L22.616 9.58323L22.5903 8.70745H23.7557H24.9211L24.9506 9.91931C24.9778 11.04 24.9954 11.1465 25.1849 11.3358L25.3898 11.5404H29.6665H33.9432L34.2056 11.2466L34.468 10.9529V8.58793V6.22294L34.1926 5.95881L33.9171 5.69467L32.3939 5.66625L30.8707 5.63784V4.69659C30.8707 3.71829 30.7662 3.29057 30.4662 3.04163C30.3292 2.92795 29.695 2.89962 26.4342 2.86176L22.5647 2.81679L22.4962 2.56093C22.3733 2.10065 21.8553 1.90424 21.4917 2.18006ZM29.5217 5.78461V7.35845H26.0592H22.5968V5.78461V4.21077H26.0592H29.5217V5.78461ZM33.119 8.61752V10.2363H30.5859C29.1927 10.2363 28.0824 10.2059 28.1185 10.1689C28.1547 10.1318 28.7382 9.75356 29.4151 9.32836C30.1018 8.89703 30.695 8.45978 30.7569 8.33909C30.8181 8.22019 30.8686 7.86999 30.8693 7.5608L30.8707 6.99871H31.9949H33.119V8.61752ZM27.6851 8.78606C27.6287 8.87725 26.4385 9.60679 26.3461 9.60679C26.2664 9.60679 26.2645 8.84685 26.344 8.76744C26.4343 8.67715 27.7412 8.69531 27.6851 8.78606ZM21.0071 14.4075C20.1423 14.6902 19.4056 15.3955 19.0835 16.2487C18.8301 16.9204 18.8734 17.899 19.1858 18.5552C19.4567 19.1245 20.0008 19.6715 20.5756 19.9525C21.1677 20.242 22.2088 20.3025 22.8624 20.0855C24.3839 19.5801 25.2407 17.7583 24.6692 16.2437C24.4179 15.5779 23.802 14.8978 23.1701 14.5887C22.5729 14.2966 21.5964 14.2147 21.0071 14.4075ZM22.484 15.7707C22.9112 15.9492 23.1154 16.1384 23.3258 16.5506C23.7269 17.3363 23.3923 18.318 22.5788 18.7431C22.2156 18.9328 21.4678 18.904 21.0786 18.6853C20.5345 18.3796 20.3035 17.9518 20.3035 17.2507C20.3035 16.7301 20.337 16.6086 20.5628 16.3125C21.0233 15.7089 21.807 15.4878 22.484 15.7707ZM38.4962 23.6589L38.4701 24.4009H21.8773H5.28453L5.25845 23.6589L5.23228 22.917H21.8773H38.5223L38.4962 23.6589ZM9.46645 32.5849V39.3749H8.38725H7.30804V32.5849V25.7949H8.38725H9.46645V32.5849ZM12.7041 32.6298V39.4648H11.7598H10.8155V32.6298V25.7949H11.7598H12.7041V32.6298ZM16.2115 29.8297C16.2115 33.7756 16.2156 33.8698 16.3979 34.1016C16.6315 34.3986 17.1128 34.4265 17.3806 34.1587C17.5552 33.9841 17.5605 33.859 17.5605 29.8869V25.7949H18.5048H19.4491V32.6298V39.4648H18.5048H17.5605V38.0259C17.5605 36.7068 17.5455 36.5719 17.3806 36.407C17.1128 36.1392 16.6315 36.1672 16.3979 36.4642C16.2283 36.6797 16.2115 36.8216 16.2115 38.038V39.3749H15.1323H14.0531V32.5849V25.7949H15.1323H16.2115V29.8297ZM22.9565 32.5849V39.3749H21.8773H20.7981V32.5849V25.7949H21.8773H22.9565V32.5849ZM26.1941 32.6298V39.4648H25.2498H24.3055V32.6298V25.7949H25.2498H26.1941V32.6298ZM29.7015 32.5849V39.3749H28.6223H27.5431V32.5849V25.7949H28.6223H29.7015V32.5849ZM32.9392 32.6298V39.4648H31.9949H31.0506V32.6298V25.7949H31.9949H32.9392V32.6298ZM36.4466 32.5849V39.3749H35.3674H34.2882V32.5849V25.7949H35.3674H36.4466V32.5849ZM38.4605 40.9561C38.4905 41.0343 38.515 41.4776 38.515 41.9411V42.784L36.1411 42.8106C33.9542 42.8352 33.7522 42.8508 33.578 43.0086C33.4492 43.1253 33.3888 43.2887 33.3888 43.5206C33.3888 44.1466 33.3579 44.1413 37.0962 44.1413H40.4037V45.4454V46.7494H21.8773H3.35096V45.4454V44.1413H17.2457C31.0206 44.1413 31.142 44.1398 31.3204 43.9615C31.5627 43.7191 31.558 43.2322 31.3109 43.0086C31.1269 42.8421 30.7628 42.8367 18.1806 42.8139L5.23957 42.7905V41.8622C5.23957 41.3515 5.26655 40.9067 5.29955 40.8738C5.33247 40.8408 12.7949 40.8138 21.8827 40.8138C36.8667 40.8138 38.411 40.827 38.4605 40.9561Z"/>
</mask>
<path fill-rule="evenodd" clip-rule="evenodd" d="M21.4917 2.18006C21.4033 2.24706 21.292 2.43781 21.2444 2.60374C21.1954 2.77453 21.1561 4.54541 21.154 6.68332L21.15 10.4612L11.9607 15.8572C6.90649 18.825 2.65892 21.3614 2.5215 21.4936C2.17157 21.8305 2.17678 22.2963 2.53463 22.6541C2.76747 22.8869 2.85992 22.917 3.34403 22.917H3.89056L3.89074 23.8388C3.89092 25.2835 4.17673 25.6716 5.31089 25.7666L5.95904 25.8209V32.6308V39.4406L5.32132 39.4863C4.14453 39.5705 3.89092 39.9512 3.89074 41.6334L3.89056 42.7677L3.2952 42.8155C2.65811 42.8666 2.31303 43.0466 2.11572 43.4305C2.0382 43.5814 2.0042 44.211 2.0033 45.5142L2.00195 47.3816L2.3098 47.7176L2.61764 48.0535H21.8773H41.137L41.4448 47.7176L41.7527 47.3816L41.7513 45.5142C41.7504 44.211 41.7164 43.5814 41.6389 43.4305C41.4428 43.0489 41.096 42.8666 40.4709 42.8164L39.8871 42.7696L39.8459 41.6283C39.7834 39.8977 39.4769 39.4652 38.3127 39.465L37.7956 39.4648V32.6429V25.8209L38.4437 25.7666C39.5779 25.6716 39.8637 25.2835 39.8639 23.8388L39.8641 22.917H40.4106C40.8947 22.917 40.9871 22.8869 41.22 22.6541C41.5521 22.322 41.5769 21.8617 41.2805 21.5346C40.9932 21.2177 32.6766 16.3518 32.4221 16.3518C32.1472 16.3518 31.77 16.7339 31.77 17.0123C31.77 17.1327 31.8409 17.315 31.9274 17.4174C32.0451 17.5567 36.2041 20.0573 38.65 21.4594C38.7857 21.5372 34.6701 21.5632 21.8812 21.5653L4.93253 21.568L7.58171 20.0086C9.03873 19.151 12.8525 16.9039 16.0568 15.0151L21.8828 11.581L25.6994 13.8315C28.0247 15.2026 29.6066 16.082 29.7478 16.082C30.0002 16.082 30.421 15.7218 30.421 15.5058C30.421 15.1294 30.1685 14.9043 28.9056 14.1553C28.1809 13.7255 26.4752 12.718 25.1149 11.9164L22.6417 10.459L22.616 9.58323L22.5903 8.70745H23.7557H24.9211L24.9506 9.91931C24.9778 11.04 24.9954 11.1465 25.1849 11.3358L25.3898 11.5404H29.6665H33.9432L34.2056 11.2466L34.468 10.9529V8.58793V6.22294L34.1926 5.95881L33.9171 5.69467L32.3939 5.66625L30.8707 5.63784V4.69659C30.8707 3.71829 30.7662 3.29057 30.4662 3.04163C30.3292 2.92795 29.695 2.89962 26.4342 2.86176L22.5647 2.81679L22.4962 2.56093C22.3733 2.10065 21.8553 1.90424 21.4917 2.18006ZM29.5217 5.78461V7.35845H26.0592H22.5968V5.78461V4.21077H26.0592H29.5217V5.78461ZM33.119 8.61752V10.2363H30.5859C29.1927 10.2363 28.0824 10.2059 28.1185 10.1689C28.1547 10.1318 28.7382 9.75356 29.4151 9.32836C30.1018 8.89703 30.695 8.45978 30.7569 8.33909C30.8181 8.22019 30.8686 7.86999 30.8693 7.5608L30.8707 6.99871H31.9949H33.119V8.61752ZM27.6851 8.78606C27.6287 8.87725 26.4385 9.60679 26.3461 9.60679C26.2664 9.60679 26.2645 8.84685 26.344 8.76744C26.4343 8.67715 27.7412 8.69531 27.6851 8.78606ZM21.0071 14.4075C20.1423 14.6902 19.4056 15.3955 19.0835 16.2487C18.8301 16.9204 18.8734 17.899 19.1858 18.5552C19.4567 19.1245 20.0008 19.6715 20.5756 19.9525C21.1677 20.242 22.2088 20.3025 22.8624 20.0855C24.3839 19.5801 25.2407 17.7583 24.6692 16.2437C24.4179 15.5779 23.802 14.8978 23.1701 14.5887C22.5729 14.2966 21.5964 14.2147 21.0071 14.4075ZM22.484 15.7707C22.9112 15.9492 23.1154 16.1384 23.3258 16.5506C23.7269 17.3363 23.3923 18.318 22.5788 18.7431C22.2156 18.9328 21.4678 18.904 21.0786 18.6853C20.5345 18.3796 20.3035 17.9518 20.3035 17.2507C20.3035 16.7301 20.337 16.6086 20.5628 16.3125C21.0233 15.7089 21.807 15.4878 22.484 15.7707ZM38.4962 23.6589L38.4701 24.4009H21.8773H5.28453L5.25845 23.6589L5.23228 22.917H21.8773H38.5223L38.4962 23.6589ZM9.46645 32.5849V39.3749H8.38725H7.30804V32.5849V25.7949H8.38725H9.46645V32.5849ZM12.7041 32.6298V39.4648H11.7598H10.8155V32.6298V25.7949H11.7598H12.7041V32.6298ZM16.2115 29.8297C16.2115 33.7756 16.2156 33.8698 16.3979 34.1016C16.6315 34.3986 17.1128 34.4265 17.3806 34.1587C17.5552 33.9841 17.5605 33.859 17.5605 29.8869V25.7949H18.5048H19.4491V32.6298V39.4648H18.5048H17.5605V38.0259C17.5605 36.7068 17.5455 36.5719 17.3806 36.407C17.1128 36.1392 16.6315 36.1672 16.3979 36.4642C16.2283 36.6797 16.2115 36.8216 16.2115 38.038V39.3749H15.1323H14.0531V32.5849V25.7949H15.1323H16.2115V29.8297ZM22.9565 32.5849V39.3749H21.8773H20.7981V32.5849V25.7949H21.8773H22.9565V32.5849ZM26.1941 32.6298V39.4648H25.2498H24.3055V32.6298V25.7949H25.2498H26.1941V32.6298ZM29.7015 32.5849V39.3749H28.6223H27.5431V32.5849V25.7949H28.6223H29.7015V32.5849ZM32.9392 32.6298V39.4648H31.9949H31.0506V32.6298V25.7949H31.9949H32.9392V32.6298ZM36.4466 32.5849V39.3749H35.3674H34.2882V32.5849V25.7949H35.3674H36.4466V32.5849ZM38.4605 40.9561C38.4905 41.0343 38.515 41.4776 38.515 41.9411V42.784L36.1411 42.8106C33.9542 42.8352 33.7522 42.8508 33.578 43.0086C33.4492 43.1253 33.3888 43.2887 33.3888 43.5206C33.3888 44.1466 33.3579 44.1413 37.0962 44.1413H40.4037V45.4454V46.7494H21.8773H3.35096V45.4454V44.1413H17.2457C31.0206 44.1413 31.142 44.1398 31.3204 43.9615C31.5627 43.7191 31.558 43.2322 31.3109 43.0086C31.1269 42.8421 30.7628 42.8367 18.1806 42.8139L5.23957 42.7905V41.8622C5.23957 41.3515 5.26655 40.9067 5.29955 40.8738C5.33247 40.8408 12.7949 40.8138 21.8827 40.8138C36.8667 40.8138 38.411 40.827 38.4605 40.9561Z" fill="#C3ADDE" stroke="white" mask="url(#path-2-inside-2_0_6)"/>
<defs>
<filter id="filter0_f_0_6" x="0.113345" y="0.164858" width="43.5279" height="49.7772" filterUnits="userSpaceOnUse" color-interpolation-filters="sRGB">
<feFlood flood-opacity="0" result="BackgroundImageFix"/>
<feBlend mode="normal" in="SourceGraphic" in2="BackgroundImageFix" result="shape"/>
<feGaussianBlur stdDeviation="0.944304" result="effect1_foregroundBlur_0_6"/>
</filter>
</defs>
</svg>
