<svg width="696" height="798" viewBox="0 0 696 798" fill="none" xmlns="http://www.w3.org/2000/svg">
<g filter="url(#filter0_f_2_132)">
<path d="M366.534 299L156 391.5V574.111L360.843 669L567 574.111V391.5L366.534 299Z" fill="#212358"/>
</g>
<path d="M339 737L339 1.19209e-05" stroke="url(#paint0_linear_2_132)"/>
<path d="M255 737L255 1.75238e-05" stroke="url(#paint1_linear_2_132)"/>
<path d="M168 737L168 1.75238e-05" stroke="url(#paint2_linear_2_132)"/>
<path d="M70 737L70 1.75238e-05" stroke="url(#paint3_linear_2_132)"/>
<path d="M429 737L429 1.75238e-05" stroke="url(#paint4_linear_2_132)"/>
<path d="M676.402 367L-0.000968575 367" stroke="url(#paint5_linear_2_132)"/>
<path d="M676.402 451L-0.000968575 451" stroke="url(#paint6_linear_2_132)"/>
<path d="M676.402 538L-0.000968575 538" stroke="url(#paint7_linear_2_132)"/>
<path d="M676.402 636L-0.000976562 636" stroke="url(#paint8_linear_2_132)"/>
<path d="M676.402 277L-0.000968575 277" stroke="url(#paint9_linear_2_132)"/>
<g filter="url(#filter1_b_2_132)">
<path d="M255.872 564.085L366.194 514.759C376.194 510.287 387.636 510.345 397.591 514.917L504.727 564.12C511.241 567.112 511.307 576.346 504.835 579.43L398.073 630.307C387.847 635.18 375.981 635.241 365.706 630.474L255.765 579.468C249.188 576.416 249.254 567.045 255.872 564.085Z" fill="#8C37A1"/>
<path d="M365.548 513.312L255.225 562.639C247.366 566.153 247.288 577.282 255.098 580.905L365.039 631.911C375.742 636.877 388.103 636.813 398.754 631.737L505.517 580.86C513.202 577.198 513.124 566.233 505.388 562.68L398.252 513.477C387.883 508.715 375.964 508.654 365.548 513.312Z" stroke="url(#paint10_linear_2_132)" stroke-width="3.16934"/>
</g>
<g filter="url(#filter2_b_2_132)">
<path d="M255.872 515.642L366.194 466.315C376.194 461.844 387.636 461.902 397.591 466.473L504.727 515.676C511.241 518.668 511.307 527.902 504.835 530.986L398.073 581.863C387.847 586.736 375.981 586.798 365.706 582.03L255.765 531.024C249.188 527.973 249.254 518.601 255.872 515.642Z" fill="#C9C9C9" fill-opacity="0.2"/>
<path d="M365.763 465.351L255.441 514.678C247.995 518.007 247.922 528.55 255.32 531.982L365.261 582.989C375.822 587.888 388.017 587.825 398.527 582.817L505.29 531.94C512.57 528.471 512.497 518.082 505.168 514.716L398.032 465.513C387.801 460.815 376.041 460.755 365.763 465.351Z" stroke="url(#paint11_linear_2_132)" stroke-opacity="0.7" stroke-width="2.11289"/>
</g>
<g filter="url(#filter3_b_2_132)">
<path d="M255.872 467.2L366.195 417.873C376.194 413.402 387.637 413.459 397.591 418.031L504.727 467.234C511.241 470.226 511.307 479.46 504.835 482.544L398.073 533.421C387.847 538.294 375.981 538.355 365.706 533.588L255.765 482.582C249.188 479.531 249.254 470.159 255.872 467.2Z" fill="#7A7A7A" fill-opacity="0.2"/>
<path d="M255.872 467.2L366.195 417.873C376.194 413.402 387.637 413.459 397.591 418.031L504.727 467.234C511.241 470.226 511.307 479.46 504.835 482.544L398.073 533.421C387.847 538.294 375.981 538.355 365.706 533.588L255.765 482.582C249.188 479.531 249.254 470.159 255.872 467.2Z" fill="url(#paint12_radial_2_132)" fill-opacity="0.2"/>
<path d="M365.763 416.908L255.441 466.235C247.995 469.564 247.922 480.108 255.32 483.54L365.261 534.546C375.822 539.446 388.017 539.383 398.527 534.375L505.29 483.498C512.57 480.028 512.497 469.64 505.168 466.274L398.032 417.071C387.801 412.372 376.041 412.313 365.763 416.908Z" stroke="url(#paint13_linear_2_132)" stroke-opacity="0.7" stroke-width="2.11289"/>
</g>
<g filter="url(#filter4_d_2_132)">
<ellipse cx="387.001" cy="399.519" rx="69.3641" ry="43.4547" fill="url(#paint14_linear_2_132)" fill-opacity="0.5" shape-rendering="crispEdges"/>
<path d="M455.989 399.519C455.989 411.343 448.338 422.103 435.849 429.927C423.365 437.748 406.096 442.597 387.001 442.597C367.906 442.597 350.637 437.748 338.153 429.927C325.664 422.103 318.013 411.343 318.013 399.519C318.013 387.696 325.664 376.935 338.153 369.111C350.637 361.29 367.906 356.441 387.001 356.441C406.096 356.441 423.365 361.29 435.849 369.111C448.338 376.935 455.989 387.696 455.989 399.519Z" stroke="url(#paint15_linear_2_132)" stroke-opacity="0.6" stroke-width="0.752865" shape-rendering="crispEdges"/>
</g>
<circle cx="386.999" cy="359.001" r="87.9994" fill="url(#paint16_radial_2_132)"/>
<ellipse cx="386.999" cy="373.548" rx="86.0341" ry="50.3316" fill="url(#paint17_linear_2_132)" fill-opacity="0.5"/>
<path d="M472.657 373.548C472.657 387.258 463.155 399.739 447.644 408.813C432.142 417.882 410.702 423.504 386.999 423.504C363.296 423.504 341.856 417.882 326.354 408.813C310.843 399.739 301.341 387.258 301.341 373.548C301.341 359.839 310.843 347.358 326.354 338.284C341.856 329.215 363.296 323.593 386.999 323.593C410.702 323.593 432.142 329.215 447.644 338.284C463.155 347.358 472.657 359.839 472.657 373.548Z" stroke="url(#paint18_linear_2_132)" stroke-opacity="0.6" stroke-width="0.752865"/>
<circle cx="386.999" cy="359" r="65.1829" fill="url(#paint19_radial_2_132)"/>
<circle cx="386.999" cy="359" r="65.1829" fill="url(#paint20_radial_2_132)"/>
<g filter="url(#filter5_d_2_132)">
<ellipse cx="386.999" cy="342.3" rx="85.159" ry="49.1677" fill="url(#paint21_linear_2_132)" fill-opacity="0.5" shape-rendering="crispEdges"/>
<path d="M471.782 342.3C471.782 355.686 462.381 367.877 447.027 376.741C431.683 385.6 410.461 391.092 386.999 391.092C363.537 391.092 342.314 385.6 326.971 376.741C311.617 367.877 302.216 355.686 302.216 342.3C302.216 328.915 311.617 316.724 326.971 307.86C342.314 299.001 363.537 293.509 386.999 293.509C410.461 293.509 431.683 299.001 447.027 307.86C462.381 316.724 471.782 328.915 471.782 342.3Z" stroke="url(#paint22_linear_2_132)" stroke-opacity="0.6" stroke-width="0.752865" shape-rendering="crispEdges"/>
</g>
<g filter="url(#filter6_d_2_132)">
<ellipse cx="386.999" cy="316.911" rx="66.0809" ry="42.713" fill="url(#paint23_linear_2_132)" fill-opacity="0.5" shape-rendering="crispEdges"/>
<path d="M452.703 316.911C452.703 328.536 445.414 339.111 433.521 346.798C421.632 354.482 405.185 359.248 386.999 359.248C368.813 359.248 352.366 354.482 340.477 346.798C328.584 339.111 321.294 328.536 321.294 316.911C321.294 305.287 328.584 294.712 340.477 287.025C352.366 279.34 368.813 274.575 386.999 274.575C405.185 274.575 421.632 279.34 433.521 287.025C445.414 294.712 452.703 305.287 452.703 316.911Z" stroke="url(#paint24_linear_2_132)" stroke-opacity="0.6" stroke-width="0.752865" shape-rendering="crispEdges"/>
</g>
<ellipse cx="387" cy="302.076" rx="41.1304" ry="27.8774" fill="url(#paint25_linear_2_132)" fill-opacity="0.5"/>
<path d="M427.754 302.076C427.754 309.612 423.247 316.478 415.872 321.476C408.499 326.474 398.292 329.577 387 329.577C375.707 329.577 365.5 326.474 358.127 321.476C350.752 316.478 346.246 309.612 346.246 302.076C346.246 294.54 350.752 287.674 358.127 282.675C365.5 277.678 375.707 274.575 387 274.575C398.292 274.575 408.499 277.678 415.872 282.675C423.247 287.674 427.754 294.54 427.754 302.076Z" stroke="url(#paint26_linear_2_132)" stroke-opacity="0.6" stroke-width="0.752865"/>
<ellipse cx="387" cy="292.56" rx="23.8125" ry="16.3845" fill="url(#paint27_linear_2_132)" fill-opacity="0.5"/>
<path d="M410.436 292.56C410.436 296.925 407.865 300.918 403.625 303.836C399.386 306.752 393.509 308.568 387 308.568C380.491 308.568 374.614 306.752 370.375 303.836C366.135 300.918 363.564 296.925 363.564 292.56C363.564 288.195 366.135 284.203 370.375 281.285C374.614 278.368 380.491 276.552 387 276.552C393.509 276.552 399.386 278.368 403.625 281.285C407.865 284.203 410.436 288.195 410.436 292.56Z" stroke="url(#paint28_linear_2_132)" stroke-opacity="0.6" stroke-width="0.752865"/>
<circle cx="386.999" cy="358.999" r="87.9994" fill="url(#paint29_radial_2_132)" fill-opacity="0.3"/>
<defs>
<filter id="filter0_f_2_132" x="27.2473" y="170.247" width="668.505" height="627.505" filterUnits="userSpaceOnUse" color-interpolation-filters="sRGB">
<feFlood flood-opacity="0" result="BackgroundImageFix"/>
<feBlend mode="normal" in="SourceGraphic" in2="BackgroundImageFix" result="shape"/>
<feGaussianBlur stdDeviation="64.3763" result="effect1_foregroundBlur_2_132"/>
</filter>
<filter id="filter1_b_2_132" x="213.895" y="474.47" width="332.732" height="196.511" filterUnits="userSpaceOnUse" color-interpolation-filters="sRGB">
<feFlood flood-opacity="0" result="BackgroundImageFix"/>
<feGaussianBlur in="BackgroundImageFix" stdDeviation="16.9031"/>
<feComposite in2="SourceAlpha" operator="in" result="effect1_backgroundBlur_2_132"/>
<feBlend mode="normal" in="SourceGraphic" in2="effect1_backgroundBlur_2_132" result="shape"/>
</filter>
<filter id="filter2_b_2_132" x="214.951" y="427.084" width="330.619" height="194.398" filterUnits="userSpaceOnUse" color-interpolation-filters="sRGB">
<feFlood flood-opacity="0" result="BackgroundImageFix"/>
<feGaussianBlur in="BackgroundImageFix" stdDeviation="16.9031"/>
<feComposite in2="SourceAlpha" operator="in" result="effect1_backgroundBlur_2_132"/>
<feBlend mode="normal" in="SourceGraphic" in2="effect1_backgroundBlur_2_132" result="shape"/>
</filter>
<filter id="filter3_b_2_132" x="214.951" y="378.641" width="330.619" height="194.398" filterUnits="userSpaceOnUse" color-interpolation-filters="sRGB">
<feFlood flood-opacity="0" result="BackgroundImageFix"/>
<feGaussianBlur in="BackgroundImageFix" stdDeviation="16.9031"/>
<feComposite in2="SourceAlpha" operator="in" result="effect1_backgroundBlur_2_132"/>
<feBlend mode="normal" in="SourceGraphic" in2="effect1_backgroundBlur_2_132" result="shape"/>
</filter>
<filter id="filter4_d_2_132" x="310.108" y="349.289" width="153.785" height="101.967" filterUnits="userSpaceOnUse" color-interpolation-filters="sRGB">
<feFlood flood-opacity="0" result="BackgroundImageFix"/>
<feColorMatrix in="SourceAlpha" type="matrix" values="0 0 0 0 0 0 0 0 0 0 0 0 0 0 0 0 0 0 127 0" result="hardAlpha"/>
<feOffset dy="0.752865"/>
<feGaussianBlur stdDeviation="3.76433"/>
<feComposite in2="hardAlpha" operator="out"/>
<feColorMatrix type="matrix" values="0 0 0 0 0.440043 0 0 0 0 0.20092 0 0 0 0 0.679167 0 0 0 0.3 0"/>
<feBlend mode="normal" in2="BackgroundImageFix" result="effect1_dropShadow_2_132"/>
<feBlend mode="normal" in="SourceGraphic" in2="effect1_dropShadow_2_132" result="shape"/>
</filter>
<filter id="filter5_d_2_132" x="298.076" y="290.121" width="177.847" height="105.864" filterUnits="userSpaceOnUse" color-interpolation-filters="sRGB">
<feFlood flood-opacity="0" result="BackgroundImageFix"/>
<feColorMatrix in="SourceAlpha" type="matrix" values="0 0 0 0 0 0 0 0 0 0 0 0 0 0 0 0 0 0 127 0" result="hardAlpha"/>
<feOffset dy="0.752865"/>
<feGaussianBlur stdDeviation="1.88216"/>
<feComposite in2="hardAlpha" operator="out"/>
<feColorMatrix type="matrix" values="0 0 0 0 0.369333 0 0 0 0 0.0916667 0 0 0 0 0.5 0 0 0 0.15 0"/>
<feBlend mode="normal" in2="BackgroundImageFix" result="effect1_dropShadow_2_132"/>
<feBlend mode="normal" in="SourceGraphic" in2="effect1_dropShadow_2_132" result="shape"/>
</filter>
<filter id="filter6_d_2_132" x="316.024" y="269.305" width="143.455" height="96.7189" filterUnits="userSpaceOnUse" color-interpolation-filters="sRGB">
<feFlood flood-opacity="0" result="BackgroundImageFix"/>
<feColorMatrix in="SourceAlpha" type="matrix" values="0 0 0 0 0 0 0 0 0 0 0 0 0 0 0 0 0 0 127 0" result="hardAlpha"/>
<feOffset dx="0.752865" dy="0.752865"/>
<feGaussianBlur stdDeviation="2.82324"/>
<feComposite in2="hardAlpha" operator="out"/>
<feColorMatrix type="matrix" values="0 0 0 0 0.440043 0 0 0 0 0.20092 0 0 0 0 0.679167 0 0 0 0.2 0"/>
<feBlend mode="normal" in2="BackgroundImageFix" result="effect1_dropShadow_2_132"/>
<feBlend mode="normal" in="SourceGraphic" in2="effect1_dropShadow_2_132" result="shape"/>
</filter>
<linearGradient id="paint0_linear_2_132" x1="338.5" y1="737" x2="338.5" y2="0" gradientUnits="userSpaceOnUse">
<stop offset="0.0348176" stop-color="#171643" stop-opacity="0"/>
<stop offset="0.291667" stop-color="#171643"/>
<stop offset="0.791667" stop-color="#171643" stop-opacity="0"/>
</linearGradient>
<linearGradient id="paint1_linear_2_132" x1="254.5" y1="737" x2="254.5" y2="0" gradientUnits="userSpaceOnUse">
<stop offset="0.0625" stop-color="#171643" stop-opacity="0.17"/>
<stop offset="0.416667" stop-color="#171643"/>
<stop offset="0.786458" stop-color="#171643" stop-opacity="0"/>
</linearGradient>
<linearGradient id="paint2_linear_2_132" x1="167.5" y1="737" x2="167.5" y2="0" gradientUnits="userSpaceOnUse">
<stop offset="0.0625" stop-color="#171643" stop-opacity="0.17"/>
<stop offset="0.416667" stop-color="#171643"/>
<stop offset="0.786458" stop-color="#171643" stop-opacity="0"/>
</linearGradient>
<linearGradient id="paint3_linear_2_132" x1="69.5" y1="737" x2="69.5" y2="0" gradientUnits="userSpaceOnUse">
<stop offset="0.0625" stop-color="#171643" stop-opacity="0.17"/>
<stop offset="0.416667" stop-color="#171643"/>
<stop offset="0.786458" stop-color="#171643" stop-opacity="0"/>
</linearGradient>
<linearGradient id="paint4_linear_2_132" x1="428.5" y1="737" x2="428.5" y2="0" gradientUnits="userSpaceOnUse">
<stop offset="0.0625" stop-color="#171643" stop-opacity="0.17"/>
<stop offset="0.416667" stop-color="#171643"/>
<stop offset="0.786458" stop-color="#171643" stop-opacity="0"/>
</linearGradient>
<linearGradient id="paint5_linear_2_132" x1="676.402" y1="367.5" x2="-0.000976562" y2="367.5" gradientUnits="userSpaceOnUse">
<stop stop-color="#171643" stop-opacity="0.17"/>
<stop offset="0.161458" stop-color="#171643"/>
<stop offset="0.890625" stop-color="#171643" stop-opacity="0.964521"/>
<stop offset="0.921875" stop-color="#171643" stop-opacity="0.26"/>
</linearGradient>
<linearGradient id="paint6_linear_2_132" x1="676.402" y1="451.5" x2="-0.000976562" y2="451.5" gradientUnits="userSpaceOnUse">
<stop stop-color="#171643" stop-opacity="0.17"/>
<stop offset="0.161458" stop-color="#171643"/>
<stop offset="0.890625" stop-color="#171643" stop-opacity="0.964521"/>
<stop offset="0.921875" stop-color="#171643" stop-opacity="0.26"/>
</linearGradient>
<linearGradient id="paint7_linear_2_132" x1="676.402" y1="538.5" x2="-0.000976562" y2="538.5" gradientUnits="userSpaceOnUse">
<stop stop-color="#171643" stop-opacity="0.17"/>
<stop offset="0.161458" stop-color="#171643"/>
<stop offset="0.890625" stop-color="#171643" stop-opacity="0.964521"/>
<stop offset="0.921875" stop-color="#171643" stop-opacity="0.26"/>
</linearGradient>
<linearGradient id="paint8_linear_2_132" x1="676.402" y1="636.5" x2="-0.000976562" y2="636.5" gradientUnits="userSpaceOnUse">
<stop stop-color="#171643" stop-opacity="0.17"/>
<stop offset="0.161458" stop-color="#171643"/>
<stop offset="0.890625" stop-color="#171643" stop-opacity="0.964521"/>
<stop offset="0.921875" stop-color="#171643" stop-opacity="0.26"/>
</linearGradient>
<linearGradient id="paint9_linear_2_132" x1="676.402" y1="277.5" x2="-0.000976562" y2="277.5" gradientUnits="userSpaceOnUse">
<stop stop-color="#171643" stop-opacity="0.17"/>
<stop offset="0.161458" stop-color="#171643"/>
<stop offset="0.890625" stop-color="#171643" stop-opacity="0.964521"/>
<stop offset="0.921875" stop-color="#171643" stop-opacity="0.26"/>
</linearGradient>
<linearGradient id="paint10_linear_2_132" x1="380.038" y1="572.746" x2="380.038" y2="638" gradientUnits="userSpaceOnUse">
<stop stop-color="#8C37A1" stop-opacity="0"/>
<stop offset="1" stop-color="#8C37A1"/>
</linearGradient>
<linearGradient id="paint11_linear_2_132" x1="380.038" y1="524.302" x2="380.038" y2="589.557" gradientUnits="userSpaceOnUse">
<stop stop-color="#A6A6A6" stop-opacity="0"/>
<stop offset="1" stop-color="white"/>
</linearGradient>
<radialGradient id="paint12_radial_2_132" cx="0" cy="0" r="1" gradientUnits="userSpaceOnUse" gradientTransform="translate(380.204 476.387) rotate(90.1466) scale(64.7275 140.215)">
<stop offset="0.189748"/>
<stop offset="0.325465" stop-opacity="0"/>
</radialGradient>
<linearGradient id="paint13_linear_2_132" x1="380.038" y1="475.86" x2="380.038" y2="541.114" gradientUnits="userSpaceOnUse">
<stop stop-color="#A6A6A6" stop-opacity="0"/>
<stop offset="1" stop-color="white"/>
</linearGradient>
<linearGradient id="paint14_linear_2_132" x1="387.001" y1="356.064" x2="387.001" y2="442.974" gradientUnits="userSpaceOnUse">
<stop stop-color="#13154D"/>
<stop offset="1" stop-color="#8E92EE" stop-opacity="0"/>
</linearGradient>
<linearGradient id="paint15_linear_2_132" x1="421.452" y1="404.998" x2="425.377" y2="448.836" gradientUnits="userSpaceOnUse">
<stop stop-color="white" stop-opacity="0"/>
<stop offset="1" stop-color="white"/>
</linearGradient>
<radialGradient id="paint16_radial_2_132" cx="0" cy="0" r="1" gradientUnits="userSpaceOnUse" gradientTransform="translate(299 391.012) rotate(-19.6638) scale(186.898)">
<stop offset="0.249306" stop-color="white"/>
<stop offset="0.48315" stop-color="#FF8FED" stop-opacity="0.5"/>
<stop offset="0.627037" stop-color="#220C7A" stop-opacity="0.5"/>
</radialGradient>
<linearGradient id="paint17_linear_2_132" x1="307.986" y1="384.245" x2="471.052" y2="365.84" gradientUnits="userSpaceOnUse">
<stop stop-color="white"/>
<stop offset="1" stop-color="#12178E" stop-opacity="0.4"/>
</linearGradient>
<linearGradient id="paint18_linear_2_132" x1="400.659" y1="445.211" x2="374.628" y2="383.107" gradientUnits="userSpaceOnUse">
<stop offset="0.0011346" stop-color="white"/>
<stop offset="1" stop-color="white" stop-opacity="0"/>
</linearGradient>
<radialGradient id="paint19_radial_2_132" cx="0" cy="0" r="1" gradientUnits="userSpaceOnUse" gradientTransform="translate(337.698 392.1) rotate(-14.8494) scale(129.155)">
<stop offset="0.239373" stop-color="#BDBDBD"/>
<stop offset="0.410099" stop-color="#9A75A7"/>
<stop offset="0.67492" stop-color="#595CAA"/>
<stop offset="0.861176" stop-color="#D9A8FF"/>
<stop offset="1" stop-color="#C2C2C2"/>
</radialGradient>
<radialGradient id="paint20_radial_2_132" cx="0" cy="0" r="1" gradientUnits="userSpaceOnUse" gradientTransform="translate(448.753 409.383) rotate(-121.724) scale(74.2649)">
<stop stop-color="#3F52FF"/>
<stop offset="1" stop-color="#3F52FF" stop-opacity="0"/>
</radialGradient>
<linearGradient id="paint21_linear_2_132" x1="303.674" y1="338.912" x2="472.158" y2="344.146" gradientUnits="userSpaceOnUse">
<stop stop-color="white"/>
<stop offset="1" stop-color="#5653FF" stop-opacity="0.2"/>
</linearGradient>
<linearGradient id="paint22_linear_2_132" x1="375.785" y1="426.182" x2="370.49" y2="345.98" gradientUnits="userSpaceOnUse">
<stop stop-color="white"/>
<stop offset="1" stop-color="white" stop-opacity="0"/>
</linearGradient>
<linearGradient id="paint23_linear_2_132" x1="386.999" y1="274.198" x2="386.999" y2="359.624" gradientUnits="userSpaceOnUse">
<stop stop-color="#13154D" stop-opacity="0.5"/>
<stop offset="1" stop-color="#8E92EE" stop-opacity="0"/>
</linearGradient>
<linearGradient id="paint24_linear_2_132" x1="398.549" y1="378.17" x2="407.314" y2="283.708" gradientUnits="userSpaceOnUse">
<stop stop-color="white"/>
<stop offset="1" stop-color="white" stop-opacity="0"/>
</linearGradient>
<linearGradient id="paint25_linear_2_132" x1="387" y1="274.198" x2="387" y2="329.953" gradientUnits="userSpaceOnUse">
<stop stop-color="#13154D"/>
<stop offset="1" stop-color="#8E92EE" stop-opacity="0"/>
</linearGradient>
<linearGradient id="paint26_linear_2_132" x1="403.456" y1="370.973" x2="387" y2="274.198" gradientUnits="userSpaceOnUse">
<stop stop-color="white"/>
<stop offset="1" stop-color="white" stop-opacity="0"/>
</linearGradient>
<linearGradient id="paint27_linear_2_132" x1="387" y1="276.176" x2="387" y2="308.945" gradientUnits="userSpaceOnUse">
<stop stop-color="#13154D"/>
<stop offset="1" stop-color="#8E92EE" stop-opacity="0"/>
</linearGradient>
<linearGradient id="paint28_linear_2_132" x1="399.858" y1="343.494" x2="387" y2="276.176" gradientUnits="userSpaceOnUse">
<stop stop-color="white"/>
<stop offset="1" stop-color="white" stop-opacity="0"/>
</linearGradient>
<radialGradient id="paint29_radial_2_132" cx="0" cy="0" r="1" gradientUnits="userSpaceOnUse" gradientTransform="translate(299 391.011) rotate(-19.6638) scale(186.898)">
<stop offset="0.249306" stop-color="#D0CFFF"/>
<stop offset="0.48315" stop-color="#988FFF" stop-opacity="0.5"/>
<stop offset="0.627037" stop-color="#220C7A" stop-opacity="0"/>
</radialGradient>
</defs>
</svg>
