<svg width="52" height="52" viewBox="0 0 52 52" fill="none" xmlns="http://www.w3.org/2000/svg">
<g filter="url(#filter0_f_1_2)">
<mask id="path-1-inside-1_1_2" fill="white">
<path fill-rule="evenodd" clip-rule="evenodd" d="M24.3075 4.0212C23.0464 4.11927 21.2618 4.43819 20.039 4.78412C15.8907 5.95754 12.2827 8.24571 9.39678 11.5331C6.5294 14.7994 4.74894 18.7527 4.1475 23.1887C3.98637 24.3771 3.94772 26.7869 4.06999 28.0192C4.51035 32.4562 6.08679 36.3197 8.89167 39.836C9.59587 40.7188 11.2866 42.4037 12.193 43.1259C15.0747 45.422 18.2798 46.9083 21.8417 47.6003C24.4383 48.1048 27.487 48.1065 30.1284 47.6051C33.3268 46.998 36.5033 45.5994 39.115 43.6482C43.555 40.3312 46.6045 35.4807 47.6236 30.1142C48.0495 27.8721 48.1155 25.3415 47.8092 23.0085C47.2968 19.1071 45.6875 15.3731 43.1435 12.1831C42.4057 11.2579 40.731 9.58281 39.7991 8.83779C39.0145 8.21056 37.552 7.21838 36.7518 6.7703C34.0938 5.28214 31.1674 4.37072 28.0657 4.06504C27.3163 3.99119 25.0358 3.96461 24.3075 4.0212ZM27.2289 5.93922C32.8472 6.21162 38.3117 9.08736 41.8431 13.6301C44.2005 16.6627 45.598 20.1666 45.9897 24.0267C46.0816 24.9318 46.0938 26.7743 46.0141 27.6977C45.7708 30.5169 44.8677 33.4524 43.5083 35.8435C41.7021 39.0205 39.037 41.685 35.8592 43.4908C33.8704 44.6209 31.3555 45.4871 29.0526 45.8351C27.9937 45.9951 27.181 46.0515 25.9424 46.051C16.8895 46.0469 8.99095 40.0036 6.59581 31.2486C5.89531 28.6879 5.7241 25.7734 6.11343 23.0353C7.01489 16.6951 11.0705 11.0345 16.8029 8.11565C18.9832 7.00546 21.0983 6.34897 23.4766 6.04415C24.0934 5.9651 26.04 5.86542 26.398 5.89452C26.4718 5.90052 26.8456 5.92062 27.2289 5.93922ZM35.9128 13.5826C32.5445 13.8371 29.3168 15.0945 26.3176 17.3206C25.2251 18.1315 24.3715 18.9011 22.7582 20.5299L21.1525 22.151L20.7333 22.1516C20.5027 22.1519 20.0245 22.1769 19.6707 22.2073C16.9539 22.4399 14.8576 23.2621 12.8369 24.8875C12.5277 25.1362 11.6955 25.9116 10.9876 26.6106L9.7004 27.8814L14.0021 27.8833C16.368 27.8844 18.3038 27.9028 18.3038 27.9244C18.3038 27.9459 18.093 28.5972 17.8354 29.3718L17.367 30.7802L19.2759 32.6887L21.1848 34.5971L22.5757 34.1351C23.3406 33.881 23.9949 33.6731 24.0298 33.6731C24.0779 33.6731 24.0933 34.6969 24.0939 37.9469L24.0948 42.2208L25.4768 40.8275C26.2369 40.0611 27.017 39.2291 27.2104 38.9786C28.9009 36.7883 29.6736 34.5753 29.8111 31.5303C29.845 30.7788 29.8505 30.7507 29.9844 30.6461C30.6622 30.1161 32.4536 28.2938 33.5937 26.9742C35.098 25.2332 36.3606 23.261 37.145 21.4268C37.7243 20.0723 38.1481 18.6034 38.3506 17.2475C38.4786 16.3902 38.5464 14.815 38.4884 14.0454L38.4489 13.5229L37.4757 13.5305C36.9404 13.5346 36.2371 13.5581 35.9128 13.5826ZM36.5578 15.9479C36.3076 19.3555 34.7247 22.7789 31.9302 25.956C30.9182 27.1066 29.3044 28.7172 28.6134 29.266L27.899 29.8336L27.899 30.7098C27.899 33.1994 27.3879 35.2265 26.3488 36.8582C26.1999 37.0921 26.0596 37.3019 26.0371 37.3245C26.0145 37.3471 26.0022 35.9318 26.0099 34.1795C26.0175 32.4273 26.0055 30.9935 25.9831 30.9935C25.9607 30.9935 24.9927 31.31 23.8319 31.6969L21.7214 32.4002L20.6484 31.3276L19.5755 30.2549L20.28 28.1457C20.6674 26.9856 20.9843 26.0185 20.9842 25.9966C20.9841 25.9748 19.5549 25.9506 17.8081 25.943L14.6322 25.9292L15.0341 25.6704C16.7183 24.5858 18.6733 24.0825 21.2084 24.0808L22.0493 24.0803L22.7429 23.3166C23.6744 22.2911 25.805 20.198 26.5226 19.6037C29.3321 17.2765 32.4957 15.8583 35.5375 15.5625C35.8618 15.531 36.1995 15.4969 36.288 15.4867C36.3764 15.4766 36.4815 15.4646 36.5215 15.4602C36.5803 15.4537 36.5873 15.5466 36.5578 15.9479ZM29.3856 20.2768C28.1897 20.5778 27.5709 21.8881 28.1088 22.9805C28.5297 23.8353 29.4632 24.2506 30.3553 23.9797C30.8131 23.8407 31.1295 23.6098 31.3956 23.2206C31.9167 22.4584 31.8309 21.4662 31.1883 20.8238C31.0313 20.6668 30.7749 20.4798 30.6187 20.4083C30.296 20.2606 29.7019 20.1972 29.3856 20.2768ZM15.6906 32.9101C14.3109 34.2917 13.5398 36.1405 13.534 38.0809C13.5332 38.338 13.5486 38.3895 13.6269 38.3918C13.6785 38.3933 13.8208 38.4073 13.9432 38.423C14.2566 38.463 15.3031 38.3505 15.8047 38.2228C17.0724 37.9001 18.1774 37.2452 19.1019 36.2689L19.5459 35.7999L19.1499 35.404L18.7538 35.0081L18.3461 35.2017C17.7959 35.4629 16.9222 35.6152 16.5483 35.515C16.4378 35.4854 16.4277 35.4512 16.4277 35.1081C16.4277 34.6412 16.5384 34.1964 16.7889 33.6573L16.9829 33.2395L16.613 32.8668C16.4094 32.6618 16.2122 32.4941 16.1745 32.4941C16.1369 32.4941 15.9191 32.6813 15.6906 32.9101Z"/>
</mask>
<path fill-rule="evenodd" clip-rule="evenodd" d="M24.3075 4.0212C23.0464 4.11927 21.2618 4.43819 20.039 4.78412C15.8907 5.95754 12.2827 8.24571 9.39678 11.5331C6.5294 14.7994 4.74894 18.7527 4.1475 23.1887C3.98637 24.3771 3.94772 26.7869 4.06999 28.0192C4.51035 32.4562 6.08679 36.3197 8.89167 39.836C9.59587 40.7188 11.2866 42.4037 12.193 43.1259C15.0747 45.422 18.2798 46.9083 21.8417 47.6003C24.4383 48.1048 27.487 48.1065 30.1284 47.6051C33.3268 46.998 36.5033 45.5994 39.115 43.6482C43.555 40.3312 46.6045 35.4807 47.6236 30.1142C48.0495 27.8721 48.1155 25.3415 47.8092 23.0085C47.2968 19.1071 45.6875 15.3731 43.1435 12.1831C42.4057 11.2579 40.731 9.58281 39.7991 8.83779C39.0145 8.21056 37.552 7.21838 36.7518 6.7703C34.0938 5.28214 31.1674 4.37072 28.0657 4.06504C27.3163 3.99119 25.0358 3.96461 24.3075 4.0212ZM27.2289 5.93922C32.8472 6.21162 38.3117 9.08736 41.8431 13.6301C44.2005 16.6627 45.598 20.1666 45.9897 24.0267C46.0816 24.9318 46.0938 26.7743 46.0141 27.6977C45.7708 30.5169 44.8677 33.4524 43.5083 35.8435C41.7021 39.0205 39.037 41.685 35.8592 43.4908C33.8704 44.6209 31.3555 45.4871 29.0526 45.8351C27.9937 45.9951 27.181 46.0515 25.9424 46.051C16.8895 46.0469 8.99095 40.0036 6.59581 31.2486C5.89531 28.6879 5.7241 25.7734 6.11343 23.0353C7.01489 16.6951 11.0705 11.0345 16.8029 8.11565C18.9832 7.00546 21.0983 6.34897 23.4766 6.04415C24.0934 5.9651 26.04 5.86542 26.398 5.89452C26.4718 5.90052 26.8456 5.92062 27.2289 5.93922ZM35.9128 13.5826C32.5445 13.8371 29.3168 15.0945 26.3176 17.3206C25.2251 18.1315 24.3715 18.9011 22.7582 20.5299L21.1525 22.151L20.7333 22.1516C20.5027 22.1519 20.0245 22.1769 19.6707 22.2073C16.9539 22.4399 14.8576 23.2621 12.8369 24.8875C12.5277 25.1362 11.6955 25.9116 10.9876 26.6106L9.7004 27.8814L14.0021 27.8833C16.368 27.8844 18.3038 27.9028 18.3038 27.9244C18.3038 27.9459 18.093 28.5972 17.8354 29.3718L17.367 30.7802L19.2759 32.6887L21.1848 34.5971L22.5757 34.1351C23.3406 33.881 23.9949 33.6731 24.0298 33.6731C24.0779 33.6731 24.0933 34.6969 24.0939 37.9469L24.0948 42.2208L25.4768 40.8275C26.2369 40.0611 27.017 39.2291 27.2104 38.9786C28.9009 36.7883 29.6736 34.5753 29.8111 31.5303C29.845 30.7788 29.8505 30.7507 29.9844 30.6461C30.6622 30.1161 32.4536 28.2938 33.5937 26.9742C35.098 25.2332 36.3606 23.261 37.145 21.4268C37.7243 20.0723 38.1481 18.6034 38.3506 17.2475C38.4786 16.3902 38.5464 14.815 38.4884 14.0454L38.4489 13.5229L37.4757 13.5305C36.9404 13.5346 36.2371 13.5581 35.9128 13.5826ZM36.5578 15.9479C36.3076 19.3555 34.7247 22.7789 31.9302 25.956C30.9182 27.1066 29.3044 28.7172 28.6134 29.266L27.899 29.8336L27.899 30.7098C27.899 33.1994 27.3879 35.2265 26.3488 36.8582C26.1999 37.0921 26.0596 37.3019 26.0371 37.3245C26.0145 37.3471 26.0022 35.9318 26.0099 34.1795C26.0175 32.4273 26.0055 30.9935 25.9831 30.9935C25.9607 30.9935 24.9927 31.31 23.8319 31.6969L21.7214 32.4002L20.6484 31.3276L19.5755 30.2549L20.28 28.1457C20.6674 26.9856 20.9843 26.0185 20.9842 25.9966C20.9841 25.9748 19.5549 25.9506 17.8081 25.943L14.6322 25.9292L15.0341 25.6704C16.7183 24.5858 18.6733 24.0825 21.2084 24.0808L22.0493 24.0803L22.7429 23.3166C23.6744 22.2911 25.805 20.198 26.5226 19.6037C29.3321 17.2765 32.4957 15.8583 35.5375 15.5625C35.8618 15.531 36.1995 15.4969 36.288 15.4867C36.3764 15.4766 36.4815 15.4646 36.5215 15.4602C36.5803 15.4537 36.5873 15.5466 36.5578 15.9479ZM29.3856 20.2768C28.1897 20.5778 27.5709 21.8881 28.1088 22.9805C28.5297 23.8353 29.4632 24.2506 30.3553 23.9797C30.8131 23.8407 31.1295 23.6098 31.3956 23.2206C31.9167 22.4584 31.8309 21.4662 31.1883 20.8238C31.0313 20.6668 30.7749 20.4798 30.6187 20.4083C30.296 20.2606 29.7019 20.1972 29.3856 20.2768ZM15.6906 32.9101C14.3109 34.2917 13.5398 36.1405 13.534 38.0809C13.5332 38.338 13.5486 38.3895 13.6269 38.3918C13.6785 38.3933 13.8208 38.4073 13.9432 38.423C14.2566 38.463 15.3031 38.3505 15.8047 38.2228C17.0724 37.9001 18.1774 37.2452 19.1019 36.2689L19.5459 35.7999L19.1499 35.404L18.7538 35.0081L18.3461 35.2017C17.7959 35.4629 16.9222 35.6152 16.5483 35.515C16.4378 35.4854 16.4277 35.4512 16.4277 35.1081C16.4277 34.6412 16.5384 34.1964 16.7889 33.6573L16.9829 33.2395L16.613 32.8668C16.4094 32.6618 16.2122 32.4941 16.1745 32.4941C16.1369 32.4941 15.9191 32.6813 15.6906 32.9101Z" fill="#C3ADDE"/>
<path fill-rule="evenodd" clip-rule="evenodd" d="M24.3075 4.0212C23.0464 4.11927 21.2618 4.43819 20.039 4.78412C15.8907 5.95754 12.2827 8.24571 9.39678 11.5331C6.5294 14.7994 4.74894 18.7527 4.1475 23.1887C3.98637 24.3771 3.94772 26.7869 4.06999 28.0192C4.51035 32.4562 6.08679 36.3197 8.89167 39.836C9.59587 40.7188 11.2866 42.4037 12.193 43.1259C15.0747 45.422 18.2798 46.9083 21.8417 47.6003C24.4383 48.1048 27.487 48.1065 30.1284 47.6051C33.3268 46.998 36.5033 45.5994 39.115 43.6482C43.555 40.3312 46.6045 35.4807 47.6236 30.1142C48.0495 27.8721 48.1155 25.3415 47.8092 23.0085C47.2968 19.1071 45.6875 15.3731 43.1435 12.1831C42.4057 11.2579 40.731 9.58281 39.7991 8.83779C39.0145 8.21056 37.552 7.21838 36.7518 6.7703C34.0938 5.28214 31.1674 4.37072 28.0657 4.06504C27.3163 3.99119 25.0358 3.96461 24.3075 4.0212ZM27.2289 5.93922C32.8472 6.21162 38.3117 9.08736 41.8431 13.6301C44.2005 16.6627 45.598 20.1666 45.9897 24.0267C46.0816 24.9318 46.0938 26.7743 46.0141 27.6977C45.7708 30.5169 44.8677 33.4524 43.5083 35.8435C41.7021 39.0205 39.037 41.685 35.8592 43.4908C33.8704 44.6209 31.3555 45.4871 29.0526 45.8351C27.9937 45.9951 27.181 46.0515 25.9424 46.051C16.8895 46.0469 8.99095 40.0036 6.59581 31.2486C5.89531 28.6879 5.7241 25.7734 6.11343 23.0353C7.01489 16.6951 11.0705 11.0345 16.8029 8.11565C18.9832 7.00546 21.0983 6.34897 23.4766 6.04415C24.0934 5.9651 26.04 5.86542 26.398 5.89452C26.4718 5.90052 26.8456 5.92062 27.2289 5.93922ZM35.9128 13.5826C32.5445 13.8371 29.3168 15.0945 26.3176 17.3206C25.2251 18.1315 24.3715 18.9011 22.7582 20.5299L21.1525 22.151L20.7333 22.1516C20.5027 22.1519 20.0245 22.1769 19.6707 22.2073C16.9539 22.4399 14.8576 23.2621 12.8369 24.8875C12.5277 25.1362 11.6955 25.9116 10.9876 26.6106L9.7004 27.8814L14.0021 27.8833C16.368 27.8844 18.3038 27.9028 18.3038 27.9244C18.3038 27.9459 18.093 28.5972 17.8354 29.3718L17.367 30.7802L19.2759 32.6887L21.1848 34.5971L22.5757 34.1351C23.3406 33.881 23.9949 33.6731 24.0298 33.6731C24.0779 33.6731 24.0933 34.6969 24.0939 37.9469L24.0948 42.2208L25.4768 40.8275C26.2369 40.0611 27.017 39.2291 27.2104 38.9786C28.9009 36.7883 29.6736 34.5753 29.8111 31.5303C29.845 30.7788 29.8505 30.7507 29.9844 30.6461C30.6622 30.1161 32.4536 28.2938 33.5937 26.9742C35.098 25.2332 36.3606 23.261 37.145 21.4268C37.7243 20.0723 38.1481 18.6034 38.3506 17.2475C38.4786 16.3902 38.5464 14.815 38.4884 14.0454L38.4489 13.5229L37.4757 13.5305C36.9404 13.5346 36.2371 13.5581 35.9128 13.5826ZM36.5578 15.9479C36.3076 19.3555 34.7247 22.7789 31.9302 25.956C30.9182 27.1066 29.3044 28.7172 28.6134 29.266L27.899 29.8336L27.899 30.7098C27.899 33.1994 27.3879 35.2265 26.3488 36.8582C26.1999 37.0921 26.0596 37.3019 26.0371 37.3245C26.0145 37.3471 26.0022 35.9318 26.0099 34.1795C26.0175 32.4273 26.0055 30.9935 25.9831 30.9935C25.9607 30.9935 24.9927 31.31 23.8319 31.6969L21.7214 32.4002L20.6484 31.3276L19.5755 30.2549L20.28 28.1457C20.6674 26.9856 20.9843 26.0185 20.9842 25.9966C20.9841 25.9748 19.5549 25.9506 17.8081 25.943L14.6322 25.9292L15.0341 25.6704C16.7183 24.5858 18.6733 24.0825 21.2084 24.0808L22.0493 24.0803L22.7429 23.3166C23.6744 22.2911 25.805 20.198 26.5226 19.6037C29.3321 17.2765 32.4957 15.8583 35.5375 15.5625C35.8618 15.531 36.1995 15.4969 36.288 15.4867C36.3764 15.4766 36.4815 15.4646 36.5215 15.4602C36.5803 15.4537 36.5873 15.5466 36.5578 15.9479ZM29.3856 20.2768C28.1897 20.5778 27.5709 21.8881 28.1088 22.9805C28.5297 23.8353 29.4632 24.2506 30.3553 23.9797C30.8131 23.8407 31.1295 23.6098 31.3956 23.2206C31.9167 22.4584 31.8309 21.4662 31.1883 20.8238C31.0313 20.6668 30.7749 20.4798 30.6187 20.4083C30.296 20.2606 29.7019 20.1972 29.3856 20.2768ZM15.6906 32.9101C14.3109 34.2917 13.5398 36.1405 13.534 38.0809C13.5332 38.338 13.5486 38.3895 13.6269 38.3918C13.6785 38.3933 13.8208 38.4073 13.9432 38.423C14.2566 38.463 15.3031 38.3505 15.8047 38.2228C17.0724 37.9001 18.1774 37.2452 19.1019 36.2689L19.5459 35.7999L19.1499 35.404L18.7538 35.0081L18.3461 35.2017C17.7959 35.4629 16.9222 35.6152 16.5483 35.515C16.4378 35.4854 16.4277 35.4512 16.4277 35.1081C16.4277 34.6412 16.5384 34.1964 16.7889 33.6573L16.9829 33.2395L16.613 32.8668C16.4094 32.6618 16.2122 32.4941 16.1745 32.4941C16.1369 32.4941 15.9191 32.6813 15.6906 32.9101Z" stroke="white" stroke-width="1.31343" mask="url(#path-1-inside-1_1_2)"/>
</g>
<mask id="path-2-inside-2_1_2" fill="white">
<path fill-rule="evenodd" clip-rule="evenodd" d="M24.3075 4.0212C23.0464 4.11927 21.2618 4.43819 20.039 4.78412C15.8907 5.95754 12.2827 8.24571 9.39678 11.5331C6.5294 14.7994 4.74894 18.7527 4.1475 23.1887C3.98637 24.3771 3.94772 26.7869 4.06999 28.0192C4.51035 32.4562 6.08679 36.3197 8.89167 39.836C9.59587 40.7188 11.2866 42.4037 12.193 43.1259C15.0747 45.422 18.2798 46.9083 21.8417 47.6003C24.4383 48.1048 27.487 48.1065 30.1284 47.6051C33.3268 46.998 36.5033 45.5994 39.115 43.6482C43.555 40.3312 46.6045 35.4807 47.6236 30.1142C48.0495 27.8721 48.1155 25.3415 47.8092 23.0085C47.2968 19.1071 45.6875 15.3731 43.1435 12.1831C42.4057 11.2579 40.731 9.58281 39.7991 8.83779C39.0145 8.21056 37.552 7.21838 36.7518 6.7703C34.0938 5.28214 31.1674 4.37072 28.0657 4.06504C27.3163 3.99119 25.0358 3.96461 24.3075 4.0212ZM27.2289 5.93922C32.8472 6.21162 38.3117 9.08736 41.8431 13.6301C44.2005 16.6627 45.598 20.1666 45.9897 24.0267C46.0816 24.9318 46.0938 26.7743 46.0141 27.6977C45.7708 30.5169 44.8677 33.4524 43.5083 35.8435C41.7021 39.0205 39.037 41.685 35.8592 43.4908C33.8704 44.6209 31.3555 45.4871 29.0526 45.8351C27.9937 45.9951 27.181 46.0515 25.9424 46.051C16.8895 46.0469 8.99095 40.0036 6.59581 31.2486C5.89531 28.6879 5.7241 25.7734 6.11343 23.0353C7.01489 16.6951 11.0705 11.0345 16.8029 8.11565C18.9832 7.00546 21.0983 6.34897 23.4766 6.04415C24.0934 5.9651 26.04 5.86542 26.398 5.89452C26.4718 5.90052 26.8456 5.92062 27.2289 5.93922ZM35.9128 13.5826C32.5445 13.8371 29.3168 15.0945 26.3176 17.3206C25.2251 18.1315 24.3715 18.9011 22.7582 20.5299L21.1525 22.151L20.7333 22.1516C20.5027 22.1519 20.0245 22.1769 19.6707 22.2073C16.9539 22.4399 14.8576 23.2621 12.8369 24.8875C12.5277 25.1362 11.6955 25.9116 10.9876 26.6106L9.7004 27.8814L14.0021 27.8833C16.368 27.8844 18.3038 27.9028 18.3038 27.9244C18.3038 27.9459 18.093 28.5972 17.8354 29.3718L17.367 30.7802L19.2759 32.6887L21.1848 34.5971L22.5757 34.1351C23.3406 33.881 23.9949 33.6731 24.0298 33.6731C24.0779 33.6731 24.0933 34.6969 24.0939 37.9469L24.0948 42.2208L25.4768 40.8275C26.2369 40.0611 27.017 39.2291 27.2104 38.9786C28.9009 36.7883 29.6736 34.5753 29.8111 31.5303C29.845 30.7788 29.8505 30.7507 29.9844 30.6461C30.6622 30.1161 32.4536 28.2938 33.5937 26.9742C35.098 25.2332 36.3606 23.261 37.145 21.4268C37.7243 20.0723 38.1481 18.6034 38.3506 17.2475C38.4786 16.3902 38.5464 14.815 38.4884 14.0454L38.4489 13.5229L37.4757 13.5305C36.9404 13.5346 36.2371 13.5581 35.9128 13.5826ZM36.5578 15.9479C36.3076 19.3555 34.7247 22.7789 31.9302 25.956C30.9182 27.1066 29.3044 28.7172 28.6134 29.266L27.899 29.8336L27.899 30.7098C27.899 33.1994 27.3879 35.2265 26.3488 36.8582C26.1999 37.0921 26.0596 37.3019 26.0371 37.3245C26.0145 37.3471 26.0022 35.9318 26.0099 34.1795C26.0175 32.4273 26.0055 30.9935 25.9831 30.9935C25.9607 30.9935 24.9927 31.31 23.8319 31.6969L21.7214 32.4002L20.6484 31.3276L19.5755 30.2549L20.28 28.1457C20.6674 26.9856 20.9843 26.0185 20.9842 25.9966C20.9841 25.9748 19.5549 25.9506 17.8081 25.943L14.6322 25.9292L15.0341 25.6704C16.7183 24.5858 18.6733 24.0825 21.2084 24.0808L22.0493 24.0803L22.7429 23.3166C23.6744 22.2911 25.805 20.198 26.5226 19.6037C29.3321 17.2765 32.4957 15.8583 35.5375 15.5625C35.8618 15.531 36.1995 15.4969 36.288 15.4867C36.3764 15.4766 36.4815 15.4646 36.5215 15.4602C36.5803 15.4537 36.5873 15.5466 36.5578 15.9479ZM29.3856 20.2768C28.1897 20.5778 27.5709 21.8881 28.1088 22.9805C28.5297 23.8353 29.4632 24.2506 30.3553 23.9797C30.8131 23.8407 31.1295 23.6098 31.3956 23.2206C31.9167 22.4584 31.8309 21.4662 31.1883 20.8238C31.0313 20.6668 30.7749 20.4798 30.6187 20.4083C30.296 20.2606 29.7019 20.1972 29.3856 20.2768ZM15.6906 32.9101C14.3109 34.2917 13.5398 36.1405 13.534 38.0809C13.5332 38.338 13.5486 38.3895 13.6269 38.3918C13.6785 38.3933 13.8208 38.4073 13.9432 38.423C14.2566 38.463 15.3031 38.3505 15.8047 38.2228C17.0724 37.9001 18.1774 37.2452 19.1019 36.2689L19.5459 35.7999L19.1499 35.404L18.7538 35.0081L18.3461 35.2017C17.7959 35.4629 16.9222 35.6152 16.5483 35.515C16.4378 35.4854 16.4277 35.4512 16.4277 35.1081C16.4277 34.6412 16.5384 34.1964 16.7889 33.6573L16.9829 33.2395L16.613 32.8668C16.4094 32.6618 16.2122 32.4941 16.1745 32.4941C16.1369 32.4941 15.9191 32.6813 15.6906 32.9101Z"/>
</mask>
<path fill-rule="evenodd" clip-rule="evenodd" d="M24.3075 4.0212C23.0464 4.11927 21.2618 4.43819 20.039 4.78412C15.8907 5.95754 12.2827 8.24571 9.39678 11.5331C6.5294 14.7994 4.74894 18.7527 4.1475 23.1887C3.98637 24.3771 3.94772 26.7869 4.06999 28.0192C4.51035 32.4562 6.08679 36.3197 8.89167 39.836C9.59587 40.7188 11.2866 42.4037 12.193 43.1259C15.0747 45.422 18.2798 46.9083 21.8417 47.6003C24.4383 48.1048 27.487 48.1065 30.1284 47.6051C33.3268 46.998 36.5033 45.5994 39.115 43.6482C43.555 40.3312 46.6045 35.4807 47.6236 30.1142C48.0495 27.8721 48.1155 25.3415 47.8092 23.0085C47.2968 19.1071 45.6875 15.3731 43.1435 12.1831C42.4057 11.2579 40.731 9.58281 39.7991 8.83779C39.0145 8.21056 37.552 7.21838 36.7518 6.7703C34.0938 5.28214 31.1674 4.37072 28.0657 4.06504C27.3163 3.99119 25.0358 3.96461 24.3075 4.0212ZM27.2289 5.93922C32.8472 6.21162 38.3117 9.08736 41.8431 13.6301C44.2005 16.6627 45.598 20.1666 45.9897 24.0267C46.0816 24.9318 46.0938 26.7743 46.0141 27.6977C45.7708 30.5169 44.8677 33.4524 43.5083 35.8435C41.7021 39.0205 39.037 41.685 35.8592 43.4908C33.8704 44.6209 31.3555 45.4871 29.0526 45.8351C27.9937 45.9951 27.181 46.0515 25.9424 46.051C16.8895 46.0469 8.99095 40.0036 6.59581 31.2486C5.89531 28.6879 5.7241 25.7734 6.11343 23.0353C7.01489 16.6951 11.0705 11.0345 16.8029 8.11565C18.9832 7.00546 21.0983 6.34897 23.4766 6.04415C24.0934 5.9651 26.04 5.86542 26.398 5.89452C26.4718 5.90052 26.8456 5.92062 27.2289 5.93922ZM35.9128 13.5826C32.5445 13.8371 29.3168 15.0945 26.3176 17.3206C25.2251 18.1315 24.3715 18.9011 22.7582 20.5299L21.1525 22.151L20.7333 22.1516C20.5027 22.1519 20.0245 22.1769 19.6707 22.2073C16.9539 22.4399 14.8576 23.2621 12.8369 24.8875C12.5277 25.1362 11.6955 25.9116 10.9876 26.6106L9.7004 27.8814L14.0021 27.8833C16.368 27.8844 18.3038 27.9028 18.3038 27.9244C18.3038 27.9459 18.093 28.5972 17.8354 29.3718L17.367 30.7802L19.2759 32.6887L21.1848 34.5971L22.5757 34.1351C23.3406 33.881 23.9949 33.6731 24.0298 33.6731C24.0779 33.6731 24.0933 34.6969 24.0939 37.9469L24.0948 42.2208L25.4768 40.8275C26.2369 40.0611 27.017 39.2291 27.2104 38.9786C28.9009 36.7883 29.6736 34.5753 29.8111 31.5303C29.845 30.7788 29.8505 30.7507 29.9844 30.6461C30.6622 30.1161 32.4536 28.2938 33.5937 26.9742C35.098 25.2332 36.3606 23.261 37.145 21.4268C37.7243 20.0723 38.1481 18.6034 38.3506 17.2475C38.4786 16.3902 38.5464 14.815 38.4884 14.0454L38.4489 13.5229L37.4757 13.5305C36.9404 13.5346 36.2371 13.5581 35.9128 13.5826ZM36.5578 15.9479C36.3076 19.3555 34.7247 22.7789 31.9302 25.956C30.9182 27.1066 29.3044 28.7172 28.6134 29.266L27.899 29.8336L27.899 30.7098C27.899 33.1994 27.3879 35.2265 26.3488 36.8582C26.1999 37.0921 26.0596 37.3019 26.0371 37.3245C26.0145 37.3471 26.0022 35.9318 26.0099 34.1795C26.0175 32.4273 26.0055 30.9935 25.9831 30.9935C25.9607 30.9935 24.9927 31.31 23.8319 31.6969L21.7214 32.4002L20.6484 31.3276L19.5755 30.2549L20.28 28.1457C20.6674 26.9856 20.9843 26.0185 20.9842 25.9966C20.9841 25.9748 19.5549 25.9506 17.8081 25.943L14.6322 25.9292L15.0341 25.6704C16.7183 24.5858 18.6733 24.0825 21.2084 24.0808L22.0493 24.0803L22.7429 23.3166C23.6744 22.2911 25.805 20.198 26.5226 19.6037C29.3321 17.2765 32.4957 15.8583 35.5375 15.5625C35.8618 15.531 36.1995 15.4969 36.288 15.4867C36.3764 15.4766 36.4815 15.4646 36.5215 15.4602C36.5803 15.4537 36.5873 15.5466 36.5578 15.9479ZM29.3856 20.2768C28.1897 20.5778 27.5709 21.8881 28.1088 22.9805C28.5297 23.8353 29.4632 24.2506 30.3553 23.9797C30.8131 23.8407 31.1295 23.6098 31.3956 23.2206C31.9167 22.4584 31.8309 21.4662 31.1883 20.8238C31.0313 20.6668 30.7749 20.4798 30.6187 20.4083C30.296 20.2606 29.7019 20.1972 29.3856 20.2768ZM15.6906 32.9101C14.3109 34.2917 13.5398 36.1405 13.534 38.0809C13.5332 38.338 13.5486 38.3895 13.6269 38.3918C13.6785 38.3933 13.8208 38.4073 13.9432 38.423C14.2566 38.463 15.3031 38.3505 15.8047 38.2228C17.0724 37.9001 18.1774 37.2452 19.1019 36.2689L19.5459 35.7999L19.1499 35.404L18.7538 35.0081L18.3461 35.2017C17.7959 35.4629 16.9222 35.6152 16.5483 35.515C16.4378 35.4854 16.4277 35.4512 16.4277 35.1081C16.4277 34.6412 16.5384 34.1964 16.7889 33.6573L16.9829 33.2395L16.613 32.8668C16.4094 32.6618 16.2122 32.4941 16.1745 32.4941C16.1369 32.4941 15.9191 32.6813 15.6906 32.9101Z" fill="#C3ADDE" stroke="white" stroke-width="1.31343" mask="url(#path-2-inside-2_1_2)"/>
<defs>
<filter id="filter0_f_1_2" x="0.714465" y="0.707141" width="50.5682" height="50.5564" filterUnits="userSpaceOnUse" color-interpolation-filters="sRGB">
<feFlood flood-opacity="0" result="BackgroundImageFix"/>
<feBlend mode="normal" in="SourceGraphic" in2="BackgroundImageFix" result="shape"/>
<feGaussianBlur stdDeviation="1.64179" result="effect1_foregroundBlur_1_2"/>
</filter>
</defs>
</svg>
