<svg width="39" height="48" viewBox="0 0 39 48" fill="none" xmlns="http://www.w3.org/2000/svg">
<g filter="url(#filter0_f_0_3)">
<mask id="path-1-inside-1_0_3" fill="white">
<path fill-rule="evenodd" clip-rule="evenodd" d="M15.2646 2.24801C14.7725 2.55334 14.7355 3.00035 15.1486 3.64892C15.3125 3.90622 15.4476 4.14182 15.4488 4.17244C15.45 4.20315 15.2484 4.27596 15.0008 4.33428C14.0902 4.5487 12.5597 5.11614 11.5533 5.61247C7.82329 7.45191 4.79718 10.6999 3.26118 14.5127C2.17649 17.2051 1.77844 20.1642 2.12203 22.982C2.80507 28.5845 6.13454 33.4568 11.0889 36.1039L11.7494 36.4569L9.44128 40.6993C8.17185 43.0326 7.13278 45.0267 7.13244 45.1307C7.13124 45.4358 7.31907 45.7603 7.57294 45.8916C7.92767 46.075 30.3504 46.075 30.7051 45.8916C30.959 45.7603 31.1468 45.4358 31.1456 45.1307C31.1453 45.0267 30.1062 43.0326 28.8368 40.6993L26.5286 36.4569L27.1892 36.1039C31.432 33.837 34.5781 29.8306 35.739 25.216C37.5549 17.9981 34.6771 10.6818 28.4018 6.56311C26.9872 5.6346 24.8477 4.70403 23.2773 4.33428C23.0297 4.27596 22.828 4.20315 22.8292 4.17244C22.8304 4.14182 22.9655 3.90622 23.1294 3.64892C23.443 3.15679 23.4874 2.92719 23.3343 2.59107C23.1126 2.1046 23.0811 2.101 19.1258 2.10349C15.8947 2.10546 15.4686 2.12141 15.2646 2.24801ZM20.8063 4.05237C19.9702 5.33724 19.1871 6.47528 19.139 6.47528C19.091 6.47528 18.3079 5.33724 17.4717 4.05237L17.3182 3.81651H19.139H20.9599L20.8063 4.05237ZM17.078 6.55719L17.5945 7.32532L17.2733 7.38064C15.712 7.6496 14.6923 7.94567 13.5366 8.46533C11.7682 9.26065 10.4453 10.2242 9.02703 11.7499C5.66677 15.3648 4.55995 20.6141 6.1607 25.344C6.84778 27.3743 7.94319 29.1381 9.45698 30.6519C13.1554 34.3504 18.5717 35.6206 23.5131 33.9482C27.112 32.7302 30.0236 30.1074 31.596 26.6672C33.5979 22.2869 33.1755 17.2891 30.4624 13.254C29.7948 12.2612 28.3396 10.7486 27.3315 9.99987C25.3967 8.56259 23.6369 7.83409 21.0048 7.38064L20.6835 7.32532L21.2 6.55719C21.4841 6.13479 21.7709 5.78915 21.8376 5.78915C22.4187 5.78915 24.4748 6.44981 25.7185 7.03611C30.3803 9.23397 33.5592 13.5275 34.4157 18.7828C34.5765 19.7688 34.5527 22.3469 34.3731 23.4142C33.8219 26.69 32.3481 29.5617 30.0366 31.8641C27.6472 34.2439 24.7095 35.7225 21.3261 36.248C20.4359 36.3862 17.8311 36.385 16.952 36.246C11.8179 35.4339 7.62586 32.3963 5.32585 27.8218C4.23506 25.6525 3.76403 23.61 3.75554 21.0128C3.74705 18.4317 4.17486 16.5386 5.28657 14.2372C7.28159 10.1071 11.0702 7.05824 15.5797 5.95399C16.5499 5.71642 16.4989 5.69583 17.078 6.55719ZM18.2814 12.8582V16.754L17.9597 16.8581C17.7829 16.9154 17.449 17.0571 17.2178 17.173L16.7974 17.3837L14.0658 14.6531C12.5635 13.1513 11.3344 11.9029 11.3346 11.8791C11.3354 11.7916 12.6338 10.8806 13.3247 10.4828C14.5323 9.78768 16.1764 9.24332 17.6127 9.06312C17.9569 9.01998 18.2482 8.97967 18.2599 8.97358C18.2717 8.96749 18.2814 10.7156 18.2814 12.8582ZM22.0939 9.34581C23.1494 9.61426 24.1035 9.99361 24.9533 10.4828C25.6443 10.8806 26.9427 11.7916 26.9435 11.8791C26.9436 11.9029 25.7146 13.1513 24.2122 14.6531L21.4806 17.3837L21.0603 17.173C20.8291 17.0571 20.4953 16.9154 20.3183 16.8581L19.9967 16.754V12.8743V8.99468L20.6574 9.07162C21.0207 9.1139 21.6673 9.23732 22.0939 9.34581ZM12.8222 15.8967L15.5529 18.6283L15.3421 19.0486C15.2263 19.2798 15.0846 19.6137 15.0273 19.7906L14.9232 20.1122H11.0435H7.16383L7.24076 19.4515C7.40724 18.0211 7.94534 16.3832 8.65197 15.1556C9.04976 14.4646 9.96077 13.1662 10.0483 13.1654C10.0721 13.1653 11.3204 14.3943 12.8222 15.8967ZM28.7449 13.8052C30.018 15.5305 30.8073 17.4744 31.0373 19.4515L31.1142 20.1122H27.2346H23.3549L23.2508 19.7906C23.1935 19.6137 23.0518 19.2798 22.9359 19.0486L22.7252 18.6283L25.4558 15.8967C26.9576 14.3943 28.2059 13.1653 28.2298 13.1654C28.2536 13.1657 28.4855 13.4535 28.7449 13.8052ZM20.1862 18.6344C20.6873 18.856 21.2486 19.416 21.483 19.9279C21.6176 20.2218 21.6656 20.4958 21.6656 20.9699C21.6656 21.7504 21.4666 22.2445 20.9401 22.771C20.4137 23.2974 19.9195 23.4965 19.139 23.4965C16.254 23.4965 15.5993 19.5212 18.3236 18.5458C18.8601 18.3536 19.635 18.3905 20.1862 18.6344ZM15.0273 22.1492C15.0846 22.3261 15.2263 22.6599 15.3421 22.8911L15.5529 23.3115L12.8222 26.0431C11.3204 27.5454 10.0721 28.7745 10.0483 28.7743C9.96077 28.7735 9.04976 27.4751 8.65197 26.7842C7.94534 25.5566 7.40724 23.9186 7.24076 22.4882L7.16383 21.8275H11.0435H14.9232L15.0273 22.1492ZM31.0373 22.4882C30.8713 23.9146 30.3235 25.573 29.6078 26.816C29.2244 27.4818 28.3155 28.7735 28.2298 28.7743C28.2059 28.7745 26.9576 27.5454 25.4558 26.0431L22.7252 23.3115L22.9359 22.8911C23.0518 22.6599 23.1935 22.3261 23.2508 22.1492L23.3549 21.8275H27.2346H31.1142L31.0373 22.4882ZM17.2335 24.7748C17.456 24.8862 17.7829 25.0243 17.9597 25.0816L18.2814 25.1857V29.0662V32.9465L17.7024 32.8784C16.405 32.7256 14.9234 32.2881 13.8162 31.7309C13.2632 31.4525 11.9215 30.5781 11.5114 30.2287L11.3026 30.051L14.041 27.3115C15.5471 25.8048 16.7906 24.5721 16.8042 24.5721C16.8178 24.5721 17.0111 24.6633 17.2335 24.7748ZM24.237 27.3115L26.9755 30.051L26.7666 30.2287C26.3566 30.5781 25.0148 31.4525 24.4618 31.7309C23.3546 32.2881 21.873 32.7256 20.5756 32.8784L19.9967 32.9465V29.0664V25.1863L20.4041 25.047C20.6282 24.9705 20.9466 24.8338 21.1117 24.7435C21.2768 24.6532 21.4314 24.5777 21.4552 24.5757C21.4791 24.5737 22.7309 25.8048 24.237 27.3115ZM15.6226 37.7372C17.1621 38.0652 18.8833 38.1786 20.4041 38.0524C21.732 37.9421 23.2018 37.6661 24.2867 37.3233L24.9316 37.1195L25.8019 38.7149L26.6722 40.3103L24.4422 40.3532L22.2122 40.3961L21.9621 40.6762C21.6343 41.0433 21.6343 41.3784 21.9622 41.7455L22.2123 42.0256L24.9309 42.0685L27.6496 42.1114L28.2373 43.1835L28.8248 44.2556L23.9819 44.2777C21.3184 44.2899 16.9597 44.2899 14.2961 44.2777L9.4532 44.2556L10.0408 43.1835L10.6285 42.1114L13.3381 42.0685L16.0477 42.0256L16.2835 41.7898C16.6124 41.4607 16.6125 40.9611 16.2835 40.6319L16.0478 40.3961L13.8269 40.3532L11.606 40.3103L12.4761 38.7149L13.3464 37.1195L13.9913 37.3233C14.346 37.4354 15.0801 37.6217 15.6226 37.7372ZM18.8292 40.4372C18.5592 40.5463 18.2814 40.9439 18.2814 41.2211C18.2814 41.5644 18.6755 41.9764 19.0629 42.0379C19.3241 42.0794 19.4181 42.0466 19.6613 41.8293C19.9023 41.614 19.9499 41.512 19.9499 41.2108C19.9499 40.9124 19.9019 40.8074 19.6717 40.6017C19.39 40.3499 19.1576 40.3046 18.8292 40.4372Z"/>
</mask>
<path fill-rule="evenodd" clip-rule="evenodd" d="M15.2646 2.24801C14.7725 2.55334 14.7355 3.00035 15.1486 3.64892C15.3125 3.90622 15.4476 4.14182 15.4488 4.17244C15.45 4.20315 15.2484 4.27596 15.0008 4.33428C14.0902 4.5487 12.5597 5.11614 11.5533 5.61247C7.82329 7.45191 4.79718 10.6999 3.26118 14.5127C2.17649 17.2051 1.77844 20.1642 2.12203 22.982C2.80507 28.5845 6.13454 33.4568 11.0889 36.1039L11.7494 36.4569L9.44128 40.6993C8.17185 43.0326 7.13278 45.0267 7.13244 45.1307C7.13124 45.4358 7.31907 45.7603 7.57294 45.8916C7.92767 46.075 30.3504 46.075 30.7051 45.8916C30.959 45.7603 31.1468 45.4358 31.1456 45.1307C31.1453 45.0267 30.1062 43.0326 28.8368 40.6993L26.5286 36.4569L27.1892 36.1039C31.432 33.837 34.5781 29.8306 35.739 25.216C37.5549 17.9981 34.6771 10.6818 28.4018 6.56311C26.9872 5.6346 24.8477 4.70403 23.2773 4.33428C23.0297 4.27596 22.828 4.20315 22.8292 4.17244C22.8304 4.14182 22.9655 3.90622 23.1294 3.64892C23.443 3.15679 23.4874 2.92719 23.3343 2.59107C23.1126 2.1046 23.0811 2.101 19.1258 2.10349C15.8947 2.10546 15.4686 2.12141 15.2646 2.24801ZM20.8063 4.05237C19.9702 5.33724 19.1871 6.47528 19.139 6.47528C19.091 6.47528 18.3079 5.33724 17.4717 4.05237L17.3182 3.81651H19.139H20.9599L20.8063 4.05237ZM17.078 6.55719L17.5945 7.32532L17.2733 7.38064C15.712 7.6496 14.6923 7.94567 13.5366 8.46533C11.7682 9.26065 10.4453 10.2242 9.02703 11.7499C5.66677 15.3648 4.55995 20.6141 6.1607 25.344C6.84778 27.3743 7.94319 29.1381 9.45698 30.6519C13.1554 34.3504 18.5717 35.6206 23.5131 33.9482C27.112 32.7302 30.0236 30.1074 31.596 26.6672C33.5979 22.2869 33.1755 17.2891 30.4624 13.254C29.7948 12.2612 28.3396 10.7486 27.3315 9.99987C25.3967 8.56259 23.6369 7.83409 21.0048 7.38064L20.6835 7.32532L21.2 6.55719C21.4841 6.13479 21.7709 5.78915 21.8376 5.78915C22.4187 5.78915 24.4748 6.44981 25.7185 7.03611C30.3803 9.23397 33.5592 13.5275 34.4157 18.7828C34.5765 19.7688 34.5527 22.3469 34.3731 23.4142C33.8219 26.69 32.3481 29.5617 30.0366 31.8641C27.6472 34.2439 24.7095 35.7225 21.3261 36.248C20.4359 36.3862 17.8311 36.385 16.952 36.246C11.8179 35.4339 7.62586 32.3963 5.32585 27.8218C4.23506 25.6525 3.76403 23.61 3.75554 21.0128C3.74705 18.4317 4.17486 16.5386 5.28657 14.2372C7.28159 10.1071 11.0702 7.05824 15.5797 5.95399C16.5499 5.71642 16.4989 5.69583 17.078 6.55719ZM18.2814 12.8582V16.754L17.9597 16.8581C17.7829 16.9154 17.449 17.0571 17.2178 17.173L16.7974 17.3837L14.0658 14.6531C12.5635 13.1513 11.3344 11.9029 11.3346 11.8791C11.3354 11.7916 12.6338 10.8806 13.3247 10.4828C14.5323 9.78768 16.1764 9.24332 17.6127 9.06312C17.9569 9.01998 18.2482 8.97967 18.2599 8.97358C18.2717 8.96749 18.2814 10.7156 18.2814 12.8582ZM22.0939 9.34581C23.1494 9.61426 24.1035 9.99361 24.9533 10.4828C25.6443 10.8806 26.9427 11.7916 26.9435 11.8791C26.9436 11.9029 25.7146 13.1513 24.2122 14.6531L21.4806 17.3837L21.0603 17.173C20.8291 17.0571 20.4953 16.9154 20.3183 16.8581L19.9967 16.754V12.8743V8.99468L20.6574 9.07162C21.0207 9.1139 21.6673 9.23732 22.0939 9.34581ZM12.8222 15.8967L15.5529 18.6283L15.3421 19.0486C15.2263 19.2798 15.0846 19.6137 15.0273 19.7906L14.9232 20.1122H11.0435H7.16383L7.24076 19.4515C7.40724 18.0211 7.94534 16.3832 8.65197 15.1556C9.04976 14.4646 9.96077 13.1662 10.0483 13.1654C10.0721 13.1653 11.3204 14.3943 12.8222 15.8967ZM28.7449 13.8052C30.018 15.5305 30.8073 17.4744 31.0373 19.4515L31.1142 20.1122H27.2346H23.3549L23.2508 19.7906C23.1935 19.6137 23.0518 19.2798 22.9359 19.0486L22.7252 18.6283L25.4558 15.8967C26.9576 14.3943 28.2059 13.1653 28.2298 13.1654C28.2536 13.1657 28.4855 13.4535 28.7449 13.8052ZM20.1862 18.6344C20.6873 18.856 21.2486 19.416 21.483 19.9279C21.6176 20.2218 21.6656 20.4958 21.6656 20.9699C21.6656 21.7504 21.4666 22.2445 20.9401 22.771C20.4137 23.2974 19.9195 23.4965 19.139 23.4965C16.254 23.4965 15.5993 19.5212 18.3236 18.5458C18.8601 18.3536 19.635 18.3905 20.1862 18.6344ZM15.0273 22.1492C15.0846 22.3261 15.2263 22.6599 15.3421 22.8911L15.5529 23.3115L12.8222 26.0431C11.3204 27.5454 10.0721 28.7745 10.0483 28.7743C9.96077 28.7735 9.04976 27.4751 8.65197 26.7842C7.94534 25.5566 7.40724 23.9186 7.24076 22.4882L7.16383 21.8275H11.0435H14.9232L15.0273 22.1492ZM31.0373 22.4882C30.8713 23.9146 30.3235 25.573 29.6078 26.816C29.2244 27.4818 28.3155 28.7735 28.2298 28.7743C28.2059 28.7745 26.9576 27.5454 25.4558 26.0431L22.7252 23.3115L22.9359 22.8911C23.0518 22.6599 23.1935 22.3261 23.2508 22.1492L23.3549 21.8275H27.2346H31.1142L31.0373 22.4882ZM17.2335 24.7748C17.456 24.8862 17.7829 25.0243 17.9597 25.0816L18.2814 25.1857V29.0662V32.9465L17.7024 32.8784C16.405 32.7256 14.9234 32.2881 13.8162 31.7309C13.2632 31.4525 11.9215 30.5781 11.5114 30.2287L11.3026 30.051L14.041 27.3115C15.5471 25.8048 16.7906 24.5721 16.8042 24.5721C16.8178 24.5721 17.0111 24.6633 17.2335 24.7748ZM24.237 27.3115L26.9755 30.051L26.7666 30.2287C26.3566 30.5781 25.0148 31.4525 24.4618 31.7309C23.3546 32.2881 21.873 32.7256 20.5756 32.8784L19.9967 32.9465V29.0664V25.1863L20.4041 25.047C20.6282 24.9705 20.9466 24.8338 21.1117 24.7435C21.2768 24.6532 21.4314 24.5777 21.4552 24.5757C21.4791 24.5737 22.7309 25.8048 24.237 27.3115ZM15.6226 37.7372C17.1621 38.0652 18.8833 38.1786 20.4041 38.0524C21.732 37.9421 23.2018 37.6661 24.2867 37.3233L24.9316 37.1195L25.8019 38.7149L26.6722 40.3103L24.4422 40.3532L22.2122 40.3961L21.9621 40.6762C21.6343 41.0433 21.6343 41.3784 21.9622 41.7455L22.2123 42.0256L24.9309 42.0685L27.6496 42.1114L28.2373 43.1835L28.8248 44.2556L23.9819 44.2777C21.3184 44.2899 16.9597 44.2899 14.2961 44.2777L9.4532 44.2556L10.0408 43.1835L10.6285 42.1114L13.3381 42.0685L16.0477 42.0256L16.2835 41.7898C16.6124 41.4607 16.6125 40.9611 16.2835 40.6319L16.0478 40.3961L13.8269 40.3532L11.606 40.3103L12.4761 38.7149L13.3464 37.1195L13.9913 37.3233C14.346 37.4354 15.0801 37.6217 15.6226 37.7372ZM18.8292 40.4372C18.5592 40.5463 18.2814 40.9439 18.2814 41.2211C18.2814 41.5644 18.6755 41.9764 19.0629 42.0379C19.3241 42.0794 19.4181 42.0466 19.6613 41.8293C19.9023 41.614 19.9499 41.512 19.9499 41.2108C19.9499 40.9124 19.9019 40.8074 19.6717 40.6017C19.39 40.3499 19.1576 40.3046 18.8292 40.4372Z" fill="#C3ADDE"/>
<path fill-rule="evenodd" clip-rule="evenodd" d="M15.2646 2.24801C14.7725 2.55334 14.7355 3.00035 15.1486 3.64892C15.3125 3.90622 15.4476 4.14182 15.4488 4.17244C15.45 4.20315 15.2484 4.27596 15.0008 4.33428C14.0902 4.5487 12.5597 5.11614 11.5533 5.61247C7.82329 7.45191 4.79718 10.6999 3.26118 14.5127C2.17649 17.2051 1.77844 20.1642 2.12203 22.982C2.80507 28.5845 6.13454 33.4568 11.0889 36.1039L11.7494 36.4569L9.44128 40.6993C8.17185 43.0326 7.13278 45.0267 7.13244 45.1307C7.13124 45.4358 7.31907 45.7603 7.57294 45.8916C7.92767 46.075 30.3504 46.075 30.7051 45.8916C30.959 45.7603 31.1468 45.4358 31.1456 45.1307C31.1453 45.0267 30.1062 43.0326 28.8368 40.6993L26.5286 36.4569L27.1892 36.1039C31.432 33.837 34.5781 29.8306 35.739 25.216C37.5549 17.9981 34.6771 10.6818 28.4018 6.56311C26.9872 5.6346 24.8477 4.70403 23.2773 4.33428C23.0297 4.27596 22.828 4.20315 22.8292 4.17244C22.8304 4.14182 22.9655 3.90622 23.1294 3.64892C23.443 3.15679 23.4874 2.92719 23.3343 2.59107C23.1126 2.1046 23.0811 2.101 19.1258 2.10349C15.8947 2.10546 15.4686 2.12141 15.2646 2.24801ZM20.8063 4.05237C19.9702 5.33724 19.1871 6.47528 19.139 6.47528C19.091 6.47528 18.3079 5.33724 17.4717 4.05237L17.3182 3.81651H19.139H20.9599L20.8063 4.05237ZM17.078 6.55719L17.5945 7.32532L17.2733 7.38064C15.712 7.6496 14.6923 7.94567 13.5366 8.46533C11.7682 9.26065 10.4453 10.2242 9.02703 11.7499C5.66677 15.3648 4.55995 20.6141 6.1607 25.344C6.84778 27.3743 7.94319 29.1381 9.45698 30.6519C13.1554 34.3504 18.5717 35.6206 23.5131 33.9482C27.112 32.7302 30.0236 30.1074 31.596 26.6672C33.5979 22.2869 33.1755 17.2891 30.4624 13.254C29.7948 12.2612 28.3396 10.7486 27.3315 9.99987C25.3967 8.56259 23.6369 7.83409 21.0048 7.38064L20.6835 7.32532L21.2 6.55719C21.4841 6.13479 21.7709 5.78915 21.8376 5.78915C22.4187 5.78915 24.4748 6.44981 25.7185 7.03611C30.3803 9.23397 33.5592 13.5275 34.4157 18.7828C34.5765 19.7688 34.5527 22.3469 34.3731 23.4142C33.8219 26.69 32.3481 29.5617 30.0366 31.8641C27.6472 34.2439 24.7095 35.7225 21.3261 36.248C20.4359 36.3862 17.8311 36.385 16.952 36.246C11.8179 35.4339 7.62586 32.3963 5.32585 27.8218C4.23506 25.6525 3.76403 23.61 3.75554 21.0128C3.74705 18.4317 4.17486 16.5386 5.28657 14.2372C7.28159 10.1071 11.0702 7.05824 15.5797 5.95399C16.5499 5.71642 16.4989 5.69583 17.078 6.55719ZM18.2814 12.8582V16.754L17.9597 16.8581C17.7829 16.9154 17.449 17.0571 17.2178 17.173L16.7974 17.3837L14.0658 14.6531C12.5635 13.1513 11.3344 11.9029 11.3346 11.8791C11.3354 11.7916 12.6338 10.8806 13.3247 10.4828C14.5323 9.78768 16.1764 9.24332 17.6127 9.06312C17.9569 9.01998 18.2482 8.97967 18.2599 8.97358C18.2717 8.96749 18.2814 10.7156 18.2814 12.8582ZM22.0939 9.34581C23.1494 9.61426 24.1035 9.99361 24.9533 10.4828C25.6443 10.8806 26.9427 11.7916 26.9435 11.8791C26.9436 11.9029 25.7146 13.1513 24.2122 14.6531L21.4806 17.3837L21.0603 17.173C20.8291 17.0571 20.4953 16.9154 20.3183 16.8581L19.9967 16.754V12.8743V8.99468L20.6574 9.07162C21.0207 9.1139 21.6673 9.23732 22.0939 9.34581ZM12.8222 15.8967L15.5529 18.6283L15.3421 19.0486C15.2263 19.2798 15.0846 19.6137 15.0273 19.7906L14.9232 20.1122H11.0435H7.16383L7.24076 19.4515C7.40724 18.0211 7.94534 16.3832 8.65197 15.1556C9.04976 14.4646 9.96077 13.1662 10.0483 13.1654C10.0721 13.1653 11.3204 14.3943 12.8222 15.8967ZM28.7449 13.8052C30.018 15.5305 30.8073 17.4744 31.0373 19.4515L31.1142 20.1122H27.2346H23.3549L23.2508 19.7906C23.1935 19.6137 23.0518 19.2798 22.9359 19.0486L22.7252 18.6283L25.4558 15.8967C26.9576 14.3943 28.2059 13.1653 28.2298 13.1654C28.2536 13.1657 28.4855 13.4535 28.7449 13.8052ZM20.1862 18.6344C20.6873 18.856 21.2486 19.416 21.483 19.9279C21.6176 20.2218 21.6656 20.4958 21.6656 20.9699C21.6656 21.7504 21.4666 22.2445 20.9401 22.771C20.4137 23.2974 19.9195 23.4965 19.139 23.4965C16.254 23.4965 15.5993 19.5212 18.3236 18.5458C18.8601 18.3536 19.635 18.3905 20.1862 18.6344ZM15.0273 22.1492C15.0846 22.3261 15.2263 22.6599 15.3421 22.8911L15.5529 23.3115L12.8222 26.0431C11.3204 27.5454 10.0721 28.7745 10.0483 28.7743C9.96077 28.7735 9.04976 27.4751 8.65197 26.7842C7.94534 25.5566 7.40724 23.9186 7.24076 22.4882L7.16383 21.8275H11.0435H14.9232L15.0273 22.1492ZM31.0373 22.4882C30.8713 23.9146 30.3235 25.573 29.6078 26.816C29.2244 27.4818 28.3155 28.7735 28.2298 28.7743C28.2059 28.7745 26.9576 27.5454 25.4558 26.0431L22.7252 23.3115L22.9359 22.8911C23.0518 22.6599 23.1935 22.3261 23.2508 22.1492L23.3549 21.8275H27.2346H31.1142L31.0373 22.4882ZM17.2335 24.7748C17.456 24.8862 17.7829 25.0243 17.9597 25.0816L18.2814 25.1857V29.0662V32.9465L17.7024 32.8784C16.405 32.7256 14.9234 32.2881 13.8162 31.7309C13.2632 31.4525 11.9215 30.5781 11.5114 30.2287L11.3026 30.051L14.041 27.3115C15.5471 25.8048 16.7906 24.5721 16.8042 24.5721C16.8178 24.5721 17.0111 24.6633 17.2335 24.7748ZM24.237 27.3115L26.9755 30.051L26.7666 30.2287C26.3566 30.5781 25.0148 31.4525 24.4618 31.7309C23.3546 32.2881 21.873 32.7256 20.5756 32.8784L19.9967 32.9465V29.0664V25.1863L20.4041 25.047C20.6282 24.9705 20.9466 24.8338 21.1117 24.7435C21.2768 24.6532 21.4314 24.5777 21.4552 24.5757C21.4791 24.5737 22.7309 25.8048 24.237 27.3115ZM15.6226 37.7372C17.1621 38.0652 18.8833 38.1786 20.4041 38.0524C21.732 37.9421 23.2018 37.6661 24.2867 37.3233L24.9316 37.1195L25.8019 38.7149L26.6722 40.3103L24.4422 40.3532L22.2122 40.3961L21.9621 40.6762C21.6343 41.0433 21.6343 41.3784 21.9622 41.7455L22.2123 42.0256L24.9309 42.0685L27.6496 42.1114L28.2373 43.1835L28.8248 44.2556L23.9819 44.2777C21.3184 44.2899 16.9597 44.2899 14.2961 44.2777L9.4532 44.2556L10.0408 43.1835L10.6285 42.1114L13.3381 42.0685L16.0477 42.0256L16.2835 41.7898C16.6124 41.4607 16.6125 40.9611 16.2835 40.6319L16.0478 40.3961L13.8269 40.3532L11.606 40.3103L12.4761 38.7149L13.3464 37.1195L13.9913 37.3233C14.346 37.4354 15.0801 37.6217 15.6226 37.7372ZM18.8292 40.4372C18.5592 40.5463 18.2814 40.9439 18.2814 41.2211C18.2814 41.5644 18.6755 41.9764 19.0629 42.0379C19.3241 42.0794 19.4181 42.0466 19.6613 41.8293C19.9023 41.614 19.9499 41.512 19.9499 41.2108C19.9499 40.9124 19.9019 40.8074 19.6717 40.6017C19.39 40.3499 19.1576 40.3046 18.8292 40.4372Z" stroke="white" stroke-width="1.32" mask="url(#path-1-inside-1_0_3)"/>
</g>
<mask id="path-2-inside-2_0_3" fill="white">
<path fill-rule="evenodd" clip-rule="evenodd" d="M15.2646 2.24801C14.7725 2.55334 14.7355 3.00035 15.1486 3.64892C15.3125 3.90622 15.4476 4.14182 15.4488 4.17244C15.45 4.20315 15.2484 4.27596 15.0008 4.33428C14.0902 4.5487 12.5597 5.11614 11.5533 5.61247C7.82329 7.45191 4.79718 10.6999 3.26118 14.5127C2.17649 17.2051 1.77844 20.1642 2.12203 22.982C2.80507 28.5845 6.13454 33.4568 11.0889 36.1039L11.7494 36.4569L9.44128 40.6993C8.17185 43.0326 7.13278 45.0267 7.13244 45.1307C7.13124 45.4358 7.31907 45.7603 7.57294 45.8916C7.92767 46.075 30.3504 46.075 30.7051 45.8916C30.959 45.7603 31.1468 45.4358 31.1456 45.1307C31.1453 45.0267 30.1062 43.0326 28.8368 40.6993L26.5286 36.4569L27.1892 36.1039C31.432 33.837 34.5781 29.8306 35.739 25.216C37.5549 17.9981 34.6771 10.6818 28.4018 6.56311C26.9872 5.6346 24.8477 4.70403 23.2773 4.33428C23.0297 4.27596 22.828 4.20315 22.8292 4.17244C22.8304 4.14182 22.9655 3.90622 23.1294 3.64892C23.443 3.15679 23.4874 2.92719 23.3343 2.59107C23.1126 2.1046 23.0811 2.101 19.1258 2.10349C15.8947 2.10546 15.4686 2.12141 15.2646 2.24801ZM20.8063 4.05237C19.9702 5.33724 19.1871 6.47528 19.139 6.47528C19.091 6.47528 18.3079 5.33724 17.4717 4.05237L17.3182 3.81651H19.139H20.9599L20.8063 4.05237ZM17.078 6.55719L17.5945 7.32532L17.2733 7.38064C15.712 7.6496 14.6923 7.94567 13.5366 8.46533C11.7682 9.26065 10.4453 10.2242 9.02703 11.7499C5.66677 15.3648 4.55995 20.6141 6.1607 25.344C6.84778 27.3743 7.94319 29.1381 9.45698 30.6519C13.1554 34.3504 18.5717 35.6206 23.5131 33.9482C27.112 32.7302 30.0236 30.1074 31.596 26.6672C33.5979 22.2869 33.1755 17.2891 30.4624 13.254C29.7948 12.2612 28.3396 10.7486 27.3315 9.99987C25.3967 8.56259 23.6369 7.83409 21.0048 7.38064L20.6835 7.32532L21.2 6.55719C21.4841 6.13479 21.7709 5.78915 21.8376 5.78915C22.4187 5.78915 24.4748 6.44981 25.7185 7.03611C30.3803 9.23397 33.5592 13.5275 34.4157 18.7828C34.5765 19.7688 34.5527 22.3469 34.3731 23.4142C33.8219 26.69 32.3481 29.5617 30.0366 31.8641C27.6472 34.2439 24.7095 35.7225 21.3261 36.248C20.4359 36.3862 17.8311 36.385 16.952 36.246C11.8179 35.4339 7.62586 32.3963 5.32585 27.8218C4.23506 25.6525 3.76403 23.61 3.75554 21.0128C3.74705 18.4317 4.17486 16.5386 5.28657 14.2372C7.28159 10.1071 11.0702 7.05824 15.5797 5.95399C16.5499 5.71642 16.4989 5.69583 17.078 6.55719ZM18.2814 12.8582V16.754L17.9597 16.8581C17.7829 16.9154 17.449 17.0571 17.2178 17.173L16.7974 17.3837L14.0658 14.6531C12.5635 13.1513 11.3344 11.9029 11.3346 11.8791C11.3354 11.7916 12.6338 10.8806 13.3247 10.4828C14.5323 9.78768 16.1764 9.24332 17.6127 9.06312C17.9569 9.01998 18.2482 8.97967 18.2599 8.97358C18.2717 8.96749 18.2814 10.7156 18.2814 12.8582ZM22.0939 9.34581C23.1494 9.61426 24.1035 9.99361 24.9533 10.4828C25.6443 10.8806 26.9427 11.7916 26.9435 11.8791C26.9436 11.9029 25.7146 13.1513 24.2122 14.6531L21.4806 17.3837L21.0603 17.173C20.8291 17.0571 20.4953 16.9154 20.3183 16.8581L19.9967 16.754V12.8743V8.99468L20.6574 9.07162C21.0207 9.1139 21.6673 9.23732 22.0939 9.34581ZM12.8222 15.8967L15.5529 18.6283L15.3421 19.0486C15.2263 19.2798 15.0846 19.6137 15.0273 19.7906L14.9232 20.1122H11.0435H7.16383L7.24076 19.4515C7.40724 18.0211 7.94534 16.3832 8.65197 15.1556C9.04976 14.4646 9.96077 13.1662 10.0483 13.1654C10.0721 13.1653 11.3204 14.3943 12.8222 15.8967ZM28.7449 13.8052C30.018 15.5305 30.8073 17.4744 31.0373 19.4515L31.1142 20.1122H27.2346H23.3549L23.2508 19.7906C23.1935 19.6137 23.0518 19.2798 22.9359 19.0486L22.7252 18.6283L25.4558 15.8967C26.9576 14.3943 28.2059 13.1653 28.2298 13.1654C28.2536 13.1657 28.4855 13.4535 28.7449 13.8052ZM20.1862 18.6344C20.6873 18.856 21.2486 19.416 21.483 19.9279C21.6176 20.2218 21.6656 20.4958 21.6656 20.9699C21.6656 21.7504 21.4666 22.2445 20.9401 22.771C20.4137 23.2974 19.9195 23.4965 19.139 23.4965C16.254 23.4965 15.5993 19.5212 18.3236 18.5458C18.8601 18.3536 19.635 18.3905 20.1862 18.6344ZM15.0273 22.1492C15.0846 22.3261 15.2263 22.6599 15.3421 22.8911L15.5529 23.3115L12.8222 26.0431C11.3204 27.5454 10.0721 28.7745 10.0483 28.7743C9.96077 28.7735 9.04976 27.4751 8.65197 26.7842C7.94534 25.5566 7.40724 23.9186 7.24076 22.4882L7.16383 21.8275H11.0435H14.9232L15.0273 22.1492ZM31.0373 22.4882C30.8713 23.9146 30.3235 25.573 29.6078 26.816C29.2244 27.4818 28.3155 28.7735 28.2298 28.7743C28.2059 28.7745 26.9576 27.5454 25.4558 26.0431L22.7252 23.3115L22.9359 22.8911C23.0518 22.6599 23.1935 22.3261 23.2508 22.1492L23.3549 21.8275H27.2346H31.1142L31.0373 22.4882ZM17.2335 24.7748C17.456 24.8862 17.7829 25.0243 17.9597 25.0816L18.2814 25.1857V29.0662V32.9465L17.7024 32.8784C16.405 32.7256 14.9234 32.2881 13.8162 31.7309C13.2632 31.4525 11.9215 30.5781 11.5114 30.2287L11.3026 30.051L14.041 27.3115C15.5471 25.8048 16.7906 24.5721 16.8042 24.5721C16.8178 24.5721 17.0111 24.6633 17.2335 24.7748ZM24.237 27.3115L26.9755 30.051L26.7666 30.2287C26.3566 30.5781 25.0148 31.4525 24.4618 31.7309C23.3546 32.2881 21.873 32.7256 20.5756 32.8784L19.9967 32.9465V29.0664V25.1863L20.4041 25.047C20.6282 24.9705 20.9466 24.8338 21.1117 24.7435C21.2768 24.6532 21.4314 24.5777 21.4552 24.5757C21.4791 24.5737 22.7309 25.8048 24.237 27.3115ZM15.6226 37.7372C17.1621 38.0652 18.8833 38.1786 20.4041 38.0524C21.732 37.9421 23.2018 37.6661 24.2867 37.3233L24.9316 37.1195L25.8019 38.7149L26.6722 40.3103L24.4422 40.3532L22.2122 40.3961L21.9621 40.6762C21.6343 41.0433 21.6343 41.3784 21.9622 41.7455L22.2123 42.0256L24.9309 42.0685L27.6496 42.1114L28.2373 43.1835L28.8248 44.2556L23.9819 44.2777C21.3184 44.2899 16.9597 44.2899 14.2961 44.2777L9.4532 44.2556L10.0408 43.1835L10.6285 42.1114L13.3381 42.0685L16.0477 42.0256L16.2835 41.7898C16.6124 41.4607 16.6125 40.9611 16.2835 40.6319L16.0478 40.3961L13.8269 40.3532L11.606 40.3103L12.4761 38.7149L13.3464 37.1195L13.9913 37.3233C14.346 37.4354 15.0801 37.6217 15.6226 37.7372ZM18.8292 40.4372C18.5592 40.5463 18.2814 40.9439 18.2814 41.2211C18.2814 41.5644 18.6755 41.9764 19.0629 42.0379C19.3241 42.0794 19.4181 42.0466 19.6613 41.8293C19.9023 41.614 19.9499 41.512 19.9499 41.2108C19.9499 40.9124 19.9019 40.8074 19.6717 40.6017C19.39 40.3499 19.1576 40.3046 18.8292 40.4372Z"/>
</mask>
<path fill-rule="evenodd" clip-rule="evenodd" d="M15.2646 2.24801C14.7725 2.55334 14.7355 3.00035 15.1486 3.64892C15.3125 3.90622 15.4476 4.14182 15.4488 4.17244C15.45 4.20315 15.2484 4.27596 15.0008 4.33428C14.0902 4.5487 12.5597 5.11614 11.5533 5.61247C7.82329 7.45191 4.79718 10.6999 3.26118 14.5127C2.17649 17.2051 1.77844 20.1642 2.12203 22.982C2.80507 28.5845 6.13454 33.4568 11.0889 36.1039L11.7494 36.4569L9.44128 40.6993C8.17185 43.0326 7.13278 45.0267 7.13244 45.1307C7.13124 45.4358 7.31907 45.7603 7.57294 45.8916C7.92767 46.075 30.3504 46.075 30.7051 45.8916C30.959 45.7603 31.1468 45.4358 31.1456 45.1307C31.1453 45.0267 30.1062 43.0326 28.8368 40.6993L26.5286 36.4569L27.1892 36.1039C31.432 33.837 34.5781 29.8306 35.739 25.216C37.5549 17.9981 34.6771 10.6818 28.4018 6.56311C26.9872 5.6346 24.8477 4.70403 23.2773 4.33428C23.0297 4.27596 22.828 4.20315 22.8292 4.17244C22.8304 4.14182 22.9655 3.90622 23.1294 3.64892C23.443 3.15679 23.4874 2.92719 23.3343 2.59107C23.1126 2.1046 23.0811 2.101 19.1258 2.10349C15.8947 2.10546 15.4686 2.12141 15.2646 2.24801ZM20.8063 4.05237C19.9702 5.33724 19.1871 6.47528 19.139 6.47528C19.091 6.47528 18.3079 5.33724 17.4717 4.05237L17.3182 3.81651H19.139H20.9599L20.8063 4.05237ZM17.078 6.55719L17.5945 7.32532L17.2733 7.38064C15.712 7.6496 14.6923 7.94567 13.5366 8.46533C11.7682 9.26065 10.4453 10.2242 9.02703 11.7499C5.66677 15.3648 4.55995 20.6141 6.1607 25.344C6.84778 27.3743 7.94319 29.1381 9.45698 30.6519C13.1554 34.3504 18.5717 35.6206 23.5131 33.9482C27.112 32.7302 30.0236 30.1074 31.596 26.6672C33.5979 22.2869 33.1755 17.2891 30.4624 13.254C29.7948 12.2612 28.3396 10.7486 27.3315 9.99987C25.3967 8.56259 23.6369 7.83409 21.0048 7.38064L20.6835 7.32532L21.2 6.55719C21.4841 6.13479 21.7709 5.78915 21.8376 5.78915C22.4187 5.78915 24.4748 6.44981 25.7185 7.03611C30.3803 9.23397 33.5592 13.5275 34.4157 18.7828C34.5765 19.7688 34.5527 22.3469 34.3731 23.4142C33.8219 26.69 32.3481 29.5617 30.0366 31.8641C27.6472 34.2439 24.7095 35.7225 21.3261 36.248C20.4359 36.3862 17.8311 36.385 16.952 36.246C11.8179 35.4339 7.62586 32.3963 5.32585 27.8218C4.23506 25.6525 3.76403 23.61 3.75554 21.0128C3.74705 18.4317 4.17486 16.5386 5.28657 14.2372C7.28159 10.1071 11.0702 7.05824 15.5797 5.95399C16.5499 5.71642 16.4989 5.69583 17.078 6.55719ZM18.2814 12.8582V16.754L17.9597 16.8581C17.7829 16.9154 17.449 17.0571 17.2178 17.173L16.7974 17.3837L14.0658 14.6531C12.5635 13.1513 11.3344 11.9029 11.3346 11.8791C11.3354 11.7916 12.6338 10.8806 13.3247 10.4828C14.5323 9.78768 16.1764 9.24332 17.6127 9.06312C17.9569 9.01998 18.2482 8.97967 18.2599 8.97358C18.2717 8.96749 18.2814 10.7156 18.2814 12.8582ZM22.0939 9.34581C23.1494 9.61426 24.1035 9.99361 24.9533 10.4828C25.6443 10.8806 26.9427 11.7916 26.9435 11.8791C26.9436 11.9029 25.7146 13.1513 24.2122 14.6531L21.4806 17.3837L21.0603 17.173C20.8291 17.0571 20.4953 16.9154 20.3183 16.8581L19.9967 16.754V12.8743V8.99468L20.6574 9.07162C21.0207 9.1139 21.6673 9.23732 22.0939 9.34581ZM12.8222 15.8967L15.5529 18.6283L15.3421 19.0486C15.2263 19.2798 15.0846 19.6137 15.0273 19.7906L14.9232 20.1122H11.0435H7.16383L7.24076 19.4515C7.40724 18.0211 7.94534 16.3832 8.65197 15.1556C9.04976 14.4646 9.96077 13.1662 10.0483 13.1654C10.0721 13.1653 11.3204 14.3943 12.8222 15.8967ZM28.7449 13.8052C30.018 15.5305 30.8073 17.4744 31.0373 19.4515L31.1142 20.1122H27.2346H23.3549L23.2508 19.7906C23.1935 19.6137 23.0518 19.2798 22.9359 19.0486L22.7252 18.6283L25.4558 15.8967C26.9576 14.3943 28.2059 13.1653 28.2298 13.1654C28.2536 13.1657 28.4855 13.4535 28.7449 13.8052ZM20.1862 18.6344C20.6873 18.856 21.2486 19.416 21.483 19.9279C21.6176 20.2218 21.6656 20.4958 21.6656 20.9699C21.6656 21.7504 21.4666 22.2445 20.9401 22.771C20.4137 23.2974 19.9195 23.4965 19.139 23.4965C16.254 23.4965 15.5993 19.5212 18.3236 18.5458C18.8601 18.3536 19.635 18.3905 20.1862 18.6344ZM15.0273 22.1492C15.0846 22.3261 15.2263 22.6599 15.3421 22.8911L15.5529 23.3115L12.8222 26.0431C11.3204 27.5454 10.0721 28.7745 10.0483 28.7743C9.96077 28.7735 9.04976 27.4751 8.65197 26.7842C7.94534 25.5566 7.40724 23.9186 7.24076 22.4882L7.16383 21.8275H11.0435H14.9232L15.0273 22.1492ZM31.0373 22.4882C30.8713 23.9146 30.3235 25.573 29.6078 26.816C29.2244 27.4818 28.3155 28.7735 28.2298 28.7743C28.2059 28.7745 26.9576 27.5454 25.4558 26.0431L22.7252 23.3115L22.9359 22.8911C23.0518 22.6599 23.1935 22.3261 23.2508 22.1492L23.3549 21.8275H27.2346H31.1142L31.0373 22.4882ZM17.2335 24.7748C17.456 24.8862 17.7829 25.0243 17.9597 25.0816L18.2814 25.1857V29.0662V32.9465L17.7024 32.8784C16.405 32.7256 14.9234 32.2881 13.8162 31.7309C13.2632 31.4525 11.9215 30.5781 11.5114 30.2287L11.3026 30.051L14.041 27.3115C15.5471 25.8048 16.7906 24.5721 16.8042 24.5721C16.8178 24.5721 17.0111 24.6633 17.2335 24.7748ZM24.237 27.3115L26.9755 30.051L26.7666 30.2287C26.3566 30.5781 25.0148 31.4525 24.4618 31.7309C23.3546 32.2881 21.873 32.7256 20.5756 32.8784L19.9967 32.9465V29.0664V25.1863L20.4041 25.047C20.6282 24.9705 20.9466 24.8338 21.1117 24.7435C21.2768 24.6532 21.4314 24.5777 21.4552 24.5757C21.4791 24.5737 22.7309 25.8048 24.237 27.3115ZM15.6226 37.7372C17.1621 38.0652 18.8833 38.1786 20.4041 38.0524C21.732 37.9421 23.2018 37.6661 24.2867 37.3233L24.9316 37.1195L25.8019 38.7149L26.6722 40.3103L24.4422 40.3532L22.2122 40.3961L21.9621 40.6762C21.6343 41.0433 21.6343 41.3784 21.9622 41.7455L22.2123 42.0256L24.9309 42.0685L27.6496 42.1114L28.2373 43.1835L28.8248 44.2556L23.9819 44.2777C21.3184 44.2899 16.9597 44.2899 14.2961 44.2777L9.4532 44.2556L10.0408 43.1835L10.6285 42.1114L13.3381 42.0685L16.0477 42.0256L16.2835 41.7898C16.6124 41.4607 16.6125 40.9611 16.2835 40.6319L16.0478 40.3961L13.8269 40.3532L11.606 40.3103L12.4761 38.7149L13.3464 37.1195L13.9913 37.3233C14.346 37.4354 15.0801 37.6217 15.6226 37.7372ZM18.8292 40.4372C18.5592 40.5463 18.2814 40.9439 18.2814 41.2211C18.2814 41.5644 18.6755 41.9764 19.0629 42.0379C19.3241 42.0794 19.4181 42.0466 19.6613 41.8293C19.9023 41.614 19.9499 41.512 19.9499 41.2108C19.9499 40.9124 19.9019 40.8074 19.6717 40.6017C19.39 40.3499 19.1576 40.3046 18.8292 40.4372Z" fill="#C3ADDE" stroke="white" stroke-width="1.32" mask="url(#path-2-inside-2_0_3)"/>
<defs>
<filter id="filter0_f_0_3" x="0.115083" y="0.21634" width="38.0475" height="47.6997" filterUnits="userSpaceOnUse" color-interpolation-filters="sRGB">
<feFlood flood-opacity="0" result="BackgroundImageFix"/>
<feBlend mode="normal" in="SourceGraphic" in2="BackgroundImageFix" result="shape"/>
<feGaussianBlur stdDeviation="0.943435" result="effect1_foregroundBlur_0_3"/>
</filter>
</defs>
</svg>
