<svg width="71" height="78" viewBox="0 0 71 78" fill="none" xmlns="http://www.w3.org/2000/svg">
<g filter="url(#filter0_f_1402_7)">
<path fill-rule="evenodd" clip-rule="evenodd" d="M33.0335 3.32326C32.5547 3.49483 26.2868 6.99413 19.1049 11.0998C9.61752 16.5232 5.74944 18.8859 4.959 19.7405C3.01567 21.8411 3 21.9959 3 39.0083C3 56.3229 3.00174 56.3396 5.13426 58.426C6.33415 59.5996 30.0388 73.4477 32.7018 74.5307C34.2403 75.1564 36.7576 75.1564 38.3057 74.5307C40.9577 73.459 64.6673 59.6062 65.8698 58.426C67.9977 56.3373 68 56.3162 68 39.0017C68 22.5397 67.9655 22.1306 66.4055 20.0981C65.9801 19.5442 65.1531 18.7919 64.5672 18.4263C61.3064 16.3909 38.6815 3.58104 37.8507 3.29962C36.6421 2.89046 34.2078 2.90229 33.0335 3.32326ZM49.9889 14.0144C58.1566 18.7103 63.4007 21.8979 63.7724 22.393C64.3623 23.1781 64.3728 23.4665 64.3728 39.0083C64.3728 54.5502 64.3623 54.8385 63.7724 55.6236C63.4007 56.1187 58.1566 59.3063 49.9889 64.0023C38.2869 70.7301 36.6636 71.5822 35.5412 71.5862C34.1985 71.5911 35.3378 72.2055 14.0448 59.9874C10.5078 57.9578 7.56596 56.0743 7.22558 55.6213C6.63826 54.8394 6.62723 54.5346 6.62723 39.0083C6.62723 23.4601 6.63739 23.1784 7.22819 22.3918C7.56306 21.9463 10.1985 20.2344 13.1769 18.5275C16.1181 16.8421 22.0502 13.4339 26.3594 10.9536C33.2842 6.96818 34.346 6.44369 35.5 6.43965C36.6836 6.43533 38.0382 7.14349 49.9889 14.0144ZM34.3393 11.9043C33.7673 12.4726 33.7589 12.8653 33.7589 38.944C33.7589 68.0978 33.6704 66.689 35.5 66.689C37.2402 66.689 37.2411 66.6815 37.2411 53.0727V40.7384H41.0134C44.3989 40.7384 44.8452 40.6792 45.3661 40.1617C45.6853 39.8445 45.9464 39.3255 45.9464 39.0083C45.9464 38.6911 45.6853 38.1721 45.3661 37.8549C44.8452 37.3374 44.3989 37.2783 41.0134 37.2783H37.2411V26.7538C37.2411 20.9654 37.3212 16.2294 37.4187 16.2294C37.5165 16.2294 40.781 18.0595 44.6731 20.2964L51.75 24.3638V39.1828C51.75 53.6177 51.7651 54.017 52.3304 54.5787C53.0692 55.3128 53.913 55.3128 54.6518 54.5787C55.2159 54.0182 55.2321 53.6177 55.2321 40.1706V26.3395L56.9494 27.3394C57.8939 27.8896 58.9839 28.3397 59.371 28.3397C60.7058 28.3397 61.4974 26.7259 60.673 25.6855C60.4736 25.4338 57.1763 23.4379 53.346 21.2503C49.5156 19.0626 44.0426 15.9353 41.1837 14.3004C38.3249 12.6652 35.7458 11.3276 35.4527 11.3276C35.1596 11.3276 34.6585 11.5871 34.3393 11.9043ZM24.6012 20.387C24.0612 20.7791 24.0319 21.3541 23.8929 34.2864L23.7478 47.777L19.1087 37.269C16.5569 31.4895 14.2392 26.5324 13.958 26.253C13.2839 25.5832 12.4221 25.6091 11.7054 26.3213C11.1433 26.8798 11.125 27.2824 11.125 39.0083C11.125 50.7343 11.1433 51.1368 11.7054 51.6953C12.3884 52.3741 13.1179 52.43 13.8988 51.8631C14.4255 51.4808 14.4716 50.952 14.6071 43.7293L14.7522 36.0044L19.3913 46.5132C21.9431 52.2933 24.2608 57.251 24.542 57.5304C25.2161 58.2003 26.0779 58.1743 26.7946 57.4621C27.3625 56.8978 27.375 56.5011 27.375 39.0083C27.375 21.5155 27.3625 21.1188 26.7946 20.5545C26.1116 19.8757 25.3821 19.8198 24.6012 20.387Z" fill="#C3ADDE"/>
<path d="M33.1448 3.63391L33.1448 3.63392L33.1446 3.63399L33.144 3.63421L33.1418 3.63506L33.1339 3.63826C33.1272 3.64108 33.1184 3.64488 33.1074 3.64985C33.0853 3.65981 33.0569 3.67323 33.0217 3.69039C32.9513 3.72471 32.8587 3.77167 32.7442 3.83112C32.5156 3.94989 32.2054 4.11561 31.8225 4.32341C31.057 4.73883 30.0055 5.3199 28.7437 6.02438C26.2204 7.43319 22.8589 9.33387 19.2687 11.3863L19.1049 11.0998L19.2687 11.3863C14.5252 14.0979 11.19 16.0423 8.94262 17.4151C7.81873 18.1016 6.97026 18.6431 6.35519 19.0647C5.73268 19.4915 5.37099 19.7811 5.20126 19.9646L5.20123 19.9646C4.71301 20.4923 4.38128 20.8624 4.13089 21.387C3.87988 21.913 3.70088 22.6176 3.57906 23.8159C3.33441 26.2222 3.33 30.4905 3.33 39.0083C3.33 47.6785 3.33101 51.9856 3.59546 54.3917C3.72705 55.5889 3.92097 56.28 4.19264 56.792C4.46484 57.305 4.82642 57.6632 5.365 58.1901C5.41676 58.2407 5.5563 58.3484 5.80008 58.517C6.03579 58.6801 6.34967 58.8872 6.73234 59.1328C7.4973 59.6238 8.52952 60.2637 9.74495 61.0033C12.1754 62.4821 15.3324 64.3559 18.5358 66.2274C21.7393 68.0988 24.9878 69.9671 27.6013 71.4348C30.2266 72.9092 32.1846 73.9642 32.8261 74.225C33.5442 74.5171 34.5129 74.67 35.5002 74.67C36.4873 74.67 37.4587 74.5171 38.1821 74.2248C38.8204 73.9668 40.7762 72.9139 43.4008 71.4404C46.0131 69.9738 49.2613 68.1058 52.4648 66.2341C55.6684 64.3624 58.8259 62.4877 61.2569 61.0077C62.4727 60.2675 63.5052 59.627 64.2705 59.1353C64.6534 58.8893 64.9674 58.6818 65.2033 58.5184C65.4472 58.3494 65.5868 58.2414 65.6386 58.1905C66.176 57.6631 66.5369 57.3042 66.8086 56.7904C67.0798 56.2775 67.2734 55.5855 67.4048 54.3876C67.6688 51.9801 67.67 47.6718 67.67 39.0017C67.67 30.7617 67.661 26.5629 67.4589 24.1666C67.3581 22.9716 67.2109 22.2512 67.0046 21.7123C66.8003 21.1787 66.5314 20.8041 66.1437 20.2991C65.7421 19.7761 64.9444 19.0507 64.3925 18.7062L64.3924 18.7062C62.7697 17.6932 56.3062 13.9863 50.1351 10.4924C47.0517 8.74658 44.0446 7.05582 41.7568 5.78409C40.6127 5.14815 39.6493 4.61744 38.9465 4.23715C38.5948 4.04692 38.3097 3.895 38.1002 3.7866C37.9953 3.73233 37.911 3.68976 37.8475 3.65905C37.8157 3.64367 37.7905 3.63194 37.7715 3.62347L33.1448 3.63391ZM33.1448 3.63391C33.6805 3.44187 34.5394 3.3345 35.4309 3.33014C36.3217 3.32578 37.1906 3.42454 37.7449 3.61217L33.1448 3.63391ZM14.0107 60.0468L13.8805 60.2736C12.1086 59.2568 10.4842 58.2758 9.25851 57.491C8.64604 57.0989 8.13045 56.7541 7.74486 56.4773C7.55227 56.3391 7.38914 56.2157 7.26139 56.1104C7.1403 56.0107 7.02996 55.9103 6.96176 55.8196L6.96172 55.8195C6.79574 55.5985 6.65859 55.3901 6.56198 54.9498C6.47132 54.5366 6.41446 53.9132 6.37637 52.8558C6.29993 50.7334 6.29723 46.7673 6.29723 39.0083C6.29723 31.2384 6.29971 27.2725 6.37638 25.1525C6.41457 24.0964 6.47165 23.4746 6.56283 23.0623C6.66006 22.6226 6.79817 22.4148 6.96433 22.1936L6.96441 22.1935C7.03016 22.1061 7.13261 22.0105 7.24494 21.9157C7.36273 21.8163 7.51131 21.7013 7.68497 21.574C8.03264 21.3191 8.49223 21.0062 9.03143 20.656C10.1105 19.955 11.5193 19.0971 13.0128 18.2412L13.0128 18.2411C15.9538 16.5559 21.8857 13.1479 26.1948 10.6676L26.1948 10.6676C29.6538 8.67681 31.6608 7.54322 32.9476 6.90772C34.2391 6.26992 34.847 6.11194 35.4988 6.10965L14.0107 60.0468ZM14.0107 60.0468L13.8805 60.2736C14.9111 60.865 15.8891 61.4263 16.8175 61.9591C25.4771 66.9289 29.8149 69.4183 32.1177 70.6609C33.3867 71.3456 34.0615 71.6651 34.5098 71.8084C34.9015 71.9337 35.1386 71.9267 35.381 71.9195C35.434 71.918 35.4872 71.9164 35.5424 71.9162C36.1968 71.9138 36.953 71.6567 38.9511 70.6078C40.9669 69.5497 44.3046 67.651 50.1534 64.2883C54.2383 61.9397 57.5938 59.9674 59.9755 58.5196C61.166 57.796 62.1155 57.202 62.7919 56.757C63.1297 56.5347 63.4025 56.3476 63.6042 56.1988C63.705 56.1245 63.791 56.0577 63.8598 55.9992C63.9236 55.9449 63.9897 55.8838 64.0362 55.8219M14.0107 60.0468L64.0362 22.1947M64.0362 22.1947C64.2024 22.4159 64.3402 22.6238 64.4373 23.0636C64.5284 23.4762 64.5854 24.0984 64.6236 25.155C64.7002 27.2756 64.7028 31.2416 64.7028 39.0083C64.7028 46.7751 64.7002 50.741 64.6236 52.8617C64.5854 53.9182 64.5284 54.5404 64.4373 54.953C64.3402 55.3928 64.2024 55.6008 64.0362 55.8219M64.0362 22.1947C63.9897 22.1328 63.9236 22.0717 63.8598 22.0174M64.0362 22.1947L63.8598 22.0174M64.0362 55.8219L63.7751 55.6257L64.0363 55.8218C64.0363 55.8218 64.0362 55.8218 64.0362 55.8219ZM63.8598 22.0174C63.791 21.959 63.705 21.8921 63.6042 21.8178M63.8598 22.0174L63.6042 21.8178M63.6042 21.8178C63.4025 21.669 63.1297 21.4819 62.7919 21.2596M63.6042 21.8178L62.7919 21.2596M62.7919 21.2596C62.1155 20.8146 61.166 20.2206 59.9755 19.497M62.7919 21.2596L59.9755 19.497M59.9755 19.497C57.5938 18.0492 54.2383 16.0769 50.1534 13.7283M59.9755 19.497L50.1534 13.7283M50.1534 13.7283C44.1807 10.2944 40.8474 8.39554 38.8597 7.35636M50.1534 13.7283L38.8597 7.35636M38.8597 7.35636C36.884 6.32346 36.1822 6.10717 35.4988 6.10965L38.8597 7.35636ZM37.2411 40.4084H36.9111V40.7383V53.0727C36.9111 59.8933 36.9101 63.2664 36.6958 64.9423C36.5865 65.797 36.4308 66.1032 36.2894 66.2264C36.156 66.3426 35.973 66.359 35.5 66.359C35.4087 66.359 35.3191 66.3624 35.2412 66.3653C35.2155 66.3662 35.1911 66.3672 35.1684 66.3679C35.0702 66.371 34.9969 66.3711 34.9349 66.3645C34.8302 66.3533 34.7751 66.327 34.7176 66.2523C34.641 66.1528 34.5504 65.9501 34.469 65.534C34.3889 65.1251 34.3241 64.5467 34.2727 63.7285C34.086 60.752 34.0868 54.774 34.0886 42.7819C34.0887 41.5655 34.0889 40.2873 34.0889 38.944C34.0889 25.9021 34.0911 19.2893 34.1646 15.8648C34.2014 14.1475 34.2561 13.2515 34.3334 12.7522C34.3718 12.5043 34.4129 12.3759 34.4484 12.3009C34.4794 12.2354 34.5111 12.1988 34.5719 12.1384C34.7048 12.0063 34.8816 11.8811 35.0575 11.79C35.2282 11.7016 35.3626 11.6636 35.4358 11.6583C35.438 11.6588 35.4405 11.6595 35.4433 11.6603C35.4664 11.6669 35.5008 11.6785 35.5481 11.6966C35.6424 11.7325 35.7708 11.7877 35.9317 11.8619C36.2527 12.0097 36.6867 12.2254 37.2041 12.4937C38.238 13.03 39.5935 13.771 41.0199 14.5868L41.1837 14.3004L41.0199 14.5869C43.8788 16.2218 49.3519 19.3492 53.1823 21.5368C55.0957 22.6296 56.8751 23.6741 58.2002 24.4762C58.8631 24.8774 59.4105 25.2169 59.8035 25.4711C60.0004 25.5984 60.1559 25.7025 60.2669 25.7814C60.3226 25.821 60.3642 25.8522 60.3931 25.8754C60.4092 25.8883 60.4177 25.8959 60.421 25.8989C61.0594 26.7189 60.4319 28.0097 59.371 28.0097C59.3238 28.0097 59.2208 27.9933 59.0559 27.9444C58.8986 27.8978 58.7077 27.8286 58.4952 27.7409C58.0704 27.5654 57.5752 27.3221 57.1155 27.0543L57.1155 27.0543L55.3982 26.0543L54.9021 25.7655V26.3395V40.1706C54.9021 46.8986 54.898 50.3513 54.8238 52.1938C54.7865 53.1199 54.732 53.6122 54.6601 53.9026C54.6255 54.0426 54.5893 54.1244 54.5556 54.1806C54.5221 54.2366 54.4827 54.2815 54.4192 54.3446C54.0939 54.6679 53.7774 54.7993 53.4911 54.7993C53.2048 54.7993 52.8883 54.6679 52.563 54.3446C52.4994 54.2815 52.4609 54.2374 52.4277 54.1809C52.3941 54.1237 52.3574 54.0384 52.3223 53.8901C52.2497 53.5831 52.1952 53.0589 52.158 52.0708C52.0838 50.1043 52.08 46.4044 52.08 39.1828V24.3638V24.1728L51.9144 24.0777L44.8376 20.0103C42.8908 18.8914 41.1005 17.8741 39.7844 17.1362C39.1265 16.7674 38.5861 16.4678 38.2035 16.2602C38.0125 16.1566 37.859 16.0749 37.7493 16.0187C37.6948 15.9908 37.6481 15.9676 37.6118 15.9509C37.594 15.9427 37.5745 15.934 37.5557 15.9268C37.5465 15.9232 37.533 15.9183 37.5174 15.9138L37.5166 15.9135C37.5074 15.9108 37.4681 15.8994 37.4187 15.8994C37.2401 15.8994 37.1525 16.0301 37.1386 16.0513C37.1133 16.0896 37.101 16.1252 37.0961 16.1399C37.0849 16.1739 37.0787 16.2079 37.075 16.2304C37.0668 16.2802 37.0601 16.3448 37.0541 16.4173C37.042 16.5652 37.0307 16.7784 37.02 17.0467C36.9987 17.585 36.9795 18.3608 36.9633 19.3154C36.9311 21.2253 36.9111 23.8583 36.9111 26.7538V37.2783V37.6083H37.2411H41.0134C42.7146 37.6083 43.6473 37.6237 44.2206 37.6997C44.5023 37.737 44.6765 37.7867 44.8029 37.8456C44.9248 37.9025 45.0196 37.9759 45.1335 38.089C45.2641 38.2188 45.3894 38.3975 45.4812 38.58C45.5765 38.7695 45.6164 38.9244 45.6164 39.0083C45.6164 39.0922 45.5765 39.2471 45.4812 39.4367C45.3894 39.6191 45.2641 39.7978 45.1335 39.9276C45.0196 40.0407 44.9248 40.1142 44.8029 40.171C44.6765 40.23 44.5023 40.2796 44.2206 40.317C43.6473 40.3929 42.7146 40.4084 41.0134 40.4084H37.2411ZM24.7951 20.654L24.7951 20.654C25.1426 20.4016 25.444 20.3123 25.7094 20.3326C25.9747 20.3528 26.2584 20.4868 26.562 20.7886C26.6252 20.8513 26.6616 20.8933 26.6938 20.9515C26.7274 21.0125 26.7655 21.1085 26.8018 21.2832C26.8762 21.6413 26.9308 22.2635 26.9679 23.4436C27.0418 25.7932 27.045 30.2583 27.045 39.0083C27.045 47.7583 27.0418 52.2234 26.9679 54.573C26.9308 55.7531 26.8762 56.3753 26.8018 56.7334C26.7655 56.9081 26.7274 57.0041 26.6938 57.0651C26.6616 57.1234 26.6252 57.1653 26.562 57.228C26.2486 57.5395 25.9297 57.676 25.6423 57.6847C25.3602 57.6932 25.0627 57.58 24.7806 57.3023C24.78 57.301 24.7691 57.2869 24.746 57.2498C24.7175 57.204 24.6802 57.1394 24.6339 57.0551C24.5417 56.8871 24.4203 56.6523 24.2727 56.3566C23.9778 55.7659 23.5834 54.9422 23.1171 53.9448C22.1848 51.9506 20.9684 49.2684 19.6932 46.38L15.0541 35.8711L14.4223 35.9982L14.2772 43.7231C14.2093 47.3407 14.164 49.2641 14.0709 50.3327C14.0241 50.8701 13.9673 51.1598 13.9034 51.3314C13.8491 51.4771 13.793 51.5321 13.705 51.5961C13.3575 51.8483 13.056 51.9376 12.7906 51.9173C12.5253 51.897 12.2416 51.763 11.938 51.4612C11.8744 51.3981 11.8336 51.3518 11.7993 51.2966C11.7654 51.2419 11.73 51.1657 11.6962 51.0404C11.6257 50.779 11.5714 50.342 11.5341 49.5245C11.4597 47.898 11.455 44.8763 11.455 39.0083C11.455 33.1404 11.4597 30.1186 11.5341 28.4921C11.5714 27.6746 11.6257 27.2376 11.6962 26.9762C11.73 26.851 11.7654 26.7747 11.7993 26.7201C11.8336 26.6648 11.8744 26.6185 11.938 26.5554C12.2514 26.244 12.5703 26.1074 12.8577 26.0987C13.1398 26.0902 13.4373 26.2034 13.7194 26.4811C13.72 26.4824 13.7309 26.4966 13.754 26.5337C13.7825 26.5795 13.8198 26.644 13.8661 26.7283C13.9584 26.8963 14.0797 27.1311 14.2273 27.4268C14.5222 28.0174 14.9166 28.841 15.3829 29.8382C16.3152 31.8322 17.5316 34.5142 18.8068 37.4023L23.4459 47.9103L24.0777 47.7806L24.2228 34.29C24.2924 27.8196 24.3344 24.4517 24.4262 22.6509C24.4724 21.745 24.5302 21.2633 24.6016 20.9886C24.6361 20.8559 24.6697 20.7885 24.6953 20.7504C24.7186 20.7158 24.7449 20.6904 24.7951 20.654Z" stroke="white" stroke-width="0.66"/>
</g>
<path d="M33.5714 4.31877C33.1 4.48795 26.9286 7.93865 19.8571 11.9873C10.5157 17.3354 6.70714 19.6652 5.92886 20.508C4.01543 22.5794 4 22.7321 4 39.5082C4 56.5823 4.00171 56.5988 6.10143 58.6562C7.28286 59.8135 30.6229 73.4693 33.2449 74.5372C34.7597 75.1543 37.2383 75.1543 38.7626 74.5372C41.3737 73.4804 64.7186 59.82 65.9026 58.6562C67.9977 56.5965 68 56.5757 68 39.5017C68 23.2683 67.966 22.8649 66.43 20.8606C66.0111 20.3144 65.1969 19.5725 64.62 19.212C61.4094 17.2049 39.1326 4.57297 38.3146 4.29546C37.1246 3.89199 34.7277 3.90364 33.5714 4.31877ZM50.266 14.8614C58.308 19.4921 63.4714 22.6354 63.8374 23.1236C64.4183 23.8979 64.4286 24.1822 64.4286 39.5082C64.4286 54.8342 64.4183 55.1185 63.8374 55.8928C63.4714 56.381 58.308 59.5243 50.266 64.155C38.744 70.7894 37.1457 71.6296 36.0406 71.6336C35.9091 71.6341 35.8018 71.6405 35.6946 71.6398C34.7233 71.6338 33.7556 71.0463 14.8749 60.1959C11.3923 58.1945 8.49571 56.3372 8.16057 55.8905C7.58229 55.1194 7.57143 54.8188 7.57143 39.5082C7.57143 24.1759 7.58143 23.8981 8.16314 23.1225C8.49286 22.6832 11.0877 20.9951 14.0203 19.3118C16.9163 17.6499 22.7571 14.289 27 11.8432C33.8183 7.91306 34.8637 7.39586 36 7.39188C37.1654 7.38761 38.4991 8.08594 50.266 14.8614ZM34.8571 12.7806C34.294 13.341 34.2857 13.7283 34.2857 39.4448C34.2857 63.2278 34.2261 66.3852 35.2254 66.7663C35.434 66.8459 35.6888 66.8044 36 66.8044C37.7134 66.8044 37.7143 66.797 37.7143 53.3772V41.2142H41.4286C44.762 41.2142 45.2014 41.1559 45.7143 40.6455C46.0286 40.3328 46.2857 39.821 46.2857 39.5082C46.2857 39.1954 46.0286 38.6836 45.7143 38.3708C45.2014 37.8605 44.762 37.8022 41.4286 37.8022H37.7143V27.4239C37.7143 21.7159 37.7931 17.0457 37.8891 17.0457C37.9854 17.0457 41.1997 18.8503 45.032 21.0562L52 25.0671V39.6802C52 53.9146 52.0149 54.3084 52.5714 54.8623C53.2989 55.5863 54.1297 55.5863 54.8571 54.8623C55.4126 54.3096 55.4286 53.9146 55.4286 40.6544V27.0153L57.1194 28.0014C58.0494 28.5439 59.1226 28.9878 59.5037 28.9878C60.818 28.9878 61.5974 27.3963 60.7857 26.3704C60.5894 26.1222 57.3429 24.1541 53.5714 21.9968C49.8 19.8395 44.4111 16.7556 41.5963 15.1434C38.7814 13.531 36.242 12.2119 35.9534 12.2119C35.6649 12.2119 35.1714 12.4678 34.8571 12.7806ZM25.2689 21.1455C24.7371 21.5322 24.7083 22.0992 24.5714 34.8519L24.4286 48.1551L19.8609 37.7931C17.3483 32.0938 15.0663 27.2055 14.7894 26.93C14.1257 26.2695 13.2771 26.2951 12.5714 26.9974C12.018 27.5482 12 27.9451 12 39.5082C12 51.0713 12.018 51.4682 12.5714 52.019C13.244 52.6883 13.9623 52.7435 14.7311 52.1845C15.2497 51.8074 15.2951 51.286 15.4286 44.1636L15.5714 36.546L20.1391 46.9089C22.6517 52.6087 24.9337 57.4976 25.2106 57.7731C25.8743 58.4336 26.7229 58.408 27.4286 57.7057C27.9877 57.1492 28 56.758 28 39.5082C28 22.2584 27.9877 21.8671 27.4286 21.3107C26.756 20.6414 26.0377 20.5862 25.2689 21.1455Z" fill="white"/>
<path d="M33.5714 4.31877C33.1 4.48795 26.9286 7.93865 19.8571 11.9873C10.5157 17.3354 6.70714 19.6652 5.92886 20.508C4.01543 22.5794 4 22.7321 4 39.5082C4 56.5823 4.00171 56.5988 6.10143 58.6562C7.28286 59.8135 30.6229 73.4693 33.2449 74.5372C34.7597 75.1543 37.2383 75.1543 38.7626 74.5372C41.3737 73.4804 64.7186 59.82 65.9026 58.6562C67.9977 56.5965 68 56.5757 68 39.5017C68 23.2683 67.966 22.8649 66.43 20.8606C66.0111 20.3144 65.1969 19.5725 64.62 19.212C61.4094 17.2049 39.1326 4.57297 38.3146 4.29546C37.1246 3.89199 34.7277 3.90364 33.5714 4.31877ZM50.266 14.8614C58.308 19.4921 63.4714 22.6354 63.8374 23.1236C64.4183 23.8979 64.4286 24.1822 64.4286 39.5082C64.4286 54.8342 64.4183 55.1185 63.8374 55.8928C63.4714 56.381 58.308 59.5243 50.266 64.155C38.744 70.7894 37.1457 71.6296 36.0406 71.6336C35.9091 71.6341 35.8018 71.6405 35.6946 71.6398C34.7233 71.6338 33.7556 71.0463 14.8749 60.1959C11.3923 58.1945 8.49571 56.3372 8.16057 55.8905C7.58229 55.1194 7.57143 54.8188 7.57143 39.5082C7.57143 24.1759 7.58143 23.8981 8.16314 23.1225C8.49286 22.6832 11.0877 20.9951 14.0203 19.3118C16.9163 17.6499 22.7571 14.289 27 11.8432C33.8183 7.91306 34.8637 7.39586 36 7.39188C37.1654 7.38761 38.4991 8.08594 50.266 14.8614ZM34.8571 12.7806C34.294 13.341 34.2857 13.7283 34.2857 39.4448C34.2857 63.2278 34.2261 66.3852 35.2254 66.7663C35.434 66.8459 35.6888 66.8044 36 66.8044C37.7134 66.8044 37.7143 66.797 37.7143 53.3772V41.2142H41.4286C44.762 41.2142 45.2014 41.1559 45.7143 40.6455C46.0286 40.3328 46.2857 39.821 46.2857 39.5082C46.2857 39.1954 46.0286 38.6836 45.7143 38.3708C45.2014 37.8605 44.762 37.8022 41.4286 37.8022H37.7143V27.4239C37.7143 21.7159 37.7931 17.0457 37.8891 17.0457C37.9854 17.0457 41.1997 18.8503 45.032 21.0562L52 25.0671V39.6802C52 53.9146 52.0149 54.3084 52.5714 54.8623C53.2989 55.5863 54.1297 55.5863 54.8571 54.8623C55.4126 54.3096 55.4286 53.9146 55.4286 40.6544V27.0153L57.1194 28.0014C58.0494 28.5439 59.1226 28.9878 59.5037 28.9878C60.818 28.9878 61.5974 27.3963 60.7857 26.3704C60.5894 26.1222 57.3429 24.1541 53.5714 21.9968C49.8 19.8395 44.4111 16.7556 41.5963 15.1434C38.7814 13.531 36.242 12.2119 35.9534 12.2119C35.6649 12.2119 35.1714 12.4678 34.8571 12.7806ZM25.2689 21.1455C24.7371 21.5322 24.7083 22.0992 24.5714 34.8519L24.4286 48.1551L19.8609 37.7931C17.3483 32.0938 15.0663 27.2055 14.7894 26.93C14.1257 26.2695 13.2771 26.2951 12.5714 26.9974C12.018 27.5482 12 27.9451 12 39.5082C12 51.0713 12.018 51.4682 12.5714 52.019C13.244 52.6883 13.9623 52.7435 14.7311 52.1845C15.2497 51.8074 15.2951 51.286 15.4286 44.1636L15.5714 36.546L20.1391 46.9089C22.6517 52.6087 24.9337 57.4976 25.2106 57.7731C25.8743 58.4336 26.7229 58.408 27.4286 57.7057C27.9877 57.1492 28 56.758 28 39.5082C28 22.2584 27.9877 21.8671 27.4286 21.3107C26.756 20.6414 26.0377 20.5862 25.2689 21.1455Z" stroke="white"/>
<path d="M33.6473 5.31031C33.1906 5.475 27.2121 8.83407 20.3616 12.7752C11.3121 17.9813 7.62254 20.2493 6.86858 21.0697C5.01495 23.086 5 23.2347 5 39.5653C5 56.186 5.00166 56.2021 7.03576 58.2049C8.18027 59.3314 30.7909 72.6246 33.331 73.6642C34.7985 74.2648 37.1996 74.2648 38.6762 73.6642C41.2058 72.6354 63.8211 59.3378 64.9681 58.2049C66.9978 56.1999 67 56.1797 67 39.559C67 23.7567 66.9671 23.3639 65.4791 21.4129C65.0733 20.8812 64.2845 20.159 63.7256 19.8081C60.6154 17.8542 39.0347 5.55776 38.2422 5.28761C37.0894 4.89485 34.7675 4.9062 33.6473 5.31031ZM49.8202 15.573C57.6109 20.0807 62.6129 23.1406 62.9675 23.6158C63.5302 24.3695 63.5402 24.6463 63.5402 39.5653C63.5402 54.4844 63.5302 54.7611 62.9675 55.5148C62.6129 55.9901 57.6109 59.0499 49.8202 63.5577C38.6582 70.0159 37.1099 70.8338 36.0393 70.8377C35.912 70.8382 35.808 70.8444 35.7041 70.8438C34.7632 70.8379 33.8257 70.266 15.535 59.7037C12.1613 57.7554 9.35522 55.9474 9.03055 55.5126C8.47034 54.762 8.45982 54.4694 8.45982 39.5653C8.45982 24.6402 8.46951 24.3698 9.03304 23.6147C9.35246 23.1871 11.8662 21.5438 14.7072 19.9052C17.5127 18.2874 23.171 15.0158 27.2812 12.6349C33.8865 8.80916 34.8992 8.30569 36 8.30181C37.129 8.29766 38.421 8.97744 49.8202 15.573ZM34.8929 13.5475C34.3473 14.093 34.3393 14.47 34.3393 39.5036C34.3393 62.6643 34.2815 65.7311 35.2507 66.1001C35.4526 66.177 35.6991 66.1368 36 66.1368C37.6599 66.1368 37.6607 66.1296 37.6607 53.0661V41.226H41.2589C44.4882 41.226 44.9139 41.1693 45.4107 40.6725C45.7152 40.368 45.9643 39.8698 45.9643 39.5653C45.9643 39.2609 45.7152 38.7626 45.4107 38.4582C44.9139 37.9613 44.4882 37.9046 41.2589 37.9046H37.6607V27.8019C37.6607 22.2454 37.7371 17.6992 37.8301 17.6992C37.9234 17.6992 41.0372 19.456 44.7497 21.6033L51.5 25.5076V39.7328C51.5 53.5892 51.5144 53.9726 52.0536 54.5118C52.7583 55.2164 53.5632 55.2164 54.2679 54.5118C54.8059 53.9737 54.8214 53.5892 54.8214 40.681V27.4042L56.4594 28.3641C57.3604 28.8922 58.4 29.3242 58.7692 29.3242C60.0424 29.3242 60.7975 27.7751 60.0112 26.7764C59.821 26.5348 56.6759 24.6189 53.0223 22.5189C49.3687 20.4189 44.1483 17.4169 41.4214 15.8475C38.6945 14.2779 36.2344 12.9939 35.9549 12.9939C35.6753 12.9939 35.1973 13.243 34.8929 13.5475ZM25.6042 21.6902C25.0891 22.0666 25.0612 22.6186 24.9286 35.0327L24.7902 47.9827L20.3652 37.8957C17.9312 32.3479 15.7205 27.5894 15.4523 27.3211C14.8093 26.6782 13.9872 26.7031 13.3036 27.3867C12.7674 27.9229 12.75 28.3093 12.75 39.5653C12.75 50.8214 12.7674 51.2078 13.3036 51.7439C13.9551 52.3954 14.651 52.4491 15.3958 51.905C15.8982 51.538 15.9422 51.0303 16.0714 44.0971L16.2098 36.6818L20.6348 46.7695C23.0688 52.3179 25.2795 57.077 25.5477 57.3452C26.1907 57.9882 27.0128 57.9633 27.6964 57.2796C28.2381 56.7379 28.25 56.3571 28.25 39.5653C28.25 22.7736 28.2381 22.3927 27.6964 21.851C27.0449 21.1995 26.349 21.1458 25.6042 21.6902Z" fill="#C3ADDE"/>
<path d="M33.6473 5.31031C33.1906 5.475 27.2121 8.83407 20.3616 12.7752C11.3121 17.9813 7.62254 20.2493 6.86858 21.0697C5.01495 23.086 5 23.2347 5 39.5653C5 56.186 5.00166 56.2021 7.03576 58.2049C8.18027 59.3314 30.7909 72.6246 33.331 73.6642C34.7985 74.2648 37.1996 74.2648 38.6762 73.6642C41.2058 72.6354 63.8211 59.3378 64.9681 58.2049C66.9978 56.1999 67 56.1797 67 39.559C67 23.7567 66.9671 23.3639 65.4791 21.4129C65.0733 20.8812 64.2845 20.159 63.7256 19.8081C60.6154 17.8542 39.0347 5.55776 38.2422 5.28761C37.0894 4.89485 34.7675 4.9062 33.6473 5.31031ZM49.8202 15.573C57.6109 20.0807 62.6129 23.1406 62.9675 23.6158C63.5302 24.3695 63.5402 24.6463 63.5402 39.5653C63.5402 54.4844 63.5302 54.7611 62.9675 55.5148C62.6129 55.9901 57.6109 59.0499 49.8202 63.5577C38.6582 70.0159 37.1099 70.8338 36.0393 70.8377C35.912 70.8382 35.808 70.8444 35.7041 70.8438C34.7632 70.8379 33.8257 70.266 15.535 59.7037C12.1613 57.7554 9.35522 55.9474 9.03055 55.5126C8.47034 54.762 8.45982 54.4694 8.45982 39.5653C8.45982 24.6402 8.46951 24.3698 9.03304 23.6147C9.35246 23.1871 11.8662 21.5438 14.7072 19.9052C17.5127 18.2874 23.171 15.0158 27.2812 12.6349C33.8865 8.80916 34.8992 8.30569 36 8.30181C37.129 8.29766 38.421 8.97744 49.8202 15.573ZM34.8929 13.5475C34.3473 14.093 34.3393 14.47 34.3393 39.5036C34.3393 62.6643 34.2815 65.7311 35.2507 66.1001C35.4526 66.177 35.6991 66.1368 36 66.1368C37.6599 66.1368 37.6607 66.1296 37.6607 53.0661V41.226H41.2589C44.4882 41.226 44.9139 41.1693 45.4107 40.6725C45.7152 40.368 45.9643 39.8698 45.9643 39.5653C45.9643 39.2609 45.7152 38.7626 45.4107 38.4582C44.9139 37.9613 44.4882 37.9046 41.2589 37.9046H37.6607V27.8019C37.6607 22.2454 37.7371 17.6992 37.8301 17.6992C37.9234 17.6992 41.0372 19.456 44.7497 21.6033L51.5 25.5076V39.7328C51.5 53.5892 51.5144 53.9726 52.0536 54.5118C52.7583 55.2164 53.5632 55.2164 54.2679 54.5118C54.8059 53.9737 54.8214 53.5892 54.8214 40.681V27.4042L56.4594 28.3641C57.3604 28.8922 58.4 29.3242 58.7692 29.3242C60.0424 29.3242 60.7975 27.7751 60.0112 26.7764C59.821 26.5348 56.6759 24.6189 53.0223 22.5189C49.3687 20.4189 44.1483 17.4169 41.4214 15.8475C38.6945 14.2779 36.2344 12.9939 35.9549 12.9939C35.6753 12.9939 35.1973 13.243 34.8929 13.5475ZM25.6042 21.6902C25.0891 22.0666 25.0612 22.6186 24.9286 35.0327L24.7902 47.9827L20.3652 37.8957C17.9312 32.3479 15.7205 27.5894 15.4523 27.3211C14.8093 26.6782 13.9872 26.7031 13.3036 27.3867C12.7674 27.9229 12.75 28.3093 12.75 39.5653C12.75 50.8214 12.7674 51.2078 13.3036 51.7439C13.9551 52.3954 14.651 52.4491 15.3958 51.905C15.8982 51.538 15.9422 51.0303 16.0714 44.0971L16.2098 36.6818L20.6348 46.7695C23.0688 52.3179 25.2795 57.077 25.5477 57.3452C26.1907 57.9882 27.0128 57.9633 27.6964 57.2796C28.2381 56.7379 28.25 56.3571 28.25 39.5653C28.25 22.7736 28.2381 22.3927 27.6964 21.851C27.0449 21.1995 26.349 21.1458 25.6042 21.6902Z" stroke="white"/>
<defs>
<filter id="filter0_f_1402_7" x="0.0445075" y="0.0445075" width="70.911" height="77.911" filterUnits="userSpaceOnUse" color-interpolation-filters="sRGB">
<feFlood flood-opacity="0" result="BackgroundImageFix"/>
<feBlend mode="normal" in="SourceGraphic" in2="BackgroundImageFix" result="shape"/>
<feGaussianBlur stdDeviation="1.47775" result="effect1_foregroundBlur_1402_7"/>
</filter>
</defs>
</svg>
