<svg width="43" height="48" viewBox="0 0 43 48" fill="none" xmlns="http://www.w3.org/2000/svg">
<g filter="url(#filter0_f_1_2)">
<path fill-rule="evenodd" clip-rule="evenodd" d="M20.2387 3.28729C19.9678 3.38499 16.4212 5.37764 12.3574 7.7156C6.98907 10.8039 4.80037 12.1493 4.3531 12.636C3.2535 13.8322 3.24463 13.9203 3.24463 23.6079C3.24463 33.4676 3.24561 33.4772 4.45228 34.6653C5.13122 35.3335 18.5442 43.2193 20.051 43.836C20.9216 44.1923 22.346 44.1923 23.222 43.836C24.7225 43.2257 38.1383 35.3373 38.8187 34.6653C40.0228 33.4758 40.0241 33.4638 40.0241 23.6042C40.0241 14.23 40.0045 13.997 39.1218 12.8396C38.8811 12.5242 38.4132 12.0958 38.0817 11.8876C36.2366 10.7286 23.4346 3.43408 22.9645 3.27383C22.2806 3.04084 20.9032 3.04757 20.2387 3.28729ZM29.8327 9.37528C34.4543 12.0493 37.4216 13.8645 37.6319 14.1464C37.9657 14.5935 37.9717 14.7577 37.9717 23.6079C37.9717 32.4582 37.9657 32.6224 37.6319 33.0695C37.4216 33.3514 34.4543 35.1665 29.8327 37.8406C23.2113 41.6717 22.2928 42.1569 21.6577 42.1592C20.8979 42.162 21.5426 42.5119 9.49418 35.5544C7.49282 34.3986 5.82822 33.3261 5.63562 33.0681C5.30329 32.6228 5.29705 32.4493 5.29705 23.6079C5.29705 14.7541 5.3028 14.5937 5.6371 14.1458C5.82658 13.8921 7.31779 12.9173 9.00308 11.9452C10.6673 10.9855 14.024 9.04475 16.4622 7.63236C20.3806 5.36287 20.9814 5.0642 21.6344 5.0619C22.3041 5.05944 23.0706 5.4627 29.8327 9.37528ZM20.9776 8.1737C20.654 8.49733 20.6492 8.72096 20.6492 23.5713C20.6492 40.1728 20.5991 39.3706 21.6344 39.3706C22.619 39.3706 22.6195 39.3663 22.6195 31.6168V24.5931H24.754C26.6697 24.5931 26.9222 24.5594 27.217 24.2647C27.3976 24.0841 27.5453 23.7886 27.5453 23.6079C27.5453 23.4273 27.3976 23.1318 27.217 22.9512C26.9222 22.6564 26.6697 22.6228 24.754 22.6228H22.6195V16.6297C22.6195 13.3335 22.6648 10.6366 22.72 10.6366C22.7753 10.6366 24.6225 11.6788 26.8249 12.9526L30.8292 15.2687V23.7073C30.8292 31.9272 30.8378 32.1546 31.1576 32.4744C31.5756 32.8925 32.0531 32.8925 32.4712 32.4744C32.7904 32.1552 32.7995 31.9272 32.7995 24.2698V16.3937L33.7712 16.9632C34.3057 17.2765 34.9224 17.5328 35.1414 17.5328C35.8967 17.5328 36.3447 16.6138 35.8782 16.0214C35.7654 15.878 33.8996 14.7415 31.7323 13.4957C29.5649 12.25 26.4681 10.4691 24.8504 9.53816C23.2328 8.60701 21.7734 7.84532 21.6076 7.84532C21.4418 7.84532 21.1582 7.99309 20.9776 8.1737ZM15.4674 13.0041C15.1618 13.2274 15.1452 13.5548 15.0666 20.9191L14.9845 28.6012L12.3595 22.6175C10.9156 19.3264 9.60419 16.5036 9.44509 16.3445C9.06366 15.9631 8.57601 15.9778 8.17045 16.3834C7.85241 16.7014 7.84206 16.9307 7.84206 23.6079C7.84206 30.2852 7.85241 30.5144 8.17045 30.8325C8.55696 31.219 8.96975 31.2508 9.41159 30.928C9.7096 30.7103 9.73571 30.4092 9.81239 26.2963L9.89449 21.8974L12.5195 27.8816C13.9634 31.173 15.2748 33.9962 15.4339 34.1553C15.8153 34.5367 16.303 34.5219 16.7085 34.1164C17.0299 33.795 17.0369 33.5691 17.0369 23.6079C17.0369 13.6468 17.0299 13.4209 16.7085 13.0995C16.322 12.713 15.9092 12.6812 15.4674 13.0041Z" fill="#C3ADDE"/>
<path d="M4.59608 12.8593L4.59605 12.8593C4.31882 13.1609 4.14548 13.3572 4.01418 13.6341C3.88222 13.9124 3.78311 14.2951 3.71484 14.9708C3.57733 16.332 3.57463 18.7526 3.57463 23.6079C3.57463 28.5506 3.57545 30.9923 3.724 32.3526C3.79766 33.027 3.90477 33.4002 4.04643 33.6689C4.18857 33.9385 4.37674 34.1278 4.68381 34.4301C4.7031 34.4491 4.77195 34.5037 4.91134 34.6008C5.04277 34.6923 5.21881 34.8092 5.43472 34.9487C5.86615 35.2274 6.4491 35.5911 7.13645 36.012C8.5107 36.8535 10.2963 37.9201 12.1085 38.9855C13.9206 40.0509 15.758 41.1143 17.2359 41.9496C18.7257 42.7916 19.8237 43.3864 20.176 43.5306C20.5599 43.6877 21.0882 43.7732 21.6345 43.7732C22.1807 43.7732 22.7106 43.6877 23.0976 43.5303L23.222 43.836L23.0976 43.5303C23.448 43.3878 24.5446 42.7943 26.034 41.9528C27.5112 41.1181 29.3484 40.0549 31.1606 38.9893C32.9729 37.9237 34.7587 36.8567 36.1333 36.0145C36.8208 35.5933 37.404 35.2292 37.8356 34.9501C38.0516 34.8105 38.2277 34.6933 38.3592 34.6016C38.4987 34.5043 38.5675 34.4495 38.5868 34.4305C38.8931 34.1279 39.081 33.9382 39.2229 33.6682C39.3644 33.3989 39.4713 33.0252 39.5449 32.3503C39.6932 30.9892 39.6941 28.5468 39.6941 23.6042C39.6941 18.9081 39.6889 16.5252 39.5751 15.1682C39.5185 14.4928 39.4366 14.0977 39.3268 13.809C39.2189 13.5255 39.0778 13.326 38.8595 13.0398C38.6424 12.7553 38.2037 12.3539 37.9062 12.1671L37.9061 12.167C36.9912 11.5923 33.3374 9.48334 29.8441 7.49289C28.0996 6.49887 26.3984 5.53628 25.1043 4.81235C24.4571 4.45031 23.9125 4.14841 23.5155 3.93225C23.3169 3.82407 23.1564 3.73805 23.039 3.67693C22.916 3.61286 22.8638 3.58886 22.8585 3.58639L22.8581 3.5862L4.59608 12.8593ZM4.59608 12.8593C4.68009 12.7679 4.87252 12.6109 5.22494 12.3678C5.56994 12.1298 6.04759 11.8229 6.68267 11.4326C7.95238 10.652 9.83805 9.54566 12.522 8.00165L12.3574 7.7156M4.59608 12.8593L12.3574 7.7156M12.3574 7.7156L12.522 8.00164C14.5531 6.83308 16.4547 5.751 17.882 4.94905C18.5958 4.548 19.1902 4.21743 19.6226 3.98127C19.839 3.86311 20.0136 3.76922 20.1418 3.70217C20.2061 3.66859 20.2573 3.64248 20.2955 3.6237C20.3286 3.60746 20.3449 3.60032 20.3495 3.59828C20.3509 3.59767 20.3512 3.59752 20.3507 3.59772L20.3507 3.59771M12.3574 7.7156L20.3507 3.59771M20.3507 3.59771C20.6312 3.49651 21.0981 3.43574 21.596 3.43329M20.3507 3.59771L21.596 3.43329M9.49418 35.5544L9.32915 35.8401C8.32503 35.2603 7.4038 34.7004 6.70788 34.252C6.36027 34.028 6.06618 33.8301 5.8451 33.6704C5.73477 33.5907 5.63966 33.5184 5.56398 33.4557C5.49493 33.3984 5.4208 33.332 5.3712 33.2656L5.37115 33.2655C5.26902 33.1287 5.18025 32.9916 5.12009 32.7157C5.06582 32.4668 5.03348 32.1005 5.01193 31.4984C4.96855 30.2865 4.96705 28.0245 4.96705 23.6079C4.96705 19.1852 4.96843 16.9233 5.01193 15.7128C5.03354 15.1113 5.06601 14.7458 5.12063 14.4973C5.18122 14.2216 5.27069 14.085 5.37263 13.9484L5.37271 13.9483C5.42017 13.8848 5.48875 13.8216 5.55338 13.7667C5.62343 13.7072 5.71034 13.6396 5.81004 13.5661C6.00979 13.4187 6.27232 13.2389 6.57859 13.0387C7.19179 12.6378 7.99127 12.1479 8.8382 11.6594L8.83823 11.6594C10.5022 10.6998 13.8587 8.75914 16.2968 7.3468L16.2969 7.3468C18.2527 6.214 19.3928 5.5658 20.1259 5.20142C20.8637 4.83474 21.2314 4.73333 21.6331 4.7319L9.49418 35.5544ZM9.49418 35.5544L9.32916 35.8401C9.9126 36.1771 10.4663 36.4969 10.9919 36.8005C15.8904 39.6296 18.3469 41.0484 19.6517 41.7569C20.3683 42.1461 20.7614 42.3346 21.0298 42.4209C21.2767 42.5004 21.4356 42.4954 21.5748 42.4911C21.6035 42.4902 21.6313 42.4893 21.6589 42.4892C22.0701 42.4877 22.5287 42.3222 23.6545 41.7275C24.7981 41.1234 26.6895 40.0405 29.998 38.1262C32.3099 36.7886 34.2097 35.6648 35.5588 34.8395C36.2329 34.4271 36.7719 34.0878 37.1567 33.833C37.3487 33.7058 37.5055 33.5976 37.6226 33.5107C37.681 33.4674 37.7326 33.4271 37.775 33.3909C37.8125 33.3588 37.8601 33.3155 37.8964 33.2669L9.49418 35.5544ZM29.8835 9.28746L29.998 9.08964C32.3099 10.4273 34.2097 11.5511 35.5588 12.3764C36.2329 12.7888 36.7719 13.1281 37.1567 13.3829C37.3487 13.5101 37.5055 13.6182 37.6226 13.7051C37.681 13.7485 37.7326 13.7887 37.775 13.825C37.8125 13.8571 37.8601 13.9004 37.8964 13.9491M29.8835 9.28746L37.8964 33.2668C37.9984 33.1302 38.0877 32.9935 38.1482 32.7177C38.2027 32.4691 38.2352 32.1034 38.2568 31.5017C38.3002 30.2909 38.3017 28.0289 38.3017 23.6079C38.3017 19.187 38.3002 16.925 38.2568 15.7142C38.2352 15.1125 38.2027 14.7468 38.1482 14.4981C38.0877 14.2224 37.9984 14.0857 37.8964 13.9491M29.8835 9.28746L29.998 9.08964M29.8835 9.28746L29.998 9.08964M37.8964 13.9491L37.6319 14.1464L37.8964 13.949C37.8964 13.949 37.8964 13.9491 37.8964 13.9491ZM21.596 3.43329C22.0931 3.43084 22.5663 3.48681 22.858 3.58618L21.596 3.43329ZM29.998 9.08964C26.6196 7.1349 24.7305 6.05184 23.6025 5.4584M29.998 9.08964L23.6025 5.4584M23.6025 5.4584C22.4868 4.87136 22.0602 4.73034 21.6332 4.7319L23.6025 5.4584ZM22.6195 24.2631H22.2895V24.5931V31.6168C22.2895 35.5076 22.2886 37.4153 22.1688 38.3582C22.1068 38.8465 22.0217 38.9695 21.9861 39.0007C21.9592 39.0243 21.9184 39.0406 21.6344 39.0406C21.5626 39.0406 21.4904 39.0441 21.442 39.0457C21.3873 39.0475 21.3544 39.0471 21.33 39.0445C21.3078 39.0421 21.3076 39.0413 21.307 39.0388C21.3069 39.0381 21.3067 39.0372 21.3058 39.036C21.2829 39.0061 21.2366 38.9172 21.1916 38.6859C21.1481 38.4621 21.1118 38.1398 21.0829 37.676C20.9775 35.9857 20.978 32.5861 20.979 25.7509C20.9791 25.06 20.9792 24.3341 20.9792 23.5713C20.9792 16.1436 20.9804 12.3801 21.022 10.432C21.0428 9.45286 21.0738 8.95174 21.1159 8.67799C21.1367 8.54285 21.1573 8.4848 21.1691 8.45965C21.1765 8.44402 21.1812 8.43679 21.2109 8.40705C21.2746 8.34338 21.3624 8.2804 21.4507 8.23442C21.494 8.21183 21.5328 8.19576 21.5641 8.18587C21.5732 8.183 21.5808 8.18092 21.587 8.1794C21.5934 8.18171 21.601 8.18452 21.6098 8.18791C21.6588 8.20673 21.7282 8.23663 21.818 8.27827C21.9966 8.3611 22.24 8.48273 22.5319 8.6351C23.1148 8.93937 23.88 9.36031 24.6858 9.82416L24.6858 9.82417C26.3035 10.7552 29.4005 12.5361 31.5678 13.7818C32.6497 14.4037 33.6555 14.9978 34.404 15.4538C34.7786 15.6819 35.0869 15.8744 35.3076 16.018C35.4183 16.09 35.5043 16.1481 35.5646 16.1912C35.595 16.2129 35.616 16.2288 35.6292 16.2396C35.6296 16.2398 35.6299 16.2401 35.6302 16.2404C35.9062 16.6158 35.6166 17.2028 35.1414 17.2028C35.1417 17.2028 35.1417 17.2028 35.1413 17.2027C35.1394 17.2026 35.1282 17.2018 35.1051 17.1973C35.0793 17.1922 35.0458 17.1839 35.0044 17.1716C34.9216 17.1469 34.8185 17.1094 34.7013 17.0607C34.4671 16.9634 34.1928 16.8277 33.9381 16.6785L33.9381 16.6785L32.9664 16.109L32.4695 15.8179V16.3938V24.2698C32.4695 28.1029 32.4672 30.0651 32.4253 31.1107C32.4042 31.6383 32.3736 31.9057 32.3367 32.0557C32.3195 32.1255 32.3036 32.1584 32.2934 32.1755C32.2833 32.1924 32.2707 32.2081 32.2378 32.2411C32.0726 32.4062 31.9282 32.4579 31.8144 32.4579C31.7006 32.4579 31.5561 32.4062 31.391 32.2411C31.3581 32.2082 31.3463 32.1932 31.3367 32.1768C31.3266 32.1594 31.3102 32.1249 31.2926 32.05C31.255 31.89 31.2243 31.6041 31.2032 31.041C31.1614 29.9246 31.1592 27.8214 31.1592 23.7073V15.2687V15.0783L30.9944 14.983L26.9901 12.6669C25.8882 12.0296 24.8748 11.45 24.1295 11.0295C23.757 10.8194 23.4505 10.6484 23.2332 10.5297C23.1248 10.4705 23.0368 10.4234 22.9731 10.3906C22.9418 10.3744 22.9133 10.3601 22.89 10.3493C22.8789 10.3441 22.8646 10.3377 22.8497 10.332C22.8425 10.3292 22.8306 10.3248 22.8163 10.3206L22.8155 10.3204C22.8073 10.3179 22.7689 10.3066 22.72 10.3066C22.5411 10.3066 22.4542 10.4381 22.4414 10.4578C22.417 10.495 22.4054 10.5291 22.4012 10.5418C22.3914 10.5717 22.3865 10.5997 22.3841 10.6144C22.3785 10.6486 22.3744 10.69 22.3709 10.7322C22.3638 10.8194 22.3573 10.9432 22.3513 11.0965C22.3391 11.4046 22.3282 11.8476 22.3191 12.3915C22.3009 13.4801 22.2895 14.9803 22.2895 16.6297V22.6228V22.9528H22.6195H24.754C25.7204 22.9528 26.237 22.9619 26.5497 23.0036C26.701 23.0237 26.7837 23.0493 26.837 23.0743C26.8859 23.0972 26.9262 23.1271 26.9836 23.1845C27.045 23.2459 27.1075 23.3346 27.1537 23.4271C27.2035 23.5266 27.2153 23.5918 27.2153 23.6079C27.2153 23.624 27.2035 23.6892 27.1537 23.7887C27.1075 23.8813 27.045 23.97 26.9836 24.0314C26.9262 24.0888 26.8859 24.1187 26.837 24.1416C26.7837 24.1666 26.701 24.1922 26.5497 24.2123C26.237 24.254 25.7204 24.2631 24.754 24.2631H22.6195ZM35.6189 16.2254L35.6189 16.2255L35.6189 16.2254ZM15.6621 13.2706L15.6621 13.2705C15.8402 13.1404 15.9773 13.1066 16.0834 13.1148C16.1894 13.123 16.3196 13.1773 16.4752 13.3329C16.5075 13.3652 16.517 13.3779 16.5256 13.3935C16.5357 13.412 16.5535 13.4521 16.5722 13.543C16.6116 13.7334 16.6424 14.0763 16.6634 14.7491C16.7051 16.0843 16.7069 18.6238 16.7069 23.6079C16.7069 28.5921 16.7051 31.1316 16.6634 32.4668C16.6424 33.1396 16.6116 33.4825 16.5722 33.6729C16.5535 33.7638 16.5357 33.8039 16.5256 33.8224C16.517 33.838 16.5075 33.8507 16.4752 33.883C16.3172 34.041 16.1697 34.0975 16.0521 34.1011C15.9412 34.1045 15.813 34.0623 15.6797 33.9342C15.6776 33.931 15.6749 33.9267 15.6714 33.9211C15.6572 33.8982 15.6375 33.864 15.6119 33.817C15.561 33.7237 15.4933 33.5919 15.4101 33.4241C15.244 33.0893 15.0214 32.6215 14.7578 32.054C14.2308 30.9196 13.5429 29.3931 12.8217 27.749L10.1967 21.7648L9.56454 21.8912L9.48245 26.2901L9.76551 26.2954L9.48245 26.2901C9.44399 28.3528 9.41836 29.4419 9.36622 30.0444C9.33988 30.3487 9.30882 30.4975 9.27966 30.5763C9.2601 30.6292 9.24779 30.639 9.21692 30.6616C9.0389 30.7916 8.90172 30.8254 8.79562 30.8172C8.68956 30.8091 8.55939 30.7547 8.40379 30.5991C8.37075 30.5661 8.35668 30.5488 8.3458 30.5312C8.33525 30.5141 8.32005 30.484 8.30372 30.4231C8.26819 30.2905 8.23779 30.0553 8.21665 29.5899C8.17474 28.6678 8.17206 26.9515 8.17206 23.6079C8.17206 20.2644 8.17474 18.548 8.21665 17.6259C8.23779 17.1606 8.26819 16.9254 8.30372 16.7928C8.32005 16.7319 8.33525 16.7018 8.3458 16.6847C8.35668 16.6671 8.37075 16.6498 8.40379 16.6168C8.56182 16.4587 8.70926 16.4023 8.82687 16.3987C8.93781 16.3953 9.06601 16.4374 9.19927 16.5656C9.20135 16.5688 9.2041 16.5731 9.20755 16.5786C9.22175 16.6016 9.24147 16.6358 9.26706 16.6827C9.31797 16.7761 9.38571 16.9079 9.46891 17.0756C9.63497 17.4104 9.85759 17.8781 10.1212 18.4455C10.6482 19.5799 11.3361 21.1062 12.0573 22.7501L14.6823 28.7338L15.3145 28.6048L15.3966 20.9226C15.4359 17.2363 15.4597 15.3223 15.5115 14.3004C15.5376 13.784 15.57 13.5229 15.6064 13.382C15.6235 13.3161 15.6372 13.2938 15.6401 13.2895C15.6402 13.2895 15.6402 13.2894 15.6402 13.2893C15.6408 13.2882 15.6429 13.2846 15.6621 13.2706Z" stroke="white" stroke-width="0.66"/>
</g>
<path d="M4.59608 12.8593L4.59605 12.8593C4.31882 13.1609 4.14548 13.3572 4.01418 13.6341C3.88222 13.9124 3.78311 14.2951 3.71484 14.9708C3.57733 16.332 3.57463 18.7526 3.57463 23.6079C3.57463 28.5506 3.57545 30.9923 3.724 32.3526C3.79766 33.027 3.90477 33.4002 4.04643 33.6689C4.18857 33.9385 4.37674 34.1278 4.68381 34.4301C4.7031 34.4491 4.77195 34.5037 4.91134 34.6008C5.04277 34.6923 5.21881 34.8092 5.43472 34.9487C5.86615 35.2274 6.4491 35.5911 7.13645 36.012C8.5107 36.8535 10.2963 37.9201 12.1085 38.9855C13.9206 40.0509 15.758 41.1143 17.2359 41.9496C18.7257 42.7916 19.8237 43.3864 20.176 43.5306C20.5599 43.6877 21.0882 43.7732 21.6345 43.7732C22.1807 43.7732 22.7106 43.6877 23.0976 43.5303L23.222 43.836L23.0976 43.5303C23.448 43.3878 24.5446 42.7943 26.034 41.9528C27.5112 41.1181 29.3484 40.0549 31.1606 38.9893C32.9729 37.9237 34.7587 36.8567 36.1333 36.0145C36.8208 35.5933 37.404 35.2292 37.8356 34.9501C38.0516 34.8105 38.2277 34.6933 38.3592 34.6016C38.4987 34.5043 38.5675 34.4495 38.5868 34.4305C38.8931 34.1279 39.081 33.9382 39.2229 33.6682C39.3644 33.3989 39.4713 33.0252 39.5449 32.3503C39.6932 30.9892 39.6941 28.5468 39.6941 23.6042C39.6941 18.9081 39.6889 16.5252 39.5751 15.1682C39.5185 14.4928 39.4366 14.0977 39.3268 13.809C39.2189 13.5255 39.0778 13.326 38.8595 13.0398C38.6424 12.7553 38.2037 12.3539 37.9062 12.1671L37.9061 12.167C36.9912 11.5923 33.3374 9.48334 29.8441 7.49289C28.0996 6.49887 26.3984 5.53628 25.1043 4.81235C24.4571 4.45031 23.9125 4.14841 23.5155 3.93225C23.3169 3.82407 23.1564 3.73805 23.039 3.67693C22.916 3.61286 22.8638 3.58886 22.8585 3.58639L22.8581 3.5862L4.59608 12.8593ZM4.59608 12.8593C4.68009 12.7679 4.87252 12.6109 5.22494 12.3678C5.56994 12.1298 6.04759 11.8229 6.68267 11.4326C7.95238 10.652 9.83805 9.54566 12.522 8.00165L12.3574 7.7156M4.59608 12.8593L12.3574 7.7156M12.3574 7.7156L12.522 8.00164C14.5531 6.83308 16.4547 5.751 17.882 4.94905C18.5958 4.548 19.1902 4.21743 19.6226 3.98127C19.839 3.86311 20.0136 3.76922 20.1418 3.70217C20.2061 3.66859 20.2573 3.64248 20.2955 3.6237C20.3286 3.60746 20.3449 3.60032 20.3495 3.59828C20.3509 3.59767 20.3512 3.59752 20.3507 3.59772L20.3507 3.59771M12.3574 7.7156L20.3507 3.59771M20.3507 3.59771C20.6312 3.49651 21.0981 3.43574 21.596 3.43329M20.3507 3.59771L21.596 3.43329M9.49418 35.5544L9.32915 35.8401C8.32503 35.2603 7.4038 34.7004 6.70788 34.252C6.36027 34.028 6.06618 33.8301 5.8451 33.6704C5.73477 33.5907 5.63966 33.5184 5.56398 33.4557C5.49493 33.3984 5.4208 33.332 5.3712 33.2656L5.37115 33.2655C5.26902 33.1287 5.18025 32.9916 5.12009 32.7157C5.06582 32.4668 5.03348 32.1005 5.01193 31.4984C4.96855 30.2865 4.96705 28.0245 4.96705 23.6079C4.96705 19.1852 4.96843 16.9233 5.01193 15.7128C5.03354 15.1113 5.06601 14.7458 5.12063 14.4973C5.18122 14.2216 5.27069 14.085 5.37263 13.9484L5.37271 13.9483C5.42017 13.8848 5.48875 13.8216 5.55338 13.7667C5.62343 13.7072 5.71034 13.6396 5.81004 13.5661C6.00979 13.4187 6.27232 13.2389 6.57859 13.0387C7.19179 12.6378 7.99127 12.1479 8.8382 11.6594L8.83823 11.6594C10.5022 10.6998 13.8587 8.75914 16.2968 7.3468L16.2969 7.3468C18.2527 6.214 19.3928 5.5658 20.1259 5.20142C20.8637 4.83474 21.2314 4.73333 21.6331 4.7319L9.49418 35.5544ZM9.49418 35.5544L9.32916 35.8401C9.9126 36.1771 10.4663 36.4969 10.9919 36.8005C15.8904 39.6296 18.3469 41.0484 19.6517 41.7569C20.3683 42.1461 20.7614 42.3346 21.0298 42.4209C21.2767 42.5004 21.4356 42.4954 21.5748 42.4911C21.6035 42.4902 21.6313 42.4893 21.6589 42.4892C22.0701 42.4877 22.5287 42.3222 23.6545 41.7275C24.7981 41.1234 26.6895 40.0405 29.998 38.1262C32.3099 36.7886 34.2097 35.6648 35.5588 34.8395C36.2329 34.4271 36.7719 34.0878 37.1567 33.833C37.3487 33.7058 37.5055 33.5976 37.6226 33.5107C37.681 33.4674 37.7326 33.4271 37.775 33.3909C37.8125 33.3588 37.8601 33.3155 37.8964 33.2669L9.49418 35.5544ZM29.8835 9.28746L29.998 9.08964C32.3099 10.4273 34.2097 11.5511 35.5588 12.3764C36.2329 12.7888 36.7719 13.1281 37.1567 13.3829C37.3487 13.5101 37.5055 13.6182 37.6226 13.7051C37.681 13.7485 37.7326 13.7887 37.775 13.825C37.8125 13.8571 37.8601 13.9004 37.8964 13.9491M29.8835 9.28746L37.8964 33.2668C37.9984 33.1302 38.0877 32.9935 38.1482 32.7177C38.2027 32.4691 38.2352 32.1034 38.2568 31.5017C38.3002 30.2909 38.3017 28.0289 38.3017 23.6079C38.3017 19.187 38.3002 16.925 38.2568 15.7142C38.2352 15.1125 38.2027 14.7468 38.1482 14.4981C38.0877 14.2224 37.9984 14.0857 37.8964 13.9491M29.8835 9.28746L29.998 9.08964M29.8835 9.28746L29.998 9.08964M37.8964 13.9491L37.6319 14.1464L37.8964 13.949C37.8964 13.949 37.8964 13.9491 37.8964 13.9491ZM21.596 3.43329C22.0931 3.43084 22.5663 3.48681 22.858 3.58618L21.596 3.43329ZM29.998 9.08964C26.6196 7.1349 24.7305 6.05184 23.6025 5.4584M29.998 9.08964L23.6025 5.4584M23.6025 5.4584C22.4868 4.87136 22.0602 4.73034 21.6332 4.7319L23.6025 5.4584ZM22.6195 24.2631H22.2895V24.5931V31.6168C22.2895 35.5076 22.2886 37.4153 22.1688 38.3582C22.1068 38.8465 22.0217 38.9695 21.9861 39.0007C21.9592 39.0243 21.9184 39.0406 21.6344 39.0406C21.5626 39.0406 21.4904 39.0441 21.442 39.0457C21.3873 39.0475 21.3544 39.0471 21.33 39.0445C21.3078 39.0421 21.3076 39.0413 21.307 39.0388C21.3069 39.0381 21.3067 39.0372 21.3058 39.036C21.2829 39.0061 21.2366 38.9172 21.1916 38.6859C21.1481 38.4621 21.1118 38.1398 21.0829 37.676C20.9775 35.9857 20.978 32.5861 20.979 25.7509C20.9791 25.06 20.9792 24.3341 20.9792 23.5713C20.9792 16.1436 20.9804 12.3801 21.022 10.432C21.0428 9.45286 21.0738 8.95174 21.1159 8.67799C21.1367 8.54285 21.1573 8.4848 21.1691 8.45965C21.1765 8.44402 21.1812 8.43679 21.2109 8.40705C21.2746 8.34338 21.3624 8.2804 21.4507 8.23442C21.494 8.21183 21.5328 8.19576 21.5641 8.18587C21.5732 8.183 21.5808 8.18092 21.587 8.1794C21.5934 8.18171 21.601 8.18452 21.6098 8.18791C21.6588 8.20673 21.7282 8.23663 21.818 8.27827C21.9966 8.3611 22.24 8.48273 22.5319 8.6351C23.1148 8.93937 23.88 9.36031 24.6858 9.82416L24.6858 9.82417C26.3035 10.7552 29.4005 12.5361 31.5678 13.7818C32.6497 14.4037 33.6555 14.9978 34.404 15.4538C34.7786 15.6819 35.0869 15.8744 35.3076 16.018C35.4183 16.09 35.5043 16.1481 35.5646 16.1912C35.595 16.2129 35.616 16.2288 35.6292 16.2396C35.6296 16.2398 35.6299 16.2401 35.6302 16.2404C35.9062 16.6158 35.6166 17.2028 35.1414 17.2028C35.1417 17.2028 35.1417 17.2028 35.1413 17.2027C35.1394 17.2026 35.1282 17.2018 35.1051 17.1973C35.0793 17.1922 35.0458 17.1839 35.0044 17.1716C34.9216 17.1469 34.8185 17.1094 34.7013 17.0607C34.4671 16.9634 34.1928 16.8277 33.9381 16.6785L33.9381 16.6785L32.9664 16.109L32.4695 15.8179V16.3938V24.2698C32.4695 28.1029 32.4672 30.0651 32.4253 31.1107C32.4042 31.6383 32.3736 31.9057 32.3367 32.0557C32.3195 32.1255 32.3036 32.1584 32.2934 32.1755C32.2833 32.1924 32.2707 32.2081 32.2378 32.2411C32.0726 32.4062 31.9282 32.4579 31.8144 32.4579C31.7006 32.4579 31.5561 32.4062 31.391 32.2411C31.3581 32.2082 31.3463 32.1932 31.3367 32.1768C31.3266 32.1594 31.3102 32.1249 31.2926 32.05C31.255 31.89 31.2243 31.6041 31.2032 31.041C31.1614 29.9246 31.1592 27.8214 31.1592 23.7073V15.2687V15.0783L30.9944 14.983L26.9901 12.6669C25.8882 12.0296 24.8748 11.45 24.1295 11.0295C23.757 10.8194 23.4505 10.6484 23.2332 10.5297C23.1248 10.4705 23.0368 10.4234 22.9731 10.3906C22.9418 10.3744 22.9133 10.3601 22.89 10.3493C22.8789 10.3441 22.8646 10.3377 22.8497 10.332C22.8425 10.3292 22.8306 10.3248 22.8163 10.3206L22.8155 10.3204C22.8073 10.3179 22.7689 10.3066 22.72 10.3066C22.5411 10.3066 22.4542 10.4381 22.4414 10.4578C22.417 10.495 22.4054 10.5291 22.4012 10.5418C22.3914 10.5717 22.3865 10.5997 22.3841 10.6144C22.3785 10.6486 22.3744 10.69 22.3709 10.7322C22.3638 10.8194 22.3573 10.9432 22.3513 11.0965C22.3391 11.4046 22.3282 11.8476 22.3191 12.3915C22.3009 13.4801 22.2895 14.9803 22.2895 16.6297V22.6228V22.9528H22.6195H24.754C25.7204 22.9528 26.237 22.9619 26.5497 23.0036C26.701 23.0237 26.7837 23.0493 26.837 23.0743C26.8859 23.0972 26.9262 23.1271 26.9836 23.1845C27.045 23.2459 27.1075 23.3346 27.1537 23.4271C27.2035 23.5266 27.2153 23.5918 27.2153 23.6079C27.2153 23.624 27.2035 23.6892 27.1537 23.7887C27.1075 23.8813 27.045 23.97 26.9836 24.0314C26.9262 24.0888 26.8859 24.1187 26.837 24.1416C26.7837 24.1666 26.701 24.1922 26.5497 24.2123C26.237 24.254 25.7204 24.2631 24.754 24.2631H22.6195ZM35.6189 16.2254L35.6189 16.2255L35.6189 16.2254ZM15.6621 13.2706L15.6621 13.2705C15.8402 13.1404 15.9773 13.1066 16.0834 13.1148C16.1894 13.123 16.3196 13.1773 16.4752 13.3329C16.5075 13.3652 16.517 13.3779 16.5256 13.3935C16.5357 13.412 16.5535 13.4521 16.5722 13.543C16.6116 13.7334 16.6424 14.0763 16.6634 14.7491C16.7051 16.0843 16.7069 18.6238 16.7069 23.6079C16.7069 28.5921 16.7051 31.1316 16.6634 32.4668C16.6424 33.1396 16.6116 33.4825 16.5722 33.6729C16.5535 33.7638 16.5357 33.8039 16.5256 33.8224C16.517 33.838 16.5075 33.8507 16.4752 33.883C16.3172 34.041 16.1697 34.0975 16.0521 34.1011C15.9412 34.1045 15.813 34.0623 15.6797 33.9342C15.6776 33.931 15.6749 33.9267 15.6714 33.9211C15.6572 33.8982 15.6375 33.864 15.6119 33.817C15.561 33.7237 15.4933 33.5919 15.4101 33.4241C15.244 33.0893 15.0214 32.6215 14.7578 32.054C14.2308 30.9196 13.5429 29.3931 12.8217 27.749L10.1967 21.7648L9.56454 21.8912L9.48245 26.2901L9.76551 26.2954L9.48245 26.2901C9.44399 28.3528 9.41836 29.4419 9.36622 30.0444C9.33988 30.3487 9.30882 30.4975 9.27966 30.5763C9.2601 30.6292 9.24779 30.639 9.21692 30.6616C9.0389 30.7916 8.90172 30.8254 8.79562 30.8172C8.68956 30.8091 8.55939 30.7547 8.40379 30.5991C8.37075 30.5661 8.35668 30.5488 8.3458 30.5312C8.33525 30.5141 8.32005 30.484 8.30372 30.4231C8.26819 30.2905 8.23779 30.0553 8.21665 29.5899C8.17474 28.6678 8.17206 26.9515 8.17206 23.6079C8.17206 20.2644 8.17474 18.548 8.21665 17.6259C8.23779 17.1606 8.26819 16.9254 8.30372 16.7928C8.32005 16.7319 8.33525 16.7018 8.3458 16.6847C8.35668 16.6671 8.37075 16.6498 8.40379 16.6168C8.56182 16.4587 8.70926 16.4023 8.82687 16.3987C8.93781 16.3953 9.06601 16.4374 9.19927 16.5656C9.20135 16.5688 9.2041 16.5731 9.20755 16.5786C9.22175 16.6016 9.24147 16.6358 9.26706 16.6827C9.31797 16.7761 9.38571 16.9079 9.46891 17.0756C9.63497 17.4104 9.85759 17.8781 10.1212 18.4455C10.6482 19.5799 11.3361 21.1062 12.0573 22.7501L14.6823 28.7338L15.3145 28.6048L15.3966 20.9226C15.4359 17.2363 15.4597 15.3223 15.5115 14.3004C15.5376 13.784 15.57 13.5229 15.6064 13.382C15.6235 13.3161 15.6372 13.2938 15.6401 13.2895C15.6402 13.2895 15.6402 13.2894 15.6402 13.2893C15.6408 13.2882 15.6429 13.2846 15.6621 13.2706Z" fill="#C3ADDE" stroke="white" stroke-width="0.66"/>
<defs>
<filter id="filter0_f_1_2" x="0.289136" y="0.147718" width="42.6904" height="46.911" filterUnits="userSpaceOnUse" color-interpolation-filters="sRGB">
<feFlood flood-opacity="0" result="BackgroundImageFix"/>
<feBlend mode="normal" in="SourceGraphic" in2="BackgroundImageFix" result="shape"/>
<feGaussianBlur stdDeviation="1.47775" result="effect1_foregroundBlur_1_2"/>
</filter>
</defs>
</svg>
