<svg width="44" height="48" viewBox="0 0 44 48" fill="none" xmlns="http://www.w3.org/2000/svg">
<g filter="url(#filter0_d_497_36)">
<path fill-rule="evenodd" clip-rule="evenodd" d="M20.2387 2.28729C19.9678 2.38499 16.4212 4.37764 12.3574 6.7156C6.98907 9.80393 4.80037 11.1493 4.3531 11.636C3.2535 12.8322 3.24463 12.9203 3.24463 22.6079C3.24463 32.4676 3.24561 32.4772 4.45228 33.6653C5.13122 34.3335 18.5442 42.2193 20.051 42.836C20.9216 43.1923 22.346 43.1923 23.222 42.836C24.7225 42.2257 38.1383 34.3373 38.8187 33.6653C40.0228 32.4758 40.0241 32.4638 40.0241 22.6042C40.0241 13.23 40.0045 12.997 39.1218 11.8396C38.8811 11.5242 38.4132 11.0958 38.0817 10.8876C36.2366 9.72856 23.4346 2.43408 22.9645 2.27383C22.2806 2.04084 20.9032 2.04757 20.2387 2.28729ZM29.8327 8.37528C34.4543 11.0493 37.4216 12.8645 37.6319 13.1464C37.9657 13.5935 37.9717 13.7577 37.9717 22.6079C37.9717 31.4582 37.9657 31.6224 37.6319 32.0695C37.4216 32.3514 34.4543 34.1665 29.8327 36.8406C23.2113 40.6717 22.2928 41.1569 21.6577 41.1592C20.8979 41.162 21.5426 41.5119 9.49418 34.5544C7.49282 33.3986 5.82822 32.3261 5.63562 32.0681C5.30329 31.6228 5.29705 31.4493 5.29705 22.6079C5.29705 13.7541 5.3028 13.5937 5.6371 13.1458C5.82658 12.8921 7.31779 11.9173 9.00308 10.9452C10.6673 9.98553 14.024 8.04475 16.4622 6.63236C20.3806 4.36287 20.9814 4.0642 21.6344 4.0619C22.3041 4.05944 23.0706 4.4627 29.8327 8.37528ZM20.9776 7.1737C20.654 7.49733 20.6492 7.72096 20.6492 22.5713C20.6492 39.1728 20.5991 38.3706 21.6344 38.3706C22.619 38.3706 22.6195 38.3663 22.6195 30.6168V23.5931H24.754C26.6697 23.5931 26.9222 23.5594 27.217 23.2647C27.3976 23.0841 27.5453 22.7886 27.5453 22.6079C27.5453 22.4273 27.3976 22.1318 27.217 21.9512C26.9222 21.6564 26.6697 21.6228 24.754 21.6228H22.6195V15.6297C22.6195 12.3335 22.6648 9.63661 22.72 9.63661C22.7753 9.63661 24.6225 10.6788 26.8249 11.9526L30.8292 14.2687V22.7073C30.8292 30.9272 30.8378 31.1546 31.1576 31.4744C31.5756 31.8925 32.0531 31.8925 32.4712 31.4744C32.7904 31.1552 32.7995 30.9272 32.7995 23.2698V15.3937L33.7712 15.9632C34.3057 16.2765 34.9224 16.5328 35.1414 16.5328C35.8967 16.5328 36.3447 15.6138 35.8782 15.0214C35.7654 14.878 33.8996 13.7415 31.7323 12.4957C29.5649 11.25 26.4681 9.46914 24.8504 8.53816C23.2328 7.60701 21.7734 6.84532 21.6076 6.84532C21.4418 6.84532 21.1582 6.99309 20.9776 7.1737ZM15.4674 12.0041C15.1618 12.2274 15.1452 12.5548 15.0666 19.9191L14.9845 27.6012L12.3595 21.6175C10.9156 18.3264 9.60419 15.5036 9.44509 15.3445C9.06366 14.9631 8.57601 14.9778 8.17045 15.3834C7.85241 15.7014 7.84206 15.9307 7.84206 22.6079C7.84206 29.2852 7.85241 29.5144 8.17045 29.8325C8.55696 30.219 8.96975 30.2508 9.41159 29.928C9.7096 29.7103 9.73571 29.4092 9.81239 25.2963L9.89449 20.8974L12.5195 26.8816C13.9634 30.173 15.2748 32.9962 15.4339 33.1553C15.8153 33.5367 16.303 33.5219 16.7085 33.1164C17.0299 32.795 17.0369 32.5691 17.0369 22.6079C17.0369 12.6468 17.0299 12.4209 16.7085 12.0995C16.322 11.713 15.9092 11.6812 15.4674 12.0041Z" fill="#C3ADDE"/>
<path d="M4.59608 11.8593L4.59605 11.8593C4.31882 12.1609 4.14548 12.3572 4.01418 12.6341C3.88222 12.9124 3.78311 13.2951 3.71484 13.9708C3.57733 15.332 3.57463 17.7526 3.57463 22.6079C3.57463 27.5506 3.57545 29.9923 3.724 31.3526C3.79766 32.027 3.90477 32.4002 4.04643 32.6689C4.18857 32.9385 4.37674 33.1278 4.68381 33.4301C4.7031 33.4491 4.77195 33.5037 4.91134 33.6008C5.04277 33.6923 5.21881 33.8092 5.43472 33.9487C5.86615 34.2274 6.4491 34.5911 7.13645 35.012C8.5107 35.8535 10.2963 36.9201 12.1085 37.9855C13.9206 39.0509 15.758 40.1143 17.2359 40.9496C18.7257 41.7916 19.8237 42.3864 20.176 42.5306C20.5599 42.6877 21.0882 42.7732 21.6345 42.7732C22.1807 42.7732 22.7106 42.6877 23.0976 42.5303L23.222 42.836L23.0976 42.5303C23.448 42.3878 24.5446 41.7943 26.034 40.9528C27.5112 40.1181 29.3484 39.0549 31.1606 37.9893C32.9729 36.9237 34.7587 35.8567 36.1333 35.0145C36.8208 34.5933 37.404 34.2292 37.8356 33.9501C38.0516 33.8105 38.2277 33.6933 38.3592 33.6016C38.4987 33.5043 38.5675 33.4495 38.5868 33.4305C38.8931 33.1279 39.081 32.9382 39.2229 32.6682C39.3644 32.3989 39.4713 32.0252 39.5449 31.3503C39.6932 29.9892 39.6941 27.5468 39.6941 22.6042C39.6941 17.9081 39.6889 15.5252 39.5751 14.1682C39.5185 13.4928 39.4366 13.0977 39.3268 12.809C39.2189 12.5255 39.0778 12.326 38.8595 12.0398C38.6424 11.7553 38.2037 11.3539 37.9062 11.1671L37.9061 11.167C36.9912 10.5923 33.3374 8.48334 29.8441 6.49289C28.0996 5.49887 26.3984 4.53628 25.1043 3.81235C24.4571 3.45031 23.9125 3.14841 23.5155 2.93225C23.3169 2.82407 23.1564 2.73805 23.039 2.67693C22.916 2.61286 22.8638 2.58886 22.8585 2.58639L22.8581 2.5862L4.59608 11.8593ZM4.59608 11.8593C4.68009 11.7679 4.87252 11.6109 5.22494 11.3678C5.56994 11.1298 6.04759 10.8229 6.68267 10.4326C7.95238 9.65204 9.83805 8.54566 12.522 7.00165L12.3574 6.7156M4.59608 11.8593L12.3574 6.7156M12.3574 6.7156L12.522 7.00164C14.5531 5.83308 16.4547 4.751 17.882 3.94905C18.5958 3.548 19.1902 3.21743 19.6226 2.98127C19.839 2.86311 20.0136 2.76922 20.1418 2.70217C20.2061 2.66859 20.2573 2.64248 20.2955 2.6237C20.3286 2.60746 20.3449 2.60032 20.3495 2.59828C20.3509 2.59767 20.3512 2.59752 20.3507 2.59772L20.3507 2.59771M12.3574 6.7156L20.3507 2.59771M20.3507 2.59771C20.6312 2.49651 21.0981 2.43574 21.596 2.43329M20.3507 2.59771L21.596 2.43329M9.49418 34.5544L9.32915 34.8401C8.32503 34.2603 7.4038 33.7004 6.70788 33.252C6.36027 33.028 6.06618 32.8301 5.8451 32.6704C5.73477 32.5907 5.63966 32.5184 5.56398 32.4557C5.49493 32.3984 5.4208 32.332 5.3712 32.2656L5.37115 32.2655C5.26902 32.1287 5.18025 31.9916 5.12009 31.7157C5.06582 31.4668 5.03348 31.1005 5.01193 30.4984C4.96855 29.2865 4.96705 27.0245 4.96705 22.6079C4.96705 18.1852 4.96843 15.9233 5.01193 14.7128C5.03354 14.1113 5.06601 13.7458 5.12063 13.4973C5.18122 13.2216 5.27069 13.085 5.37263 12.9484L5.37271 12.9483C5.42017 12.8848 5.48875 12.8216 5.55338 12.7667C5.62343 12.7072 5.71034 12.6396 5.81004 12.5661C6.00979 12.4187 6.27232 12.2389 6.57859 12.0387C7.19179 11.6378 7.99127 11.1479 8.8382 10.6594L8.83823 10.6594C10.5022 9.6998 13.8587 7.75914 16.2968 6.3468L16.2969 6.3468C18.2527 5.214 19.3928 4.5658 20.1259 4.20142C20.8637 3.83474 21.2314 3.73333 21.6331 3.7319L9.49418 34.5544ZM9.49418 34.5544L9.32916 34.8401C9.9126 35.1771 10.4663 35.4969 10.9919 35.8005C15.8904 38.6296 18.3469 40.0484 19.6517 40.7569C20.3683 41.1461 20.7614 41.3346 21.0298 41.4209C21.2767 41.5004 21.4356 41.4954 21.5748 41.4911C21.6035 41.4902 21.6313 41.4893 21.6589 41.4892C22.0701 41.4877 22.5287 41.3222 23.6545 40.7275C24.7981 40.1234 26.6895 39.0405 29.998 37.1262C32.3099 35.7886 34.2097 34.6648 35.5588 33.8395C36.2329 33.4271 36.7719 33.0878 37.1567 32.833C37.3487 32.7058 37.5055 32.5976 37.6226 32.5107C37.681 32.4674 37.7326 32.4271 37.775 32.3909C37.8125 32.3588 37.8601 32.3155 37.8964 32.2669L9.49418 34.5544ZM29.8835 8.28746L29.998 8.08964C32.3099 9.42732 34.2097 10.5511 35.5588 11.3764C36.2329 11.7888 36.7719 12.1281 37.1567 12.3829C37.3487 12.5101 37.5055 12.6182 37.6226 12.7051C37.681 12.7485 37.7326 12.7887 37.775 12.825C37.8125 12.8571 37.8601 12.9004 37.8964 12.9491M29.8835 8.28746L37.8964 32.2668C37.9984 32.1302 38.0877 31.9935 38.1482 31.7177C38.2027 31.4691 38.2352 31.1034 38.2568 30.5017C38.3002 29.2909 38.3017 27.0289 38.3017 22.6079C38.3017 18.187 38.3002 15.925 38.2568 14.7142C38.2352 14.1125 38.2027 13.7468 38.1482 13.4981C38.0877 13.2224 37.9984 13.0857 37.8964 12.9491M29.8835 8.28746L29.998 8.08964M29.8835 8.28746L29.998 8.08964M37.8964 12.9491L37.6319 13.1464L37.8964 12.949C37.8964 12.949 37.8964 12.9491 37.8964 12.9491ZM21.596 2.43329C22.0931 2.43084 22.5663 2.48681 22.858 2.58618L21.596 2.43329ZM29.998 8.08964C26.6196 6.1349 24.7305 5.05184 23.6025 4.4584M29.998 8.08964L23.6025 4.4584M23.6025 4.4584C22.4868 3.87136 22.0602 3.73034 21.6332 3.7319L23.6025 4.4584ZM22.6195 23.2631H22.2895V23.5931V30.6168C22.2895 34.5076 22.2886 36.4153 22.1688 37.3582C22.1068 37.8465 22.0217 37.9695 21.9861 38.0007C21.9592 38.0243 21.9184 38.0406 21.6344 38.0406C21.5626 38.0406 21.4904 38.0441 21.442 38.0457C21.3873 38.0475 21.3544 38.0471 21.33 38.0445C21.3078 38.0421 21.3076 38.0413 21.307 38.0388C21.3069 38.0381 21.3067 38.0372 21.3058 38.036C21.2829 38.0061 21.2366 37.9172 21.1916 37.6859C21.1481 37.4621 21.1118 37.1398 21.0829 36.676C20.9775 34.9857 20.978 31.5861 20.979 24.7509C20.9791 24.06 20.9792 23.3341 20.9792 22.5713C20.9792 15.1436 20.9804 11.3801 21.022 9.43203C21.0428 8.45286 21.0738 7.95174 21.1159 7.67799C21.1367 7.54285 21.1573 7.4848 21.1691 7.45965C21.1765 7.44402 21.1812 7.43679 21.2109 7.40705C21.2746 7.34338 21.3624 7.2804 21.4507 7.23442C21.494 7.21183 21.5328 7.19576 21.5641 7.18587C21.5732 7.183 21.5808 7.18092 21.587 7.1794C21.5934 7.18171 21.601 7.18452 21.6098 7.18791C21.6588 7.20673 21.7282 7.23663 21.818 7.27827C21.9966 7.3611 22.24 7.48273 22.5319 7.6351C23.1148 7.93937 23.88 8.36031 24.6858 8.82416L24.6858 8.82417C26.3035 9.7552 29.4005 11.5361 31.5678 12.7818C32.6497 13.4037 33.6555 13.9978 34.404 14.4538C34.7786 14.6819 35.0869 14.8744 35.3076 15.018C35.4183 15.09 35.5043 15.1481 35.5646 15.1912C35.595 15.2129 35.616 15.2288 35.6292 15.2396C35.6296 15.2398 35.6299 15.2401 35.6302 15.2404C35.9062 15.6158 35.6166 16.2028 35.1414 16.2028C35.1417 16.2028 35.1417 16.2028 35.1413 16.2027C35.1394 16.2026 35.1282 16.2018 35.1051 16.1973C35.0793 16.1922 35.0458 16.1839 35.0044 16.1716C34.9216 16.1469 34.8185 16.1094 34.7013 16.0607C34.4671 15.9634 34.1928 15.8277 33.9381 15.6785L33.9381 15.6785L32.9664 15.109L32.4695 14.8179V15.3938V23.2698C32.4695 27.1029 32.4672 29.0651 32.4253 30.1107C32.4042 30.6383 32.3736 30.9057 32.3367 31.0557C32.3195 31.1255 32.3036 31.1584 32.2934 31.1755C32.2833 31.1924 32.2707 31.2081 32.2378 31.2411C32.0726 31.4062 31.9282 31.4579 31.8144 31.4579C31.7006 31.4579 31.5561 31.4062 31.391 31.2411C31.3581 31.2082 31.3463 31.1932 31.3367 31.1768C31.3266 31.1594 31.3102 31.1249 31.2926 31.05C31.255 30.89 31.2243 30.6041 31.2032 30.041C31.1614 28.9246 31.1592 26.8214 31.1592 22.7073V14.2687V14.0783L30.9944 13.983L26.9901 11.6669C25.8882 11.0296 24.8748 10.45 24.1295 10.0295C23.757 9.81936 23.4505 9.64841 23.2332 9.52972C23.1248 9.47055 23.0368 9.42337 22.9731 9.39056C22.9418 9.37439 22.9133 9.36014 22.89 9.34933C22.8789 9.34414 22.8646 9.33774 22.8497 9.33197C22.8425 9.32917 22.8306 9.32476 22.8163 9.32058L22.8155 9.32035C22.8073 9.31792 22.7689 9.30661 22.72 9.30661C22.5411 9.30661 22.4542 9.43814 22.4414 9.4578C22.417 9.49505 22.4054 9.52909 22.4012 9.54177C22.3914 9.57173 22.3865 9.59972 22.3841 9.61444C22.3785 9.64861 22.3744 9.68999 22.3709 9.73219C22.3638 9.81943 22.3573 9.9432 22.3513 10.0965C22.3391 10.4046 22.3282 10.8476 22.3191 11.3915C22.3009 12.4801 22.2895 13.9803 22.2895 15.6297V21.6228V21.9528H22.6195H24.754C25.7204 21.9528 26.237 21.9619 26.5497 22.0036C26.701 22.0237 26.7837 22.0493 26.837 22.0743C26.8859 22.0972 26.9262 22.1271 26.9836 22.1845C27.045 22.2459 27.1075 22.3346 27.1537 22.4271C27.2035 22.5266 27.2153 22.5918 27.2153 22.6079C27.2153 22.624 27.2035 22.6892 27.1537 22.7887C27.1075 22.8813 27.045 22.97 26.9836 23.0314C26.9262 23.0888 26.8859 23.1187 26.837 23.1416C26.7837 23.1666 26.701 23.1922 26.5497 23.2123C26.237 23.254 25.7204 23.2631 24.754 23.2631H22.6195ZM35.6189 15.2254L35.6189 15.2255L35.6189 15.2254ZM15.6621 12.2706L15.6621 12.2705C15.8402 12.1404 15.9773 12.1066 16.0834 12.1148C16.1894 12.123 16.3196 12.1773 16.4752 12.3329C16.5075 12.3652 16.517 12.3779 16.5256 12.3935C16.5357 12.412 16.5535 12.4521 16.5722 12.543C16.6116 12.7334 16.6424 13.0763 16.6634 13.7491C16.7051 15.0843 16.7069 17.6238 16.7069 22.6079C16.7069 27.5921 16.7051 30.1316 16.6634 31.4668C16.6424 32.1396 16.6116 32.4825 16.5722 32.6729C16.5535 32.7638 16.5357 32.8039 16.5256 32.8224C16.517 32.838 16.5075 32.8507 16.4752 32.883C16.3172 33.041 16.1697 33.0975 16.0521 33.1011C15.9412 33.1045 15.813 33.0623 15.6797 32.9342C15.6776 32.931 15.6749 32.9267 15.6714 32.9211C15.6572 32.8982 15.6375 32.864 15.6119 32.817C15.561 32.7237 15.4933 32.5919 15.4101 32.4241C15.244 32.0893 15.0214 31.6215 14.7578 31.054C14.2308 29.9196 13.5429 28.3931 12.8217 26.749L10.1967 20.7648L9.56454 20.8912L9.48245 25.2901L9.76551 25.2954L9.48245 25.2901C9.44399 27.3528 9.41836 28.4419 9.36622 29.0444C9.33988 29.3487 9.30882 29.4975 9.27966 29.5763C9.2601 29.6292 9.24779 29.639 9.21692 29.6616C9.0389 29.7916 8.90172 29.8254 8.79562 29.8172C8.68956 29.8091 8.55939 29.7547 8.40379 29.5991C8.37075 29.5661 8.35668 29.5488 8.3458 29.5312C8.33525 29.5141 8.32005 29.484 8.30372 29.4231C8.26819 29.2905 8.23779 29.0553 8.21665 28.5899C8.17474 27.6678 8.17206 25.9515 8.17206 22.6079C8.17206 19.2644 8.17474 17.548 8.21665 16.6259C8.23779 16.1606 8.26819 15.9254 8.30372 15.7928C8.32005 15.7319 8.33525 15.7018 8.3458 15.6847C8.35668 15.6671 8.37075 15.6498 8.40379 15.6168C8.56182 15.4587 8.70926 15.4023 8.82687 15.3987C8.93781 15.3953 9.06601 15.4374 9.19927 15.5656C9.20135 15.5688 9.2041 15.5731 9.20755 15.5786C9.22175 15.6016 9.24147 15.6358 9.26706 15.6827C9.31797 15.7761 9.38571 15.9079 9.46891 16.0756C9.63497 16.4104 9.85759 16.8781 10.1212 17.4455C10.6482 18.5799 11.3361 20.1062 12.0573 21.7501L14.6823 27.7338L15.3145 27.6048L15.3966 19.9226C15.4359 16.2363 15.4597 14.3223 15.5115 13.3004C15.5376 12.784 15.57 12.5229 15.6064 12.382C15.6235 12.3161 15.6372 12.2938 15.6401 12.2895C15.6402 12.2895 15.6402 12.2894 15.6402 12.2893C15.6408 12.2882 15.6429 12.2846 15.6621 12.2706Z" stroke="white" stroke-width="0.66"/>
</g>
<defs>
<filter id="filter0_d_497_36" x="0.244629" y="0.10321" width="42.7795" height="47" filterUnits="userSpaceOnUse" color-interpolation-filters="sRGB">
<feFlood flood-opacity="0" result="BackgroundImageFix"/>
<feColorMatrix in="SourceAlpha" type="matrix" values="0 0 0 0 0 0 0 0 0 0 0 0 0 0 0 0 0 0 127 0" result="hardAlpha"/>
<feOffset dy="1"/>
<feGaussianBlur stdDeviation="1.5"/>
<feComposite in2="hardAlpha" operator="out"/>
<feColorMatrix type="matrix" values="0 0 0 0 1 0 0 0 0 1 0 0 0 0 1 0 0 0 0.7 0"/>
<feBlend mode="normal" in2="BackgroundImageFix" result="effect1_dropShadow_497_36"/>
<feBlend mode="normal" in="SourceGraphic" in2="effect1_dropShadow_497_36" result="shape"/>
</filter>
</defs>
</svg>
