<svg width="33" height="32" viewBox="0 0 33 32" fill="none" xmlns="http://www.w3.org/2000/svg">
<path fill-rule="evenodd" clip-rule="evenodd" d="M14.8953 0.0202618C11.5145 0.267294 8.37038 1.53394 5.74838 3.70522C5.25951 4.11007 4.11239 5.2567 3.71751 5.73528C0.836888 9.22633 -0.434989 13.595 0.131955 18.0509C0.483752 20.816 1.6261 23.5751 3.32024 25.7516C3.91835 26.52 4.74053 27.3983 5.42171 27.9964C9.75861 31.8048 15.7373 32.9965 21.1838 31.1381C24.1073 30.1406 26.7366 28.265 28.6351 25.823C30.1726 23.8452 31.2137 21.572 31.7008 19.129C32.6796 14.2194 31.325 9.18409 28.0095 5.40861C27.6426 4.99075 26.746 4.10876 26.3453 3.77151C23.8537 1.67445 20.9071 0.42057 17.6394 0.066911C17.0712 0.00539808 15.4708 -0.0217813 14.8953 0.0202618ZM14.6967 12.6838C15.3373 15.0771 15.8687 17.0425 15.8775 17.0513C15.8864 17.0602 16.3528 15.3519 16.914 13.2552C17.4752 11.1585 18.0024 9.18948 18.0855 8.87953L18.2367 8.31601H21.8418H25.4469V9.42671V10.5374H25.1051C24.8399 10.5374 24.723 10.5525 24.5834 10.6047C24.3655 10.6862 24.1506 10.8862 24.0407 11.1096L23.9605 11.2724V15.8622V20.452L24.0303 20.603C24.1296 20.8178 24.3136 21.0078 24.5199 21.1087C24.6713 21.1828 24.7533 21.1982 25.0723 21.2123L25.4469 21.2288V22.3349V23.4411H22.0331H18.6194V22.331V21.221L19.2972 21.2122L19.9751 21.2033L19.9811 16.3359C19.9849 13.2635 19.9757 11.4925 19.9563 11.5338C19.9393 11.5697 19.1903 14.2378 18.2917 17.4629C17.3931 20.688 16.6499 23.3525 16.6401 23.3839C16.6235 23.4371 16.5316 23.4411 15.3178 23.4411C14.6003 23.4411 14.0133 23.4349 14.0133 23.4273C14.0133 23.4097 10.7162 11.5774 10.6991 11.5338C10.6921 11.5158 10.6852 13.6878 10.6838 16.3604L10.6812 21.2197H11.3509H12.0205V22.3304V23.4411H9.17847H6.3364V22.3354V21.2297L6.69613 21.2091C7.14949 21.1831 7.32175 21.1148 7.54229 20.8735C7.82829 20.5606 7.80644 20.9762 7.8064 15.8482L7.80637 11.3051L7.71353 11.1088C7.61396 10.8983 7.46317 10.7448 7.24201 10.6288C7.12826 10.5691 7.03682 10.5541 6.72024 10.5434L6.3364 10.5305V9.42312V8.31572L9.93417 8.32405L13.5319 8.33235L14.6967 12.6838Z" fill="#933DF6"/>
</svg>
