<svg width="17" height="17" viewBox="0 0 17 17" fill="none" xmlns="http://www.w3.org/2000/svg">
<circle cx="8.5" cy="8.5" r="8.5" fill="#7E2D93"/>
<path d="M6.034 13V5.3H9.202C9.884 5.3 10.467 5.41 10.951 5.63C11.4423 5.85 11.82 6.16533 12.084 6.576C12.348 6.98667 12.48 7.47433 12.48 8.039C12.48 8.60367 12.348 9.09133 12.084 9.502C11.82 9.91267 11.4423 10.228 10.951 10.448C10.467 10.668 9.884 10.778 9.202 10.778H6.826L7.464 10.107V13H6.034ZM7.464 10.261L6.826 9.568H9.136C9.76667 9.568 10.2397 9.436 10.555 9.172C10.8777 8.90067 11.039 8.523 11.039 8.039C11.039 7.54767 10.8777 7.17 10.555 6.906C10.2397 6.642 9.76667 6.51 9.136 6.51H6.826L7.464 5.806V10.261Z" fill="#D1E2FD"/>
</svg>
