<svg width="218" height="87" viewBox="0 0 218 87" fill="none" xmlns="http://www.w3.org/2000/svg">
<g filter="url(#filter0_b_0_8)">
<rect width="218" height="87" rx="5" fill="#B296D7" fill-opacity="0.33"/>
<rect x="0.5" y="0.5" width="217" height="86" rx="4.5" stroke="#2E2042"/>
</g>
<path d="M140 66.5L144 65.5C146.208 64.968 147.145 64.4024 148.5 61.9175C149.855 59.4325 150.214 54.6885 152.925 55.3663C155.093 55.9084 157.5 59.0825 160 60.5C162.5 61.9175 165.958 61.3599 168 60.5C172.292 58.6927 172.804 55.1403 173.03 52.8813C173.256 50.6222 174.386 44.5228 176.645 46.3301C178.904 48.1373 180.5 48.8333 183 50.5C184.5 51.5 185.117 55.4187 187 57C188.19 58 194.651 63.4458 197 62C199.349 60.5542 201 58 203.5 57.5" stroke="#3D1C69" stroke-width="3" stroke-linecap="round"/>
<path d="M20.66 35V21H26.72C27.9733 21 29.0533 21.2067 29.96 21.62C30.8667 22.02 31.5667 22.6 32.06 23.36C32.5533 24.12 32.8 25.0267 32.8 26.08C32.8 27.12 32.5533 28.02 32.06 28.78C31.5667 29.54 30.8667 30.1267 29.96 30.54C29.0533 30.94 27.9733 31.14 26.72 31.14H22.46L23.9 29.68V35H20.66ZM23.9 30.04L22.46 28.5H26.54C27.54 28.5 28.2867 28.2867 28.78 27.86C29.2733 27.4333 29.52 26.84 29.52 26.08C29.52 25.3067 29.2733 24.7067 28.78 24.28C28.2867 23.8533 27.54 23.64 26.54 23.64H22.46L23.9 22.1V30.04ZM35.3884 35V20.16H38.5084V35H35.3884ZM48.3041 35V32.9L48.1041 32.44V28.68C48.1041 28.0133 47.8974 27.4933 47.4841 27.12C47.0841 26.7467 46.4641 26.56 45.6241 26.56C45.0507 26.56 44.4841 26.6533 43.9241 26.84C43.3774 27.0133 42.9107 27.2533 42.5241 27.56L41.4041 25.38C41.9907 24.9667 42.6974 24.6467 43.5241 24.42C44.3507 24.1933 45.1907 24.08 46.0441 24.08C47.6841 24.08 48.9574 24.4667 49.8641 25.24C50.7707 26.0133 51.2241 27.22 51.2241 28.86V35H48.3041ZM45.0241 35.16C44.1841 35.16 43.4641 35.02 42.8641 34.74C42.2641 34.4467 41.8041 34.0533 41.4841 33.56C41.1641 33.0667 41.0041 32.5133 41.0041 31.9C41.0041 31.26 41.1574 30.7 41.4641 30.22C41.7841 29.74 42.2841 29.3667 42.9641 29.1C43.6441 28.82 44.5307 28.68 45.6241 28.68H48.4841V30.5H45.9641C45.2307 30.5 44.7241 30.62 44.4441 30.86C44.1774 31.1 44.0441 31.4 44.0441 31.76C44.0441 32.16 44.1974 32.48 44.5041 32.72C44.8241 32.9467 45.2574 33.06 45.8041 33.06C46.3241 33.06 46.7907 32.94 47.2041 32.7C47.6174 32.4467 47.9174 32.08 48.1041 31.6L48.5841 33.04C48.3574 33.7333 47.9441 34.26 47.3441 34.62C46.7441 34.98 45.9707 35.16 45.0241 35.16ZM60.8878 24.08C61.7411 24.08 62.5011 24.2533 63.1678 24.6C63.8478 24.9333 64.3811 25.4533 64.7678 26.16C65.1545 26.8533 65.3478 27.7467 65.3478 28.84V35H62.2278V29.32C62.2278 28.4533 62.0345 27.8133 61.6478 27.4C61.2745 26.9867 60.7411 26.78 60.0478 26.78C59.5545 26.78 59.1078 26.8867 58.7078 27.1C58.3211 27.3 58.0145 27.6133 57.7878 28.04C57.5745 28.4667 57.4678 29.0133 57.4678 29.68V35H54.3478V24.24H57.3278V27.22L56.7678 26.32C57.1545 25.6 57.7078 25.0467 58.4278 24.66C59.1478 24.2733 59.9678 24.08 60.8878 24.08ZM73.8941 35.16C72.6674 35.16 71.5874 34.92 70.6541 34.44C69.7341 33.96 69.0207 33.3067 68.5141 32.48C68.0074 31.64 67.7541 30.6867 67.7541 29.62C67.7541 28.54 68.0007 27.5867 68.4941 26.76C69.0007 25.92 69.6874 25.2667 70.5541 24.8C71.4207 24.32 72.4007 24.08 73.4941 24.08C74.5474 24.08 75.4941 24.3067 76.3341 24.76C77.1874 25.2 77.8607 25.84 78.3541 26.68C78.8474 27.5067 79.0941 28.5 79.0941 29.66C79.0941 29.78 79.0874 29.92 79.0741 30.08C79.0607 30.2267 79.0474 30.3667 79.0341 30.5H70.2941V28.68H77.3941L76.1941 29.22C76.1941 28.66 76.0807 28.1733 75.8541 27.76C75.6274 27.3467 75.3141 27.0267 74.9141 26.8C74.5141 26.56 74.0474 26.44 73.5141 26.44C72.9807 26.44 72.5074 26.56 72.0941 26.8C71.6941 27.0267 71.3807 27.3533 71.1541 27.78C70.9274 28.1933 70.8141 28.6867 70.8141 29.26V29.74C70.8141 30.3267 70.9407 30.8467 71.1941 31.3C71.4607 31.74 71.8274 32.08 72.2941 32.32C72.7741 32.5467 73.3341 32.66 73.9741 32.66C74.5474 32.66 75.0474 32.5733 75.4741 32.4C75.9141 32.2267 76.3141 31.9667 76.6741 31.62L78.3341 33.42C77.8407 33.98 77.2207 34.4133 76.4741 34.72C75.7274 35.0133 74.8674 35.16 73.8941 35.16ZM85.8713 35.16C84.6046 35.16 83.6179 34.84 82.9113 34.2C82.2046 33.5467 81.8513 32.58 81.8513 31.3V21.86H84.9713V31.26C84.9713 31.7133 85.0913 32.0667 85.3313 32.32C85.5713 32.56 85.8979 32.68 86.3113 32.68C86.8046 32.68 87.2246 32.5467 87.5713 32.28L88.4113 34.48C88.0913 34.7067 87.7046 34.88 87.2513 35C86.8113 35.1067 86.3513 35.16 85.8713 35.16ZM80.1913 26.88V24.48H87.6513V26.88H80.1913ZM95.4706 35.16C94.244 35.16 93.164 34.92 92.2306 34.44C91.3106 33.96 90.5973 33.3067 90.0906 32.48C89.584 31.64 89.3306 30.6867 89.3306 29.62C89.3306 28.54 89.5773 27.5867 90.0706 26.76C90.5773 25.92 91.264 25.2667 92.1306 24.8C92.9973 24.32 93.9773 24.08 95.0706 24.08C96.124 24.08 97.0706 24.3067 97.9106 24.76C98.764 25.2 99.4373 25.84 99.9306 26.68C100.424 27.5067 100.671 28.5 100.671 29.66C100.671 29.78 100.664 29.92 100.651 30.08C100.637 30.2267 100.624 30.3667 100.611 30.5H91.8706V28.68H98.9706L97.7706 29.22C97.7706 28.66 97.6573 28.1733 97.4306 27.76C97.204 27.3467 96.8906 27.0267 96.4906 26.8C96.0906 26.56 95.624 26.44 95.0906 26.44C94.5573 26.44 94.084 26.56 93.6706 26.8C93.2706 27.0267 92.9573 27.3533 92.7306 27.78C92.504 28.1933 92.3906 28.6867 92.3906 29.26V29.74C92.3906 30.3267 92.5173 30.8467 92.7706 31.3C93.0373 31.74 93.404 32.08 93.8706 32.32C94.3506 32.5467 94.9106 32.66 95.5506 32.66C96.124 32.66 96.624 32.5733 97.0506 32.4C97.4906 32.2267 97.8906 31.9667 98.2506 31.62L99.9106 33.42C99.4173 33.98 98.7973 34.4133 98.0506 34.72C97.304 35.0133 96.444 35.16 95.4706 35.16ZM101.395 35L106.215 28.68L106.155 30.4L101.535 24.24H105.035L107.955 28.26L106.635 28.3L109.655 24.24H112.975L108.335 30.34V28.66L113.135 35H109.595L106.535 30.72L107.835 30.9L104.795 35H101.395ZM124.033 35V23.64H119.553V21H131.753V23.64H127.273V35H124.033ZM137.603 35.16C136.456 35.16 135.436 34.92 134.543 34.44C133.663 33.96 132.963 33.3067 132.443 32.48C131.936 31.64 131.683 30.6867 131.683 29.62C131.683 28.54 131.936 27.5867 132.443 26.76C132.963 25.92 133.663 25.2667 134.543 24.8C135.436 24.32 136.456 24.08 137.603 24.08C138.736 24.08 139.75 24.32 140.643 24.8C141.536 25.2667 142.236 25.9133 142.743 26.74C143.25 27.5667 143.503 28.5267 143.503 29.62C143.503 30.6867 143.25 31.64 142.743 32.48C142.236 33.3067 141.536 33.96 140.643 34.44C139.75 34.92 138.736 35.16 137.603 35.16ZM137.603 32.6C138.123 32.6 138.59 32.48 139.003 32.24C139.416 32 139.743 31.66 139.983 31.22C140.223 30.7667 140.343 30.2333 140.343 29.62C140.343 28.9933 140.223 28.46 139.983 28.02C139.743 27.58 139.416 27.24 139.003 27C138.59 26.76 138.123 26.64 137.603 26.64C137.083 26.64 136.616 26.76 136.203 27C135.79 27.24 135.456 27.58 135.203 28.02C134.963 28.46 134.843 28.9933 134.843 29.62C134.843 30.2333 134.963 30.7667 135.203 31.22C135.456 31.66 135.79 32 136.203 32.24C136.616 32.48 137.083 32.6 137.603 32.6ZM148.468 32.8L148.548 29L153.568 24.24H157.288L152.468 29.14L150.848 30.46L148.468 32.8ZM145.888 35V20.16H149.008V35H145.888ZM153.908 35L150.268 30.48L152.228 28.06L157.688 35H153.908ZM164.282 35.16C163.056 35.16 161.976 34.92 161.042 34.44C160.122 33.96 159.409 33.3067 158.902 32.48C158.396 31.64 158.142 30.6867 158.142 29.62C158.142 28.54 158.389 27.5867 158.882 26.76C159.389 25.92 160.076 25.2667 160.942 24.8C161.809 24.32 162.789 24.08 163.882 24.08C164.936 24.08 165.882 24.3067 166.722 24.76C167.576 25.2 168.249 25.84 168.742 26.68C169.236 27.5067 169.482 28.5 169.482 29.66C169.482 29.78 169.476 29.92 169.462 30.08C169.449 30.2267 169.436 30.3667 169.422 30.5H160.682V28.68H167.782L166.582 29.22C166.582 28.66 166.469 28.1733 166.242 27.76C166.016 27.3467 165.702 27.0267 165.302 26.8C164.902 26.56 164.436 26.44 163.902 26.44C163.369 26.44 162.896 26.56 162.482 26.8C162.082 27.0267 161.769 27.3533 161.542 27.78C161.316 28.1933 161.202 28.6867 161.202 29.26V29.74C161.202 30.3267 161.329 30.8467 161.582 31.3C161.849 31.74 162.216 32.08 162.682 32.32C163.162 32.5467 163.722 32.66 164.362 32.66C164.936 32.66 165.436 32.5733 165.862 32.4C166.302 32.2267 166.702 31.9667 167.062 31.62L168.722 33.42C168.229 33.98 167.609 34.4133 166.862 34.72C166.116 35.0133 165.256 35.16 164.282 35.16ZM178.4 24.08C179.253 24.08 180.013 24.2533 180.68 24.6C181.36 24.9333 181.893 25.4533 182.28 26.16C182.666 26.8533 182.86 27.7467 182.86 28.84V35H179.74V29.32C179.74 28.4533 179.546 27.8133 179.16 27.4C178.786 26.9867 178.253 26.78 177.56 26.78C177.066 26.78 176.62 26.8867 176.22 27.1C175.833 27.3 175.526 27.6133 175.3 28.04C175.086 28.4667 174.98 29.0133 174.98 29.68V35H171.86V24.24H174.84V27.22L174.28 26.32C174.666 25.6 175.22 25.0467 175.94 24.66C176.66 24.2733 177.48 24.08 178.4 24.08Z" fill="#D6D6D6"/>
<path d="M25.197 64L29.058 55.446L29.396 56.031H23.988L24.638 55.394V57.656H23.39V54.9H30.254V55.784L26.575 64H25.197ZM38.6807 64.078C38.0134 64.078 37.4154 63.9307 36.8867 63.636C36.3667 63.3413 35.9551 62.9297 35.6517 62.401C35.3484 61.8723 35.1967 61.257 35.1967 60.555C35.1967 59.853 35.3484 59.242 35.6517 58.722C35.9551 58.1933 36.3667 57.7817 36.8867 57.487C37.4154 57.1923 38.0134 57.045 38.6807 57.045C39.2614 57.045 39.7857 57.175 40.2537 57.435C40.7217 57.695 41.0944 58.085 41.3717 58.605C41.6577 59.125 41.8007 59.775 41.8007 60.555C41.8007 61.335 41.6621 61.985 41.3847 62.505C41.1161 63.025 40.7477 63.4193 40.2797 63.688C39.8117 63.948 39.2787 64.078 38.6807 64.078ZM38.7847 62.986C39.2181 62.986 39.6081 62.8863 39.9547 62.687C40.3101 62.4877 40.5874 62.206 40.7867 61.842C40.9947 61.4693 41.0987 61.0403 41.0987 60.555C41.0987 60.061 40.9947 59.6363 40.7867 59.281C40.5874 58.917 40.3101 58.6353 39.9547 58.436C39.6081 58.2367 39.2181 58.137 38.7847 58.137C38.3427 58.137 37.9484 58.2367 37.6017 58.436C37.2551 58.6353 36.9777 58.917 36.7697 59.281C36.5617 59.6363 36.4577 60.061 36.4577 60.555C36.4577 61.0403 36.5617 61.4693 36.7697 61.842C36.9777 62.206 37.2551 62.4877 37.6017 62.687C37.9484 62.8863 38.3427 62.986 38.7847 62.986ZM41.1377 64V62.141L41.2157 60.542L41.0857 58.943V54.354H42.3337V64H41.1377ZM49.1671 64V62.544L49.1021 62.271V59.788C49.1021 59.2593 48.9461 58.852 48.6341 58.566C48.3307 58.2713 47.8714 58.124 47.2561 58.124C46.8487 58.124 46.4501 58.1933 46.0601 58.332C45.6701 58.462 45.3407 58.6397 45.0721 58.865L44.5521 57.929C44.9074 57.643 45.3321 57.4263 45.8261 57.279C46.3287 57.123 46.8531 57.045 47.3991 57.045C48.3437 57.045 49.0717 57.2747 49.5831 57.734C50.0944 58.1933 50.3501 58.8953 50.3501 59.84V64H49.1671ZM46.9051 64.078C46.3937 64.078 45.9431 63.9913 45.5531 63.818C45.1717 63.6447 44.8771 63.4063 44.6691 63.103C44.4611 62.791 44.3571 62.44 44.3571 62.05C44.3571 61.6773 44.4437 61.3393 44.6171 61.036C44.7991 60.7327 45.0894 60.49 45.4881 60.308C45.8954 60.126 46.4414 60.035 47.1261 60.035H49.3101V60.932H47.1781C46.5541 60.932 46.1337 61.036 45.9171 61.244C45.7004 61.452 45.5921 61.7033 45.5921 61.998C45.5921 62.336 45.7264 62.609 45.9951 62.817C46.2637 63.0163 46.6364 63.116 47.1131 63.116C47.5811 63.116 47.9884 63.012 48.3351 62.804C48.6904 62.596 48.9461 62.2927 49.1021 61.894L49.3491 62.752C49.1844 63.1593 48.8941 63.4843 48.4781 63.727C48.0621 63.961 47.5377 64.078 46.9051 64.078ZM53.0266 66.6C52.6973 66.6 52.3766 66.5437 52.0646 66.431C51.7526 66.327 51.484 66.171 51.2586 65.963L51.7916 65.027C51.965 65.1917 52.1556 65.3173 52.3636 65.404C52.5716 65.4907 52.7926 65.534 53.0266 65.534C53.33 65.534 53.5813 65.456 53.7806 65.3C53.98 65.144 54.1663 64.8667 54.3396 64.468L54.7686 63.519L54.8986 63.363L57.6026 57.11H58.8246L55.4836 64.689C55.2843 65.1743 55.059 65.5557 54.8076 65.833C54.565 66.1103 54.2963 66.3053 54.0016 66.418C53.707 66.5393 53.382 66.6 53.0266 66.6ZM54.6646 64.221L51.5186 57.11H52.8186L55.4966 63.246L54.6646 64.221ZM65.8466 64.078C65.2746 64.078 64.7286 64 64.2086 63.844C63.6972 63.688 63.2942 63.4973 62.9996 63.272L63.5196 62.284C63.8142 62.4833 64.1782 62.6523 64.6116 62.791C65.0449 62.9297 65.4869 62.999 65.9376 62.999C66.5182 62.999 66.9342 62.9167 67.1856 62.752C67.4456 62.5873 67.5756 62.3577 67.5756 62.063C67.5756 61.8463 67.4976 61.6773 67.3416 61.556C67.1856 61.4347 66.9776 61.3437 66.7176 61.283C66.4662 61.2223 66.1846 61.1703 65.8726 61.127C65.5606 61.075 65.2486 61.0143 64.9366 60.945C64.6246 60.867 64.3386 60.763 64.0786 60.633C63.8186 60.4943 63.6106 60.308 63.4546 60.074C63.2986 59.8313 63.2206 59.5107 63.2206 59.112C63.2206 58.696 63.3376 58.332 63.5716 58.02C63.8056 57.708 64.1349 57.4697 64.5596 57.305C64.9929 57.1317 65.5042 57.045 66.0936 57.045C66.5442 57.045 66.9992 57.1013 67.4586 57.214C67.9266 57.318 68.3079 57.4697 68.6026 57.669L68.0696 58.657C67.7576 58.449 67.4326 58.306 67.0946 58.228C66.7566 58.15 66.4186 58.111 66.0806 58.111C65.5346 58.111 65.1272 58.202 64.8586 58.384C64.5899 58.5573 64.4556 58.7827 64.4556 59.06C64.4556 59.294 64.5336 59.476 64.6896 59.606C64.8542 59.7273 65.0622 59.8227 65.3136 59.892C65.5736 59.9613 65.8596 60.022 66.1716 60.074C66.4836 60.1173 66.7956 60.178 67.1076 60.256C67.4196 60.3253 67.7012 60.425 67.9526 60.555C68.2126 60.685 68.4206 60.867 68.5766 61.101C68.7412 61.335 68.8236 61.647 68.8236 62.037C68.8236 62.453 68.7022 62.8127 68.4596 63.116C68.2169 63.4193 67.8746 63.6577 67.4326 63.831C66.9906 63.9957 66.4619 64.078 65.8466 64.078ZM72.9443 64.078C72.2509 64.078 71.7136 63.8917 71.3323 63.519C70.9509 63.1463 70.7603 62.6133 70.7603 61.92V55.602H72.0083V61.868C72.0083 62.2407 72.0993 62.5267 72.2813 62.726C72.4719 62.9253 72.7406 63.025 73.0873 63.025C73.4773 63.025 73.8023 62.9167 74.0623 62.7L74.4523 63.597C74.2616 63.7617 74.0319 63.883 73.7633 63.961C73.5033 64.039 73.2303 64.078 72.9443 64.078ZM69.5903 58.137V57.11H73.9843V58.137H69.5903ZM80.4331 64V62.544L80.3681 62.271V59.788C80.3681 59.2593 80.2121 58.852 79.9001 58.566C79.5968 58.2713 79.1374 58.124 78.5221 58.124C78.1148 58.124 77.7161 58.1933 77.3261 58.332C76.9361 58.462 76.6068 58.6397 76.3381 58.865L75.8181 57.929C76.1734 57.643 76.5981 57.4263 77.0921 57.279C77.5948 57.123 78.1191 57.045 78.6651 57.045C79.6098 57.045 80.3378 57.2747 80.8491 57.734C81.3604 58.1933 81.6161 58.8953 81.6161 59.84V64H80.4331ZM78.1711 64.078C77.6598 64.078 77.2091 63.9913 76.8191 63.818C76.4378 63.6447 76.1431 63.4063 75.9351 63.103C75.7271 62.791 75.6231 62.44 75.6231 62.05C75.6231 61.6773 75.7098 61.3393 75.8831 61.036C76.0651 60.7327 76.3554 60.49 76.7541 60.308C77.1614 60.126 77.7074 60.035 78.3921 60.035H80.5761V60.932H78.4441C77.8201 60.932 77.3998 61.036 77.1831 61.244C76.9664 61.452 76.8581 61.7033 76.8581 61.998C76.8581 62.336 76.9924 62.609 77.2611 62.817C77.5298 63.0163 77.9024 63.116 78.3791 63.116C78.8471 63.116 79.2544 63.012 79.6011 62.804C79.9564 62.596 80.2121 62.2927 80.3681 61.894L80.6151 62.752C80.4504 63.1593 80.1601 63.4843 79.7441 63.727C79.3281 63.961 78.8038 64.078 78.1711 64.078ZM86.4866 64.078C85.7933 64.078 85.256 63.8917 84.8746 63.519C84.4933 63.1463 84.3026 62.6133 84.3026 61.92V55.602H85.5506V61.868C85.5506 62.2407 85.6416 62.5267 85.8236 62.726C86.0143 62.9253 86.283 63.025 86.6296 63.025C87.0196 63.025 87.3446 62.9167 87.6046 62.7L87.9946 63.597C87.804 63.7617 87.5743 63.883 87.3056 63.961C87.0456 64.039 86.7726 64.078 86.4866 64.078ZM83.1326 58.137V57.11H87.5266V58.137H83.1326ZM89.6984 64V57.11H90.9464V64H89.6984ZM90.3224 55.784C90.0798 55.784 89.8761 55.706 89.7114 55.55C89.5554 55.394 89.4774 55.2033 89.4774 54.978C89.4774 54.744 89.5554 54.549 89.7114 54.393C89.8761 54.237 90.0798 54.159 90.3224 54.159C90.5651 54.159 90.7644 54.237 90.9204 54.393C91.0851 54.5403 91.1674 54.7267 91.1674 54.952C91.1674 55.186 91.0894 55.3853 90.9334 55.55C90.7774 55.706 90.5738 55.784 90.3224 55.784ZM95.5003 64.078C94.9283 64.078 94.3823 64 93.8623 63.844C93.351 63.688 92.948 63.4973 92.6533 63.272L93.1733 62.284C93.468 62.4833 93.832 62.6523 94.2653 62.791C94.6986 62.9297 95.1406 62.999 95.5913 62.999C96.172 62.999 96.588 62.9167 96.8393 62.752C97.0993 62.5873 97.2293 62.3577 97.2293 62.063C97.2293 61.8463 97.1513 61.6773 96.9953 61.556C96.8393 61.4347 96.6313 61.3437 96.3713 61.283C96.12 61.2223 95.8383 61.1703 95.5263 61.127C95.2143 61.075 94.9023 61.0143 94.5903 60.945C94.2783 60.867 93.9923 60.763 93.7323 60.633C93.4723 60.4943 93.2643 60.308 93.1083 60.074C92.9523 59.8313 92.8743 59.5107 92.8743 59.112C92.8743 58.696 92.9913 58.332 93.2253 58.02C93.4593 57.708 93.7886 57.4697 94.2133 57.305C94.6466 57.1317 95.158 57.045 95.7473 57.045C96.198 57.045 96.653 57.1013 97.1123 57.214C97.5803 57.318 97.9616 57.4697 98.2563 57.669L97.7233 58.657C97.4113 58.449 97.0863 58.306 96.7483 58.228C96.4103 58.15 96.0723 58.111 95.7343 58.111C95.1883 58.111 94.781 58.202 94.5123 58.384C94.2436 58.5573 94.1093 58.7827 94.1093 59.06C94.1093 59.294 94.1873 59.476 94.3433 59.606C94.508 59.7273 94.716 59.8227 94.9673 59.892C95.2273 59.9613 95.5133 60.022 95.8253 60.074C96.1373 60.1173 96.4493 60.178 96.7613 60.256C97.0733 60.3253 97.355 60.425 97.6063 60.555C97.8663 60.685 98.0743 60.867 98.2303 61.101C98.395 61.335 98.4773 61.647 98.4773 62.037C98.4773 62.453 98.356 62.8127 98.1133 63.116C97.8706 63.4193 97.5283 63.6577 97.0863 63.831C96.6443 63.9957 96.1156 64.078 95.5003 64.078ZM102.598 64.078C101.905 64.078 101.367 63.8917 100.986 63.519C100.605 63.1463 100.414 62.6133 100.414 61.92V55.602H101.662V61.868C101.662 62.2407 101.753 62.5267 101.935 62.726C102.126 62.9253 102.394 63.025 102.741 63.025C103.131 63.025 103.456 62.9167 103.716 62.7L104.106 63.597C103.915 63.7617 103.686 63.883 103.417 63.961C103.157 64.039 102.884 64.078 102.598 64.078ZM99.244 58.137V57.11H103.638V58.137H99.244ZM105.81 64V57.11H107.058V64H105.81ZM106.434 55.784C106.191 55.784 105.987 55.706 105.823 55.55C105.667 55.394 105.589 55.2033 105.589 54.978C105.589 54.744 105.667 54.549 105.823 54.393C105.987 54.237 106.191 54.159 106.434 54.159C106.676 54.159 106.876 54.237 107.032 54.393C107.196 54.5403 107.279 54.7267 107.279 54.952C107.279 55.186 107.201 55.3853 107.045 55.55C106.889 55.706 106.685 55.784 106.434 55.784ZM112.639 64.078C111.937 64.078 111.308 63.9263 110.754 63.623C110.208 63.3197 109.779 62.9037 109.467 62.375C109.155 61.8463 108.999 61.2397 108.999 60.555C108.999 59.8703 109.155 59.2637 109.467 58.735C109.779 58.2063 110.208 57.7947 110.754 57.5C111.308 57.1967 111.937 57.045 112.639 57.045C113.263 57.045 113.817 57.1707 114.303 57.422C114.797 57.6647 115.178 58.0287 115.447 58.514L114.498 59.125C114.272 58.787 113.995 58.54 113.666 58.384C113.345 58.2193 112.998 58.137 112.626 58.137C112.175 58.137 111.772 58.2367 111.417 58.436C111.061 58.6353 110.78 58.917 110.572 59.281C110.364 59.6363 110.26 60.061 110.26 60.555C110.26 61.049 110.364 61.478 110.572 61.842C110.78 62.206 111.061 62.4877 111.417 62.687C111.772 62.8863 112.175 62.986 112.626 62.986C112.998 62.986 113.345 62.908 113.666 62.752C113.995 62.5873 114.272 62.336 114.498 61.998L115.447 62.596C115.178 63.0727 114.797 63.441 114.303 63.701C113.817 63.9523 113.263 64.078 112.639 64.078ZM119.233 64.078C118.661 64.078 118.115 64 117.595 63.844C117.084 63.688 116.681 63.4973 116.386 63.272L116.906 62.284C117.201 62.4833 117.565 62.6523 117.998 62.791C118.432 62.9297 118.874 62.999 119.324 62.999C119.905 62.999 120.321 62.9167 120.572 62.752C120.832 62.5873 120.962 62.3577 120.962 62.063C120.962 61.8463 120.884 61.6773 120.728 61.556C120.572 61.4347 120.364 61.3437 120.104 61.283C119.853 61.2223 119.571 61.1703 119.259 61.127C118.947 61.075 118.635 61.0143 118.323 60.945C118.011 60.867 117.725 60.763 117.465 60.633C117.205 60.4943 116.997 60.308 116.841 60.074C116.685 59.8313 116.607 59.5107 116.607 59.112C116.607 58.696 116.724 58.332 116.958 58.02C117.192 57.708 117.522 57.4697 117.946 57.305C118.38 57.1317 118.891 57.045 119.48 57.045C119.931 57.045 120.386 57.1013 120.845 57.214C121.313 57.318 121.695 57.4697 121.989 57.669L121.456 58.657C121.144 58.449 120.819 58.306 120.481 58.228C120.143 58.15 119.805 58.111 119.467 58.111C118.921 58.111 118.514 58.202 118.245 58.384C117.977 58.5573 117.842 58.7827 117.842 59.06C117.842 59.294 117.92 59.476 118.076 59.606C118.241 59.7273 118.449 59.8227 118.7 59.892C118.96 59.9613 119.246 60.022 119.558 60.074C119.87 60.1173 120.182 60.178 120.494 60.256C120.806 60.3253 121.088 60.425 121.339 60.555C121.599 60.685 121.807 60.867 121.963 61.101C122.128 61.335 122.21 61.647 122.21 62.037C122.21 62.453 122.089 62.8127 121.846 63.116C121.604 63.4193 121.261 63.6577 120.819 63.831C120.377 63.9957 119.849 64.078 119.233 64.078Z" fill="#AEAEAE"/>
<defs>
<filter id="filter0_b_0_8" x="-8" y="-8" width="234" height="103" filterUnits="userSpaceOnUse" color-interpolation-filters="sRGB">
<feFlood flood-opacity="0" result="BackgroundImageFix"/>
<feGaussianBlur in="BackgroundImageFix" stdDeviation="4"/>
<feComposite in2="SourceAlpha" operator="in" result="effect1_backgroundBlur_0_8"/>
<feBlend mode="normal" in="SourceGraphic" in2="effect1_backgroundBlur_0_8" result="shape"/>
</filter>
</defs>
</svg>
