<svg width="188" height="42" viewBox="0 0 188 42" fill="none" xmlns="http://www.w3.org/2000/svg">
<g filter="url(#filter0_b_1_115)">
<rect width="188" height="42" rx="4.30657" fill="#B296D7" fill-opacity="0.33"/>
<rect x="0.430657" y="0.430657" width="187.139" height="41.1387" rx="3.87591" stroke="#2E2042" stroke-width="0.861314"/>
</g>
<path d="M21.8579 24V16.765H24.9896C25.6373 16.765 26.1954 16.8718 26.664 17.0854C27.1326 17.2921 27.4943 17.5918 27.7493 17.9846C28.0042 18.3773 28.1317 18.8459 28.1317 19.3902C28.1317 19.9277 28.0042 20.3928 27.7493 20.7856C27.4943 21.1783 27.1326 21.4815 26.664 21.6951C26.1954 21.9018 25.6373 22.0052 24.9896 22.0052H22.7881L23.5323 21.2507V24H21.8579ZM23.5323 21.4367L22.7881 20.6409H24.8966C25.4134 20.6409 25.7992 20.5306 26.0542 20.3101C26.3091 20.0896 26.4366 19.783 26.4366 19.3902C26.4366 18.9906 26.3091 18.6805 26.0542 18.46C25.7992 18.2395 25.4134 18.1293 24.8966 18.1293H22.7881L23.5323 17.3334V21.4367ZM29.4694 24V16.3309H31.0817V24H29.4694ZM36.144 24V22.9147L36.0406 22.677V20.7339C36.0406 20.3894 35.9338 20.1206 35.7202 19.9277C35.5135 19.7348 35.1931 19.6383 34.759 19.6383C34.4627 19.6383 34.1699 19.6865 33.8805 19.783C33.598 19.8726 33.3568 19.9966 33.157 20.1551L32.5782 19.0285C32.8813 18.8149 33.2465 18.6495 33.6737 18.5324C34.101 18.4152 34.5351 18.3567 34.9761 18.3567C35.8236 18.3567 36.4816 18.5565 36.9502 18.9561C37.4187 19.3558 37.653 19.9794 37.653 20.8269V24H36.144ZM34.4489 24.0827C34.0148 24.0827 33.6427 24.0103 33.3327 23.8656C33.0226 23.714 32.7849 23.5108 32.6195 23.2558C32.4541 23.0009 32.3714 22.7149 32.3714 22.398C32.3714 22.0672 32.4507 21.7778 32.6092 21.5298C32.7745 21.2817 33.0329 21.0888 33.3843 20.9509C33.7358 20.8062 34.194 20.7339 34.759 20.7339H36.237V21.6745H34.9347C34.5557 21.6745 34.2939 21.7365 34.1492 21.8605C34.0114 21.9845 33.9425 22.1396 33.9425 22.3256C33.9425 22.5323 34.0217 22.6977 34.1802 22.8217C34.3456 22.9389 34.5695 22.9974 34.852 22.9974C35.1208 22.9974 35.3619 22.9354 35.5755 22.8114C35.7891 22.6805 35.9442 22.491 36.0406 22.2429L36.2887 22.9871C36.1716 23.3454 35.958 23.6176 35.6479 23.8036C35.3378 23.9897 34.9382 24.0827 34.4489 24.0827ZM42.6471 18.3567C43.0881 18.3567 43.4809 18.4462 43.8254 18.6254C44.1768 18.7977 44.4524 19.0664 44.6523 19.4316C44.8521 19.7899 44.952 20.2516 44.952 20.8166V24H43.3396V21.0646C43.3396 20.6168 43.2397 20.286 43.0399 20.0724C42.847 19.8588 42.5713 19.752 42.213 19.752C41.9581 19.752 41.7273 19.8071 41.5205 19.9174C41.3207 20.0207 41.1622 20.1827 41.0451 20.4032C40.9348 20.6236 40.8797 20.9062 40.8797 21.2507V24H39.2673V18.4394H40.8074V19.9794L40.518 19.5143C40.7178 19.1422 41.0037 18.8562 41.3758 18.6564C41.7479 18.4566 42.1717 18.3567 42.6471 18.3567ZM49.3686 24.0827C48.7347 24.0827 48.1766 23.9587 47.6942 23.7106C47.2188 23.4625 46.8501 23.1249 46.5883 22.6977C46.3265 22.2636 46.1955 21.7709 46.1955 21.2197C46.1955 20.6615 46.323 20.1689 46.578 19.7417C46.8398 19.3076 47.1947 18.9699 47.6425 18.7288C48.0904 18.4807 48.5969 18.3567 49.1619 18.3567C49.7062 18.3567 50.1955 18.4738 50.6296 18.7081C51.0706 18.9355 51.4185 19.2662 51.6735 19.7003C51.9284 20.1275 52.0559 20.6409 52.0559 21.2404C52.0559 21.3024 52.0525 21.3747 52.0456 21.4574C52.0387 21.5332 52.0318 21.6055 52.0249 21.6745H47.5082V20.7339H51.1774L50.5572 21.013C50.5572 20.7236 50.4987 20.4721 50.3815 20.2585C50.2644 20.0448 50.1025 19.8795 49.8957 19.7623C49.689 19.6383 49.4479 19.5763 49.1722 19.5763C48.8966 19.5763 48.652 19.6383 48.4384 19.7623C48.2317 19.8795 48.0697 20.0483 47.9526 20.2688C47.8355 20.4824 47.7769 20.7373 47.7769 21.0336V21.2817C47.7769 21.5849 47.8424 21.8536 47.9733 22.0879C48.1111 22.3153 48.3006 22.491 48.5417 22.615C48.7898 22.7321 49.0792 22.7907 49.41 22.7907C49.7062 22.7907 49.9646 22.7459 50.1851 22.6564C50.4125 22.5668 50.6192 22.4324 50.8053 22.2533L51.6632 23.1835C51.4082 23.4729 51.0878 23.6968 50.7019 23.8553C50.3161 24.0069 49.8716 24.0827 49.3686 24.0827ZM55.5583 24.0827C54.9037 24.0827 54.3938 23.9173 54.0286 23.5866C53.6634 23.2489 53.4808 22.7494 53.4808 22.0879V17.2094H55.0932V22.0672C55.0932 22.3015 55.1552 22.4841 55.2792 22.615C55.4032 22.739 55.5721 22.8011 55.7857 22.8011C56.0406 22.8011 56.2577 22.7321 56.4368 22.5943L56.8709 23.7313C56.7056 23.8484 56.5057 23.938 56.2715 24C56.0441 24.0551 55.8063 24.0827 55.5583 24.0827ZM52.6229 19.8037V18.5634H56.4782V19.8037H52.6229ZM60.5191 24.0827C59.8852 24.0827 59.3271 23.9587 58.8447 23.7106C58.3693 23.4625 58.0006 23.1249 57.7388 22.6977C57.477 22.2636 57.346 21.7709 57.346 21.2197C57.346 20.6615 57.4735 20.1689 57.7285 19.7417C57.9903 19.3076 58.3452 18.9699 58.7931 18.7288C59.2409 18.4807 59.7474 18.3567 60.3124 18.3567C60.8568 18.3567 61.346 18.4738 61.7801 18.7081C62.2211 18.9355 62.5691 19.2662 62.824 19.7003C63.079 20.1275 63.2064 20.6409 63.2064 21.2404C63.2064 21.3024 63.203 21.3747 63.1961 21.4574C63.1892 21.5332 63.1823 21.6055 63.1754 21.6745H58.6587V20.7339H62.3279L61.7077 21.013C61.7077 20.7236 61.6492 20.4721 61.532 20.2585C61.4149 20.0448 61.253 19.8795 61.0462 19.7623C60.8395 19.6383 60.5984 19.5763 60.3227 19.5763C60.0471 19.5763 59.8025 19.6383 59.5889 19.7623C59.3822 19.8795 59.2203 20.0483 59.1031 20.2688C58.986 20.4824 58.9274 20.7373 58.9274 21.0336V21.2817C58.9274 21.5849 58.9929 21.8536 59.1238 22.0879C59.2616 22.3153 59.4511 22.491 59.6923 22.615C59.9403 22.7321 60.2297 22.7907 60.5605 22.7907C60.8568 22.7907 61.1152 22.7459 61.3357 22.6564C61.563 22.5668 61.7698 22.4324 61.9558 22.2533L62.8137 23.1835C62.5587 23.4729 62.2383 23.6968 61.8524 23.8553C61.4666 24.0069 61.0221 24.0827 60.5191 24.0827ZM63.5807 24L66.0716 20.7339L66.0406 21.6228L63.653 18.4394H65.4618L66.9708 20.5168L66.2887 20.5375L67.8494 18.4394H69.5651L67.1672 21.5918V20.7236L69.6478 24H67.8184L66.237 21.7881L66.9088 21.8812L65.3378 24H63.5807ZM75.2801 24V18.1293H72.9648V16.765H79.2697V18.1293H76.9544V24H75.2801ZM82.2926 24.0827C81.7 24.0827 81.1729 23.9587 80.7113 23.7106C80.2565 23.4625 79.8947 23.1249 79.626 22.6977C79.3642 22.2636 79.2332 21.7709 79.2332 21.2197C79.2332 20.6615 79.3642 20.1689 79.626 19.7417C79.8947 19.3076 80.2565 18.9699 80.7113 18.7288C81.1729 18.4807 81.7 18.3567 82.2926 18.3567C82.8783 18.3567 83.402 18.4807 83.8637 18.7288C84.3253 18.9699 84.6871 19.3041 84.9489 19.7313C85.2108 20.1585 85.3417 20.6547 85.3417 21.2197C85.3417 21.7709 85.2108 22.2636 84.9489 22.6977C84.6871 23.1249 84.3253 23.4625 83.8637 23.7106C83.402 23.9587 82.8783 24.0827 82.2926 24.0827ZM82.2926 22.7597C82.5614 22.7597 82.8025 22.6977 83.0161 22.5737C83.2297 22.4496 83.3986 22.2739 83.5226 22.0465C83.6466 21.8123 83.7086 21.5366 83.7086 21.2197C83.7086 20.8958 83.6466 20.6202 83.5226 20.3928C83.3986 20.1654 83.2297 19.9897 83.0161 19.8657C82.8025 19.7417 82.5614 19.6796 82.2926 19.6796C82.0239 19.6796 81.7827 19.7417 81.5691 19.8657C81.3555 19.9897 81.1833 20.1654 81.0523 20.3928C80.9283 20.6202 80.8663 20.8958 80.8663 21.2197C80.8663 21.5366 80.9283 21.8123 81.0523 22.0465C81.1833 22.2739 81.3555 22.4496 81.5691 22.5737C81.7827 22.6977 82.0239 22.7597 82.2926 22.7597ZM87.9078 22.8631L87.9491 20.8993L90.5434 18.4394H92.4659L89.9749 20.9716L89.1377 21.6538L87.9078 22.8631ZM86.5745 24V16.3309H88.1868V24H86.5745ZM90.7191 24L88.838 21.6641L89.8509 20.4135L92.6726 24H90.7191ZM96.0802 24.0827C95.4463 24.0827 94.8882 23.9587 94.4058 23.7106C93.9304 23.4625 93.5617 23.1249 93.2999 22.6977C93.0381 22.2636 92.9071 21.7709 92.9071 21.2197C92.9071 20.6615 93.0346 20.1689 93.2896 19.7417C93.5514 19.3076 93.9063 18.9699 94.3541 18.7288C94.802 18.4807 95.3085 18.3567 95.8735 18.3567C96.4179 18.3567 96.9071 18.4738 97.3412 18.7081C97.7822 18.9355 98.1301 19.2662 98.3851 19.7003C98.64 20.1275 98.7675 20.6409 98.7675 21.2404C98.7675 21.3024 98.7641 21.3747 98.7572 21.4574C98.7503 21.5332 98.7434 21.6055 98.7365 21.6745H94.2198V20.7339H97.889L97.2688 21.013C97.2688 20.7236 97.2103 20.4721 97.0931 20.2585C96.976 20.0448 96.8141 19.8795 96.6073 19.7623C96.4006 19.6383 96.1595 19.5763 95.8838 19.5763C95.6082 19.5763 95.3636 19.6383 95.15 19.7623C94.9433 19.8795 94.7814 20.0483 94.6642 20.2688C94.5471 20.4824 94.4885 20.7373 94.4885 21.0336V21.2817C94.4885 21.5849 94.554 21.8536 94.6849 22.0879C94.8227 22.3153 95.0122 22.491 95.2534 22.615C95.5014 22.7321 95.7908 22.7907 96.1216 22.7907C96.4179 22.7907 96.6762 22.7459 96.8967 22.6564C97.1241 22.5668 97.3308 22.4324 97.5169 22.2533L98.3748 23.1835C98.1198 23.4729 97.7994 23.6968 97.4135 23.8553C97.0277 24.0069 96.5832 24.0827 96.0802 24.0827ZM103.376 18.3567C103.817 18.3567 104.21 18.4462 104.554 18.6254C104.906 18.7977 105.181 19.0664 105.381 19.4316C105.581 19.7899 105.681 20.2516 105.681 20.8166V24H104.068V21.0646C104.068 20.6168 103.968 20.286 103.769 20.0724C103.576 19.8588 103.3 19.752 102.942 19.752C102.687 19.752 102.456 19.8071 102.249 19.9174C102.049 20.0207 101.891 20.1827 101.774 20.4032C101.664 20.6236 101.608 20.9062 101.608 21.2507V24H99.996V18.4394H101.536V19.9794L101.247 19.5143C101.446 19.1422 101.732 18.8562 102.105 18.6564C102.477 18.4566 102.9 18.3567 103.376 18.3567Z" fill="#D6D6D6"/>
<path d="M148.525 22.7808L151.264 16.6413L151.586 17.1908H147.824L148.412 16.5939V18.3183H147.265V16.1486H152.419V16.9729L149.842 22.7808H148.525ZM153.59 22.8471C153.376 22.8471 153.192 22.7744 153.041 22.6292C152.889 22.4776 152.813 22.2881 152.813 22.0607C152.813 21.8207 152.889 21.6312 153.041 21.4922C153.192 21.347 153.376 21.2743 153.59 21.2743C153.805 21.2743 153.988 21.347 154.14 21.4922C154.291 21.6312 154.367 21.8207 154.367 22.0607C154.367 22.2881 154.291 22.4776 154.14 22.6292C153.988 22.7744 153.805 22.8471 153.59 22.8471ZM157.483 22.8755C157.016 22.8755 156.558 22.8092 156.11 22.6765C155.668 22.5376 155.295 22.3481 154.992 22.1081L155.522 21.1512C155.762 21.347 156.053 21.5049 156.394 21.6249C156.735 21.7449 157.092 21.8049 157.465 21.8049C157.907 21.8049 158.251 21.7165 158.497 21.5396C158.744 21.3564 158.867 21.1101 158.867 20.8006C158.867 20.4974 158.753 20.2574 158.526 20.0805C158.298 19.9037 157.932 19.8153 157.427 19.8153H156.82V18.972L158.715 16.7171L158.876 17.1814H155.314V16.1486H159.833V16.9729L157.938 19.2278L157.294 18.8489H157.663C158.478 18.8489 159.088 19.032 159.492 19.3984C159.903 19.7584 160.108 20.2227 160.108 20.7911C160.108 21.1638 160.013 21.508 159.824 21.8238C159.634 22.1397 159.344 22.3955 158.952 22.5913C158.567 22.7808 158.077 22.8755 157.483 22.8755ZM163.718 22.8755C163.168 22.8755 162.692 22.7934 162.287 22.6292C161.883 22.4649 161.57 22.2344 161.349 21.9375C161.128 21.6344 161.018 21.2806 161.018 20.8764C161.018 20.4722 161.125 20.1311 161.34 19.8532C161.555 19.5752 161.864 19.3636 162.268 19.2184C162.673 19.0731 163.156 19.0005 163.718 19.0005C164.28 19.0005 164.763 19.0731 165.168 19.2184C165.578 19.3636 165.891 19.5784 166.106 19.8626C166.327 20.1405 166.437 20.4785 166.437 20.8764C166.437 21.2806 166.323 21.6344 166.096 21.9375C165.875 22.2344 165.559 22.4649 165.149 22.6292C164.744 22.7934 164.267 22.8755 163.718 22.8755ZM163.718 21.9091C164.173 21.9091 164.533 21.8144 164.798 21.6249C165.063 21.4354 165.196 21.1733 165.196 20.8385C165.196 20.5101 165.063 20.2511 164.798 20.0616C164.533 19.8721 164.173 19.7774 163.718 19.7774C163.263 19.7774 162.906 19.8721 162.647 20.0616C162.388 20.2511 162.259 20.5101 162.259 20.8385C162.259 21.1733 162.388 21.4354 162.647 21.6249C162.906 21.8144 163.263 21.9091 163.718 21.9091ZM163.718 19.6447C163.206 19.6447 162.767 19.5784 162.401 19.4458C162.035 19.3068 161.75 19.1078 161.548 18.8489C161.353 18.5836 161.255 18.2678 161.255 17.9014C161.255 17.5224 161.356 17.1972 161.558 16.9255C161.766 16.6476 162.057 16.4329 162.429 16.2813C162.802 16.1297 163.232 16.0539 163.718 16.0539C164.211 16.0539 164.643 16.1297 165.016 16.2813C165.389 16.4329 165.679 16.6476 165.888 16.9255C166.096 17.1972 166.2 17.5224 166.2 17.9014C166.2 18.2678 166.099 18.5836 165.897 18.8489C165.701 19.1078 165.417 19.3068 165.044 19.4458C164.672 19.5784 164.23 19.6447 163.718 19.6447ZM163.718 18.8868C164.11 18.8868 164.419 18.8046 164.646 18.6404C164.874 18.4699 164.988 18.2425 164.988 17.9583C164.988 17.6614 164.871 17.4309 164.637 17.2666C164.403 17.1024 164.097 17.0203 163.718 17.0203C163.339 17.0203 163.036 17.1024 162.808 17.2666C162.581 17.4309 162.467 17.6614 162.467 17.9583C162.467 18.2425 162.578 18.4699 162.799 18.6404C163.026 18.8046 163.333 18.8868 163.718 18.8868Z" fill="#D6D6D6"/>
<path d="M150.258 28.4705V26.1449H150.811V28.4705H150.258ZM149.343 27.5661V27.0493H151.726V27.5661H149.343ZM153.559 29.1681C153.305 29.1681 153.055 29.132 152.81 29.0596C152.569 28.9838 152.366 28.8805 152.2 28.7495L152.485 28.2276C152.615 28.3344 152.774 28.4205 152.96 28.486C153.149 28.5514 153.346 28.5842 153.549 28.5842C153.787 28.5842 153.973 28.5342 154.107 28.4343C154.245 28.3344 154.314 28.2 154.314 28.0312C154.314 27.9175 154.285 27.8176 154.226 27.7315C154.171 27.6453 154.071 27.5799 153.926 27.5351C153.785 27.4903 153.59 27.4679 153.342 27.4679H152.469L152.655 25.4989H154.779V26.0622H152.903L153.255 25.7418L153.115 27.2147L152.764 26.8994H153.492C153.851 26.8994 154.138 26.9477 154.355 27.0441C154.576 27.1372 154.736 27.2681 154.836 27.4369C154.939 27.6023 154.991 27.7918 154.991 28.0054C154.991 28.2155 154.939 28.4085 154.836 28.5842C154.733 28.7599 154.574 28.9011 154.36 29.0079C154.15 29.1147 153.883 29.1681 153.559 29.1681ZM155.482 29.8968L155.782 28.7547L155.869 29.1371C155.749 29.1371 155.647 29.101 155.565 29.0286C155.485 28.9528 155.446 28.8512 155.446 28.7237C155.446 28.5928 155.485 28.4894 155.565 28.4136C155.647 28.3344 155.747 28.2948 155.864 28.2948C155.985 28.2948 156.085 28.3344 156.164 28.4136C156.243 28.4929 156.283 28.5962 156.283 28.7237C156.283 28.7581 156.279 28.796 156.273 28.8374C156.266 28.8753 156.254 28.9201 156.236 28.9718C156.223 29.0234 156.198 29.0889 156.164 29.1681L155.9 29.8968H155.482ZM156.799 29.1165V28.6668L158.236 27.3025C158.356 27.1888 158.446 27.0889 158.505 27.0028C158.563 26.9167 158.601 26.8374 158.618 26.7651C158.639 26.6893 158.649 26.6186 158.649 26.5532C158.649 26.3878 158.592 26.2603 158.479 26.1708C158.365 26.0777 158.198 26.0312 157.977 26.0312C157.802 26.0312 157.642 26.0622 157.497 26.1243C157.356 26.1863 157.233 26.281 157.13 26.4085L156.66 26.0467C156.801 25.8572 156.99 25.7108 157.228 25.6075C157.469 25.5007 157.738 25.4473 158.034 25.4473C158.296 25.4473 158.524 25.4903 158.716 25.5765C158.913 25.6591 159.063 25.778 159.166 25.933C159.273 26.0881 159.326 26.2724 159.326 26.486C159.326 26.6031 159.311 26.7203 159.28 26.8374C159.249 26.9511 159.19 27.0717 159.104 27.1992C159.018 27.3266 158.892 27.4696 158.727 27.6281L157.492 28.8012L157.352 28.548H159.466V29.1165H156.799ZM160.51 29.1165V25.7573L160.804 26.0622H159.745V25.4989H161.182V29.1165H160.51ZM162.483 29.1165L164.954 25.4989H165.46L162.99 29.1165H162.483ZM162.783 27.4472C162.614 27.4472 162.464 27.4059 162.333 27.3232C162.202 27.2405 162.101 27.1251 162.028 26.977C161.956 26.8288 161.92 26.6548 161.92 26.455C161.92 26.2552 161.956 26.0812 162.028 25.933C162.101 25.7849 162.202 25.6695 162.333 25.5868C162.464 25.5041 162.614 25.4628 162.783 25.4628C162.959 25.4628 163.11 25.5041 163.238 25.5868C163.369 25.6695 163.47 25.7849 163.543 25.933C163.615 26.0812 163.651 26.2552 163.651 26.455C163.651 26.6548 163.615 26.8288 163.543 26.977C163.47 27.1251 163.369 27.2405 163.238 27.3232C163.11 27.4059 162.959 27.4472 162.783 27.4472ZM162.788 27.0855C162.926 27.0855 163.033 27.0321 163.109 26.9253C163.188 26.815 163.227 26.6583 163.227 26.455C163.227 26.2517 163.188 26.0967 163.109 25.9899C163.033 25.8796 162.926 25.8245 162.788 25.8245C162.65 25.8245 162.54 25.8796 162.457 25.9899C162.378 26.1001 162.339 26.2552 162.339 26.455C162.339 26.6548 162.378 26.8099 162.457 26.9201C162.54 27.0304 162.65 27.0855 162.788 27.0855ZM165.155 29.1526C164.986 29.1526 164.836 29.1113 164.705 29.0286C164.575 28.9459 164.473 28.8305 164.401 28.6824C164.328 28.5342 164.292 28.3602 164.292 28.1604C164.292 27.9606 164.328 27.7866 164.401 27.6384C164.473 27.4903 164.575 27.3749 164.705 27.2922C164.836 27.2095 164.986 27.1682 165.155 27.1682C165.331 27.1682 165.482 27.2095 165.61 27.2922C165.741 27.3749 165.842 27.4903 165.915 27.6384C165.987 27.7866 166.023 27.9606 166.023 28.1604C166.023 28.3602 165.987 28.5342 165.915 28.6824C165.842 28.8305 165.741 28.9459 165.61 29.0286C165.482 29.1113 165.331 29.1526 165.155 29.1526ZM165.155 28.7909C165.293 28.7909 165.401 28.7358 165.481 28.6255C165.56 28.5153 165.599 28.3602 165.599 28.1604C165.599 27.9606 165.56 27.8055 165.481 27.6953C165.401 27.585 165.293 27.5299 165.155 27.5299C165.021 27.5299 164.912 27.585 164.829 27.6953C164.75 27.8021 164.711 27.9571 164.711 28.1604C164.711 28.3637 164.75 28.5204 164.829 28.6307C164.912 28.7375 165.021 28.7909 165.155 28.7909Z" fill="#D28DEA"/>
<defs>
<filter id="filter0_b_1_115" x="-6.89051" y="-6.89051" width="201.781" height="55.781" filterUnits="userSpaceOnUse" color-interpolation-filters="sRGB">
<feFlood flood-opacity="0" result="BackgroundImageFix"/>
<feGaussianBlur in="BackgroundImageFix" stdDeviation="3.44526"/>
<feComposite in2="SourceAlpha" operator="in" result="effect1_backgroundBlur_1_115"/>
<feBlend mode="normal" in="SourceGraphic" in2="effect1_backgroundBlur_1_115" result="shape"/>
</filter>
</defs>
</svg>
