<svg width="188" height="42" viewBox="0 0 188 42" fill="none" xmlns="http://www.w3.org/2000/svg">
<g filter="url(#filter0_b_0_9)">
<rect width="188" height="42" rx="4.30657" fill="#B296D7" fill-opacity="0.33"/>
<rect x="0.430657" y="0.430657" width="187.139" height="41.1387" rx="3.87591" stroke="#2E2042" stroke-width="0.861314"/>
</g>
<path d="M21.8579 24.0001V16.765H24.9896C25.6373 16.765 26.1954 16.8718 26.664 17.0854C27.1326 17.2921 27.4943 17.5919 27.7493 17.9846C28.0042 18.3774 28.1317 18.846 28.1317 19.3903C28.1317 19.9278 28.0042 20.3929 27.7493 20.7856C27.4943 21.1784 27.1326 21.4816 26.664 21.6952C26.1954 21.9019 25.6373 22.0053 24.9896 22.0053H22.7881L23.5323 21.2507V24.0001H21.8579ZM23.5323 21.4368L22.7881 20.6409H24.8966C25.4134 20.6409 25.7992 20.5307 26.0542 20.3102C26.3091 20.0897 26.4366 19.7831 26.4366 19.3903C26.4366 18.9907 26.3091 18.6806 26.0542 18.4601C25.7992 18.2396 25.4134 18.1293 24.8966 18.1293H22.7881L23.5323 17.3335V21.4368ZM29.4694 24.0001V16.3309H31.0817V24.0001H29.4694ZM36.144 24.0001V22.9148L36.0406 22.6771V20.734C36.0406 20.3894 35.9338 20.1207 35.7202 19.9278C35.5135 19.7348 35.1931 19.6384 34.759 19.6384C34.4627 19.6384 34.1699 19.6866 33.8805 19.7831C33.598 19.8726 33.3568 19.9967 33.157 20.1552L32.5782 19.0286C32.8813 18.815 33.2465 18.6496 33.6737 18.5324C34.101 18.4153 34.5351 18.3567 34.9761 18.3567C35.8236 18.3567 36.4816 18.5566 36.9502 18.9562C37.4187 19.3559 37.653 19.9794 37.653 20.827V24.0001H36.144ZM34.4489 24.0827C34.0148 24.0827 33.6427 24.0104 33.3327 23.8657C33.0226 23.7141 32.7849 23.5108 32.6195 23.2559C32.4541 23.0009 32.3714 22.715 32.3714 22.398C32.3714 22.0673 32.4507 21.7779 32.6092 21.5298C32.7745 21.2818 33.0329 21.0888 33.3843 20.951C33.7358 20.8063 34.194 20.734 34.759 20.734H36.237V21.6745H34.9347C34.5557 21.6745 34.2939 21.7365 34.1492 21.8606C34.0114 21.9846 33.9425 22.1396 33.9425 22.3257C33.9425 22.5324 34.0217 22.6978 34.1802 22.8218C34.3456 22.9389 34.5695 22.9975 34.852 22.9975C35.1208 22.9975 35.3619 22.9355 35.5755 22.8114C35.7891 22.6805 35.9442 22.491 36.0406 22.243L36.2887 22.9872C36.1716 23.3455 35.958 23.6176 35.6479 23.8037C35.3378 23.9897 34.9382 24.0827 34.4489 24.0827ZM42.6471 18.3567C43.0881 18.3567 43.4809 18.4463 43.8254 18.6255C44.1768 18.7977 44.4524 19.0665 44.6523 19.4317C44.8521 19.79 44.952 20.2516 44.952 20.8166V24.0001H43.3396V21.0647C43.3396 20.6168 43.2397 20.2861 43.0399 20.0725C42.847 19.8589 42.5713 19.7521 42.213 19.7521C41.9581 19.7521 41.7273 19.8072 41.5205 19.9174C41.3207 20.0208 41.1622 20.1827 41.0451 20.4032C40.9348 20.6237 40.8797 20.9062 40.8797 21.2507V24.0001H39.2673V18.4394H40.8074V19.9794L40.518 19.5143C40.7178 19.1423 41.0037 18.8563 41.3758 18.6565C41.7479 18.4566 42.1717 18.3567 42.6471 18.3567ZM49.3686 24.0827C48.7347 24.0827 48.1766 23.9587 47.6942 23.7107C47.2188 23.4626 46.8501 23.125 46.5883 22.6978C46.3265 22.2637 46.1955 21.771 46.1955 21.2197C46.1955 20.6616 46.323 20.1689 46.578 19.7417C46.8398 19.3076 47.1947 18.97 47.6425 18.7288C48.0904 18.4808 48.5969 18.3567 49.1619 18.3567C49.7062 18.3567 50.1955 18.4739 50.6296 18.7081C51.0706 18.9355 51.4185 19.2663 51.6735 19.7004C51.9284 20.1276 52.0559 20.6409 52.0559 21.2404C52.0559 21.3024 52.0525 21.3748 52.0456 21.4575C52.0387 21.5333 52.0318 21.6056 52.0249 21.6745H47.5082V20.734H51.1774L50.5572 21.013C50.5572 20.7236 50.4987 20.4721 50.3815 20.2585C50.2644 20.0449 50.1025 19.8795 49.8957 19.7624C49.689 19.6384 49.4479 19.5764 49.1722 19.5764C48.8966 19.5764 48.652 19.6384 48.4384 19.7624C48.2317 19.8795 48.0697 20.0484 47.9526 20.2688C47.8355 20.4825 47.7769 20.7374 47.7769 21.0337V21.2818C47.7769 21.5849 47.8424 21.8537 47.9733 22.0879C48.1111 22.3153 48.3006 22.491 48.5417 22.6151C48.7898 22.7322 49.0792 22.7908 49.41 22.7908C49.7062 22.7908 49.9646 22.746 50.1851 22.6564C50.4125 22.5668 50.6192 22.4325 50.8053 22.2533L51.6632 23.1835C51.4082 23.4729 51.0878 23.6969 50.7019 23.8554C50.3161 24.007 49.8716 24.0827 49.3686 24.0827ZM55.5583 24.0827C54.9037 24.0827 54.3938 23.9174 54.0286 23.5866C53.6634 23.249 53.4808 22.7494 53.4808 22.0879V17.2095H55.0932V22.0673C55.0932 22.3015 55.1552 22.4841 55.2792 22.6151C55.4032 22.7391 55.5721 22.8011 55.7857 22.8011C56.0406 22.8011 56.2577 22.7322 56.4368 22.5944L56.8709 23.7313C56.7056 23.8485 56.5057 23.938 56.2715 24.0001C56.0441 24.0552 55.8063 24.0827 55.5583 24.0827ZM52.6229 19.8037V18.5634H56.4782V19.8037H52.6229ZM60.5191 24.0827C59.8852 24.0827 59.3271 23.9587 58.8447 23.7107C58.3693 23.4626 58.0006 23.125 57.7388 22.6978C57.477 22.2637 57.346 21.771 57.346 21.2197C57.346 20.6616 57.4735 20.1689 57.7285 19.7417C57.9903 19.3076 58.3452 18.97 58.7931 18.7288C59.2409 18.4808 59.7474 18.3567 60.3124 18.3567C60.8568 18.3567 61.346 18.4739 61.7801 18.7081C62.2211 18.9355 62.5691 19.2663 62.824 19.7004C63.079 20.1276 63.2064 20.6409 63.2064 21.2404C63.2064 21.3024 63.203 21.3748 63.1961 21.4575C63.1892 21.5333 63.1823 21.6056 63.1754 21.6745H58.6587V20.734H62.3279L61.7077 21.013C61.7077 20.7236 61.6492 20.4721 61.532 20.2585C61.4149 20.0449 61.253 19.8795 61.0462 19.7624C60.8395 19.6384 60.5984 19.5764 60.3227 19.5764C60.0471 19.5764 59.8025 19.6384 59.5889 19.7624C59.3822 19.8795 59.2203 20.0484 59.1031 20.2688C58.986 20.4825 58.9274 20.7374 58.9274 21.0337V21.2818C58.9274 21.5849 58.9929 21.8537 59.1238 22.0879C59.2616 22.3153 59.4511 22.491 59.6923 22.6151C59.9403 22.7322 60.2297 22.7908 60.5605 22.7908C60.8568 22.7908 61.1152 22.746 61.3357 22.6564C61.563 22.5668 61.7698 22.4325 61.9558 22.2533L62.8137 23.1835C62.5587 23.4729 62.2383 23.6969 61.8524 23.8554C61.4666 24.007 61.0221 24.0827 60.5191 24.0827ZM63.5807 24.0001L66.0716 20.734L66.0406 21.6228L63.653 18.4394H65.4618L66.9708 20.5169L66.2887 20.5376L67.8494 18.4394H69.5651L67.1672 21.5918V20.7236L69.6478 24.0001H67.8184L66.237 21.7882L66.9088 21.8812L65.3378 24.0001H63.5807ZM75.2801 24.0001V18.1293H72.9648V16.765H79.2697V18.1293H76.9544V24.0001H75.2801ZM82.2926 24.0827C81.7 24.0827 81.1729 23.9587 80.7113 23.7107C80.2565 23.4626 79.8947 23.125 79.626 22.6978C79.3642 22.2637 79.2332 21.771 79.2332 21.2197C79.2332 20.6616 79.3642 20.1689 79.626 19.7417C79.8947 19.3076 80.2565 18.97 80.7113 18.7288C81.1729 18.4808 81.7 18.3567 82.2926 18.3567C82.8783 18.3567 83.402 18.4808 83.8637 18.7288C84.3253 18.97 84.6871 19.3042 84.9489 19.7314C85.2108 20.1586 85.3417 20.6547 85.3417 21.2197C85.3417 21.771 85.2108 22.2637 84.9489 22.6978C84.6871 23.125 84.3253 23.4626 83.8637 23.7107C83.402 23.9587 82.8783 24.0827 82.2926 24.0827ZM82.2926 22.7598C82.5614 22.7598 82.8025 22.6978 83.0161 22.5737C83.2297 22.4497 83.3986 22.274 83.5226 22.0466C83.6466 21.8123 83.7086 21.5367 83.7086 21.2197C83.7086 20.8959 83.6466 20.6203 83.5226 20.3929C83.3986 20.1655 83.2297 19.9898 83.0161 19.8658C82.8025 19.7417 82.5614 19.6797 82.2926 19.6797C82.0239 19.6797 81.7827 19.7417 81.5691 19.8658C81.3555 19.9898 81.1833 20.1655 81.0523 20.3929C80.9283 20.6203 80.8663 20.8959 80.8663 21.2197C80.8663 21.5367 80.9283 21.8123 81.0523 22.0466C81.1833 22.274 81.3555 22.4497 81.5691 22.5737C81.7827 22.6978 82.0239 22.7598 82.2926 22.7598ZM87.9078 22.8631L87.9491 20.8993L90.5434 18.4394H92.4659L89.9749 20.9717L89.1377 21.6538L87.9078 22.8631ZM86.5745 24.0001V16.3309H88.1868V24.0001H86.5745ZM90.7191 24.0001L88.838 21.6642L89.8509 20.4135L92.6726 24.0001H90.7191ZM96.0802 24.0827C95.4463 24.0827 94.8882 23.9587 94.4058 23.7107C93.9304 23.4626 93.5617 23.125 93.2999 22.6978C93.0381 22.2637 92.9071 21.771 92.9071 21.2197C92.9071 20.6616 93.0346 20.1689 93.2896 19.7417C93.5514 19.3076 93.9063 18.97 94.3541 18.7288C94.802 18.4808 95.3085 18.3567 95.8735 18.3567C96.4179 18.3567 96.9071 18.4739 97.3412 18.7081C97.7822 18.9355 98.1301 19.2663 98.3851 19.7004C98.64 20.1276 98.7675 20.6409 98.7675 21.2404C98.7675 21.3024 98.7641 21.3748 98.7572 21.4575C98.7503 21.5333 98.7434 21.6056 98.7365 21.6745H94.2198V20.734H97.889L97.2688 21.013C97.2688 20.7236 97.2103 20.4721 97.0931 20.2585C96.976 20.0449 96.8141 19.8795 96.6073 19.7624C96.4006 19.6384 96.1595 19.5764 95.8838 19.5764C95.6082 19.5764 95.3636 19.6384 95.15 19.7624C94.9433 19.8795 94.7814 20.0484 94.6642 20.2688C94.5471 20.4825 94.4885 20.7374 94.4885 21.0337V21.2818C94.4885 21.5849 94.554 21.8537 94.6849 22.0879C94.8227 22.3153 95.0122 22.491 95.2534 22.6151C95.5014 22.7322 95.7908 22.7908 96.1216 22.7908C96.4179 22.7908 96.6762 22.746 96.8967 22.6564C97.1241 22.5668 97.3308 22.4325 97.5169 22.2533L98.3748 23.1835C98.1198 23.4729 97.7994 23.6969 97.4135 23.8554C97.0277 24.007 96.5832 24.0827 96.0802 24.0827ZM103.376 18.3567C103.817 18.3567 104.21 18.4463 104.554 18.6255C104.906 18.7977 105.181 19.0665 105.381 19.4317C105.581 19.79 105.681 20.2516 105.681 20.8166V24.0001H104.068V21.0647C104.068 20.6168 103.968 20.2861 103.769 20.0725C103.576 19.8589 103.3 19.7521 102.942 19.7521C102.687 19.7521 102.456 19.8072 102.249 19.9174C102.049 20.0208 101.891 20.1827 101.774 20.4032C101.664 20.6237 101.608 20.9062 101.608 21.2507V24.0001H99.996V18.4394H101.536V19.9794L101.247 19.5143C101.446 19.1423 101.732 18.8563 102.105 18.6565C102.477 18.4566 102.9 18.3567 103.376 18.3567Z" fill="#D6D6D6"/>
<path d="M124.922 22.8756C124.454 22.8756 123.996 22.8092 123.548 22.6766C123.106 22.5376 122.733 22.3482 122.43 22.1081L122.951 21.1512C123.191 21.347 123.481 21.5049 123.823 21.6249C124.17 21.7449 124.53 21.805 124.903 21.805C125.338 21.805 125.68 21.7134 125.926 21.5302C126.179 21.347 126.305 21.1007 126.305 20.7912C126.305 20.5827 126.251 20.3996 126.144 20.2417C126.043 20.0838 125.86 19.9638 125.594 19.8816C125.335 19.7995 124.978 19.7585 124.524 19.7585H122.922L123.264 16.1487H127.158V17.1814H123.718L124.363 16.594L124.107 19.2942L123.463 18.7163H124.798C125.455 18.7163 125.983 18.8047 126.381 18.9816C126.785 19.1521 127.079 19.3921 127.262 19.7016C127.451 20.0048 127.546 20.3522 127.546 20.7438C127.546 21.1291 127.451 21.4828 127.262 21.805C127.072 22.1271 126.782 22.3861 126.39 22.5819C126.005 22.7777 125.515 22.8756 124.922 22.8756ZM131.061 22.8756C130.511 22.8756 130.034 22.7935 129.63 22.6292C129.226 22.465 128.913 22.2345 128.692 21.9376C128.471 21.6344 128.361 21.2807 128.361 20.8765C128.361 20.4722 128.468 20.1311 128.683 19.8532C128.898 19.5753 129.207 19.3637 129.611 19.2184C130.016 19.0732 130.499 19.0005 131.061 19.0005C131.623 19.0005 132.106 19.0732 132.51 19.2184C132.921 19.3637 133.234 19.5785 133.448 19.8627C133.67 20.1406 133.78 20.4785 133.78 20.8765C133.78 21.2807 133.666 21.6344 133.439 21.9376C133.218 22.2345 132.902 22.465 132.492 22.6292C132.087 22.7935 131.61 22.8756 131.061 22.8756ZM131.061 21.9092C131.516 21.9092 131.876 21.8144 132.141 21.6249C132.406 21.4355 132.539 21.1733 132.539 20.8386C132.539 20.5101 132.406 20.2511 132.141 20.0617C131.876 19.8722 131.516 19.7774 131.061 19.7774C130.606 19.7774 130.249 19.8722 129.99 20.0617C129.731 20.2511 129.602 20.5101 129.602 20.8386C129.602 21.1733 129.731 21.4355 129.99 21.6249C130.249 21.8144 130.606 21.9092 131.061 21.9092ZM131.061 19.6448C130.549 19.6448 130.11 19.5785 129.744 19.4458C129.378 19.3069 129.093 19.1079 128.891 18.8489C128.695 18.5836 128.598 18.2678 128.598 17.9015C128.598 17.5225 128.699 17.1972 128.901 16.9256C129.109 16.6477 129.4 16.4329 129.772 16.2813C130.145 16.1298 130.575 16.054 131.061 16.054C131.554 16.054 131.986 16.1298 132.359 16.2813C132.732 16.4329 133.022 16.6477 133.231 16.9256C133.439 17.1972 133.543 17.5225 133.543 17.9015C133.543 18.2678 133.442 18.5836 133.24 18.8489C133.044 19.1079 132.76 19.3069 132.387 19.4458C132.015 19.5785 131.573 19.6448 131.061 19.6448ZM131.061 18.8868C131.452 18.8868 131.762 18.8047 131.989 18.6405C132.217 18.4699 132.33 18.2426 132.33 17.9583C132.33 17.6615 132.214 17.4309 131.98 17.2667C131.746 17.1025 131.44 17.0204 131.061 17.0204C130.682 17.0204 130.379 17.1025 130.151 17.2667C129.924 17.4309 129.81 17.6615 129.81 17.9583C129.81 18.2426 129.921 18.4699 130.142 18.6405C130.369 18.8047 130.676 18.8868 131.061 18.8868ZM134.861 24.2115L135.411 22.1176L135.572 22.8187C135.351 22.8187 135.164 22.7524 135.013 22.6198C134.867 22.4808 134.795 22.2945 134.795 22.0608C134.795 21.8207 134.867 21.6313 135.013 21.4923C135.164 21.347 135.348 21.2744 135.562 21.2744C135.783 21.2744 135.967 21.347 136.112 21.4923C136.257 21.6376 136.33 21.8271 136.33 22.0608C136.33 22.1239 136.323 22.1934 136.311 22.2692C136.298 22.3387 136.276 22.4208 136.244 22.5155C136.219 22.6103 136.175 22.7303 136.112 22.8756L135.629 24.2115H134.861ZM139.925 22.8756C139.4 22.8756 138.927 22.7429 138.503 22.4776C138.086 22.2124 137.758 21.8271 137.518 21.3218C137.278 20.8101 137.158 20.1911 137.158 19.4648C137.158 18.7384 137.278 18.1225 137.518 17.6172C137.758 17.1056 138.086 16.7172 138.503 16.4519C138.927 16.1866 139.4 16.054 139.925 16.054C140.455 16.054 140.929 16.1866 141.346 16.4519C141.763 16.7172 142.091 17.1056 142.331 17.6172C142.577 18.1225 142.701 18.7384 142.701 19.4648C142.701 20.1911 142.577 20.8101 142.331 21.3218C142.091 21.8271 141.763 22.2124 141.346 22.4776C140.929 22.7429 140.455 22.8756 139.925 22.8756ZM139.925 21.805C140.234 21.805 140.502 21.7228 140.73 21.5586C140.957 21.3881 141.134 21.1291 141.26 20.7817C141.393 20.4343 141.459 19.9953 141.459 19.4648C141.459 18.9279 141.393 18.4889 141.26 18.1478C141.134 17.8004 140.957 17.5446 140.73 17.3804C140.502 17.2098 140.234 17.1246 139.925 17.1246C139.628 17.1246 139.362 17.2098 139.129 17.3804C138.901 17.5446 138.721 17.8004 138.589 18.1478C138.462 18.4889 138.399 18.9279 138.399 19.4648C138.399 19.9953 138.462 20.4343 138.589 20.7817C138.721 21.1291 138.901 21.3881 139.129 21.5586C139.362 21.7228 139.628 21.805 139.925 21.805ZM143.58 22.7808V21.9565L146.214 19.4553C146.435 19.2469 146.6 19.0637 146.707 18.9058C146.814 18.7479 146.884 18.6026 146.915 18.4699C146.953 18.331 146.972 18.2015 146.972 18.0815C146.972 17.7783 146.868 17.5446 146.66 17.3804C146.451 17.2098 146.145 17.1246 145.741 17.1246C145.419 17.1246 145.125 17.1814 144.86 17.2951C144.601 17.4088 144.376 17.5825 144.187 17.8162L143.325 17.153C143.584 16.8056 143.931 16.5372 144.367 16.3477C144.809 16.1519 145.302 16.054 145.845 16.054C146.325 16.054 146.742 16.1329 147.096 16.2908C147.456 16.4424 147.73 16.6603 147.92 16.9446C148.116 17.2288 148.213 17.5667 148.213 17.9583C148.213 18.1731 148.185 18.3878 148.128 18.6026C148.071 18.811 147.964 19.0321 147.806 19.2658C147.648 19.4995 147.418 19.7616 147.114 20.0522L144.85 22.2029L144.594 21.7386H148.469V22.7808H143.58ZM151.52 22.8756C151.053 22.8756 150.595 22.8092 150.147 22.6766C149.704 22.5376 149.332 22.3482 149.029 22.1081L149.55 21.1512C149.79 21.347 150.08 21.5049 150.421 21.6249C150.769 21.7449 151.129 21.805 151.501 21.805C151.937 21.805 152.278 21.7134 152.525 21.5302C152.777 21.347 152.904 21.1007 152.904 20.7912C152.904 20.5827 152.85 20.3996 152.743 20.2417C152.642 20.0838 152.458 19.9638 152.193 19.8816C151.934 19.7995 151.577 19.7585 151.122 19.7585H149.521L149.862 16.1487H153.756V17.1814H150.317L150.961 16.594L150.706 19.2942L150.061 18.7163H151.397C152.054 18.7163 152.582 18.8047 152.979 18.9816C153.384 19.1521 153.677 19.3921 153.861 19.7016C154.05 20.0048 154.145 20.3522 154.145 20.7438C154.145 21.1291 154.05 21.4828 153.861 21.805C153.671 22.1271 153.381 22.3861 152.989 22.5819C152.604 22.7777 152.114 22.8756 151.52 22.8756ZM155.736 22.8471C155.522 22.8471 155.338 22.7745 155.187 22.6292C155.035 22.4776 154.959 22.2882 154.959 22.0608C154.959 21.8207 155.035 21.6313 155.187 21.4923C155.338 21.347 155.522 21.2744 155.736 21.2744C155.951 21.2744 156.134 21.347 156.286 21.4923C156.437 21.6313 156.513 21.8207 156.513 22.0608C156.513 22.2882 156.437 22.4776 156.286 22.6292C156.134 22.7745 155.951 22.8471 155.736 22.8471ZM158.375 22.7808V16.6224L158.915 17.1814H156.973V16.1487H159.607V22.7808H158.375ZM163.831 22.8756C163.307 22.8756 162.833 22.7429 162.41 22.4776C161.993 22.2124 161.664 21.8271 161.424 21.3218C161.184 20.8101 161.064 20.1911 161.064 19.4648C161.064 18.7384 161.184 18.1225 161.424 17.6172C161.664 17.1056 161.993 16.7172 162.41 16.4519C162.833 16.1866 163.307 16.054 163.831 16.054C164.361 16.054 164.835 16.1866 165.252 16.4519C165.669 16.7172 165.997 17.1056 166.237 17.6172C166.484 18.1225 166.607 18.7384 166.607 19.4648C166.607 20.1911 166.484 20.8101 166.237 21.3218C165.997 21.8271 165.669 22.2124 165.252 22.4776C164.835 22.7429 164.361 22.8756 163.831 22.8756ZM163.831 21.805C164.14 21.805 164.409 21.7228 164.636 21.5586C164.864 21.3881 165.04 21.1291 165.167 20.7817C165.299 20.4343 165.366 19.9953 165.366 19.4648C165.366 18.9279 165.299 18.4889 165.167 18.1478C165.04 17.8004 164.864 17.5446 164.636 17.3804C164.409 17.2098 164.14 17.1246 163.831 17.1246C163.534 17.1246 163.269 17.2098 163.035 17.3804C162.808 17.5446 162.628 17.8004 162.495 18.1478C162.369 18.4889 162.305 18.9279 162.305 19.4648C162.305 19.9953 162.369 20.4343 162.495 20.7817C162.628 21.1291 162.808 21.3881 163.035 21.5586C163.269 21.7228 163.534 21.805 163.831 21.805Z" fill="#D6D6D6"/>
<path d="M150.258 28.4706V26.1451H150.811V28.4706H150.258ZM149.343 27.5662V27.0494H151.726V27.5662H149.343ZM153.559 29.1683C153.305 29.1683 153.055 29.1321 152.81 29.0597C152.569 28.9839 152.366 28.8806 152.2 28.7497L152.485 28.2277C152.615 28.3345 152.774 28.4206 152.96 28.4861C153.149 28.5516 153.346 28.5843 153.549 28.5843C153.787 28.5843 153.973 28.5343 154.107 28.4344C154.245 28.3345 154.314 28.2002 154.314 28.0313C154.314 27.9176 154.285 27.8177 154.226 27.7316C154.171 27.6455 154.071 27.58 153.926 27.5352C153.785 27.4904 153.59 27.468 153.342 27.468H152.469L152.655 25.4991H154.779V26.0624H152.903L153.255 25.742L153.115 27.2148L152.764 26.8996H153.492C153.851 26.8996 154.138 26.9478 154.355 27.0443C154.576 27.1373 154.736 27.2682 154.836 27.437C154.939 27.6024 154.991 27.7919 154.991 28.0055C154.991 28.2157 154.939 28.4086 154.836 28.5843C154.733 28.76 154.574 28.9013 154.36 29.0081C154.15 29.1149 153.883 29.1683 153.559 29.1683ZM155.482 29.8969L155.782 28.7548L155.869 29.1373C155.749 29.1373 155.647 29.1011 155.565 29.0287C155.485 28.9529 155.446 28.8513 155.446 28.7238C155.446 28.5929 155.485 28.4896 155.565 28.4138C155.647 28.3345 155.747 28.2949 155.864 28.2949C155.985 28.2949 156.085 28.3345 156.164 28.4138C156.243 28.493 156.283 28.5964 156.283 28.7238C156.283 28.7583 156.279 28.7962 156.273 28.8375C156.266 28.8754 156.254 28.9202 156.236 28.9719C156.223 29.0236 156.198 29.089 156.164 29.1683L155.9 29.8969H155.482ZM156.799 29.1166V28.667L158.236 27.3027C158.356 27.189 158.446 27.0891 158.505 27.0029C158.563 26.9168 158.601 26.8376 158.618 26.7652C158.639 26.6894 158.649 26.6188 158.649 26.5533C158.649 26.3879 158.592 26.2605 158.479 26.1709C158.365 26.0779 158.198 26.0314 157.977 26.0314C157.802 26.0314 157.642 26.0624 157.497 26.1244C157.356 26.1864 157.233 26.2811 157.13 26.4086L156.66 26.0469C156.801 25.8574 156.99 25.711 157.228 25.6076C157.469 25.5008 157.738 25.4474 158.034 25.4474C158.296 25.4474 158.524 25.4905 158.716 25.5766C158.913 25.6593 159.063 25.7781 159.166 25.9332C159.273 26.0882 159.326 26.2725 159.326 26.4861C159.326 26.6033 159.311 26.7204 159.28 26.8376C159.249 26.9512 159.19 27.0718 159.104 27.1993C159.018 27.3268 158.892 27.4698 158.727 27.6282L157.492 28.8013L157.352 28.5481H159.466V29.1166H156.799ZM160.51 29.1166V25.7575L160.804 26.0624H159.745V25.4991H161.182V29.1166H160.51ZM162.483 29.1166L164.954 25.4991H165.46L162.99 29.1166H162.483ZM162.783 27.4474C162.614 27.4474 162.464 27.406 162.333 27.3233C162.202 27.2406 162.101 27.1252 162.028 26.9771C161.956 26.8289 161.92 26.655 161.92 26.4551C161.92 26.2553 161.956 26.0813 162.028 25.9332C162.101 25.785 162.202 25.6696 162.333 25.5869C162.464 25.5042 162.614 25.4629 162.783 25.4629C162.959 25.4629 163.11 25.5042 163.238 25.5869C163.369 25.6696 163.47 25.785 163.543 25.9332C163.615 26.0813 163.651 26.2553 163.651 26.4551C163.651 26.655 163.615 26.8289 163.543 26.9771C163.47 27.1252 163.369 27.2406 163.238 27.3233C163.11 27.406 162.959 27.4474 162.783 27.4474ZM162.788 27.0856C162.926 27.0856 163.033 27.0322 163.109 26.9254C163.188 26.8152 163.227 26.6584 163.227 26.4551C163.227 26.2519 163.188 26.0968 163.109 25.99C163.033 25.8798 162.926 25.8246 162.788 25.8246C162.65 25.8246 162.54 25.8798 162.457 25.99C162.378 26.1003 162.339 26.2553 162.339 26.4551C162.339 26.655 162.378 26.81 162.457 26.9202C162.54 27.0305 162.65 27.0856 162.788 27.0856ZM165.155 29.1528C164.986 29.1528 164.836 29.1114 164.705 29.0287C164.575 28.946 164.473 28.8306 164.401 28.6825C164.328 28.5343 164.292 28.3604 164.292 28.1605C164.292 27.9607 164.328 27.7867 164.401 27.6386C164.473 27.4904 164.575 27.375 164.705 27.2923C164.836 27.2096 164.986 27.1683 165.155 27.1683C165.331 27.1683 165.482 27.2096 165.61 27.2923C165.741 27.375 165.842 27.4904 165.915 27.6386C165.987 27.7867 166.023 27.9607 166.023 28.1605C166.023 28.3604 165.987 28.5343 165.915 28.6825C165.842 28.8306 165.741 28.946 165.61 29.0287C165.482 29.1114 165.331 29.1528 165.155 29.1528ZM165.155 28.791C165.293 28.791 165.401 28.7359 165.481 28.6256C165.56 28.5154 165.599 28.3604 165.599 28.1605C165.599 27.9607 165.56 27.8057 165.481 27.6954C165.401 27.5852 165.293 27.53 165.155 27.53C165.021 27.53 164.912 27.5852 164.829 27.6954C164.75 27.8022 164.711 27.9573 164.711 28.1605C164.711 28.3638 164.75 28.5206 164.829 28.6308C164.912 28.7376 165.021 28.791 165.155 28.791Z" fill="#D28DEA"/>
<defs>
<filter id="filter0_b_0_9" x="-6.89051" y="-6.89051" width="201.781" height="55.781" filterUnits="userSpaceOnUse" color-interpolation-filters="sRGB">
<feFlood flood-opacity="0" result="BackgroundImageFix"/>
<feGaussianBlur in="BackgroundImageFix" stdDeviation="3.44526"/>
<feComposite in2="SourceAlpha" operator="in" result="effect1_backgroundBlur_0_9"/>
<feBlend mode="normal" in="SourceGraphic" in2="effect1_backgroundBlur_0_9" result="shape"/>
</filter>
</defs>
</svg>
