<svg width="53" height="53" viewBox="0 0 53 53" fill="none" xmlns="http://www.w3.org/2000/svg">
<g filter="url(#filter0_f_0_3)">
<mask id="path-1-inside-1_0_3" fill="white">
<path fill-rule="evenodd" clip-rule="evenodd" d="M9.65375 3.41393C11.6468 4.37628 14.5796 6.24567 16.3575 7.68705C16.9708 8.18407 17.4859 8.62835 17.5024 8.67424C17.5189 8.72 17.3399 8.96716 17.1048 9.22326C16.8696 9.47935 16.6771 9.72799 16.6771 9.77571C16.6771 9.89072 19.6526 12.8566 19.7681 12.8566C19.8174 12.8566 20.076 12.6594 20.3426 12.4185L20.8275 11.9804L21.1817 12.3879C22.0529 13.39 22.7493 14.311 23.6437 15.6441C24.6327 17.1185 26.2206 19.9007 26.2208 20.1602C26.2209 20.2404 26.279 20.3418 26.3499 20.3856C26.4382 20.4402 26.455 20.1825 26.4032 19.5669C26.1424 16.4628 25.1188 13.4985 23.4443 10.9966C22.8889 10.1669 22.7936 9.95043 22.9047 9.77252C22.9789 9.65347 23.0397 9.48572 23.0397 9.39958C23.0397 9.19793 20.3321 6.49394 20.1302 6.49394C20.0461 6.49394 19.8802 6.55475 19.7611 6.62902C19.583 6.74024 19.3625 6.64162 18.5087 6.06862C16.0155 4.39561 13.0179 3.3738 9.88623 3.12982L8.90736 3.05347L9.65375 3.41393ZM21.0375 6.45698C20.9283 6.566 22.9268 8.58271 23.0615 8.49939C23.4195 8.27816 22.8534 7.2621 22.0358 6.65887C21.6544 6.37757 21.2073 6.28715 21.0375 6.45698ZM28.0173 9.87885C27.9038 11.5385 27.8259 12.9116 27.8443 12.9299C27.8626 12.9482 28.2307 11.7141 28.6621 10.1874C29.0937 8.66078 29.4687 7.34665 29.4956 7.26712C29.5234 7.18501 29.3422 7.06657 29.0757 6.99255C28.1735 6.74196 28.2452 6.54655 28.0173 9.87885ZM14.5062 12.7637C4.27182 22.7005 3.22554 23.7531 3.07185 24.2661C2.68239 25.566 3.98844 26.845 5.30306 26.4512C5.69974 26.3324 6.19076 25.8982 7.78081 24.2606C10.5486 21.4101 13.3222 18.5589 15.8396 15.9767C17.0206 14.7654 18.197 13.537 18.4539 13.247L18.921 12.7198L17.8936 11.6869C17.3284 11.119 16.8239 10.6541 16.7725 10.6541C16.7212 10.6541 15.7013 11.6035 14.5062 12.7637ZM34.4191 12.0184C34.0002 12.5319 31.4533 15.5619 30.9442 16.1525L30.6871 16.4507L31.0604 16.2137C32.4258 15.3469 36.0026 12.9029 36.0058 12.8345C36.008 12.7888 35.7482 12.4682 35.4285 12.1223L34.8473 11.4932L34.4191 12.0184ZM48.5493 16.2962C47.7652 17.0895 47.0016 17.7469 46.7161 17.8746C46.4469 17.995 44.7633 18.6798 42.9751 19.3964L39.7234 20.6992L39.5175 21.3357C39.4043 21.6858 38.4236 24.9456 37.3384 28.5796C36.2531 32.2136 35.3036 35.2478 35.2286 35.3219C35.1534 35.3962 32.4766 36.1059 29.28 36.899L23.468 38.3411L17.656 41.251L11.844 44.1611L8.90834 47.1072L5.97272 50.0535H27.9656H49.9585V32.4951C49.9585 22.8379 49.9439 14.9367 49.9259 14.9367C49.9079 14.9367 49.2885 15.5484 48.5493 16.2962ZM30.2589 19.4074C27.4996 19.8436 25.05 21.1044 23.0339 23.126C20.4248 25.742 19.1819 28.7794 19.1999 32.4951C19.211 34.8167 19.5743 36.3891 20.5496 38.3382L20.9632 39.1646L21.949 38.6689L22.9348 38.1732L22.669 37.7227C21.1476 35.1441 20.9162 31.5393 22.0743 28.4572C23.0936 25.7448 25.4747 23.3093 28.1905 22.2014C31.1684 20.9865 35.1 21.2469 37.7665 22.8354C38.1639 23.072 38.5032 23.2499 38.5207 23.2307C38.5776 23.1684 39.0687 21.3492 39.0687 21.2013C39.0687 21.1222 38.6955 20.8697 38.2393 20.64C35.8065 19.4148 32.9763 18.9777 30.2589 19.4074ZM14.7782 21.2687C14.8262 21.6556 14.8851 21.9927 14.9093 22.0178C14.9334 22.0429 16.148 21.7675 17.6085 21.406L20.2638 20.7487L18.9904 20.672C18.2902 20.6296 17.0364 20.5884 16.2042 20.5802L14.6912 20.5651L14.7782 21.2687ZM30.5036 22.3396C23.6877 23.7177 20.1473 30.8388 23.1885 37.0529C23.4201 37.5263 23.6379 37.8163 23.7601 37.8142C24.2156 37.8061 30.0728 36.2631 30.046 36.1582C30.0078 36.0096 26.8328 31.4695 26.717 31.3979C26.6686 31.3679 26.4238 31.4829 26.1731 31.6532C25.7541 31.938 25.6954 31.9481 25.4491 31.7787C24.7645 31.3077 24.4701 30.996 24.5395 30.8156C24.5794 30.7114 25.0016 30.3649 25.4777 30.0456C25.9538 29.7261 26.3434 29.4395 26.3434 29.4087C26.3434 29.3779 26.1147 29.0266 25.8351 28.628C25.5557 28.2295 25.3491 27.8856 25.3763 27.8637C25.4035 27.8418 25.6837 27.6497 25.9988 27.4366L26.572 27.0494L27.0872 27.7839C27.3706 28.1879 27.6254 28.5184 27.6533 28.5184C27.6812 28.5184 27.9472 28.3328 28.2442 28.1059L28.7846 27.6934L28.2981 27.014C28.0306 26.6405 27.8118 26.2893 27.812 26.2336C27.8121 26.1779 28.061 25.9752 28.3651 25.7831C29.0049 25.3788 29.0604 25.4017 29.6433 26.31L30.0199 26.8969L30.7818 26.5811C31.8626 26.1329 32.9296 26.1344 33.6964 26.5852C34.2823 26.9296 34.8206 27.5372 35.0315 28.0919C35.1774 28.4757 35.2192 29.5864 35.1014 29.9569C35.024 30.2012 35.0444 30.2105 35.4217 30.1022C35.6432 30.0387 35.973 29.9867 36.1545 29.9867C36.5214 29.9867 36.363 30.3987 37.6767 26.0285L38.2596 24.0892L37.9606 23.8623C37.5066 23.5178 36.2599 22.934 35.3848 22.6561C33.7838 22.1476 32.0189 22.0332 30.5036 22.3396ZM21.197 24.6492C21.1001 24.7386 19.8921 25.5706 18.5125 26.4978C17.1329 27.425 15.9286 28.2539 15.8363 28.3397C15.6957 28.4705 15.7336 28.5768 16.0709 28.9965C16.2923 29.2719 16.5377 29.4973 16.6163 29.4973C16.695 29.4973 16.9671 29.2633 17.221 28.9773C17.4749 28.6912 18.5372 27.5879 19.5815 26.5254C20.626 25.4629 21.4564 24.5694 21.4269 24.5401C21.3974 24.5106 21.2941 24.5596 21.197 24.6492ZM30.6627 28.6348C29.7847 29.0333 28.6528 29.8606 28.7574 30.0273C28.9989 30.4123 30.4245 32.5068 30.508 32.5994C30.6098 32.7122 31.7454 31.9793 32.4983 31.3149C33.397 30.5218 33.4556 29.5418 32.649 28.7937C32.1358 28.3179 31.4768 28.2651 30.6627 28.6348ZM34.4963 32.0316C34.1817 32.1124 33.1657 32.7178 32.2403 33.3757L31.4688 33.9243L31.6779 34.2497C31.7929 34.4287 32.0544 34.7954 32.2589 35.0646C32.4635 35.3338 32.6409 35.57 32.6532 35.5896C32.6654 35.6093 33.1896 35.4963 33.8179 35.3385L34.9605 35.0517L35.3796 33.6915C35.6101 32.9434 35.7654 32.2442 35.7245 32.1379C35.6511 31.9466 35.0346 31.8933 34.4963 32.0316Z"/>
</mask>
<path fill-rule="evenodd" clip-rule="evenodd" d="M9.65375 3.41393C11.6468 4.37628 14.5796 6.24567 16.3575 7.68705C16.9708 8.18407 17.4859 8.62835 17.5024 8.67424C17.5189 8.72 17.3399 8.96716 17.1048 9.22326C16.8696 9.47935 16.6771 9.72799 16.6771 9.77571C16.6771 9.89072 19.6526 12.8566 19.7681 12.8566C19.8174 12.8566 20.076 12.6594 20.3426 12.4185L20.8275 11.9804L21.1817 12.3879C22.0529 13.39 22.7493 14.311 23.6437 15.6441C24.6327 17.1185 26.2206 19.9007 26.2208 20.1602C26.2209 20.2404 26.279 20.3418 26.3499 20.3856C26.4382 20.4402 26.455 20.1825 26.4032 19.5669C26.1424 16.4628 25.1188 13.4985 23.4443 10.9966C22.8889 10.1669 22.7936 9.95043 22.9047 9.77252C22.9789 9.65347 23.0397 9.48572 23.0397 9.39958C23.0397 9.19793 20.3321 6.49394 20.1302 6.49394C20.0461 6.49394 19.8802 6.55475 19.7611 6.62902C19.583 6.74024 19.3625 6.64162 18.5087 6.06862C16.0155 4.39561 13.0179 3.3738 9.88623 3.12982L8.90736 3.05347L9.65375 3.41393ZM21.0375 6.45698C20.9283 6.566 22.9268 8.58271 23.0615 8.49939C23.4195 8.27816 22.8534 7.2621 22.0358 6.65887C21.6544 6.37757 21.2073 6.28715 21.0375 6.45698ZM28.0173 9.87885C27.9038 11.5385 27.8259 12.9116 27.8443 12.9299C27.8626 12.9482 28.2307 11.7141 28.6621 10.1874C29.0937 8.66078 29.4687 7.34665 29.4956 7.26712C29.5234 7.18501 29.3422 7.06657 29.0757 6.99255C28.1735 6.74196 28.2452 6.54655 28.0173 9.87885ZM14.5062 12.7637C4.27182 22.7005 3.22554 23.7531 3.07185 24.2661C2.68239 25.566 3.98844 26.845 5.30306 26.4512C5.69974 26.3324 6.19076 25.8982 7.78081 24.2606C10.5486 21.4101 13.3222 18.5589 15.8396 15.9767C17.0206 14.7654 18.197 13.537 18.4539 13.247L18.921 12.7198L17.8936 11.6869C17.3284 11.119 16.8239 10.6541 16.7725 10.6541C16.7212 10.6541 15.7013 11.6035 14.5062 12.7637ZM34.4191 12.0184C34.0002 12.5319 31.4533 15.5619 30.9442 16.1525L30.6871 16.4507L31.0604 16.2137C32.4258 15.3469 36.0026 12.9029 36.0058 12.8345C36.008 12.7888 35.7482 12.4682 35.4285 12.1223L34.8473 11.4932L34.4191 12.0184ZM48.5493 16.2962C47.7652 17.0895 47.0016 17.7469 46.7161 17.8746C46.4469 17.995 44.7633 18.6798 42.9751 19.3964L39.7234 20.6992L39.5175 21.3357C39.4043 21.6858 38.4236 24.9456 37.3384 28.5796C36.2531 32.2136 35.3036 35.2478 35.2286 35.3219C35.1534 35.3962 32.4766 36.1059 29.28 36.899L23.468 38.3411L17.656 41.251L11.844 44.1611L8.90834 47.1072L5.97272 50.0535H27.9656H49.9585V32.4951C49.9585 22.8379 49.9439 14.9367 49.9259 14.9367C49.9079 14.9367 49.2885 15.5484 48.5493 16.2962ZM30.2589 19.4074C27.4996 19.8436 25.05 21.1044 23.0339 23.126C20.4248 25.742 19.1819 28.7794 19.1999 32.4951C19.211 34.8167 19.5743 36.3891 20.5496 38.3382L20.9632 39.1646L21.949 38.6689L22.9348 38.1732L22.669 37.7227C21.1476 35.1441 20.9162 31.5393 22.0743 28.4572C23.0936 25.7448 25.4747 23.3093 28.1905 22.2014C31.1684 20.9865 35.1 21.2469 37.7665 22.8354C38.1639 23.072 38.5032 23.2499 38.5207 23.2307C38.5776 23.1684 39.0687 21.3492 39.0687 21.2013C39.0687 21.1222 38.6955 20.8697 38.2393 20.64C35.8065 19.4148 32.9763 18.9777 30.2589 19.4074ZM14.7782 21.2687C14.8262 21.6556 14.8851 21.9927 14.9093 22.0178C14.9334 22.0429 16.148 21.7675 17.6085 21.406L20.2638 20.7487L18.9904 20.672C18.2902 20.6296 17.0364 20.5884 16.2042 20.5802L14.6912 20.5651L14.7782 21.2687ZM30.5036 22.3396C23.6877 23.7177 20.1473 30.8388 23.1885 37.0529C23.4201 37.5263 23.6379 37.8163 23.7601 37.8142C24.2156 37.8061 30.0728 36.2631 30.046 36.1582C30.0078 36.0096 26.8328 31.4695 26.717 31.3979C26.6686 31.3679 26.4238 31.4829 26.1731 31.6532C25.7541 31.938 25.6954 31.9481 25.4491 31.7787C24.7645 31.3077 24.4701 30.996 24.5395 30.8156C24.5794 30.7114 25.0016 30.3649 25.4777 30.0456C25.9538 29.7261 26.3434 29.4395 26.3434 29.4087C26.3434 29.3779 26.1147 29.0266 25.8351 28.628C25.5557 28.2295 25.3491 27.8856 25.3763 27.8637C25.4035 27.8418 25.6837 27.6497 25.9988 27.4366L26.572 27.0494L27.0872 27.7839C27.3706 28.1879 27.6254 28.5184 27.6533 28.5184C27.6812 28.5184 27.9472 28.3328 28.2442 28.1059L28.7846 27.6934L28.2981 27.014C28.0306 26.6405 27.8118 26.2893 27.812 26.2336C27.8121 26.1779 28.061 25.9752 28.3651 25.7831C29.0049 25.3788 29.0604 25.4017 29.6433 26.31L30.0199 26.8969L30.7818 26.5811C31.8626 26.1329 32.9296 26.1344 33.6964 26.5852C34.2823 26.9296 34.8206 27.5372 35.0315 28.0919C35.1774 28.4757 35.2192 29.5864 35.1014 29.9569C35.024 30.2012 35.0444 30.2105 35.4217 30.1022C35.6432 30.0387 35.973 29.9867 36.1545 29.9867C36.5214 29.9867 36.363 30.3987 37.6767 26.0285L38.2596 24.0892L37.9606 23.8623C37.5066 23.5178 36.2599 22.934 35.3848 22.6561C33.7838 22.1476 32.0189 22.0332 30.5036 22.3396ZM21.197 24.6492C21.1001 24.7386 19.8921 25.5706 18.5125 26.4978C17.1329 27.425 15.9286 28.2539 15.8363 28.3397C15.6957 28.4705 15.7336 28.5768 16.0709 28.9965C16.2923 29.2719 16.5377 29.4973 16.6163 29.4973C16.695 29.4973 16.9671 29.2633 17.221 28.9773C17.4749 28.6912 18.5372 27.5879 19.5815 26.5254C20.626 25.4629 21.4564 24.5694 21.4269 24.5401C21.3974 24.5106 21.2941 24.5596 21.197 24.6492ZM30.6627 28.6348C29.7847 29.0333 28.6528 29.8606 28.7574 30.0273C28.9989 30.4123 30.4245 32.5068 30.508 32.5994C30.6098 32.7122 31.7454 31.9793 32.4983 31.3149C33.397 30.5218 33.4556 29.5418 32.649 28.7937C32.1358 28.3179 31.4768 28.2651 30.6627 28.6348ZM34.4963 32.0316C34.1817 32.1124 33.1657 32.7178 32.2403 33.3757L31.4688 33.9243L31.6779 34.2497C31.7929 34.4287 32.0544 34.7954 32.2589 35.0646C32.4635 35.3338 32.6409 35.57 32.6532 35.5896C32.6654 35.6093 33.1896 35.4963 33.8179 35.3385L34.9605 35.0517L35.3796 33.6915C35.6101 32.9434 35.7654 32.2442 35.7245 32.1379C35.6511 31.9466 35.0346 31.8933 34.4963 32.0316Z" fill="#C3ADDE"/>
<path fill-rule="evenodd" clip-rule="evenodd" d="M9.65375 3.41393C11.6468 4.37628 14.5796 6.24567 16.3575 7.68705C16.9708 8.18407 17.4859 8.62835 17.5024 8.67424C17.5189 8.72 17.3399 8.96716 17.1048 9.22326C16.8696 9.47935 16.6771 9.72799 16.6771 9.77571C16.6771 9.89072 19.6526 12.8566 19.7681 12.8566C19.8174 12.8566 20.076 12.6594 20.3426 12.4185L20.8275 11.9804L21.1817 12.3879C22.0529 13.39 22.7493 14.311 23.6437 15.6441C24.6327 17.1185 26.2206 19.9007 26.2208 20.1602C26.2209 20.2404 26.279 20.3418 26.3499 20.3856C26.4382 20.4402 26.455 20.1825 26.4032 19.5669C26.1424 16.4628 25.1188 13.4985 23.4443 10.9966C22.8889 10.1669 22.7936 9.95043 22.9047 9.77252C22.9789 9.65347 23.0397 9.48572 23.0397 9.39958C23.0397 9.19793 20.3321 6.49394 20.1302 6.49394C20.0461 6.49394 19.8802 6.55475 19.7611 6.62902C19.583 6.74024 19.3625 6.64162 18.5087 6.06862C16.0155 4.39561 13.0179 3.3738 9.88623 3.12982L8.90736 3.05347L9.65375 3.41393ZM21.0375 6.45698C20.9283 6.566 22.9268 8.58271 23.0615 8.49939C23.4195 8.27816 22.8534 7.2621 22.0358 6.65887C21.6544 6.37757 21.2073 6.28715 21.0375 6.45698ZM28.0173 9.87885C27.9038 11.5385 27.8259 12.9116 27.8443 12.9299C27.8626 12.9482 28.2307 11.7141 28.6621 10.1874C29.0937 8.66078 29.4687 7.34665 29.4956 7.26712C29.5234 7.18501 29.3422 7.06657 29.0757 6.99255C28.1735 6.74196 28.2452 6.54655 28.0173 9.87885ZM14.5062 12.7637C4.27182 22.7005 3.22554 23.7531 3.07185 24.2661C2.68239 25.566 3.98844 26.845 5.30306 26.4512C5.69974 26.3324 6.19076 25.8982 7.78081 24.2606C10.5486 21.4101 13.3222 18.5589 15.8396 15.9767C17.0206 14.7654 18.197 13.537 18.4539 13.247L18.921 12.7198L17.8936 11.6869C17.3284 11.119 16.8239 10.6541 16.7725 10.6541C16.7212 10.6541 15.7013 11.6035 14.5062 12.7637ZM34.4191 12.0184C34.0002 12.5319 31.4533 15.5619 30.9442 16.1525L30.6871 16.4507L31.0604 16.2137C32.4258 15.3469 36.0026 12.9029 36.0058 12.8345C36.008 12.7888 35.7482 12.4682 35.4285 12.1223L34.8473 11.4932L34.4191 12.0184ZM48.5493 16.2962C47.7652 17.0895 47.0016 17.7469 46.7161 17.8746C46.4469 17.995 44.7633 18.6798 42.9751 19.3964L39.7234 20.6992L39.5175 21.3357C39.4043 21.6858 38.4236 24.9456 37.3384 28.5796C36.2531 32.2136 35.3036 35.2478 35.2286 35.3219C35.1534 35.3962 32.4766 36.1059 29.28 36.899L23.468 38.3411L17.656 41.251L11.844 44.1611L8.90834 47.1072L5.97272 50.0535H27.9656H49.9585V32.4951C49.9585 22.8379 49.9439 14.9367 49.9259 14.9367C49.9079 14.9367 49.2885 15.5484 48.5493 16.2962ZM30.2589 19.4074C27.4996 19.8436 25.05 21.1044 23.0339 23.126C20.4248 25.742 19.1819 28.7794 19.1999 32.4951C19.211 34.8167 19.5743 36.3891 20.5496 38.3382L20.9632 39.1646L21.949 38.6689L22.9348 38.1732L22.669 37.7227C21.1476 35.1441 20.9162 31.5393 22.0743 28.4572C23.0936 25.7448 25.4747 23.3093 28.1905 22.2014C31.1684 20.9865 35.1 21.2469 37.7665 22.8354C38.1639 23.072 38.5032 23.2499 38.5207 23.2307C38.5776 23.1684 39.0687 21.3492 39.0687 21.2013C39.0687 21.1222 38.6955 20.8697 38.2393 20.64C35.8065 19.4148 32.9763 18.9777 30.2589 19.4074ZM14.7782 21.2687C14.8262 21.6556 14.8851 21.9927 14.9093 22.0178C14.9334 22.0429 16.148 21.7675 17.6085 21.406L20.2638 20.7487L18.9904 20.672C18.2902 20.6296 17.0364 20.5884 16.2042 20.5802L14.6912 20.5651L14.7782 21.2687ZM30.5036 22.3396C23.6877 23.7177 20.1473 30.8388 23.1885 37.0529C23.4201 37.5263 23.6379 37.8163 23.7601 37.8142C24.2156 37.8061 30.0728 36.2631 30.046 36.1582C30.0078 36.0096 26.8328 31.4695 26.717 31.3979C26.6686 31.3679 26.4238 31.4829 26.1731 31.6532C25.7541 31.938 25.6954 31.9481 25.4491 31.7787C24.7645 31.3077 24.4701 30.996 24.5395 30.8156C24.5794 30.7114 25.0016 30.3649 25.4777 30.0456C25.9538 29.7261 26.3434 29.4395 26.3434 29.4087C26.3434 29.3779 26.1147 29.0266 25.8351 28.628C25.5557 28.2295 25.3491 27.8856 25.3763 27.8637C25.4035 27.8418 25.6837 27.6497 25.9988 27.4366L26.572 27.0494L27.0872 27.7839C27.3706 28.1879 27.6254 28.5184 27.6533 28.5184C27.6812 28.5184 27.9472 28.3328 28.2442 28.1059L28.7846 27.6934L28.2981 27.014C28.0306 26.6405 27.8118 26.2893 27.812 26.2336C27.8121 26.1779 28.061 25.9752 28.3651 25.7831C29.0049 25.3788 29.0604 25.4017 29.6433 26.31L30.0199 26.8969L30.7818 26.5811C31.8626 26.1329 32.9296 26.1344 33.6964 26.5852C34.2823 26.9296 34.8206 27.5372 35.0315 28.0919C35.1774 28.4757 35.2192 29.5864 35.1014 29.9569C35.024 30.2012 35.0444 30.2105 35.4217 30.1022C35.6432 30.0387 35.973 29.9867 36.1545 29.9867C36.5214 29.9867 36.363 30.3987 37.6767 26.0285L38.2596 24.0892L37.9606 23.8623C37.5066 23.5178 36.2599 22.934 35.3848 22.6561C33.7838 22.1476 32.0189 22.0332 30.5036 22.3396ZM21.197 24.6492C21.1001 24.7386 19.8921 25.5706 18.5125 26.4978C17.1329 27.425 15.9286 28.2539 15.8363 28.3397C15.6957 28.4705 15.7336 28.5768 16.0709 28.9965C16.2923 29.2719 16.5377 29.4973 16.6163 29.4973C16.695 29.4973 16.9671 29.2633 17.221 28.9773C17.4749 28.6912 18.5372 27.5879 19.5815 26.5254C20.626 25.4629 21.4564 24.5694 21.4269 24.5401C21.3974 24.5106 21.2941 24.5596 21.197 24.6492ZM30.6627 28.6348C29.7847 29.0333 28.6528 29.8606 28.7574 30.0273C28.9989 30.4123 30.4245 32.5068 30.508 32.5994C30.6098 32.7122 31.7454 31.9793 32.4983 31.3149C33.397 30.5218 33.4556 29.5418 32.649 28.7937C32.1358 28.3179 31.4768 28.2651 30.6627 28.6348ZM34.4963 32.0316C34.1817 32.1124 33.1657 32.7178 32.2403 33.3757L31.4688 33.9243L31.6779 34.2497C31.7929 34.4287 32.0544 34.7954 32.2589 35.0646C32.4635 35.3338 32.6409 35.57 32.6532 35.5896C32.6654 35.6093 33.1896 35.4963 33.8179 35.3385L34.9605 35.0517L35.3796 33.6915C35.6101 32.9434 35.7654 32.2442 35.7245 32.1379C35.6511 31.9466 35.0346 31.8933 34.4963 32.0316Z" stroke="white" stroke-width="0.244716" mask="url(#path-1-inside-1_0_3)"/>
</g>
<mask id="path-2-inside-2_0_3" fill="white">
<path fill-rule="evenodd" clip-rule="evenodd" d="M9.65375 3.41393C11.6468 4.37628 14.5796 6.24567 16.3575 7.68705C16.9708 8.18407 17.4859 8.62835 17.5024 8.67424C17.5189 8.72 17.3399 8.96716 17.1048 9.22326C16.8696 9.47935 16.6771 9.72799 16.6771 9.77571C16.6771 9.89072 19.6526 12.8566 19.7681 12.8566C19.8174 12.8566 20.076 12.6594 20.3426 12.4185L20.8275 11.9804L21.1817 12.3879C22.0529 13.39 22.7493 14.311 23.6437 15.6441C24.6327 17.1185 26.2206 19.9007 26.2208 20.1602C26.2209 20.2404 26.279 20.3418 26.3499 20.3856C26.4382 20.4402 26.455 20.1825 26.4032 19.5669C26.1424 16.4628 25.1188 13.4985 23.4443 10.9966C22.8889 10.1669 22.7935 9.95043 22.9047 9.77252C22.9789 9.65347 23.0397 9.48572 23.0397 9.39958C23.0397 9.19793 20.3321 6.49394 20.1302 6.49394C20.0461 6.49394 19.8802 6.55475 19.7611 6.62902C19.583 6.74024 19.3625 6.64162 18.5087 6.06862C16.0155 4.39561 13.0179 3.3738 9.88623 3.12982L8.90736 3.05347L9.65375 3.41393ZM21.0375 6.45698C20.9283 6.566 22.9268 8.58271 23.0615 8.49939C23.4195 8.27816 22.8534 7.2621 22.0358 6.65887C21.6544 6.37757 21.2073 6.28715 21.0375 6.45698ZM28.0173 9.87885C27.9038 11.5385 27.8259 12.9116 27.8443 12.9299C27.8626 12.9482 28.2307 11.7141 28.6621 10.1874C29.0937 8.66078 29.4687 7.34665 29.4956 7.26712C29.5234 7.18501 29.3422 7.06657 29.0757 6.99254C28.1735 6.74196 28.2452 6.54655 28.0173 9.87885ZM14.5062 12.7637C4.27182 22.7005 3.22554 23.7531 3.07185 24.2661C2.68239 25.566 3.98844 26.845 5.30306 26.4512C5.69974 26.3324 6.19076 25.8982 7.78081 24.2606C10.5486 21.4101 13.3222 18.5589 15.8396 15.9767C17.0206 14.7654 18.197 13.537 18.4539 13.247L18.921 12.7198L17.8936 11.6869C17.3284 11.119 16.8239 10.6541 16.7725 10.6541C16.7212 10.6541 15.7013 11.6035 14.5062 12.7637ZM34.419 12.0184C34.0002 12.5319 31.4533 15.5619 30.9442 16.1525L30.6871 16.4507L31.0604 16.2137C32.4258 15.3469 36.0026 12.9029 36.0058 12.8345C36.008 12.7888 35.7482 12.4682 35.4285 12.1223L34.8473 11.4932L34.419 12.0184ZM48.5493 16.2962C47.7652 17.0895 47.0016 17.7469 46.7161 17.8746C46.4469 17.995 44.7633 18.6798 42.9751 19.3964L39.7234 20.6992L39.5175 21.3357C39.4043 21.6858 38.4236 24.9456 37.3384 28.5796C36.2531 32.2136 35.3036 35.2478 35.2286 35.3219C35.1534 35.3962 32.4766 36.1059 29.28 36.899L23.468 38.3411L17.656 41.251L11.844 44.1611L8.90834 47.1072L5.97272 50.0535H27.9656H49.9585V32.4951C49.9585 22.8379 49.9439 14.9367 49.9259 14.9367C49.9079 14.9367 49.2885 15.5484 48.5493 16.2962ZM30.2589 19.4074C27.4996 19.8436 25.05 21.1044 23.0339 23.126C20.4248 25.742 19.1819 28.7794 19.1999 32.4951C19.211 34.8167 19.5743 36.3891 20.5496 38.3382L20.9632 39.1646L21.949 38.6689L22.9348 38.1732L22.669 37.7227C21.1476 35.1441 20.9162 31.5393 22.0743 28.4572C23.0936 25.7448 25.4747 23.3093 28.1905 22.2014C31.1684 20.9865 35.1 21.2469 37.7665 22.8354C38.1639 23.072 38.5032 23.2499 38.5207 23.2307C38.5776 23.1684 39.0687 21.3492 39.0687 21.2013C39.0687 21.1222 38.6955 20.8697 38.2393 20.64C35.8065 19.4148 32.9763 18.9777 30.2589 19.4074ZM14.7782 21.2687C14.8262 21.6556 14.8851 21.9927 14.9093 22.0178C14.9334 22.0429 16.148 21.7675 17.6085 21.406L20.2638 20.7487L18.9904 20.6719C18.2902 20.6296 17.0364 20.5884 16.2042 20.5802L14.6912 20.5651L14.7782 21.2687ZM30.5036 22.3396C23.6877 23.7177 20.1473 30.8388 23.1885 37.0529C23.4201 37.5263 23.6379 37.8163 23.7601 37.8142C24.2156 37.8061 30.0728 36.2631 30.046 36.1582C30.0078 36.0096 26.8328 31.4695 26.717 31.3979C26.6686 31.3679 26.4238 31.4829 26.1731 31.6532C25.7541 31.938 25.6954 31.9481 25.4491 31.7787C24.7645 31.3077 24.4701 30.996 24.5395 30.8156C24.5794 30.7114 25.0016 30.3649 25.4777 30.0456C25.9538 29.7261 26.3434 29.4395 26.3434 29.4087C26.3434 29.3779 26.1147 29.0266 25.8351 28.628C25.5557 28.2295 25.3491 27.8856 25.3763 27.8637C25.4035 27.8418 25.6837 27.6497 25.9988 27.4366L26.572 27.0494L27.0872 27.7839C27.3706 28.1879 27.6254 28.5184 27.6533 28.5184C27.6811 28.5184 27.9472 28.3328 28.2442 28.1059L28.7846 27.6934L28.2981 27.014C28.0306 26.6405 27.8118 26.2893 27.8119 26.2336C27.8121 26.1779 28.0609 25.9752 28.3651 25.7831C29.0049 25.3788 29.0604 25.4017 29.6433 26.31L30.0199 26.8969L30.7818 26.5811C31.8626 26.1329 32.9296 26.1344 33.6964 26.5852C34.2823 26.9296 34.8206 27.5372 35.0315 28.0919C35.1774 28.4757 35.2192 29.5864 35.1014 29.9569C35.024 30.2012 35.0444 30.2105 35.4217 30.1022C35.6432 30.0387 35.973 29.9867 36.1545 29.9867C36.5214 29.9867 36.363 30.3987 37.6767 26.0286L38.2596 24.0892L37.9606 23.8623C37.5066 23.5178 36.2599 22.934 35.3848 22.6561C33.7838 22.1476 32.0189 22.0332 30.5036 22.3396ZM21.197 24.6492C21.1001 24.7386 19.8921 25.5706 18.5125 26.4978C17.1329 27.425 15.9286 28.2539 15.8363 28.3397C15.6957 28.4705 15.7336 28.5768 16.0709 28.9965C16.2923 29.2719 16.5377 29.4973 16.6163 29.4973C16.695 29.4973 16.9671 29.2633 17.221 28.9773C17.4749 28.6912 18.5372 27.5879 19.5815 26.5254C20.626 25.4629 21.4564 24.5694 21.4269 24.5401C21.3974 24.5106 21.2941 24.5596 21.197 24.6492ZM30.6627 28.6348C29.7847 29.0333 28.6528 29.8606 28.7574 30.0273C28.9989 30.4123 30.4245 32.5068 30.508 32.5994C30.6098 32.7122 31.7454 31.9793 32.4983 31.3149C33.397 30.5218 33.4556 29.5418 32.649 28.7937C32.1358 28.3179 31.4768 28.2651 30.6627 28.6348ZM34.4963 32.0316C34.1817 32.1124 33.1657 32.7177 32.2403 33.3757L31.4687 33.9243L31.6779 34.2497C31.7929 34.4287 32.0544 34.7954 32.2589 35.0646C32.4635 35.3338 32.6409 35.57 32.6532 35.5896C32.6654 35.6093 33.1896 35.4963 33.8179 35.3385L34.9605 35.0517L35.3796 33.6915C35.6101 32.9434 35.7654 32.2442 35.7245 32.1379C35.6511 31.9466 35.0346 31.8933 34.4963 32.0316Z"/>
</mask>
<path fill-rule="evenodd" clip-rule="evenodd" d="M9.65375 3.41393C11.6468 4.37628 14.5796 6.24567 16.3575 7.68705C16.9708 8.18407 17.4859 8.62835 17.5024 8.67424C17.5189 8.72 17.3399 8.96716 17.1048 9.22326C16.8696 9.47935 16.6771 9.72799 16.6771 9.77571C16.6771 9.89072 19.6526 12.8566 19.7681 12.8566C19.8174 12.8566 20.076 12.6594 20.3426 12.4185L20.8275 11.9804L21.1817 12.3879C22.0529 13.39 22.7493 14.311 23.6437 15.6441C24.6327 17.1185 26.2206 19.9007 26.2208 20.1602C26.2209 20.2404 26.279 20.3418 26.3499 20.3856C26.4382 20.4402 26.455 20.1825 26.4032 19.5669C26.1424 16.4628 25.1188 13.4985 23.4443 10.9966C22.8889 10.1669 22.7935 9.95043 22.9047 9.77252C22.9789 9.65347 23.0397 9.48572 23.0397 9.39958C23.0397 9.19793 20.3321 6.49394 20.1302 6.49394C20.0461 6.49394 19.8802 6.55475 19.7611 6.62902C19.583 6.74024 19.3625 6.64162 18.5087 6.06862C16.0155 4.39561 13.0179 3.3738 9.88623 3.12982L8.90736 3.05347L9.65375 3.41393ZM21.0375 6.45698C20.9283 6.566 22.9268 8.58271 23.0615 8.49939C23.4195 8.27816 22.8534 7.2621 22.0358 6.65887C21.6544 6.37757 21.2073 6.28715 21.0375 6.45698ZM28.0173 9.87885C27.9038 11.5385 27.8259 12.9116 27.8443 12.9299C27.8626 12.9482 28.2307 11.7141 28.6621 10.1874C29.0937 8.66078 29.4687 7.34665 29.4956 7.26712C29.5234 7.18501 29.3422 7.06657 29.0757 6.99254C28.1735 6.74196 28.2452 6.54655 28.0173 9.87885ZM14.5062 12.7637C4.27182 22.7005 3.22554 23.7531 3.07185 24.2661C2.68239 25.566 3.98844 26.845 5.30306 26.4512C5.69974 26.3324 6.19076 25.8982 7.78081 24.2606C10.5486 21.4101 13.3222 18.5589 15.8396 15.9767C17.0206 14.7654 18.197 13.537 18.4539 13.247L18.921 12.7198L17.8936 11.6869C17.3284 11.119 16.8239 10.6541 16.7725 10.6541C16.7212 10.6541 15.7013 11.6035 14.5062 12.7637ZM34.419 12.0184C34.0002 12.5319 31.4533 15.5619 30.9442 16.1525L30.6871 16.4507L31.0604 16.2137C32.4258 15.3469 36.0026 12.9029 36.0058 12.8345C36.008 12.7888 35.7482 12.4682 35.4285 12.1223L34.8473 11.4932L34.419 12.0184ZM48.5493 16.2962C47.7652 17.0895 47.0016 17.7469 46.7161 17.8746C46.4469 17.995 44.7633 18.6798 42.9751 19.3964L39.7234 20.6992L39.5175 21.3357C39.4043 21.6858 38.4236 24.9456 37.3384 28.5796C36.2531 32.2136 35.3036 35.2478 35.2286 35.3219C35.1534 35.3962 32.4766 36.1059 29.28 36.899L23.468 38.3411L17.656 41.251L11.844 44.1611L8.90834 47.1072L5.97272 50.0535H27.9656H49.9585V32.4951C49.9585 22.8379 49.9439 14.9367 49.9259 14.9367C49.9079 14.9367 49.2885 15.5484 48.5493 16.2962ZM30.2589 19.4074C27.4996 19.8436 25.05 21.1044 23.0339 23.126C20.4248 25.742 19.1819 28.7794 19.1999 32.4951C19.211 34.8167 19.5743 36.3891 20.5496 38.3382L20.9632 39.1646L21.949 38.6689L22.9348 38.1732L22.669 37.7227C21.1476 35.1441 20.9162 31.5393 22.0743 28.4572C23.0936 25.7448 25.4747 23.3093 28.1905 22.2014C31.1684 20.9865 35.1 21.2469 37.7665 22.8354C38.1639 23.072 38.5032 23.2499 38.5207 23.2307C38.5776 23.1684 39.0687 21.3492 39.0687 21.2013C39.0687 21.1222 38.6955 20.8697 38.2393 20.64C35.8065 19.4148 32.9763 18.9777 30.2589 19.4074ZM14.7782 21.2687C14.8262 21.6556 14.8851 21.9927 14.9093 22.0178C14.9334 22.0429 16.148 21.7675 17.6085 21.406L20.2638 20.7487L18.9904 20.6719C18.2902 20.6296 17.0364 20.5884 16.2042 20.5802L14.6912 20.5651L14.7782 21.2687ZM30.5036 22.3396C23.6877 23.7177 20.1473 30.8388 23.1885 37.0529C23.4201 37.5263 23.6379 37.8163 23.7601 37.8142C24.2156 37.8061 30.0728 36.2631 30.046 36.1582C30.0078 36.0096 26.8328 31.4695 26.717 31.3979C26.6686 31.3679 26.4238 31.4829 26.1731 31.6532C25.7541 31.938 25.6954 31.9481 25.4491 31.7787C24.7645 31.3077 24.4701 30.996 24.5395 30.8156C24.5794 30.7114 25.0016 30.3649 25.4777 30.0456C25.9538 29.7261 26.3434 29.4395 26.3434 29.4087C26.3434 29.3779 26.1147 29.0266 25.8351 28.628C25.5557 28.2295 25.3491 27.8856 25.3763 27.8637C25.4035 27.8418 25.6837 27.6497 25.9988 27.4366L26.572 27.0494L27.0872 27.7839C27.3706 28.1879 27.6254 28.5184 27.6533 28.5184C27.6811 28.5184 27.9472 28.3328 28.2442 28.1059L28.7846 27.6934L28.2981 27.014C28.0306 26.6405 27.8118 26.2893 27.8119 26.2336C27.8121 26.1779 28.0609 25.9752 28.3651 25.7831C29.0049 25.3788 29.0604 25.4017 29.6433 26.31L30.0199 26.8969L30.7818 26.5811C31.8626 26.1329 32.9296 26.1344 33.6964 26.5852C34.2823 26.9296 34.8206 27.5372 35.0315 28.0919C35.1774 28.4757 35.2192 29.5864 35.1014 29.9569C35.024 30.2012 35.0444 30.2105 35.4217 30.1022C35.6432 30.0387 35.973 29.9867 36.1545 29.9867C36.5214 29.9867 36.363 30.3987 37.6767 26.0286L38.2596 24.0892L37.9606 23.8623C37.5066 23.5178 36.2599 22.934 35.3848 22.6561C33.7838 22.1476 32.0189 22.0332 30.5036 22.3396ZM21.197 24.6492C21.1001 24.7386 19.8921 25.5706 18.5125 26.4978C17.1329 27.425 15.9286 28.2539 15.8363 28.3397C15.6957 28.4705 15.7336 28.5768 16.0709 28.9965C16.2923 29.2719 16.5377 29.4973 16.6163 29.4973C16.695 29.4973 16.9671 29.2633 17.221 28.9773C17.4749 28.6912 18.5372 27.5879 19.5815 26.5254C20.626 25.4629 21.4564 24.5694 21.4269 24.5401C21.3974 24.5106 21.2941 24.5596 21.197 24.6492ZM30.6627 28.6348C29.7847 29.0333 28.6528 29.8606 28.7574 30.0273C28.9989 30.4123 30.4245 32.5068 30.508 32.5994C30.6098 32.7122 31.7454 31.9793 32.4983 31.3149C33.397 30.5218 33.4556 29.5418 32.649 28.7937C32.1358 28.3179 31.4768 28.2651 30.6627 28.6348ZM34.4963 32.0316C34.1817 32.1124 33.1657 32.7177 32.2403 33.3757L31.4687 33.9243L31.6779 34.2497C31.7929 34.4287 32.0544 34.7954 32.2589 35.0646C32.4635 35.3338 32.6409 35.57 32.6532 35.5896C32.6654 35.6093 33.1896 35.4963 33.8179 35.3385L34.9605 35.0517L35.3796 33.6915C35.6101 32.9434 35.7654 32.2442 35.7245 32.1379C35.6511 31.9466 35.0346 31.8933 34.4963 32.0316Z" fill="#C3ADDE" stroke="white" stroke-width="1.08842" mask="url(#path-2-inside-2_0_3)"/>
<defs>
<filter id="filter0_f_0_3" x="0.432431" y="0.483944" width="52.0956" height="52.139" filterUnits="userSpaceOnUse" color-interpolation-filters="sRGB">
<feFlood flood-opacity="0" result="BackgroundImageFix"/>
<feBlend mode="normal" in="SourceGraphic" in2="BackgroundImageFix" result="shape"/>
<feGaussianBlur stdDeviation="1.28476" result="effect1_foregroundBlur_0_3"/>
</filter>
</defs>
</svg>
