<svg width="2541" height="1899" viewBox="0 0 2541 1899" fill="none" xmlns="http://www.w3.org/2000/svg">
<g filter="url(#filter0_f_5_58)">
<path d="M2109.81 951.406C2106.1 1237.47 2026.31 1468.37 1931.6 1467.14C1836.89 1465.91 1763.12 1233.02 1766.84 946.956C1770.55 660.897 1850.33 429.996 1945.04 431.225C2039.75 432.454 2113.52 665.347 2109.81 951.406Z" fill="url(#paint0_linear_5_58)"/>
</g>
<g filter="url(#filter1_f_5_58)">
<path d="M431.501 1006.09C436.01 774.885 741.101 593.332 1112.94 600.585C1484.78 607.837 1782.56 801.149 1778.05 1032.36C1773.54 1263.57 1468.45 1445.12 1096.61 1437.87C724.77 1430.62 426.991 1237.3 431.501 1006.09Z" fill="url(#paint1_linear_5_58)" fill-opacity="0.4"/>
</g>
<circle cx="883.691" cy="598.843" r="358.056" transform="rotate(-21.3235 883.691 598.843)" stroke="url(#paint2_linear_5_58)"/>
<circle cx="845.283" cy="641.323" r="332.445" transform="rotate(-21.3235 845.283 641.323)" stroke="url(#paint3_linear_5_58)"/>
<circle cx="806.883" cy="683.815" r="306.834" transform="rotate(-21.3235 806.883 683.815)" stroke="url(#paint4_linear_5_58)"/>
<circle cx="768.481" cy="726.294" r="281.223" transform="rotate(-21.3235 768.481 726.294)" stroke="url(#paint5_linear_5_58)"/>
<circle cx="730.079" cy="768.772" r="255.612" transform="rotate(-21.3235 730.079 768.772)" stroke="url(#paint6_linear_5_58)"/>
<circle cx="691.673" cy="811.265" r="230" transform="rotate(-21.3235 691.673 811.265)" stroke="url(#paint7_linear_5_58)"/>
<circle cx="653.271" cy="853.742" r="204.389" transform="rotate(-21.3235 653.271 853.742)" stroke="url(#paint8_linear_5_58)"/>
<circle cx="614.871" cy="896.235" r="178.778" transform="rotate(-21.3235 614.871 896.235)" stroke="url(#paint9_linear_5_58)"/>
<circle cx="564.54" cy="943.372" r="153.167" transform="rotate(-21.3235 564.54 943.372)" stroke="url(#paint10_linear_5_58)"/>
<circle cx="526.138" cy="985.85" r="127.556" transform="rotate(-21.3235 526.138 985.85)" stroke="url(#paint11_linear_5_58)"/>
<circle cx="475.801" cy="1032.99" r="101.945" transform="rotate(-21.3235 475.801 1032.99)" stroke="url(#paint12_linear_5_58)"/>
<circle cx="437.4" cy="1075.48" r="76.3335" transform="rotate(-21.3235 437.4 1075.48)" stroke="url(#paint13_linear_5_58)"/>
<circle cx="398.998" cy="1117.96" r="50.7223" transform="rotate(-21.3235 398.998 1117.96)" stroke="url(#paint14_linear_5_58)"/>
<path d="M723.875 779C723.875 799.115 720.817 817.303 715.889 830.444C713.424 837.016 710.502 842.3 707.281 845.932C704.061 849.565 700.585 851.5 697 851.5C693.415 851.5 689.939 849.565 686.719 845.932C683.498 842.3 680.576 837.016 678.111 830.444C673.183 817.303 670.125 799.115 670.125 779C670.125 758.886 673.183 740.698 678.111 727.557C680.576 720.985 683.498 715.701 686.719 712.069C689.939 708.436 693.415 706.5 697 706.5C700.585 706.5 704.061 708.436 707.281 712.069C710.502 715.701 713.424 720.985 715.889 727.557C720.817 740.698 723.875 758.886 723.875 779Z" stroke="url(#paint15_linear_5_58)"/>
<path d="M697 752.125C717.114 752.125 735.302 755.184 748.443 760.112C755.016 762.576 760.3 765.499 763.932 768.719C767.564 771.94 769.5 775.415 769.5 779C769.5 782.586 767.564 786.061 763.932 789.282C760.3 792.502 755.016 795.425 748.443 797.889C735.302 802.817 717.114 805.875 697 805.875C676.886 805.875 658.698 802.817 645.557 797.889C638.984 795.425 633.7 792.502 630.068 789.282C626.436 786.061 624.5 782.586 624.5 779C624.5 775.415 626.436 771.94 630.068 768.719C633.7 765.499 638.984 762.576 645.557 760.112C658.698 755.184 676.886 752.125 697 752.125Z" stroke="url(#paint16_linear_5_58)"/>
<path d="M716.003 759.997C730.226 774.22 740.924 789.243 746.732 802.019C749.636 808.41 751.306 814.213 751.597 819.058C751.889 823.904 750.8 827.73 748.265 830.265C745.73 832.801 741.903 833.889 737.057 833.598C732.212 833.307 726.409 831.637 720.019 828.732C707.242 822.925 692.219 812.226 677.996 798.004C663.773 783.781 653.075 768.757 647.267 755.981C644.363 749.59 642.693 743.787 642.402 738.942C642.11 734.096 643.199 730.27 645.734 727.735C648.27 725.2 652.096 724.111 656.942 724.402C661.787 724.693 667.59 726.363 673.98 729.268C686.757 735.075 701.78 745.774 716.003 759.997Z" stroke="url(#paint17_linear_5_58)"/>
<path d="M645.734 830.265C643.199 827.73 642.11 823.904 642.402 819.058C642.693 814.213 644.363 808.41 647.267 802.019C653.075 789.243 663.773 774.22 677.996 759.997C692.219 745.774 707.242 735.075 720.019 729.268C726.409 726.363 732.212 724.693 737.057 724.402C741.903 724.111 745.73 725.2 748.265 727.735C750.8 730.27 751.889 734.096 751.597 738.942C751.306 743.787 749.636 749.59 746.732 755.981C740.924 768.757 730.226 783.781 716.003 798.004C701.78 812.226 686.757 822.925 673.98 828.732C667.59 831.637 661.787 833.307 656.942 833.598C652.096 833.889 648.27 832.801 645.734 830.265Z" stroke="url(#paint18_linear_5_58)"/>
<defs>
<filter id="filter0_f_5_58" x="1335.7" y="0.220154" width="1205.24" height="1897.92" filterUnits="userSpaceOnUse" color-interpolation-filters="sRGB">
<feFlood flood-opacity="0" result="BackgroundImageFix"/>
<feBlend mode="normal" in="SourceGraphic" in2="BackgroundImageFix" result="shape"/>
<feGaussianBlur stdDeviation="215.5" result="effect1_foregroundBlur_5_58"/>
</filter>
<filter id="filter1_f_5_58" x="0.450363" y="169.375" width="2208.65" height="1699.7" filterUnits="userSpaceOnUse" color-interpolation-filters="sRGB">
<feFlood flood-opacity="0" result="BackgroundImageFix"/>
<feBlend mode="normal" in="SourceGraphic" in2="BackgroundImageFix" result="shape"/>
<feGaussianBlur stdDeviation="215.5" result="effect1_foregroundBlur_5_58"/>
</filter>
<linearGradient id="paint0_linear_5_58" x1="1945.04" y1="431.225" x2="1931.6" y2="1467.14" gradientUnits="userSpaceOnUse">
<stop stop-color="#8C37A1" stop-opacity="0.54"/>
<stop offset="1" stop-color="#682BA6"/>
</linearGradient>
<linearGradient id="paint1_linear_5_58" x1="1093.16" y1="1614.69" x2="1113.45" y2="574.332" gradientUnits="userSpaceOnUse">
<stop offset="0.3125" stop-color="#8C37A1"/>
<stop offset="1" stop-color="#396ADF"/>
</linearGradient>
<linearGradient id="paint2_linear_5_58" x1="883.691" y1="240.287" x2="883.691" y2="957.399" gradientUnits="userSpaceOnUse">
<stop stop-color="#331A5E" stop-opacity="0.18"/>
<stop offset="1" stop-color="#341A60"/>
</linearGradient>
<linearGradient id="paint3_linear_5_58" x1="845.283" y1="308.377" x2="845.283" y2="974.268" gradientUnits="userSpaceOnUse">
<stop stop-color="#331A5E" stop-opacity="0.18"/>
<stop offset="1" stop-color="#341A60"/>
</linearGradient>
<linearGradient id="paint4_linear_5_58" x1="806.883" y1="376.481" x2="806.883" y2="991.149" gradientUnits="userSpaceOnUse">
<stop stop-color="#331A5E" stop-opacity="0.18"/>
<stop offset="1" stop-color="#341A60"/>
</linearGradient>
<linearGradient id="paint5_linear_5_58" x1="768.481" y1="444.572" x2="768.481" y2="1008.02" gradientUnits="userSpaceOnUse">
<stop stop-color="#331A5E" stop-opacity="0.18"/>
<stop offset="1" stop-color="#341A60"/>
</linearGradient>
<linearGradient id="paint6_linear_5_58" x1="730.079" y1="512.661" x2="730.079" y2="1024.88" gradientUnits="userSpaceOnUse">
<stop stop-color="#331A5E" stop-opacity="0.18"/>
<stop offset="1" stop-color="#341A60"/>
</linearGradient>
<linearGradient id="paint7_linear_5_58" x1="691.673" y1="580.764" x2="691.673" y2="1041.77" gradientUnits="userSpaceOnUse">
<stop stop-color="#331A5E" stop-opacity="0.18"/>
<stop offset="1" stop-color="#341A60"/>
</linearGradient>
<linearGradient id="paint8_linear_5_58" x1="653.271" y1="648.853" x2="653.271" y2="1058.63" gradientUnits="userSpaceOnUse">
<stop stop-color="#331A5E" stop-opacity="0.18"/>
<stop offset="1" stop-color="#341A60"/>
</linearGradient>
<linearGradient id="paint9_linear_5_58" x1="614.871" y1="716.957" x2="614.871" y2="1075.51" gradientUnits="userSpaceOnUse">
<stop stop-color="#331A5E" stop-opacity="0.18"/>
<stop offset="1" stop-color="#341A60"/>
</linearGradient>
<linearGradient id="paint10_linear_5_58" x1="564.54" y1="789.706" x2="564.54" y2="1097.04" gradientUnits="userSpaceOnUse">
<stop stop-color="#331A5E" stop-opacity="0.18"/>
<stop offset="1" stop-color="#341A60"/>
</linearGradient>
<linearGradient id="paint11_linear_5_58" x1="526.138" y1="857.794" x2="526.138" y2="1113.91" gradientUnits="userSpaceOnUse">
<stop stop-color="#331A5E" stop-opacity="0.18"/>
<stop offset="1" stop-color="#341A60"/>
</linearGradient>
<linearGradient id="paint12_linear_5_58" x1="475.801" y1="930.545" x2="475.801" y2="1135.43" gradientUnits="userSpaceOnUse">
<stop stop-color="#331A5E" stop-opacity="0.18"/>
<stop offset="1" stop-color="#341A60"/>
</linearGradient>
<linearGradient id="paint13_linear_5_58" x1="437.4" y1="998.649" x2="437.4" y2="1152.32" gradientUnits="userSpaceOnUse">
<stop stop-color="#331A5E" stop-opacity="0.18"/>
<stop offset="1" stop-color="#341A60"/>
</linearGradient>
<linearGradient id="paint14_linear_5_58" x1="398.998" y1="1066.74" x2="398.998" y2="1169.18" gradientUnits="userSpaceOnUse">
<stop stop-color="#331A5E" stop-opacity="0.18"/>
<stop offset="1" stop-color="#341A60"/>
</linearGradient>
<linearGradient id="paint15_linear_5_58" x1="697" y1="706" x2="697" y2="852" gradientUnits="userSpaceOnUse">
<stop stop-color="#251742"/>
<stop offset="1" stop-color="#B08AFF" stop-opacity="0"/>
</linearGradient>
<linearGradient id="paint16_linear_5_58" x1="624" y1="779" x2="770" y2="779" gradientUnits="userSpaceOnUse">
<stop stop-color="#251742"/>
<stop offset="1" stop-color="#B08AFF" stop-opacity="0"/>
</linearGradient>
<linearGradient id="paint17_linear_5_58" x1="645.381" y1="727.381" x2="748.618" y2="830.619" gradientUnits="userSpaceOnUse">
<stop stop-color="#251742"/>
<stop offset="1" stop-color="#B08AFF" stop-opacity="0"/>
</linearGradient>
<linearGradient id="paint18_linear_5_58" x1="748.618" y1="727.381" x2="645.381" y2="830.619" gradientUnits="userSpaceOnUse">
<stop stop-color="#251742"/>
<stop offset="1" stop-color="#B08AFF" stop-opacity="0"/>
</linearGradient>
</defs>
</svg>
