<svg width="669" height="783" viewBox="0 0 669 783" fill="none" xmlns="http://www.w3.org/2000/svg">
<rect x="192.5" y="232.5" width="347" height="544" rx="173.5" stroke="#DBC1FF"/>
<rect x="159.5" y="67.5" width="347" height="544" rx="173.5" stroke="#AF76FD"/>
<g filter="url(#filter0_f_1_47)">
<path d="M339.534 129L129 260.25L129 519.36L333.843 654L540 519.36L540 260.25L339.534 129Z" fill="#212358"/>
</g>
<g filter="url(#filter1_dd_1_47)">
<path d="M291.394 364.058C292.333 367.531 294.886 375.433 297.589 379.263C300.968 384.049 305.191 389.399 309.415 390.525C313.638 391.652 323.96 389.748 332.222 389.118C339.18 388.586 351.353 387.126 356.609 386.373C361.036 385.739 370.009 385.739 371.36 385.739C373.05 385.739 380.082 386.676 384.876 389.118C389.808 391.629 391.352 392.891 391.352 395.594C391.352 398.297 390.038 401.413 389.381 402.633" stroke="#A767FE" stroke-width="1.69424"/>
<path d="M286.889 460.918C288.297 466.831 289.142 469.647 290.831 471.054C292.521 472.462 293.647 474.996 301.531 476.686C309.415 478.375 318.425 478.657 321.241 478.657C324.056 478.657 338.98 478.657 344.329 476.686C348.609 475.109 358.69 472.275 363.195 471.054L379.526 462.889L398.109 449.937L409.372 436.984" stroke="#AE71FF" stroke-width="1.69424"/>
<path d="M208.329 521.456C209.174 519.766 211.37 516.387 213.397 516.387C215.425 516.387 227.758 511.131 233.671 508.503C243.244 503.529 262.616 493.299 263.517 492.172C264.418 491.046 277.22 481.754 283.508 477.249C284.259 478.563 286.718 481.585 290.548 483.162C295.334 485.133 306.879 488.23 310.539 488.23C313.467 488.23 328.654 488.23 335.88 488.23" stroke="#AE71FF" stroke-width="1.69424"/>
<path d="M292.52 494.143L284.355 489.92C281.257 492.266 274.275 497.466 271.121 499.493C267.967 501.521 252.35 509.536 244.935 513.29H423.169" stroke="#AE71FF" stroke-width="1.69424"/>
<path d="M505.951 469.083C504.356 469.459 500.545 470.716 498.067 472.744C494.97 475.278 491.591 479.22 491.31 480.346C491.084 481.247 488.963 485.978 487.931 488.23" stroke="#AE71FF" stroke-width="1.69424"/>
<path d="M259.781 301.44C259.781 301.44 259.654 292.667 260.705 287.189C261.818 281.384 263.802 276.49 265.492 272.829C267.181 269.169 270.628 263.382 275.065 258.188C277.792 254.995 282.667 250.585 282.667 250.585C282.667 250.585 290.17 244.451 295.62 241.575C301.527 238.458 308.29 236.507 311.669 235.662C315.048 234.817 319.553 233.973 322.932 233.691C325.635 233.466 330.139 233.691 334.758 233.691C336.297 233.691 338.7 233.691 338.7 233.691H341.515H344.331" stroke="url(#paint0_linear_1_47)" stroke-width="1.69424"/>
<path d="M412.188 447.403L504.262 477.531L521.719 502.027L529.884 525.116" stroke="#AE71FF" stroke-width="1.69424"/>
<path d="M403.459 469.365L415.567 459.228L498.067 485.414C500.319 487.761 505.162 493.017 506.514 495.269C508.203 498.085 511.864 503.435 512.708 505.406C513.384 506.983 514.492 509.817 514.961 511.037" stroke="#AE71FF" stroke-width="1.69424"/>
<path d="M419.791 470.21L493.281 493.861L501.165 503.998H315.892" stroke="#AE71FF" stroke-width="1.69424"/>
<path d="M362.066 347.727C357.796 349.25 353.9 351.669 351.93 352.232C349.961 352.795 357.281 352.232 357.281 352.232L362.066 351.669L365.164 351.106L372.203 349.979C372.203 349.979 375.815 349.779 378.116 349.979C380.565 350.193 382.019 350.214 384.31 351.106C386.613 352.002 387.841 352.812 389.66 354.485C391.749 356.405 393.322 359.834 393.884 360.398C394.272 360.787 394.811 360.665 395.292 360.398C395.772 360.131 395.292 357.863 395.292 357.863C395.292 357.863 394.79 354.31 393.884 352.232C392.749 349.631 391.838 348.138 389.66 346.319C387.848 344.806 385.437 343.503 384.31 343.503C383.184 343.503 380.65 343.222 378.96 343.503C377.271 343.785 373.611 344.348 373.611 344.348C371.076 344.63 366.491 346.149 362.066 347.727Z" fill="url(#paint1_linear_1_47)" stroke="#AE71FF" stroke-width="1.69424"/>
<path d="M370.232 353.922C370.232 353.922 366.103 355.329 365.164 355.893C365.164 355.893 368.205 357.23 370.232 357.864C372.6 358.604 374.003 358.743 376.427 359.271C379.061 359.846 380.502 360.412 383.185 360.679C385.701 360.93 389.661 360.679 389.661 360.679C389.661 360.679 387.642 357.364 385.719 355.893C383.04 353.843 380.65 353.077 377.553 353.077C374.456 353.077 370.232 353.922 370.232 353.922Z" fill="url(#paint2_linear_1_47)" stroke="#AE71FF" stroke-width="1.69424"/>
<path d="M303.221 262.129C304.572 259.652 307.538 256.216 308.852 254.809C309.791 253.588 313.188 250.416 319.27 247.488C325.352 244.559 329.313 243.827 330.533 243.827C332.786 243.077 340.438 241.863 344.482 241.575C356.977 240.684 359.325 240.355 368.837 240.684C373.726 240.854 376.458 241.16 381.332 241.575C407.79 243.827 426.049 247.488 430.772 249.459C435.495 251.43 437.642 251.655 442.598 254.809C448.749 258.723 449.849 260.988 452.398 266.24L452.453 266.353C455.652 272.942 454.987 278.742 454.987 284.937V313.938C454.987 317.085 453.969 320.888 453.119 323.398C453.052 324.024 452.857 324.636 452.453 325.201C452.642 324.739 452.874 324.122 453.119 323.398C453.284 321.845 452.654 320.211 452.453 319.007C452.171 317.317 441.753 312.249 437.811 310.56C434.003 308.927 422.046 305.192 417.178 303.672L416.694 303.52C412.189 302.112 401.427 301.44 401.427 301.44C401.427 301.44 393.042 300.705 388.255 300.705H357.564C354.185 300.705 341.796 302.676 337.291 303.52C332.786 304.365 313.357 311.123 308.852 310.56C305.754 310.172 304.254 308.32 303.619 307.201C303.331 306.693 303.221 306.336 303.221 306.336C303.221 306.336 300.124 300.423 298.716 294.51C297.308 288.597 296.429 280.814 298.716 272.548C299.898 268.275 301.531 265.227 303.221 262.129Z" fill="url(#paint3_linear_1_47)"/>
<path d="M303.221 306.336C303.221 306.336 300.124 300.423 298.716 294.51C297.308 288.597 296.429 280.814 298.716 272.548C299.898 268.275 301.531 265.227 303.221 262.129C304.572 259.652 307.538 256.216 308.852 254.809C309.791 253.588 313.188 250.416 319.27 247.488C325.352 244.559 329.313 243.827 330.533 243.827C332.786 243.077 340.438 241.863 344.482 241.575C356.977 240.684 359.325 240.355 368.837 240.684C373.726 240.854 376.458 241.16 381.332 241.575C407.79 243.827 426.049 247.488 430.772 249.459C435.495 251.43 437.642 251.655 442.598 254.809C448.793 258.751 449.864 261.021 452.453 266.353C455.652 272.942 454.987 278.742 454.987 284.937C454.987 291.131 454.987 308.87 454.987 313.938C454.987 317.993 453.298 323.136 452.453 325.201M303.221 306.336C303.221 306.336 304.347 309.996 308.852 310.56C313.357 311.123 332.786 304.365 337.291 303.52C341.796 302.676 354.185 300.705 357.564 300.705C360.943 300.705 383.468 300.705 388.255 300.705C393.042 300.705 401.427 301.44 401.427 301.44C401.427 301.44 412.189 302.112 416.694 303.52C421.199 304.928 433.869 308.87 437.811 310.56C441.753 312.249 452.171 317.317 452.453 319.007C452.735 320.696 453.861 323.23 452.453 325.201M303.221 306.336C303.221 306.336 306.374 313.432 308.852 315.909C310.929 317.986 314.905 320.443 317.299 321.836M452.453 325.201C451.045 327.172 449.356 329.988 446.54 331.396C443.724 332.804 436.967 334.493 434.714 334.493C432.912 334.493 406.524 334.362 394.511 334.362M357.716 328.552C356.777 328.646 353.904 327.961 350.525 327.735C347.146 327.51 328.281 324.45 319.27 322.949C319.27 322.949 318.476 322.521 317.299 321.836M317.299 321.836C317.769 321.925 321.072 321.484 330.533 319.007C342.359 315.909 356.156 313.938 360.661 313.938C365.166 313.938 381.78 313.367 388.255 313.938C397.828 314.783 412.604 318.074 416.694 319.007C432.743 322.667 437.811 325.201 445.132 329.988L446.245 331.042" stroke="url(#paint4_linear_1_47)" stroke-width="1.69424"/>
<path d="M407.964 335.901C407.964 342.565 407.964 357.188 407.964 362.369C407.964 368.845 407.683 372.787 406.275 378.7C404.867 384.613 400.597 390.246 398.109 393.904C397.371 394.991 392.698 398.783 390.914 401.036C390.07 401.224 388.761 402.633 388.536 404.886C388.254 407.701 385.72 419.809 388.536 423.188C390.788 425.891 401.864 432.573 407.12 435.577L459.773 453.034L508.203 468.521L525.379 488.512L531.855 500.901L538.05 522.582V525.116" stroke="#AE71FF" stroke-width="1.69424"/>
<path d="M280.237 267.473C280.118 267.561 280.162 267.485 280.413 267.198C280.792 266.764 280.681 266.915 280.237 267.473Z" fill="url(#paint5_linear_1_47)"/>
<path d="M446.348 256.992C446.348 256.992 440.907 250.984 436.684 248.051C433.008 245.498 430.634 244.529 426.548 242.701C424.871 241.951 423.924 241.544 422.205 240.896C419.366 239.827 417.72 239.368 414.793 238.567C412.413 237.915 411.066 237.594 408.651 237.084C406.198 236.567 401.027 235.602 401.027 235.602C391.532 234.038 380.623 231.934 366.573 232.002C357.862 232.044 348.271 232.846 344.329 233.691C340.387 234.536 331.377 236.507 327.998 237.633C324.619 238.759 314.863 241.857 313.357 242.701C311.85 243.546 307.444 246.08 304.909 247.206C302.375 248.333 294.116 254.246 291.676 256.498C289.235 258.751 278.442 269.45 280.413 267.198C282.384 264.945 271.121 278.461 268.587 282.966C266.053 287.471 263.237 293.947 263.237 293.947C263.237 293.947 257.887 307.181 257.887 309.152C257.887 311.123 256.479 316.754 257.887 319.288C259.014 321.316 260.985 323.887 261.829 324.92L263.237 330.551V343.785C263.237 348.472 264.564 354.921 266.053 358.145C268.357 363.134 270.155 367.407 270.84 368.845C274.443 376.414 280.788 372.974 285.2 374.476L292.239 408.264L294.773 431.353C295.148 436.421 295.674 447.121 294.773 449.374C293.872 451.626 289.893 457.07 288.015 459.51L276.471 469.928C274.875 472.556 267.461 478.375 262.956 481.191C260.253 483.218 251.317 488.418 247.188 490.764L223.817 501.746C219.312 503.154 209.626 506.645 206.923 509.348C204.22 512.051 197.913 521.925 195.097 526.524L192 533" stroke="url(#paint6_radial_1_47)" stroke-width="1.69424"/>
<path d="M299.619 268.795C298.962 268.326 296.159 266.492 294.491 267.48C289.936 270.178 286.339 273.775 284.679 275.158L277.21 283.181C274.769 286.56 268.981 294.71 268.08 296.737C266.954 299.271 263.237 306.618 262.956 309.152C262.674 311.686 260.703 323.794 261.829 324.92C262.73 325.821 262.956 328.299 262.956 329.425C262.956 328.862 263.349 327.567 264.926 326.891C266.897 326.046 267.179 323.794 270.839 324.92C273.768 325.821 276.189 326.609 277.034 326.891L288.297 331.396C289.611 331.678 292.464 332.241 293.365 332.241C294.266 332.241 297.119 330.927 298.433 330.27L299.278 324.92L301.832 303.1" stroke="#AE71FF" stroke-width="1.69424"/>
<path d="M268.588 331.959C270.653 331.959 273.06 331.959 275.909 332.522C277.144 332.766 281.16 335.51 281.822 336.464C282.667 337.682 283.511 339.843 283.23 342.095C282.948 344.348 281.822 345.474 281.822 346.882C281.822 348.29 281.196 350.025 281.822 350.824C283.23 352.621 282.667 351.238 284.356 353.358L285.482 355.329L284.679 356.771C283.23 357.582 282.892 357.582 282.667 357.582C282.441 357.582 281.071 357.206 280.414 357.019L278.443 355.329L277.88 354.203" stroke="#AE71FF" stroke-width="1.69424"/>
<path d="M374.176 332.522C372.299 333.085 368.08 333.988 366.292 334.211C364.039 334.493 360.66 335.901 358.971 334.211C357.62 332.86 357.282 331.208 357.282 330.551C357.282 329.894 357.282 329.143 358.126 328.298C360.834 325.59 364.509 324.075 367.137 322.667C369.389 321.541 373.731 320.489 374.176 320.414C375.865 320.133 379.526 319.288 380.652 319.288C381.778 319.288 384.594 319.288 385.439 319.57C386.283 319.851 388.817 320.978 389.099 321.541C389.381 322.104 391.352 323.793 391.633 325.201C391.915 326.609 393.913 330.488 394.167 332.522C394.449 334.775 394.167 335.056 393.041 336.746C392.572 337.027 390.451 337.59 390.225 337.59C390 337.59 388.63 337.59 387.973 337.59L386.283 336.746L385.439 335.056L385.157 333.93" stroke="#AE71FF" stroke-width="1.69424"/>
<path d="M374.458 324.638C373.557 325.089 371.642 326.515 370.797 327.172C370.797 327.172 370.316 327.629 370.234 328.017C370.112 328.597 370.319 329.075 370.797 329.425C371.33 329.815 372.768 329.425 372.768 329.425C372.768 329.425 374.252 329.255 375.302 328.862C375.993 328.603 376.406 328.466 376.992 328.017C377.674 327.495 378.146 327.148 378.4 326.328C378.595 325.697 378.729 325.21 378.4 324.638C378.079 324.083 377.668 324.019 376.992 323.794C376.147 323.512 375.584 324.075 374.458 324.638Z" fill="url(#paint7_linear_1_47)" stroke="#AE71FF" stroke-width="0.847122"/>
<path d="M386.283 325.764C385.438 326.046 385.157 326.703 385.157 326.891V328.017C385.157 328.457 385.128 328.704 385.157 329.143C385.201 329.811 385.34 330.391 385.44 330.833C385.565 331.379 385.573 331.363 385.72 331.677C386.018 332.316 386.229 332.749 386.848 333.085C387.247 333.301 387.527 333.437 387.975 333.367C388.517 333.283 388.939 333 389.099 332.522C389.38 331.677 389.38 331.677 389.38 331.396V329.988C389.38 329.425 389.371 328.745 389.099 328.017C388.768 327.131 388.254 326.609 387.691 326.046C387.335 325.69 386.658 325.577 386.283 325.764Z" fill="url(#paint8_linear_1_47)" stroke="#B785FD" stroke-width="0.847122"/>
</g>
<g filter="url(#filter2_f_1_47)">
<mask id="path-25-inside-1_1_47" fill="white">
<path fill-rule="evenodd" clip-rule="evenodd" d="M275.484 101.775C263.749 106.08 253.797 115.695 250.08 126.318C247.566 133.503 247.099 141.037 248.533 151.258C248.746 152.776 250.881 162.073 253.276 171.918C255.671 181.763 257.747 190.806 257.889 192.013C259.156 202.758 258.068 209.474 253.908 216.597C248.907 225.16 241.934 230.881 232.527 234.14C210.16 241.888 185.705 227.31 181.696 203.839C180.425 196.404 181.212 189.125 184.004 182.489C184.613 181.042 185.347 179.299 185.636 178.616L186.16 177.374L185.441 176.948C184.76 176.545 184.693 176.555 184.162 177.138C182.915 178.502 180.605 184.488 179.674 188.762C179.041 191.668 178.701 196.996 178.931 200.401C179.179 204.055 180.827 210.516 182.389 213.955C191.318 233.612 213.427 243.208 233.555 236.163C243.28 232.758 251.014 226.302 256.009 217.415C259.504 211.199 260.772 205.947 260.609 198.365C260.483 192.492 260.153 190.761 255.567 171.903C253.172 162.058 251.039 152.76 250.827 151.242C249.733 143.43 249.723 138.129 250.79 132.606C251.663 128.087 252.843 124.961 255.128 121.116C256.936 118.074 260.38 113.698 260.524 114.26C260.561 114.404 260.493 115.155 260.373 115.928C260.017 118.217 260.02 122.068 260.381 125.49C260.771 129.195 262.81 136.635 264.335 139.918L265.225 141.834L264.466 143.03C263.064 145.236 263.536 148.069 265.533 149.434L266.527 150.113L266.181 152.74C265.801 155.623 266.015 156.215 267.316 155.882C267.992 155.709 268.081 155.479 268.391 153.105C268.688 150.829 268.809 150.496 269.392 150.346C269.951 150.203 270.232 150.411 271.189 151.673C275.572 157.457 281.303 162.836 286.894 166.412C287.835 167.015 288.62 167.715 288.638 167.967C288.655 168.22 288.746 169.013 288.84 169.73C288.991 170.891 288.925 171.088 288.241 171.521C285.789 173.071 282.859 174.397 279.861 175.314C273.416 177.285 272.174 177.076 270.726 173.775C269.53 171.048 268.546 167.103 268.165 163.504C267.987 161.828 267.727 160.295 267.587 160.097C267.275 159.658 266.112 159.916 265.844 160.483C265.464 161.285 266.277 167.044 267.253 170.474L268.197 173.789L267.082 173.158C265.648 172.347 262.317 169.516 260.477 167.545C259.205 166.182 258.952 166.032 258.243 166.213C257.628 166.371 257.46 166.557 257.511 167.02C257.592 167.76 259.178 169.6 261.514 171.666C269.674 178.883 280.086 182.46 291.606 182.007C295.017 181.872 303.572 179.694 306.638 178.179C314.245 174.421 319.896 169.316 324.129 162.378C326.128 159.102 327.545 155.984 327.362 155.266C327.204 154.65 326.219 154.287 325.726 154.663C325.553 154.796 324.963 155.92 324.416 157.162C323.869 158.403 322.844 160.333 322.138 161.45C320.648 163.808 317.697 167.57 317.451 167.424C317.359 167.37 317.38 166.699 317.499 165.934C318.238 161.18 317.864 156.168 316.313 150.049L315.19 145.619L315.889 144.868C317.372 143.274 317.242 140.116 315.628 138.543L314.848 137.783L315.417 135.003C316.836 128.077 316.759 121.32 315.192 115.089C314.074 110.647 313.99 110.741 316.694 113.42C324.601 121.254 328.776 132.827 327.813 144.239C327.558 147.267 327.698 147.845 328.701 147.902C329.618 147.954 329.949 146.914 330.148 143.366C330.569 135.834 329.04 128.562 325.668 122.06C317.988 107.253 302.904 98.7018 286.212 99.6932C283.496 99.8545 277.601 100.999 275.484 101.775ZM282.676 102.342C289.434 101.306 296.054 101.938 302.324 104.218C306.392 105.697 306.383 105.658 302.87 106.575C299.697 107.403 296.543 108.709 293.725 110.36L292.009 111.366L290.917 110.811C289.942 110.316 288.225 110.07 287.327 110.295C287.148 110.34 286.498 110.705 285.884 111.106L284.767 111.835L283.397 111.204C282.643 110.857 281.003 110.234 279.752 109.818C277.116 108.942 276.254 109.084 276.463 110.361C276.586 111.117 276.806 111.253 279.179 112.036C280.6 112.504 282.256 113.12 282.859 113.403C283.813 113.851 283.937 114.002 283.799 114.561C283.713 114.914 283.77 115.726 283.927 116.364L284.212 117.526L282.159 119.624C277.878 124 272.767 131.834 270.288 137.821C269.669 139.316 269.137 140.598 269.105 140.669C269.074 140.739 268.627 140.786 268.112 140.771C267.225 140.746 267.133 140.651 266.358 138.962C265.907 137.981 264.952 135.206 264.236 132.795C262.765 127.846 262.219 124.022 262.354 119.618C262.439 116.863 263.274 112.03 263.828 111.095C264.303 110.295 265.398 110.064 268.558 110.099C271.911 110.135 272.256 110.049 272.252 109.168C272.247 108.184 271.98 108.023 270.199 107.925C269.335 107.878 268.661 107.733 268.701 107.602C268.822 107.217 273.256 105.021 275.664 104.154C278.916 102.984 279.534 102.824 282.676 102.342ZM290.024 113.049C291.296 113.873 291.568 114.999 290.804 116.288C290.372 117.017 289.966 117.338 289.24 117.524C288.515 117.71 288.004 117.624 287.275 117.192C286.081 116.485 285.722 115.397 286.272 114.153C287.031 112.432 288.435 112.019 290.024 113.049ZM309.764 107.843C310.245 108.133 310.75 109.028 311.661 111.208C314.233 117.362 314.877 125.121 313.479 133.097C312.884 136.489 312.677 137.006 311.917 136.995C311.423 136.987 310.927 136.397 309.398 133.995C305.885 128.478 301.639 123.613 296.718 119.469C295.572 118.504 294.308 117.51 293.908 117.259C293.317 116.887 293.21 116.685 293.334 116.177C293.419 115.833 293.445 115.026 293.392 114.384C293.3 113.256 293.344 113.188 294.677 112.377C297.619 110.588 300.23 109.581 304.73 108.5C308.678 107.551 309.172 107.487 309.764 107.843ZM287.204 119.658C288.503 120.002 288.837 119.977 290.462 119.412L292.272 118.783L293.838 120.009C299.099 124.131 304.204 129.878 307.933 135.879C309.158 137.849 309.205 137.981 308.814 138.349C308.016 139.103 307.333 140.69 307.319 141.823C307.303 143.15 307.783 144.259 308.844 145.347L309.595 146.116L309.109 147.262C307.296 151.541 302.571 158.639 298.84 162.688C297.205 164.462 296.76 164.81 296.339 164.643C293.595 163.553 292.496 163.572 290.765 164.736L289.543 165.558L287.872 164.449C283.046 161.248 278.103 156.7 274.288 151.951L272.098 149.224L272.546 148.394C273.661 146.331 273.463 144.022 272.032 142.397L271.239 141.498L271.608 140.515C273.377 135.798 277.237 129.021 280.436 125.014C282.335 122.637 285.208 119.471 285.593 119.333C285.683 119.301 286.408 119.447 287.204 119.658ZM205.138 158.694C200.316 160.735 196.302 163.194 192.806 166.249C190.09 168.624 189.636 169.302 190.326 169.959C190.812 170.421 191.859 170.376 192.221 169.877C192.704 169.212 196.701 165.889 198.415 164.728C202.144 162.203 204.992 160.983 210.376 159.604C215.93 158.181 217.967 157.982 223.194 158.35C228.762 158.743 234.416 160.475 239.622 163.384C241.797 164.599 242.513 164.703 242.91 163.864C243.283 163.077 242.638 162.466 239.814 160.931C233.355 157.421 225.813 155.675 218.365 155.966C216.313 156.045 214.392 156.363 210.766 157.219C208.096 157.85 205.564 158.513 205.138 158.694ZM268.711 143.107C270.632 143.27 271.619 145.229 270.626 146.907C269.877 148.172 268.548 148.572 267.241 147.925C265.607 147.116 265.481 144.646 267.016 143.505C267.662 143.024 267.68 143.02 268.711 143.107ZM210.16 162.071C209.962 162.877 209.92 162.82 211.418 163.749C212.16 164.208 213.191 165.196 213.734 165.967C214.594 167.188 214.782 167.703 215.281 170.216C216.262 175.145 216.133 178.956 214.901 181.516C214.63 182.079 213.397 183.63 212.162 184.962C209.33 188.017 207.982 189.918 206.841 192.468C204.374 197.976 204.402 202.135 206.918 203.767C207.956 204.44 208.456 204.53 215.452 205.289C218.874 205.661 222.029 206.086 222.462 206.234C223.153 206.47 223.298 206.693 223.648 208.06C223.896 209.03 224.485 210.276 225.209 211.365C227.305 214.516 227.115 215.432 224.134 216.554C222.918 217.012 222.012 217.531 221.649 217.977C221.311 218.393 220.721 220.334 220.203 222.738C219.623 225.426 218.893 227.758 218.039 229.641C217.331 231.205 216.79 232.636 216.838 232.822C216.962 233.307 217.655 233.658 218.21 233.516C219.303 233.236 221.256 228.438 222.337 223.375C223.261 219.05 223.119 219.266 225.665 218.338C227.425 217.697 228.44 216.715 228.736 215.368C229.055 213.92 228.615 212.448 227.232 210.331C226.585 209.34 225.903 207.936 225.717 207.209C225.292 205.549 224.423 204.499 223.124 204.074C222.568 203.893 219.137 203.422 215.5 203.029C211.863 202.636 208.602 202.145 208.254 201.939C207.748 201.639 207.571 201.274 207.375 200.117C206.831 196.91 209.922 190.334 213.756 186.54C218.277 182.066 219.242 177.382 217.282 169.415C216.324 165.521 216.32 165.512 214.987 163.952C212.909 161.52 210.523 160.59 210.16 162.071ZM313.593 139.753C314.733 140.53 315.01 141.916 314.274 143.159C313.299 144.806 311.027 144.868 310.007 143.275C308.496 140.914 311.282 138.177 313.593 139.753ZM314.033 150.347C315.761 156.527 316.049 161.722 314.97 167.256C314.141 171.512 314.051 171.589 309.879 171.623C307.806 171.64 305.693 171.4 303.203 170.865C298.357 169.825 298.49 169.897 298.26 168.177C298.076 166.802 298.106 166.732 299.457 165.347C303.536 161.165 309.287 152.782 311.037 148.468C311.517 147.282 311.799 146.932 312.338 146.85L313.026 146.745L314.033 150.347ZM235.922 168.173C235.417 168.842 235.366 173.438 235.843 175.301C236.444 177.644 241.758 180.534 247.607 181.699C250.479 182.271 251.087 182.097 250.91 180.755C250.827 180.125 250.528 180 247.707 179.416C244.677 178.788 240.655 177.119 238.859 175.744C237.882 174.996 237.73 174.349 237.765 171.107C237.781 169.651 237.685 168.305 237.551 168.116C237.217 167.647 236.295 167.679 235.922 168.173ZM183.69 191.6C183.357 192.304 183.905 193.121 185.851 194.823C187.378 196.158 187.645 196.535 188.218 198.164C188.573 199.174 189.064 200.212 189.309 200.471C189.868 201.061 192.385 202.418 194.891 203.479C196.821 204.297 199.212 206.436 199.514 207.615C199.585 207.894 199.479 209.227 199.277 210.577C198.71 214.375 198.787 216.232 199.626 218.976C200.5 221.83 201.32 222.877 203.775 224.266L205.439 225.207L207.243 228.748C208.235 230.696 209.207 232.409 209.403 232.555C209.911 232.935 211.042 232.578 211.107 232.017C211.165 231.519 209.849 228.705 208.06 225.499C207.106 223.791 206.788 223.467 205.031 222.412C202.831 221.091 202.167 220.187 201.506 217.617C201.035 215.784 201.046 213.968 201.551 210.421C201.742 209.083 201.791 207.576 201.662 207.071C201.426 206.148 199.146 203.321 197.992 202.518C197.658 202.286 196.518 201.726 195.459 201.274C194.399 200.822 192.91 200.095 192.148 199.659C190.825 198.901 190.738 198.783 190.172 197.001C189.636 195.311 189.422 194.994 187.892 193.62C186.963 192.786 185.913 191.824 185.559 191.483C184.85 190.799 184.045 190.85 183.69 191.6ZM293.978 166.121C295.712 166.431 296.594 168.404 295.685 169.939C294.74 171.536 292.845 171.747 291.635 170.389C290.812 169.465 290.695 168.841 291.152 167.805C291.762 166.424 292.664 165.887 293.978 166.121ZM292.75 173.394C294.014 173.622 295.664 173.182 296.656 172.353C297.423 171.713 297.497 171.704 298.686 172.087C300.873 172.793 304.367 173.48 307.073 173.735L309.71 173.984L308.591 174.616C304.322 177.025 298.842 178.871 294.213 179.458C289.407 180.067 283.204 179.731 279.598 178.667L278.206 178.256L280.847 177.402C283.654 176.494 286.609 175.141 289.037 173.653C290.324 172.863 290.603 172.775 291.152 172.982C291.501 173.113 292.22 173.299 292.75 173.394ZM249.241 193.279C246.733 194.591 244.29 197.662 243.609 200.359C243.171 202.089 243.111 204.784 243.477 206.215C244.037 208.398 245.002 209.872 246.354 210.606C247.062 210.99 247.701 211.534 247.774 211.815C247.848 212.096 247.776 213.924 247.616 215.878C247.369 218.879 247.395 219.483 247.786 219.766C248.445 220.244 249.206 219.964 249.472 219.145C249.597 218.759 249.803 216.76 249.929 214.703C250.193 210.388 250.025 209.905 247.861 208.748C246.841 208.203 246.469 207.808 246.056 206.83C244.935 204.175 245.628 199.76 247.505 197.6C249.082 195.787 250.061 195.217 252.861 194.48C255.062 193.901 255.517 193.701 255.635 193.259C255.842 192.476 255.126 191.852 254.084 191.908C252.874 191.973 250.395 192.674 249.241 193.279Z"/>
</mask>
<path fill-rule="evenodd" clip-rule="evenodd" d="M275.484 101.775C263.749 106.08 253.797 115.695 250.08 126.318C247.566 133.503 247.099 141.037 248.533 151.258C248.746 152.776 250.881 162.073 253.276 171.918C255.671 181.763 257.747 190.806 257.889 192.013C259.156 202.758 258.068 209.474 253.908 216.597C248.907 225.16 241.934 230.881 232.527 234.14C210.16 241.888 185.705 227.31 181.696 203.839C180.425 196.404 181.212 189.125 184.004 182.489C184.613 181.042 185.347 179.299 185.636 178.616L186.16 177.374L185.441 176.948C184.76 176.545 184.693 176.555 184.162 177.138C182.915 178.502 180.605 184.488 179.674 188.762C179.041 191.668 178.701 196.996 178.931 200.401C179.179 204.055 180.827 210.516 182.389 213.955C191.318 233.612 213.427 243.208 233.555 236.163C243.28 232.758 251.014 226.302 256.009 217.415C259.504 211.199 260.772 205.947 260.609 198.365C260.483 192.492 260.153 190.761 255.567 171.903C253.172 162.058 251.039 152.76 250.827 151.242C249.733 143.43 249.723 138.129 250.79 132.606C251.663 128.087 252.843 124.961 255.128 121.116C256.936 118.074 260.38 113.698 260.524 114.26C260.561 114.404 260.493 115.155 260.373 115.928C260.017 118.217 260.02 122.068 260.381 125.49C260.771 129.195 262.81 136.635 264.335 139.918L265.225 141.834L264.466 143.03C263.064 145.236 263.536 148.069 265.533 149.434L266.527 150.113L266.181 152.74C265.801 155.623 266.015 156.215 267.316 155.882C267.992 155.709 268.081 155.479 268.391 153.105C268.688 150.829 268.809 150.496 269.392 150.346C269.951 150.203 270.232 150.411 271.189 151.673C275.572 157.457 281.303 162.836 286.894 166.412C287.835 167.015 288.62 167.715 288.638 167.967C288.655 168.22 288.746 169.013 288.84 169.73C288.991 170.891 288.925 171.088 288.241 171.521C285.789 173.071 282.859 174.397 279.861 175.314C273.416 177.285 272.174 177.076 270.726 173.775C269.53 171.048 268.546 167.103 268.165 163.504C267.987 161.828 267.727 160.295 267.587 160.097C267.275 159.658 266.112 159.916 265.844 160.483C265.464 161.285 266.277 167.044 267.253 170.474L268.197 173.789L267.082 173.158C265.648 172.347 262.317 169.516 260.477 167.545C259.205 166.182 258.952 166.032 258.243 166.213C257.628 166.371 257.46 166.557 257.511 167.02C257.592 167.76 259.178 169.6 261.514 171.666C269.674 178.883 280.086 182.46 291.606 182.007C295.017 181.872 303.572 179.694 306.638 178.179C314.245 174.421 319.896 169.316 324.129 162.378C326.128 159.102 327.545 155.984 327.362 155.266C327.204 154.65 326.219 154.287 325.726 154.663C325.553 154.796 324.963 155.92 324.416 157.162C323.869 158.403 322.844 160.333 322.138 161.45C320.648 163.808 317.697 167.57 317.451 167.424C317.359 167.37 317.38 166.699 317.499 165.934C318.238 161.18 317.864 156.168 316.313 150.049L315.19 145.619L315.889 144.868C317.372 143.274 317.242 140.116 315.628 138.543L314.848 137.783L315.417 135.003C316.836 128.077 316.759 121.32 315.192 115.089C314.074 110.647 313.99 110.741 316.694 113.42C324.601 121.254 328.776 132.827 327.813 144.239C327.558 147.267 327.698 147.845 328.701 147.902C329.618 147.954 329.949 146.914 330.148 143.366C330.569 135.834 329.04 128.562 325.668 122.06C317.988 107.253 302.904 98.7018 286.212 99.6932C283.496 99.8545 277.601 100.999 275.484 101.775ZM282.676 102.342C289.434 101.306 296.054 101.938 302.324 104.218C306.392 105.697 306.383 105.658 302.87 106.575C299.697 107.403 296.543 108.709 293.725 110.36L292.009 111.366L290.917 110.811C289.942 110.316 288.225 110.07 287.327 110.295C287.148 110.34 286.498 110.705 285.884 111.106L284.767 111.835L283.397 111.204C282.643 110.857 281.003 110.234 279.752 109.818C277.116 108.942 276.254 109.084 276.463 110.361C276.586 111.117 276.806 111.253 279.179 112.036C280.6 112.504 282.256 113.12 282.859 113.403C283.813 113.851 283.937 114.002 283.799 114.561C283.713 114.914 283.77 115.726 283.927 116.364L284.212 117.526L282.159 119.624C277.878 124 272.767 131.834 270.288 137.821C269.669 139.316 269.137 140.598 269.105 140.669C269.074 140.739 268.627 140.786 268.112 140.771C267.225 140.746 267.133 140.651 266.358 138.962C265.907 137.981 264.952 135.206 264.236 132.795C262.765 127.846 262.219 124.022 262.354 119.618C262.439 116.863 263.274 112.03 263.828 111.095C264.303 110.295 265.398 110.064 268.558 110.099C271.911 110.135 272.256 110.049 272.252 109.168C272.247 108.184 271.98 108.023 270.199 107.925C269.335 107.878 268.661 107.733 268.701 107.602C268.822 107.217 273.256 105.021 275.664 104.154C278.916 102.984 279.534 102.824 282.676 102.342ZM290.024 113.049C291.296 113.873 291.568 114.999 290.804 116.288C290.372 117.017 289.966 117.338 289.24 117.524C288.515 117.71 288.004 117.624 287.275 117.192C286.081 116.485 285.722 115.397 286.272 114.153C287.031 112.432 288.435 112.019 290.024 113.049ZM309.764 107.843C310.245 108.133 310.75 109.028 311.661 111.208C314.233 117.362 314.877 125.121 313.479 133.097C312.884 136.489 312.677 137.006 311.917 136.995C311.423 136.987 310.927 136.397 309.398 133.995C305.885 128.478 301.639 123.613 296.718 119.469C295.572 118.504 294.308 117.51 293.908 117.259C293.317 116.887 293.21 116.685 293.334 116.177C293.419 115.833 293.445 115.026 293.392 114.384C293.3 113.256 293.344 113.188 294.677 112.377C297.619 110.588 300.23 109.581 304.73 108.5C308.678 107.551 309.172 107.487 309.764 107.843ZM287.204 119.658C288.503 120.002 288.837 119.977 290.462 119.412L292.272 118.783L293.838 120.009C299.099 124.131 304.204 129.878 307.933 135.879C309.158 137.849 309.205 137.981 308.814 138.349C308.016 139.103 307.333 140.69 307.319 141.823C307.303 143.15 307.783 144.259 308.844 145.347L309.595 146.116L309.109 147.262C307.296 151.541 302.571 158.639 298.84 162.688C297.205 164.462 296.76 164.81 296.339 164.643C293.595 163.553 292.496 163.572 290.765 164.736L289.543 165.558L287.872 164.449C283.046 161.248 278.103 156.7 274.288 151.951L272.098 149.224L272.546 148.394C273.661 146.331 273.463 144.022 272.032 142.397L271.239 141.498L271.608 140.515C273.377 135.798 277.237 129.021 280.436 125.014C282.335 122.637 285.208 119.471 285.593 119.333C285.683 119.301 286.408 119.447 287.204 119.658ZM205.138 158.694C200.316 160.735 196.302 163.194 192.806 166.249C190.09 168.624 189.636 169.302 190.326 169.959C190.812 170.421 191.859 170.376 192.221 169.877C192.704 169.212 196.701 165.889 198.415 164.728C202.144 162.203 204.992 160.983 210.376 159.604C215.93 158.181 217.967 157.982 223.194 158.35C228.762 158.743 234.416 160.475 239.622 163.384C241.797 164.599 242.513 164.703 242.91 163.864C243.283 163.077 242.638 162.466 239.814 160.931C233.355 157.421 225.813 155.675 218.365 155.966C216.313 156.045 214.392 156.363 210.766 157.219C208.096 157.85 205.564 158.513 205.138 158.694ZM268.711 143.107C270.632 143.27 271.619 145.229 270.626 146.907C269.877 148.172 268.548 148.572 267.241 147.925C265.607 147.116 265.481 144.646 267.016 143.505C267.662 143.024 267.68 143.02 268.711 143.107ZM210.16 162.071C209.962 162.877 209.92 162.82 211.418 163.749C212.16 164.208 213.191 165.196 213.734 165.967C214.594 167.188 214.782 167.703 215.281 170.216C216.262 175.145 216.133 178.956 214.901 181.516C214.63 182.079 213.397 183.63 212.162 184.962C209.33 188.017 207.982 189.918 206.841 192.468C204.374 197.976 204.402 202.135 206.918 203.767C207.956 204.44 208.456 204.53 215.452 205.289C218.874 205.661 222.029 206.086 222.462 206.234C223.153 206.47 223.298 206.693 223.648 208.06C223.896 209.03 224.485 210.276 225.209 211.365C227.305 214.516 227.115 215.432 224.134 216.554C222.918 217.012 222.012 217.531 221.649 217.977C221.311 218.393 220.721 220.334 220.203 222.738C219.623 225.426 218.893 227.758 218.039 229.641C217.331 231.205 216.79 232.636 216.838 232.822C216.962 233.307 217.655 233.658 218.21 233.516C219.303 233.236 221.256 228.438 222.337 223.375C223.261 219.05 223.119 219.266 225.665 218.338C227.425 217.697 228.44 216.715 228.736 215.368C229.055 213.92 228.615 212.448 227.232 210.331C226.585 209.34 225.903 207.936 225.717 207.209C225.292 205.549 224.423 204.499 223.124 204.074C222.568 203.893 219.137 203.422 215.5 203.029C211.863 202.636 208.602 202.145 208.254 201.939C207.748 201.639 207.571 201.274 207.375 200.117C206.831 196.91 209.922 190.334 213.756 186.54C218.277 182.066 219.242 177.382 217.282 169.415C216.324 165.521 216.32 165.512 214.987 163.952C212.909 161.52 210.523 160.59 210.16 162.071ZM313.593 139.753C314.733 140.53 315.01 141.916 314.274 143.159C313.299 144.806 311.027 144.868 310.007 143.275C308.496 140.914 311.282 138.177 313.593 139.753ZM314.033 150.347C315.761 156.527 316.049 161.722 314.97 167.256C314.141 171.512 314.051 171.589 309.879 171.623C307.806 171.64 305.693 171.4 303.203 170.865C298.357 169.825 298.49 169.897 298.26 168.177C298.076 166.802 298.106 166.732 299.457 165.347C303.536 161.165 309.287 152.782 311.037 148.468C311.517 147.282 311.799 146.932 312.338 146.85L313.026 146.745L314.033 150.347ZM235.922 168.173C235.417 168.842 235.366 173.438 235.843 175.301C236.444 177.644 241.758 180.534 247.607 181.699C250.479 182.271 251.087 182.097 250.91 180.755C250.827 180.125 250.528 180 247.707 179.416C244.677 178.788 240.655 177.119 238.859 175.744C237.882 174.996 237.73 174.349 237.765 171.107C237.781 169.651 237.685 168.305 237.551 168.116C237.217 167.647 236.295 167.679 235.922 168.173ZM183.69 191.6C183.357 192.304 183.905 193.121 185.851 194.823C187.378 196.158 187.645 196.535 188.218 198.164C188.573 199.174 189.064 200.212 189.309 200.471C189.868 201.061 192.385 202.418 194.891 203.479C196.821 204.297 199.212 206.436 199.514 207.615C199.585 207.894 199.479 209.227 199.277 210.577C198.71 214.375 198.787 216.232 199.626 218.976C200.5 221.83 201.32 222.877 203.775 224.266L205.439 225.207L207.243 228.748C208.235 230.696 209.207 232.409 209.403 232.555C209.911 232.935 211.042 232.578 211.107 232.017C211.165 231.519 209.849 228.705 208.06 225.499C207.106 223.791 206.788 223.467 205.031 222.412C202.831 221.091 202.167 220.187 201.506 217.617C201.035 215.784 201.046 213.968 201.551 210.421C201.742 209.083 201.791 207.576 201.662 207.071C201.426 206.148 199.146 203.321 197.992 202.518C197.658 202.286 196.518 201.726 195.459 201.274C194.399 200.822 192.91 200.095 192.148 199.659C190.825 198.901 190.738 198.783 190.172 197.001C189.636 195.311 189.422 194.994 187.892 193.62C186.963 192.786 185.913 191.824 185.559 191.483C184.85 190.799 184.045 190.85 183.69 191.6ZM293.978 166.121C295.712 166.431 296.594 168.404 295.685 169.939C294.74 171.536 292.845 171.747 291.635 170.389C290.812 169.465 290.695 168.841 291.152 167.805C291.762 166.424 292.664 165.887 293.978 166.121ZM292.75 173.394C294.014 173.622 295.664 173.182 296.656 172.353C297.423 171.713 297.497 171.704 298.686 172.087C300.873 172.793 304.367 173.48 307.073 173.735L309.71 173.984L308.591 174.616C304.322 177.025 298.842 178.871 294.213 179.458C289.407 180.067 283.204 179.731 279.598 178.667L278.206 178.256L280.847 177.402C283.654 176.494 286.609 175.141 289.037 173.653C290.324 172.863 290.603 172.775 291.152 172.982C291.501 173.113 292.22 173.299 292.75 173.394ZM249.241 193.279C246.733 194.591 244.29 197.662 243.609 200.359C243.171 202.089 243.111 204.784 243.477 206.215C244.037 208.398 245.002 209.872 246.354 210.606C247.062 210.99 247.701 211.534 247.774 211.815C247.848 212.096 247.776 213.924 247.616 215.878C247.369 218.879 247.395 219.483 247.786 219.766C248.445 220.244 249.206 219.964 249.472 219.145C249.597 218.759 249.803 216.76 249.929 214.703C250.193 210.388 250.025 209.905 247.861 208.748C246.841 208.203 246.469 207.808 246.056 206.83C244.935 204.175 245.628 199.76 247.505 197.6C249.082 195.787 250.061 195.217 252.861 194.48C255.062 193.901 255.517 193.701 255.635 193.259C255.842 192.476 255.126 191.852 254.084 191.908C252.874 191.973 250.395 192.674 249.241 193.279Z" fill="#D2C1E6"/>
<path fill-rule="evenodd" clip-rule="evenodd" d="M275.484 101.775C263.749 106.08 253.797 115.695 250.08 126.318C247.566 133.503 247.099 141.037 248.533 151.258C248.746 152.776 250.881 162.073 253.276 171.918C255.671 181.763 257.747 190.806 257.889 192.013C259.156 202.758 258.068 209.474 253.908 216.597C248.907 225.16 241.934 230.881 232.527 234.14C210.16 241.888 185.705 227.31 181.696 203.839C180.425 196.404 181.212 189.125 184.004 182.489C184.613 181.042 185.347 179.299 185.636 178.616L186.16 177.374L185.441 176.948C184.76 176.545 184.693 176.555 184.162 177.138C182.915 178.502 180.605 184.488 179.674 188.762C179.041 191.668 178.701 196.996 178.931 200.401C179.179 204.055 180.827 210.516 182.389 213.955C191.318 233.612 213.427 243.208 233.555 236.163C243.28 232.758 251.014 226.302 256.009 217.415C259.504 211.199 260.772 205.947 260.609 198.365C260.483 192.492 260.153 190.761 255.567 171.903C253.172 162.058 251.039 152.76 250.827 151.242C249.733 143.43 249.723 138.129 250.79 132.606C251.663 128.087 252.843 124.961 255.128 121.116C256.936 118.074 260.38 113.698 260.524 114.26C260.561 114.404 260.493 115.155 260.373 115.928C260.017 118.217 260.02 122.068 260.381 125.49C260.771 129.195 262.81 136.635 264.335 139.918L265.225 141.834L264.466 143.03C263.064 145.236 263.536 148.069 265.533 149.434L266.527 150.113L266.181 152.74C265.801 155.623 266.015 156.215 267.316 155.882C267.992 155.709 268.081 155.479 268.391 153.105C268.688 150.829 268.809 150.496 269.392 150.346C269.951 150.203 270.232 150.411 271.189 151.673C275.572 157.457 281.303 162.836 286.894 166.412C287.835 167.015 288.62 167.715 288.638 167.967C288.655 168.22 288.746 169.013 288.84 169.73C288.991 170.891 288.925 171.088 288.241 171.521C285.789 173.071 282.859 174.397 279.861 175.314C273.416 177.285 272.174 177.076 270.726 173.775C269.53 171.048 268.546 167.103 268.165 163.504C267.987 161.828 267.727 160.295 267.587 160.097C267.275 159.658 266.112 159.916 265.844 160.483C265.464 161.285 266.277 167.044 267.253 170.474L268.197 173.789L267.082 173.158C265.648 172.347 262.317 169.516 260.477 167.545C259.205 166.182 258.952 166.032 258.243 166.213C257.628 166.371 257.46 166.557 257.511 167.02C257.592 167.76 259.178 169.6 261.514 171.666C269.674 178.883 280.086 182.46 291.606 182.007C295.017 181.872 303.572 179.694 306.638 178.179C314.245 174.421 319.896 169.316 324.129 162.378C326.128 159.102 327.545 155.984 327.362 155.266C327.204 154.65 326.219 154.287 325.726 154.663C325.553 154.796 324.963 155.92 324.416 157.162C323.869 158.403 322.844 160.333 322.138 161.45C320.648 163.808 317.697 167.57 317.451 167.424C317.359 167.37 317.38 166.699 317.499 165.934C318.238 161.18 317.864 156.168 316.313 150.049L315.19 145.619L315.889 144.868C317.372 143.274 317.242 140.116 315.628 138.543L314.848 137.783L315.417 135.003C316.836 128.077 316.759 121.32 315.192 115.089C314.074 110.647 313.99 110.741 316.694 113.42C324.601 121.254 328.776 132.827 327.813 144.239C327.558 147.267 327.698 147.845 328.701 147.902C329.618 147.954 329.949 146.914 330.148 143.366C330.569 135.834 329.04 128.562 325.668 122.06C317.988 107.253 302.904 98.7018 286.212 99.6932C283.496 99.8545 277.601 100.999 275.484 101.775ZM282.676 102.342C289.434 101.306 296.054 101.938 302.324 104.218C306.392 105.697 306.383 105.658 302.87 106.575C299.697 107.403 296.543 108.709 293.725 110.36L292.009 111.366L290.917 110.811C289.942 110.316 288.225 110.07 287.327 110.295C287.148 110.34 286.498 110.705 285.884 111.106L284.767 111.835L283.397 111.204C282.643 110.857 281.003 110.234 279.752 109.818C277.116 108.942 276.254 109.084 276.463 110.361C276.586 111.117 276.806 111.253 279.179 112.036C280.6 112.504 282.256 113.12 282.859 113.403C283.813 113.851 283.937 114.002 283.799 114.561C283.713 114.914 283.77 115.726 283.927 116.364L284.212 117.526L282.159 119.624C277.878 124 272.767 131.834 270.288 137.821C269.669 139.316 269.137 140.598 269.105 140.669C269.074 140.739 268.627 140.786 268.112 140.771C267.225 140.746 267.133 140.651 266.358 138.962C265.907 137.981 264.952 135.206 264.236 132.795C262.765 127.846 262.219 124.022 262.354 119.618C262.439 116.863 263.274 112.03 263.828 111.095C264.303 110.295 265.398 110.064 268.558 110.099C271.911 110.135 272.256 110.049 272.252 109.168C272.247 108.184 271.98 108.023 270.199 107.925C269.335 107.878 268.661 107.733 268.701 107.602C268.822 107.217 273.256 105.021 275.664 104.154C278.916 102.984 279.534 102.824 282.676 102.342ZM290.024 113.049C291.296 113.873 291.568 114.999 290.804 116.288C290.372 117.017 289.966 117.338 289.24 117.524C288.515 117.71 288.004 117.624 287.275 117.192C286.081 116.485 285.722 115.397 286.272 114.153C287.031 112.432 288.435 112.019 290.024 113.049ZM309.764 107.843C310.245 108.133 310.75 109.028 311.661 111.208C314.233 117.362 314.877 125.121 313.479 133.097C312.884 136.489 312.677 137.006 311.917 136.995C311.423 136.987 310.927 136.397 309.398 133.995C305.885 128.478 301.639 123.613 296.718 119.469C295.572 118.504 294.308 117.51 293.908 117.259C293.317 116.887 293.21 116.685 293.334 116.177C293.419 115.833 293.445 115.026 293.392 114.384C293.3 113.256 293.344 113.188 294.677 112.377C297.619 110.588 300.23 109.581 304.73 108.5C308.678 107.551 309.172 107.487 309.764 107.843ZM287.204 119.658C288.503 120.002 288.837 119.977 290.462 119.412L292.272 118.783L293.838 120.009C299.099 124.131 304.204 129.878 307.933 135.879C309.158 137.849 309.205 137.981 308.814 138.349C308.016 139.103 307.333 140.69 307.319 141.823C307.303 143.15 307.783 144.259 308.844 145.347L309.595 146.116L309.109 147.262C307.296 151.541 302.571 158.639 298.84 162.688C297.205 164.462 296.76 164.81 296.339 164.643C293.595 163.553 292.496 163.572 290.765 164.736L289.543 165.558L287.872 164.449C283.046 161.248 278.103 156.7 274.288 151.951L272.098 149.224L272.546 148.394C273.661 146.331 273.463 144.022 272.032 142.397L271.239 141.498L271.608 140.515C273.377 135.798 277.237 129.021 280.436 125.014C282.335 122.637 285.208 119.471 285.593 119.333C285.683 119.301 286.408 119.447 287.204 119.658ZM205.138 158.694C200.316 160.735 196.302 163.194 192.806 166.249C190.09 168.624 189.636 169.302 190.326 169.959C190.812 170.421 191.859 170.376 192.221 169.877C192.704 169.212 196.701 165.889 198.415 164.728C202.144 162.203 204.992 160.983 210.376 159.604C215.93 158.181 217.967 157.982 223.194 158.35C228.762 158.743 234.416 160.475 239.622 163.384C241.797 164.599 242.513 164.703 242.91 163.864C243.283 163.077 242.638 162.466 239.814 160.931C233.355 157.421 225.813 155.675 218.365 155.966C216.313 156.045 214.392 156.363 210.766 157.219C208.096 157.85 205.564 158.513 205.138 158.694ZM268.711 143.107C270.632 143.27 271.619 145.229 270.626 146.907C269.877 148.172 268.548 148.572 267.241 147.925C265.607 147.116 265.481 144.646 267.016 143.505C267.662 143.024 267.68 143.02 268.711 143.107ZM210.16 162.071C209.962 162.877 209.92 162.82 211.418 163.749C212.16 164.208 213.191 165.196 213.734 165.967C214.594 167.188 214.782 167.703 215.281 170.216C216.262 175.145 216.133 178.956 214.901 181.516C214.63 182.079 213.397 183.63 212.162 184.962C209.33 188.017 207.982 189.918 206.841 192.468C204.374 197.976 204.402 202.135 206.918 203.767C207.956 204.44 208.456 204.53 215.452 205.289C218.874 205.661 222.029 206.086 222.462 206.234C223.153 206.47 223.298 206.693 223.648 208.06C223.896 209.03 224.485 210.276 225.209 211.365C227.305 214.516 227.115 215.432 224.134 216.554C222.918 217.012 222.012 217.531 221.649 217.977C221.311 218.393 220.721 220.334 220.203 222.738C219.623 225.426 218.893 227.758 218.039 229.641C217.331 231.205 216.79 232.636 216.838 232.822C216.962 233.307 217.655 233.658 218.21 233.516C219.303 233.236 221.256 228.438 222.337 223.375C223.261 219.05 223.119 219.266 225.665 218.338C227.425 217.697 228.44 216.715 228.736 215.368C229.055 213.92 228.615 212.448 227.232 210.331C226.585 209.34 225.903 207.936 225.717 207.209C225.292 205.549 224.423 204.499 223.124 204.074C222.568 203.893 219.137 203.422 215.5 203.029C211.863 202.636 208.602 202.145 208.254 201.939C207.748 201.639 207.571 201.274 207.375 200.117C206.831 196.91 209.922 190.334 213.756 186.54C218.277 182.066 219.242 177.382 217.282 169.415C216.324 165.521 216.32 165.512 214.987 163.952C212.909 161.52 210.523 160.59 210.16 162.071ZM313.593 139.753C314.733 140.53 315.01 141.916 314.274 143.159C313.299 144.806 311.027 144.868 310.007 143.275C308.496 140.914 311.282 138.177 313.593 139.753ZM314.033 150.347C315.761 156.527 316.049 161.722 314.97 167.256C314.141 171.512 314.051 171.589 309.879 171.623C307.806 171.64 305.693 171.4 303.203 170.865C298.357 169.825 298.49 169.897 298.26 168.177C298.076 166.802 298.106 166.732 299.457 165.347C303.536 161.165 309.287 152.782 311.037 148.468C311.517 147.282 311.799 146.932 312.338 146.85L313.026 146.745L314.033 150.347ZM235.922 168.173C235.417 168.842 235.366 173.438 235.843 175.301C236.444 177.644 241.758 180.534 247.607 181.699C250.479 182.271 251.087 182.097 250.91 180.755C250.827 180.125 250.528 180 247.707 179.416C244.677 178.788 240.655 177.119 238.859 175.744C237.882 174.996 237.73 174.349 237.765 171.107C237.781 169.651 237.685 168.305 237.551 168.116C237.217 167.647 236.295 167.679 235.922 168.173ZM183.69 191.6C183.357 192.304 183.905 193.121 185.851 194.823C187.378 196.158 187.645 196.535 188.218 198.164C188.573 199.174 189.064 200.212 189.309 200.471C189.868 201.061 192.385 202.418 194.891 203.479C196.821 204.297 199.212 206.436 199.514 207.615C199.585 207.894 199.479 209.227 199.277 210.577C198.71 214.375 198.787 216.232 199.626 218.976C200.5 221.83 201.32 222.877 203.775 224.266L205.439 225.207L207.243 228.748C208.235 230.696 209.207 232.409 209.403 232.555C209.911 232.935 211.042 232.578 211.107 232.017C211.165 231.519 209.849 228.705 208.06 225.499C207.106 223.791 206.788 223.467 205.031 222.412C202.831 221.091 202.167 220.187 201.506 217.617C201.035 215.784 201.046 213.968 201.551 210.421C201.742 209.083 201.791 207.576 201.662 207.071C201.426 206.148 199.146 203.321 197.992 202.518C197.658 202.286 196.518 201.726 195.459 201.274C194.399 200.822 192.91 200.095 192.148 199.659C190.825 198.901 190.738 198.783 190.172 197.001C189.636 195.311 189.422 194.994 187.892 193.62C186.963 192.786 185.913 191.824 185.559 191.483C184.85 190.799 184.045 190.85 183.69 191.6ZM293.978 166.121C295.712 166.431 296.594 168.404 295.685 169.939C294.74 171.536 292.845 171.747 291.635 170.389C290.812 169.465 290.695 168.841 291.152 167.805C291.762 166.424 292.664 165.887 293.978 166.121ZM292.75 173.394C294.014 173.622 295.664 173.182 296.656 172.353C297.423 171.713 297.497 171.704 298.686 172.087C300.873 172.793 304.367 173.48 307.073 173.735L309.71 173.984L308.591 174.616C304.322 177.025 298.842 178.871 294.213 179.458C289.407 180.067 283.204 179.731 279.598 178.667L278.206 178.256L280.847 177.402C283.654 176.494 286.609 175.141 289.037 173.653C290.324 172.863 290.603 172.775 291.152 172.982C291.501 173.113 292.22 173.299 292.75 173.394ZM249.241 193.279C246.733 194.591 244.29 197.662 243.609 200.359C243.171 202.089 243.111 204.784 243.477 206.215C244.037 208.398 245.002 209.872 246.354 210.606C247.062 210.99 247.701 211.534 247.774 211.815C247.848 212.096 247.776 213.924 247.616 215.878C247.369 218.879 247.395 219.483 247.786 219.766C248.445 220.244 249.206 219.964 249.472 219.145C249.597 218.759 249.803 216.76 249.929 214.703C250.193 210.388 250.025 209.905 247.861 208.748C246.841 208.203 246.469 207.808 246.056 206.83C244.935 204.175 245.628 199.76 247.505 197.6C249.082 195.787 250.061 195.217 252.861 194.48C255.062 193.901 255.517 193.701 255.635 193.259C255.842 192.476 255.126 191.852 254.084 191.908C252.874 191.973 250.395 192.674 249.241 193.279Z" stroke="white" stroke-width="0.554007" mask="url(#path-25-inside-1_1_47)"/>
</g>
<mask id="path-26-inside-2_1_47" fill="white">
<path fill-rule="evenodd" clip-rule="evenodd" d="M275.484 101.775C263.749 106.08 253.797 115.695 250.08 126.318C247.566 133.503 247.099 141.037 248.533 151.258C248.746 152.776 250.881 162.073 253.276 171.918C255.671 181.763 257.747 190.806 257.889 192.013C259.156 202.758 258.068 209.474 253.908 216.597C248.907 225.16 241.934 230.881 232.527 234.14C210.16 241.888 185.705 227.31 181.696 203.839C180.425 196.404 181.212 189.125 184.004 182.489C184.613 181.042 185.347 179.299 185.636 178.616L186.16 177.374L185.441 176.948C184.76 176.545 184.693 176.555 184.162 177.138C182.915 178.502 180.605 184.488 179.674 188.762C179.041 191.668 178.701 196.996 178.931 200.401C179.179 204.055 180.827 210.516 182.389 213.955C191.318 233.612 213.427 243.208 233.555 236.163C243.28 232.758 251.014 226.302 256.009 217.415C259.504 211.199 260.772 205.947 260.609 198.365C260.483 192.492 260.153 190.761 255.567 171.903C253.172 162.058 251.039 152.76 250.827 151.242C249.733 143.43 249.723 138.129 250.79 132.606C251.663 128.087 252.843 124.961 255.128 121.116C256.936 118.074 260.38 113.698 260.524 114.26C260.561 114.404 260.493 115.155 260.373 115.928C260.017 118.217 260.02 122.068 260.381 125.49C260.771 129.195 262.81 136.635 264.335 139.918L265.225 141.834L264.466 143.03C263.064 145.236 263.536 148.069 265.533 149.434L266.527 150.113L266.181 152.74C265.801 155.623 266.015 156.215 267.316 155.882C267.992 155.709 268.081 155.479 268.391 153.105C268.688 150.829 268.809 150.496 269.392 150.346C269.951 150.203 270.232 150.411 271.189 151.673C275.572 157.457 281.303 162.836 286.894 166.412C287.835 167.015 288.62 167.715 288.638 167.967C288.655 168.22 288.746 169.013 288.84 169.73C288.991 170.891 288.925 171.088 288.241 171.521C285.789 173.071 282.859 174.397 279.861 175.314C273.416 177.285 272.174 177.076 270.726 173.775C269.53 171.048 268.546 167.103 268.165 163.504C267.987 161.828 267.727 160.295 267.587 160.097C267.275 159.658 266.112 159.916 265.844 160.483C265.464 161.285 266.277 167.044 267.253 170.474L268.197 173.789L267.082 173.158C265.648 172.347 262.317 169.516 260.477 167.545C259.205 166.182 258.952 166.032 258.243 166.213C257.628 166.371 257.46 166.557 257.511 167.02C257.592 167.76 259.178 169.6 261.514 171.666C269.674 178.883 280.086 182.46 291.606 182.007C295.017 181.872 303.572 179.694 306.638 178.179C314.245 174.421 319.896 169.316 324.129 162.378C326.128 159.102 327.545 155.984 327.362 155.266C327.204 154.65 326.219 154.287 325.726 154.663C325.553 154.796 324.963 155.92 324.416 157.162C323.869 158.403 322.844 160.333 322.138 161.45C320.648 163.808 317.697 167.57 317.451 167.424C317.359 167.37 317.38 166.699 317.499 165.934C318.238 161.18 317.864 156.168 316.313 150.049L315.19 145.619L315.889 144.868C317.372 143.274 317.242 140.116 315.628 138.543L314.848 137.783L315.417 135.003C316.836 128.077 316.759 121.32 315.192 115.089C314.074 110.647 313.99 110.741 316.694 113.42C324.601 121.254 328.776 132.827 327.813 144.239C327.558 147.267 327.698 147.845 328.701 147.902C329.618 147.954 329.949 146.914 330.148 143.366C330.569 135.834 329.04 128.562 325.668 122.06C317.988 107.253 302.904 98.7018 286.212 99.6932C283.496 99.8545 277.601 100.999 275.484 101.775ZM282.676 102.342C289.434 101.306 296.054 101.938 302.324 104.218C306.392 105.697 306.383 105.658 302.87 106.575C299.697 107.403 296.543 108.709 293.725 110.36L292.009 111.366L290.917 110.811C289.942 110.316 288.225 110.07 287.327 110.295C287.148 110.34 286.498 110.705 285.884 111.106L284.767 111.835L283.397 111.204C282.643 110.857 281.003 110.234 279.752 109.818C277.116 108.942 276.254 109.084 276.463 110.361C276.586 111.117 276.806 111.253 279.179 112.036C280.6 112.504 282.256 113.12 282.859 113.403C283.813 113.851 283.937 114.002 283.799 114.561C283.713 114.914 283.77 115.726 283.927 116.364L284.212 117.526L282.159 119.624C277.878 124 272.767 131.834 270.288 137.821C269.669 139.316 269.137 140.598 269.105 140.669C269.074 140.739 268.627 140.786 268.112 140.771C267.225 140.746 267.133 140.651 266.358 138.962C265.907 137.981 264.952 135.206 264.236 132.795C262.765 127.846 262.219 124.022 262.354 119.618C262.439 116.863 263.274 112.03 263.828 111.095C264.303 110.295 265.398 110.064 268.558 110.099C271.911 110.135 272.256 110.049 272.252 109.168C272.247 108.184 271.98 108.023 270.199 107.925C269.335 107.878 268.661 107.733 268.701 107.602C268.822 107.217 273.256 105.021 275.664 104.154C278.916 102.984 279.534 102.824 282.676 102.342ZM290.024 113.049C291.296 113.873 291.568 114.999 290.804 116.288C290.372 117.017 289.966 117.338 289.24 117.524C288.515 117.71 288.004 117.624 287.275 117.192C286.081 116.485 285.722 115.397 286.272 114.153C287.031 112.432 288.435 112.019 290.024 113.049ZM309.764 107.843C310.245 108.133 310.75 109.028 311.661 111.208C314.233 117.362 314.877 125.121 313.479 133.097C312.884 136.489 312.677 137.006 311.917 136.995C311.423 136.987 310.927 136.397 309.398 133.995C305.885 128.478 301.639 123.613 296.718 119.469C295.572 118.504 294.308 117.51 293.908 117.259C293.317 116.887 293.21 116.685 293.334 116.177C293.419 115.833 293.445 115.026 293.392 114.384C293.3 113.256 293.344 113.188 294.677 112.377C297.619 110.588 300.23 109.581 304.73 108.5C308.678 107.551 309.172 107.487 309.764 107.843ZM287.204 119.658C288.503 120.002 288.837 119.977 290.462 119.412L292.272 118.783L293.838 120.009C299.099 124.131 304.204 129.878 307.933 135.879C309.158 137.849 309.205 137.981 308.814 138.349C308.016 139.103 307.333 140.69 307.319 141.823C307.303 143.15 307.783 144.259 308.844 145.347L309.595 146.116L309.109 147.262C307.296 151.541 302.571 158.639 298.84 162.688C297.205 164.462 296.76 164.81 296.339 164.643C293.595 163.553 292.496 163.572 290.765 164.736L289.543 165.558L287.872 164.449C283.046 161.248 278.103 156.7 274.288 151.951L272.098 149.224L272.546 148.394C273.661 146.331 273.463 144.022 272.032 142.397L271.239 141.498L271.608 140.515C273.377 135.798 277.237 129.021 280.436 125.014C282.335 122.637 285.208 119.471 285.593 119.333C285.683 119.301 286.408 119.447 287.204 119.658ZM205.138 158.694C200.316 160.735 196.302 163.194 192.806 166.249C190.09 168.624 189.636 169.302 190.326 169.959C190.812 170.421 191.859 170.376 192.221 169.877C192.704 169.212 196.701 165.889 198.415 164.728C202.144 162.203 204.992 160.983 210.376 159.604C215.93 158.181 217.967 157.982 223.194 158.35C228.762 158.743 234.416 160.475 239.622 163.384C241.797 164.599 242.513 164.703 242.91 163.864C243.283 163.077 242.638 162.466 239.814 160.931C233.355 157.421 225.813 155.675 218.365 155.966C216.313 156.045 214.392 156.363 210.766 157.219C208.096 157.85 205.564 158.513 205.138 158.694ZM268.711 143.107C270.632 143.27 271.619 145.229 270.626 146.907C269.877 148.172 268.548 148.572 267.241 147.925C265.607 147.116 265.481 144.646 267.016 143.505C267.662 143.024 267.68 143.02 268.711 143.107ZM210.16 162.071C209.962 162.877 209.92 162.82 211.418 163.749C212.16 164.208 213.191 165.196 213.734 165.967C214.594 167.188 214.782 167.703 215.281 170.216C216.262 175.145 216.133 178.956 214.901 181.516C214.63 182.079 213.397 183.63 212.162 184.962C209.33 188.017 207.982 189.918 206.841 192.468C204.374 197.976 204.402 202.135 206.918 203.767C207.956 204.44 208.456 204.53 215.452 205.289C218.874 205.661 222.029 206.086 222.462 206.234C223.153 206.47 223.298 206.693 223.648 208.06C223.896 209.03 224.485 210.276 225.209 211.365C227.305 214.516 227.115 215.432 224.134 216.554C222.918 217.012 222.012 217.531 221.649 217.977C221.311 218.393 220.721 220.334 220.203 222.738C219.623 225.426 218.893 227.758 218.039 229.641C217.331 231.205 216.79 232.636 216.838 232.822C216.962 233.307 217.655 233.658 218.21 233.516C219.303 233.236 221.256 228.438 222.337 223.375C223.261 219.05 223.119 219.266 225.665 218.338C227.425 217.697 228.44 216.715 228.736 215.368C229.055 213.92 228.615 212.448 227.232 210.331C226.585 209.34 225.903 207.936 225.717 207.209C225.292 205.549 224.423 204.499 223.124 204.074C222.568 203.893 219.137 203.422 215.5 203.029C211.863 202.636 208.602 202.145 208.254 201.939C207.748 201.639 207.571 201.274 207.375 200.117C206.831 196.91 209.922 190.334 213.756 186.54C218.277 182.066 219.242 177.382 217.282 169.415C216.324 165.521 216.32 165.512 214.987 163.952C212.909 161.52 210.523 160.59 210.16 162.071ZM313.593 139.753C314.733 140.53 315.01 141.916 314.274 143.159C313.299 144.806 311.027 144.868 310.007 143.275C308.496 140.914 311.282 138.177 313.593 139.753ZM314.033 150.347C315.761 156.527 316.049 161.722 314.97 167.256C314.141 171.512 314.051 171.589 309.879 171.623C307.806 171.64 305.693 171.4 303.203 170.865C298.357 169.825 298.49 169.897 298.26 168.177C298.076 166.802 298.106 166.732 299.457 165.347C303.536 161.165 309.287 152.782 311.037 148.468C311.517 147.282 311.799 146.932 312.338 146.85L313.026 146.745L314.033 150.347ZM235.922 168.173C235.417 168.842 235.366 173.438 235.843 175.301C236.444 177.644 241.758 180.534 247.607 181.699C250.479 182.271 251.087 182.097 250.91 180.755C250.827 180.125 250.528 180 247.707 179.416C244.677 178.788 240.655 177.119 238.859 175.744C237.882 174.996 237.73 174.349 237.765 171.107C237.781 169.651 237.685 168.305 237.551 168.116C237.217 167.647 236.295 167.679 235.922 168.173ZM183.69 191.6C183.357 192.304 183.905 193.121 185.851 194.823C187.378 196.158 187.645 196.535 188.218 198.164C188.573 199.174 189.064 200.212 189.309 200.471C189.868 201.061 192.385 202.418 194.891 203.479C196.821 204.297 199.212 206.436 199.514 207.615C199.585 207.894 199.479 209.227 199.277 210.577C198.71 214.375 198.787 216.232 199.626 218.976C200.5 221.83 201.32 222.877 203.775 224.266L205.439 225.207L207.243 228.748C208.235 230.696 209.207 232.409 209.403 232.555C209.911 232.935 211.042 232.578 211.107 232.017C211.165 231.519 209.849 228.705 208.06 225.499C207.106 223.791 206.788 223.467 205.031 222.412C202.831 221.091 202.167 220.187 201.506 217.617C201.035 215.784 201.046 213.968 201.551 210.421C201.742 209.083 201.791 207.576 201.662 207.071C201.426 206.148 199.146 203.321 197.992 202.518C197.658 202.286 196.518 201.726 195.459 201.274C194.399 200.822 192.91 200.095 192.148 199.659C190.825 198.901 190.738 198.783 190.172 197.001C189.636 195.311 189.422 194.994 187.892 193.62C186.963 192.786 185.913 191.824 185.559 191.483C184.85 190.799 184.045 190.85 183.69 191.6ZM293.978 166.121C295.712 166.431 296.594 168.404 295.685 169.939C294.74 171.536 292.845 171.747 291.635 170.389C290.812 169.465 290.695 168.841 291.152 167.805C291.762 166.424 292.664 165.887 293.978 166.121ZM292.75 173.394C294.014 173.622 295.664 173.182 296.656 172.353C297.423 171.713 297.497 171.704 298.686 172.087C300.873 172.793 304.367 173.48 307.073 173.735L309.71 173.984L308.591 174.616C304.322 177.025 298.842 178.871 294.213 179.458C289.407 180.067 283.204 179.731 279.598 178.667L278.206 178.256L280.847 177.402C283.654 176.494 286.609 175.141 289.037 173.653C290.324 172.863 290.603 172.775 291.152 172.982C291.501 173.113 292.22 173.299 292.75 173.394ZM249.241 193.279C246.733 194.591 244.29 197.662 243.609 200.359C243.171 202.089 243.111 204.784 243.477 206.215C244.037 208.398 245.002 209.872 246.354 210.606C247.062 210.99 247.701 211.534 247.774 211.815C247.848 212.096 247.776 213.924 247.616 215.878C247.369 218.879 247.395 219.483 247.786 219.766C248.445 220.244 249.206 219.964 249.472 219.145C249.597 218.759 249.803 216.76 249.929 214.703C250.193 210.388 250.025 209.905 247.861 208.748C246.841 208.203 246.469 207.808 246.056 206.83C244.935 204.175 245.628 199.76 247.505 197.6C249.082 195.787 250.061 195.217 252.861 194.48C255.062 193.901 255.517 193.701 255.635 193.259C255.842 192.476 255.126 191.852 254.084 191.908C252.874 191.973 250.395 192.674 249.241 193.279Z"/>
</mask>
<path fill-rule="evenodd" clip-rule="evenodd" d="M275.484 101.775C263.749 106.08 253.797 115.695 250.08 126.318C247.566 133.503 247.099 141.037 248.533 151.258C248.746 152.776 250.881 162.073 253.276 171.918C255.671 181.763 257.747 190.806 257.889 192.013C259.156 202.758 258.068 209.474 253.908 216.597C248.907 225.16 241.934 230.881 232.527 234.14C210.16 241.888 185.705 227.31 181.696 203.839C180.425 196.404 181.212 189.125 184.004 182.489C184.613 181.042 185.347 179.299 185.636 178.616L186.16 177.374L185.441 176.948C184.76 176.545 184.693 176.555 184.162 177.138C182.915 178.502 180.605 184.488 179.674 188.762C179.041 191.668 178.701 196.996 178.931 200.401C179.179 204.055 180.827 210.516 182.389 213.955C191.318 233.612 213.427 243.208 233.555 236.163C243.28 232.758 251.014 226.302 256.009 217.415C259.504 211.199 260.772 205.947 260.609 198.365C260.483 192.492 260.153 190.761 255.567 171.903C253.172 162.058 251.039 152.76 250.827 151.242C249.733 143.43 249.723 138.129 250.79 132.606C251.663 128.087 252.843 124.961 255.128 121.116C256.936 118.074 260.38 113.698 260.524 114.26C260.561 114.404 260.493 115.155 260.373 115.928C260.017 118.217 260.02 122.068 260.381 125.49C260.771 129.195 262.81 136.635 264.335 139.918L265.225 141.834L264.466 143.03C263.064 145.236 263.536 148.069 265.533 149.434L266.527 150.113L266.181 152.74C265.801 155.623 266.015 156.215 267.316 155.882C267.992 155.709 268.081 155.479 268.391 153.105C268.688 150.829 268.809 150.496 269.392 150.346C269.951 150.203 270.232 150.411 271.189 151.673C275.572 157.457 281.303 162.836 286.894 166.412C287.835 167.015 288.62 167.715 288.638 167.967C288.655 168.22 288.746 169.013 288.84 169.73C288.991 170.891 288.925 171.088 288.241 171.521C285.789 173.071 282.859 174.397 279.861 175.314C273.416 177.285 272.174 177.076 270.726 173.775C269.53 171.048 268.546 167.103 268.165 163.504C267.987 161.828 267.727 160.295 267.587 160.097C267.275 159.658 266.112 159.916 265.844 160.483C265.464 161.285 266.277 167.044 267.253 170.474L268.197 173.789L267.082 173.158C265.648 172.347 262.317 169.516 260.477 167.545C259.205 166.182 258.952 166.032 258.243 166.213C257.628 166.371 257.46 166.557 257.511 167.02C257.592 167.76 259.178 169.6 261.514 171.666C269.674 178.883 280.086 182.46 291.606 182.007C295.017 181.872 303.572 179.694 306.638 178.179C314.245 174.421 319.896 169.316 324.129 162.378C326.128 159.102 327.545 155.984 327.362 155.266C327.204 154.65 326.219 154.287 325.726 154.663C325.553 154.796 324.963 155.92 324.416 157.162C323.869 158.403 322.844 160.333 322.138 161.45C320.648 163.808 317.697 167.57 317.451 167.424C317.359 167.37 317.38 166.699 317.499 165.934C318.238 161.18 317.864 156.168 316.313 150.049L315.19 145.619L315.889 144.868C317.372 143.274 317.242 140.116 315.628 138.543L314.848 137.783L315.417 135.003C316.836 128.077 316.759 121.32 315.192 115.089C314.074 110.647 313.99 110.741 316.694 113.42C324.601 121.254 328.776 132.827 327.813 144.239C327.558 147.267 327.698 147.845 328.701 147.902C329.618 147.954 329.949 146.914 330.148 143.366C330.569 135.834 329.04 128.562 325.668 122.06C317.988 107.253 302.904 98.7018 286.212 99.6932C283.496 99.8545 277.601 100.999 275.484 101.775ZM282.676 102.342C289.434 101.306 296.054 101.938 302.324 104.218C306.392 105.697 306.383 105.658 302.87 106.575C299.697 107.403 296.543 108.709 293.725 110.36L292.009 111.366L290.917 110.811C289.942 110.316 288.225 110.07 287.327 110.295C287.148 110.34 286.498 110.705 285.884 111.106L284.767 111.835L283.397 111.204C282.643 110.857 281.003 110.234 279.752 109.818C277.116 108.942 276.254 109.084 276.463 110.361C276.586 111.117 276.806 111.253 279.179 112.036C280.6 112.504 282.256 113.12 282.859 113.403C283.813 113.851 283.937 114.002 283.799 114.561C283.713 114.914 283.77 115.726 283.927 116.364L284.212 117.526L282.159 119.624C277.878 124 272.767 131.834 270.288 137.821C269.669 139.316 269.137 140.598 269.105 140.669C269.074 140.739 268.627 140.786 268.112 140.771C267.225 140.746 267.133 140.651 266.358 138.962C265.907 137.981 264.952 135.206 264.236 132.795C262.765 127.846 262.219 124.022 262.354 119.618C262.439 116.863 263.274 112.03 263.828 111.095C264.303 110.295 265.398 110.064 268.558 110.099C271.911 110.135 272.256 110.049 272.252 109.168C272.247 108.184 271.98 108.023 270.199 107.925C269.335 107.878 268.661 107.733 268.701 107.602C268.822 107.217 273.256 105.021 275.664 104.154C278.916 102.984 279.534 102.824 282.676 102.342ZM290.024 113.049C291.296 113.873 291.568 114.999 290.804 116.288C290.372 117.017 289.966 117.338 289.24 117.524C288.515 117.71 288.004 117.624 287.275 117.192C286.081 116.485 285.722 115.397 286.272 114.153C287.031 112.432 288.435 112.019 290.024 113.049ZM309.764 107.843C310.245 108.133 310.75 109.028 311.661 111.208C314.233 117.362 314.877 125.121 313.479 133.097C312.884 136.489 312.677 137.006 311.917 136.995C311.423 136.987 310.927 136.397 309.398 133.995C305.885 128.478 301.639 123.613 296.718 119.469C295.572 118.504 294.308 117.51 293.908 117.259C293.317 116.887 293.21 116.685 293.334 116.177C293.419 115.833 293.445 115.026 293.392 114.384C293.3 113.256 293.344 113.188 294.677 112.377C297.619 110.588 300.23 109.581 304.73 108.5C308.678 107.551 309.172 107.487 309.764 107.843ZM287.204 119.658C288.503 120.002 288.837 119.977 290.462 119.412L292.272 118.783L293.838 120.009C299.099 124.131 304.204 129.878 307.933 135.879C309.158 137.849 309.205 137.981 308.814 138.349C308.016 139.103 307.333 140.69 307.319 141.823C307.303 143.15 307.783 144.259 308.844 145.347L309.595 146.116L309.109 147.262C307.296 151.541 302.571 158.639 298.84 162.688C297.205 164.462 296.76 164.81 296.339 164.643C293.595 163.553 292.496 163.572 290.765 164.736L289.543 165.558L287.872 164.449C283.046 161.248 278.103 156.7 274.288 151.951L272.098 149.224L272.546 148.394C273.661 146.331 273.463 144.022 272.032 142.397L271.239 141.498L271.608 140.515C273.377 135.798 277.237 129.021 280.436 125.014C282.335 122.637 285.208 119.471 285.593 119.333C285.683 119.301 286.408 119.447 287.204 119.658ZM205.138 158.694C200.316 160.735 196.302 163.194 192.806 166.249C190.09 168.624 189.636 169.302 190.326 169.959C190.812 170.421 191.859 170.376 192.221 169.877C192.704 169.212 196.701 165.889 198.415 164.728C202.144 162.203 204.992 160.983 210.376 159.604C215.93 158.181 217.967 157.982 223.194 158.35C228.762 158.743 234.416 160.475 239.622 163.384C241.797 164.599 242.513 164.703 242.91 163.864C243.283 163.077 242.638 162.466 239.814 160.931C233.355 157.421 225.813 155.675 218.365 155.966C216.313 156.045 214.392 156.363 210.766 157.219C208.096 157.85 205.564 158.513 205.138 158.694ZM268.711 143.107C270.632 143.27 271.619 145.229 270.626 146.907C269.877 148.172 268.548 148.572 267.241 147.925C265.607 147.116 265.481 144.646 267.016 143.505C267.662 143.024 267.68 143.02 268.711 143.107ZM210.16 162.071C209.962 162.877 209.92 162.82 211.418 163.749C212.16 164.208 213.191 165.196 213.734 165.967C214.594 167.188 214.782 167.703 215.281 170.216C216.262 175.145 216.133 178.956 214.901 181.516C214.63 182.079 213.397 183.63 212.162 184.962C209.33 188.017 207.982 189.918 206.841 192.468C204.374 197.976 204.402 202.135 206.918 203.767C207.956 204.44 208.456 204.53 215.452 205.289C218.874 205.661 222.029 206.086 222.462 206.234C223.153 206.47 223.298 206.693 223.648 208.06C223.896 209.03 224.485 210.276 225.209 211.365C227.305 214.516 227.115 215.432 224.134 216.554C222.918 217.012 222.012 217.531 221.649 217.977C221.311 218.393 220.721 220.334 220.203 222.738C219.623 225.426 218.893 227.758 218.039 229.641C217.331 231.205 216.79 232.636 216.838 232.822C216.962 233.307 217.655 233.658 218.21 233.516C219.303 233.236 221.256 228.438 222.337 223.375C223.261 219.05 223.119 219.266 225.665 218.338C227.425 217.697 228.44 216.715 228.736 215.368C229.055 213.92 228.615 212.448 227.232 210.331C226.585 209.34 225.903 207.936 225.717 207.209C225.292 205.549 224.423 204.499 223.124 204.074C222.568 203.893 219.137 203.422 215.5 203.029C211.863 202.636 208.602 202.145 208.254 201.939C207.748 201.639 207.571 201.274 207.375 200.117C206.831 196.91 209.922 190.334 213.756 186.54C218.277 182.066 219.242 177.382 217.282 169.415C216.324 165.521 216.32 165.512 214.987 163.952C212.909 161.52 210.523 160.59 210.16 162.071ZM313.593 139.753C314.733 140.53 315.01 141.916 314.274 143.159C313.299 144.806 311.027 144.868 310.007 143.275C308.496 140.914 311.282 138.177 313.593 139.753ZM314.033 150.347C315.761 156.527 316.049 161.722 314.97 167.256C314.141 171.512 314.051 171.589 309.879 171.623C307.806 171.64 305.693 171.4 303.203 170.865C298.357 169.825 298.49 169.897 298.26 168.177C298.076 166.802 298.106 166.732 299.457 165.347C303.536 161.165 309.287 152.782 311.037 148.468C311.517 147.282 311.799 146.932 312.338 146.85L313.026 146.745L314.033 150.347ZM235.922 168.173C235.417 168.842 235.366 173.438 235.843 175.301C236.444 177.644 241.758 180.534 247.607 181.699C250.479 182.271 251.087 182.097 250.91 180.755C250.827 180.125 250.528 180 247.707 179.416C244.677 178.788 240.655 177.119 238.859 175.744C237.882 174.996 237.73 174.349 237.765 171.107C237.781 169.651 237.685 168.305 237.551 168.116C237.217 167.647 236.295 167.679 235.922 168.173ZM183.69 191.6C183.357 192.304 183.905 193.121 185.851 194.823C187.378 196.158 187.645 196.535 188.218 198.164C188.573 199.174 189.064 200.212 189.309 200.471C189.868 201.061 192.385 202.418 194.891 203.479C196.821 204.297 199.212 206.436 199.514 207.615C199.585 207.894 199.479 209.227 199.277 210.577C198.71 214.375 198.787 216.232 199.626 218.976C200.5 221.83 201.32 222.877 203.775 224.266L205.439 225.207L207.243 228.748C208.235 230.696 209.207 232.409 209.403 232.555C209.911 232.935 211.042 232.578 211.107 232.017C211.165 231.519 209.849 228.705 208.06 225.499C207.106 223.791 206.788 223.467 205.031 222.412C202.831 221.091 202.167 220.187 201.506 217.617C201.035 215.784 201.046 213.968 201.551 210.421C201.742 209.083 201.791 207.576 201.662 207.071C201.426 206.148 199.146 203.321 197.992 202.518C197.658 202.286 196.518 201.726 195.459 201.274C194.399 200.822 192.91 200.095 192.148 199.659C190.825 198.901 190.738 198.783 190.172 197.001C189.636 195.311 189.422 194.994 187.892 193.62C186.963 192.786 185.913 191.824 185.559 191.483C184.85 190.799 184.045 190.85 183.69 191.6ZM293.978 166.121C295.712 166.431 296.594 168.404 295.685 169.939C294.74 171.536 292.845 171.747 291.635 170.389C290.812 169.465 290.695 168.841 291.152 167.805C291.762 166.424 292.664 165.887 293.978 166.121ZM292.75 173.394C294.014 173.622 295.664 173.182 296.656 172.353C297.423 171.713 297.497 171.704 298.686 172.087C300.873 172.793 304.367 173.48 307.073 173.735L309.71 173.984L308.591 174.616C304.322 177.025 298.842 178.871 294.213 179.458C289.407 180.067 283.204 179.731 279.598 178.667L278.206 178.256L280.847 177.402C283.654 176.494 286.609 175.141 289.037 173.653C290.324 172.863 290.603 172.775 291.152 172.982C291.501 173.113 292.22 173.299 292.75 173.394ZM249.241 193.279C246.733 194.591 244.29 197.662 243.609 200.359C243.171 202.089 243.111 204.784 243.477 206.215C244.037 208.398 245.002 209.872 246.354 210.606C247.062 210.99 247.701 211.534 247.774 211.815C247.848 212.096 247.776 213.924 247.616 215.878C247.369 218.879 247.395 219.483 247.786 219.766C248.445 220.244 249.206 219.964 249.472 219.145C249.597 218.759 249.803 216.76 249.929 214.703C250.193 210.388 250.025 209.905 247.861 208.748C246.841 208.203 246.469 207.808 246.056 206.83C244.935 204.175 245.628 199.76 247.505 197.6C249.082 195.787 250.061 195.217 252.861 194.48C255.062 193.901 255.517 193.701 255.635 193.259C255.842 192.476 255.126 191.852 254.084 191.908C252.874 191.973 250.395 192.674 249.241 193.279Z" fill="#B197D0" stroke="white" stroke-width="0.554007" mask="url(#path-26-inside-2_1_47)"/>
<defs>
<filter id="filter0_f_1_47" x="0.247345" y="0.247345" width="668.505" height="782.505" filterUnits="userSpaceOnUse" color-interpolation-filters="sRGB">
<feFlood flood-opacity="0" result="BackgroundImageFix"/>
<feBlend mode="normal" in="SourceGraphic" in2="BackgroundImageFix" result="shape"/>
<feGaussianBlur stdDeviation="64.3763" result="effect1_foregroundBlur_1_47"/>
</filter>
<filter id="filter1_dd_1_47" x="181.494" y="221.411" width="367.145" height="321.696" filterUnits="userSpaceOnUse" color-interpolation-filters="sRGB">
<feFlood flood-opacity="0" result="BackgroundImageFix"/>
<feColorMatrix in="SourceAlpha" type="matrix" values="0 0 0 0 0 0 0 0 0 0 0 0 0 0 0 0 0 0 127 0" result="hardAlpha"/>
<feOffset dx="1.69424" dy="1.69424"/>
<feGaussianBlur stdDeviation="4.02383"/>
<feComposite in2="hardAlpha" operator="out"/>
<feColorMatrix type="matrix" values="0 0 0 0 0.833333 0 0 0 0 1 0 0 0 0 0.947917 0 0 0 0.43 0"/>
<feBlend mode="normal" in2="BackgroundImageFix" result="effect1_dropShadow_1_47"/>
<feColorMatrix in="SourceAlpha" type="matrix" values="0 0 0 0 0 0 0 0 0 0 0 0 0 0 0 0 0 0 127 0" result="hardAlpha"/>
<feOffset dx="-1.69424" dy="-1.69424"/>
<feGaussianBlur stdDeviation="4.02383"/>
<feComposite in2="hardAlpha" operator="out"/>
<feColorMatrix type="matrix" values="0 0 0 0 0.833333 0 0 0 0 1 0 0 0 0 0.947917 0 0 0 0.43 0"/>
<feBlend mode="normal" in2="effect1_dropShadow_1_47" result="effect2_dropShadow_1_47"/>
<feBlend mode="normal" in="SourceGraphic" in2="effect2_dropShadow_1_47" result="shape"/>
</filter>
<filter id="filter2_f_1_47" x="174.427" y="95.1834" width="160.221" height="147.715" filterUnits="userSpaceOnUse" color-interpolation-filters="sRGB">
<feFlood flood-opacity="0" result="BackgroundImageFix"/>
<feBlend mode="normal" in="SourceGraphic" in2="BackgroundImageFix" result="shape"/>
<feGaussianBlur stdDeviation="2.21603" result="effect1_foregroundBlur_1_47"/>
</filter>
<linearGradient id="paint0_linear_1_47" x1="331.66" y1="231.157" x2="259.578" y2="300.705" gradientUnits="userSpaceOnUse">
<stop stop-color="#6D3EB0"/>
<stop offset="0.479811" stop-color="#8F60B5"/>
<stop offset="0.932292" stop-color="#845DBE"/>
</linearGradient>
<linearGradient id="paint1_linear_1_47" x1="354.964" y1="351.95" x2="395.568" y2="351.95" gradientUnits="userSpaceOnUse">
<stop stop-color="#811FFF"/>
<stop offset="0.25" stop-color="#9442FE"/>
<stop offset="0.745167" stop-color="#C9A6FD"/>
<stop offset="1" stop-color="#811FFF"/>
</linearGradient>
<linearGradient id="paint2_linear_1_47" x1="367.044" y1="356.906" x2="389.696" y2="356.906" gradientUnits="userSpaceOnUse">
<stop offset="0.200097" stop-color="#811FFF"/>
<stop offset="0.678372" stop-color="#C9A6FD"/>
<stop offset="0.958333" stop-color="#811FFF"/>
</linearGradient>
<linearGradient id="paint3_linear_1_47" x1="309.416" y1="287.189" x2="455.269" y2="287.189" gradientUnits="userSpaceOnUse">
<stop offset="0.200097" stop-color="#811FFF"/>
<stop offset="0.494792" stop-color="#C9A6FD"/>
<stop offset="0.713542" stop-color="#FBE4FF"/>
<stop offset="0.958333" stop-color="#811FFF"/>
</linearGradient>
<linearGradient id="paint4_linear_1_47" x1="376.539" y1="239.412" x2="376.539" y2="334.493" gradientUnits="userSpaceOnUse">
<stop stop-color="#811FFF"/>
<stop offset="1" stop-color="#BF92FD"/>
</linearGradient>
<linearGradient id="paint5_linear_1_47" x1="211.519" y1="381.42" x2="446.711" y2="381.42" gradientUnits="userSpaceOnUse">
<stop offset="0.200097" stop-color="#811FFF"/>
<stop offset="0.494792" stop-color="#C9A6FD"/>
<stop offset="0.713542" stop-color="#FBE4FF"/>
<stop offset="0.958333" stop-color="#811FFF"/>
</linearGradient>
<radialGradient id="paint6_radial_1_47" cx="0" cy="0" r="1" gradientUnits="userSpaceOnUse" gradientTransform="translate(318.143 299.015) rotate(90.069) scale(233.985 195.68)">
<stop stop-color="#A664FE"/>
<stop offset="0.146667" stop-color="#B17AFD"/>
<stop offset="0.273968" stop-color="#811FFF"/>
<stop offset="0.371212" stop-color="#C49DFD"/>
<stop offset="0.505231" stop-color="#811FFF"/>
<stop offset="0.655172" stop-color="#B785FD"/>
<stop offset="0.73507" stop-color="#811FFF"/>
<stop offset="0.844504" stop-color="#D8B8FD"/>
<stop offset="0.932267" stop-color="#5514A8"/>
</radialGradient>
<linearGradient id="paint7_linear_1_47" x1="370.845" y1="326.637" x2="378.612" y2="326.637" gradientUnits="userSpaceOnUse">
<stop offset="0.200097" stop-color="#811FFF"/>
<stop offset="0.494792" stop-color="#C9A6FD"/>
<stop offset="0.713542" stop-color="#FBE4FF"/>
<stop offset="0.958333" stop-color="#811FFF"/>
</linearGradient>
<linearGradient id="paint8_linear_1_47" x1="385.469" y1="329.502" x2="389.386" y2="329.502" gradientUnits="userSpaceOnUse">
<stop offset="0.200097" stop-color="#811FFF"/>
<stop offset="0.494792" stop-color="#C9A6FD"/>
<stop offset="0.713542" stop-color="#FBE4FF"/>
<stop offset="0.958333" stop-color="#811FFF"/>
</linearGradient>
</defs>
</svg>
