<svg width="669" height="783" viewBox="0 0 669 783" fill="none" xmlns="http://www.w3.org/2000/svg">
<rect x="192.5" y="232.5" width="347" height="544" rx="173.5" stroke="#DBC1FF"/>
<rect x="159.5" y="67.5" width="347" height="544" rx="173.5" stroke="#AF76FD"/>
<g filter="url(#filter0_f_1_2)">
<path d="M339.534 129L129 260.25L129 519.36L333.843 654L540 519.36L540 260.25L339.534 129Z" fill="#212358"/>
</g>
<path d="M303.5 207.113L303.5 259.299C303.5 259.456 303.427 259.604 303.301 259.698L238.544 308.643C238.366 308.778 238.121 308.778 237.942 308.644L172.7 259.693C172.574 259.598 172.5 259.45 172.5 259.293L172.5 207.12C172.5 206.968 172.569 206.824 172.687 206.73L237.93 154.459C238.113 154.313 238.374 154.313 238.556 154.46L303.314 206.724C303.432 206.819 303.5 206.962 303.5 207.113Z" fill="#211432" fill-opacity="0.53" stroke="url(#paint0_linear_1_2)" stroke-width="5"/>
<g filter="url(#filter1_f_1_2)">
<path fill-rule="evenodd" clip-rule="evenodd" d="M224.817 198.638C224.441 198.551 221.484 199.636 218.246 201.048C213.113 203.288 212.308 203.745 211.962 204.616C211.426 205.962 212.28 207.981 213.608 208.509C214.321 208.793 215.09 208.687 216.599 208.095C217.716 207.658 218.713 207.333 218.816 207.374C218.919 207.415 216.634 213.52 213.739 220.94C208.604 234.106 208.476 234.481 208.493 236.399C208.528 240.391 210.345 244.582 213.187 247.225C215.353 249.24 219.199 250.916 222.239 251.171C226.525 251.53 231.182 249.733 234.247 246.537C235.454 245.279 235.831 244.484 240.041 234.335C244.267 224.15 244.619 223.41 245.739 222.351C247.513 220.675 249.14 219.935 251.437 219.759C256.434 219.376 260.602 222.964 260.995 227.987L261.159 230.084L256.12 243.023L251.082 255.961L250.027 253.692C249.218 251.95 248.749 251.334 248.008 251.039C246.673 250.508 244.669 251.388 244.131 252.741C243.782 253.617 244.054 254.497 246.301 259.758C249.711 267.746 249.128 267.508 256.982 264.124C262.637 261.687 262.885 261.54 263.37 260.321C263.775 259.302 263.758 258.831 263.287 257.929C262.426 256.284 260.967 256.06 258.339 257.169L256.276 258.04L261.488 244.934C266.388 232.616 266.712 231.691 266.881 229.549C267.107 226.695 266.111 222.932 264.473 220.451C259.395 212.758 247.7 211.748 241.299 218.449C240.012 219.797 239.715 220.419 235.438 230.724C231.211 240.907 230.859 241.649 229.738 242.708C226.938 245.354 223.453 246.056 220.042 244.663C216.615 243.264 214.627 240.422 214.411 236.615C214.322 235.048 214.539 234.408 219.272 222.249C221.997 215.251 224.322 209.563 224.441 209.61C224.559 209.657 225.073 210.583 225.585 211.667C226.275 213.133 226.761 213.738 227.474 214.022C228.802 214.55 230.81 213.668 231.345 212.321C231.692 211.451 231.421 210.568 229.236 205.434C226.823 199.767 226.315 198.985 224.817 198.638Z" fill="#CF80FF"/>
<path d="M216.599 208.095L216.407 207.607C216.973 207.385 217.511 207.191 217.925 207.056C218.131 206.989 218.313 206.934 218.455 206.899C218.525 206.881 218.596 206.865 218.66 206.856C218.692 206.851 218.733 206.846 218.777 206.845C218.806 206.845 218.903 206.843 219.01 206.886C219.171 206.95 219.254 207.071 219.29 207.147C219.326 207.219 219.336 207.284 219.34 207.315C219.348 207.379 219.343 207.432 219.341 207.451C219.336 207.499 219.325 207.545 219.318 207.575C219.302 207.641 219.277 207.726 219.247 207.821C219.186 208.016 219.091 208.293 218.968 208.642C218.722 209.341 218.354 210.343 217.893 211.574C216.972 214.035 215.676 217.419 214.228 221.131C211.658 227.721 210.348 231.091 209.681 233.056C209.349 234.037 209.184 234.645 209.101 235.117C209.02 235.579 209.014 235.924 209.018 236.395L209.018 236.395C209.052 240.247 210.812 244.299 213.545 246.841C215.622 248.773 219.356 250.403 222.283 250.648L222.246 251.087L222.283 250.648C226.406 250.993 230.909 249.259 233.868 246.174L233.868 246.174C234.423 245.595 234.79 245.133 235.544 243.545C236.308 241.936 237.449 239.215 239.556 234.134C241.666 229.048 242.817 226.301 243.58 224.695C244.354 223.068 244.756 222.558 245.378 221.97C247.234 220.216 248.972 219.421 251.397 219.235C256.686 218.83 261.103 222.637 261.518 227.946L261.682 230.043L261.692 230.163L261.648 230.275L256.609 243.213L251.571 256.152L251.124 257.299L250.606 256.182L249.551 253.913L249.551 253.913C248.736 252.159 248.34 251.736 247.814 251.527C247.315 251.329 246.631 251.379 245.982 251.664C245.333 251.949 244.823 252.422 244.619 252.934C244.508 253.212 244.455 253.514 244.744 254.45C245.04 255.405 245.657 256.912 246.783 259.551C246.954 259.952 247.115 260.33 247.266 260.687C247.876 262.127 248.341 263.222 248.769 264.043C249.31 265.078 249.729 265.538 250.174 265.72C250.616 265.9 251.225 265.863 252.311 265.496C253.174 265.204 254.247 264.738 255.659 264.125C256.009 263.973 256.38 263.812 256.774 263.642C259.62 262.416 261.054 261.786 261.846 261.315C262.231 261.085 262.427 260.914 262.553 260.758C262.68 260.6 262.763 260.426 262.882 260.127C263.076 259.637 263.141 259.347 263.132 259.099C263.124 258.857 263.043 258.597 262.821 258.172L263.287 257.929L262.821 258.172C262.451 257.465 261.998 257.128 261.396 257.035C260.742 256.935 259.832 257.109 258.543 257.653C258.543 257.653 258.543 257.653 258.543 257.653L256.48 258.523L255.325 259.011L255.788 257.846L261.001 244.74C265.919 232.374 266.196 231.549 266.358 229.508M216.599 208.095L266.358 229.508M216.599 208.095L216.407 207.607C214.907 208.194 214.311 208.224 213.802 208.022C213.307 207.825 212.846 207.319 212.57 206.665C212.294 206.012 212.247 205.319 212.45 204.81C212.56 204.534 212.729 204.278 213.568 203.802C214.425 203.316 215.881 202.653 218.456 201.529M216.599 208.095L218.456 201.529M266.358 229.508C266.574 226.775 265.611 223.127 264.035 220.74L264.035 220.74C259.144 213.332 247.849 212.352 241.679 218.812C241.079 219.44 240.713 219.885 239.963 221.454C239.201 223.05 238.064 225.766 235.923 230.925M266.358 229.508L235.923 230.925M235.923 230.925C233.812 236.01 232.661 238.757 231.897 240.363M235.923 230.925L231.897 240.363M218.456 201.529C220.068 200.826 221.607 200.206 222.786 199.774M218.456 201.529L222.786 199.774M222.786 199.774C223.376 199.557 223.87 199.39 224.235 199.283C224.418 199.229 224.56 199.193 224.66 199.174C224.698 199.166 224.725 199.162 224.744 199.16C225.057 199.236 225.286 199.327 225.496 199.477C225.72 199.637 225.957 199.886 226.243 200.327C226.829 201.227 227.54 202.791 228.752 205.639C229.849 208.215 230.45 209.691 230.738 210.63C231.019 211.549 230.967 211.851 230.857 212.127C230.655 212.636 230.145 213.109 229.496 213.394C228.846 213.679 228.163 213.731 227.668 213.534C227.159 213.331 226.746 212.901 226.06 211.444L225.629 211.647M222.786 199.774L225.629 211.647M225.629 211.647L226.06 211.444C225.8 210.893 225.538 210.38 225.324 209.994C225.218 209.803 225.119 209.636 225.035 209.509C224.994 209.447 224.951 209.385 224.907 209.333C224.886 209.307 224.858 209.275 224.824 209.244C224.799 209.22 224.733 209.161 224.635 209.122C224.371 209.017 224.165 209.158 224.132 209.182C224.072 209.224 224.034 209.269 224.019 209.287C223.984 209.329 223.957 209.373 223.941 209.399C223.906 209.459 223.866 209.537 223.824 209.622C223.739 209.797 223.624 210.051 223.485 210.371C223.205 211.012 222.817 211.942 222.348 213.089C221.41 215.383 220.146 218.558 218.783 222.059C216.419 228.132 215.176 231.346 214.536 233.236M225.629 211.647L214.536 233.236M230.099 243.089C227.157 245.869 223.456 246.625 219.843 245.149C216.222 243.67 214.114 240.646 213.887 236.644L230.099 243.089ZM230.099 243.089C230.721 242.501 231.124 241.99 231.897 240.363M230.099 243.089L231.897 240.363M214.536 233.236C214.216 234.181 214.039 234.818 213.95 235.329M214.536 233.236L213.95 235.329M213.95 235.329C213.859 235.853 213.864 236.23 213.887 236.644L213.95 235.329ZM224.848 209.929C224.848 209.929 224.848 209.93 224.847 209.931L224.848 209.929ZM224.769 199.158C224.769 199.158 224.767 199.158 224.764 199.158C224.768 199.158 224.769 199.158 224.769 199.158Z" stroke="white" stroke-width="1.05001"/>
</g>
<path d="M216.58 208.048L216.407 207.607C216.973 207.385 217.511 207.191 217.925 207.056C218.131 206.989 218.313 206.934 218.455 206.899C218.525 206.881 218.596 206.865 218.66 206.856C218.692 206.851 218.733 206.846 218.777 206.845C218.806 206.845 218.903 206.843 219.01 206.886C219.171 206.95 219.254 207.071 219.29 207.147C219.326 207.219 219.336 207.284 219.34 207.315C219.348 207.379 219.343 207.432 219.341 207.451C219.336 207.499 219.325 207.545 219.318 207.575C219.302 207.641 219.277 207.726 219.247 207.821C219.186 208.016 219.091 208.293 218.968 208.642C218.722 209.341 218.354 210.343 217.893 211.574C216.972 214.035 215.676 217.419 214.228 221.131C211.658 227.721 210.348 231.091 209.681 233.056C209.349 234.037 209.184 234.645 209.101 235.117C209.02 235.579 209.014 235.924 209.018 236.395L209.018 236.395C209.052 240.247 210.812 244.299 213.545 246.841C215.622 248.773 219.356 250.403 222.283 250.648C226.406 250.993 230.909 249.259 233.868 246.174L233.868 246.174C234.423 245.595 234.79 245.133 235.544 243.545C236.308 241.936 237.449 239.215 239.556 234.134C241.666 229.048 242.817 226.301 243.58 224.695C244.354 223.068 244.756 222.558 245.378 221.97C247.234 220.216 248.972 219.421 251.397 219.235L251.437 219.759L251.397 219.235C256.686 218.83 261.103 222.637 261.518 227.946L261.053 227.983L261.518 227.946L261.682 230.043L261.692 230.163L261.648 230.275L256.609 243.213L251.571 256.152L251.124 257.299L250.606 256.182L249.551 253.913L249.551 253.913C248.736 252.159 248.34 251.736 247.814 251.527C247.315 251.329 246.631 251.379 245.982 251.664C245.333 251.949 244.823 252.422 244.619 252.934C244.508 253.212 244.455 253.514 244.744 254.45C245.04 255.405 245.657 256.912 246.783 259.551C246.954 259.952 247.115 260.33 247.266 260.687C247.876 262.127 248.341 263.222 248.769 264.043C249.31 265.078 249.729 265.538 250.174 265.72C250.616 265.9 251.225 265.863 252.311 265.496C253.174 265.204 254.247 264.738 255.659 264.125C256.009 263.973 256.38 263.812 256.774 263.642C259.62 262.416 261.054 261.786 261.846 261.315C262.231 261.085 262.427 260.914 262.553 260.758C262.68 260.6 262.763 260.426 262.882 260.127C263.076 259.637 263.141 259.347 263.132 259.099C263.124 258.857 263.043 258.597 262.821 258.172L263.287 257.929L262.821 258.172C262.451 257.465 261.998 257.128 261.396 257.035C260.742 256.935 259.832 257.109 258.543 257.653L256.48 258.523L255.325 259.011L255.788 257.846L261.001 244.74C265.919 232.374 266.196 231.549 266.358 229.508M216.58 208.048L213.887 236.644C214.114 240.646 216.222 243.67 219.843 245.149C223.456 246.625 227.157 245.869 230.099 243.089C230.721 242.501 231.124 241.99 231.897 240.363C232.661 238.757 233.812 236.01 235.923 230.925C238.064 225.766 239.201 223.05 239.963 221.454C240.713 219.885 241.079 219.44 241.679 218.812C247.849 212.352 259.144 213.332 264.035 220.74L264.035 220.74C265.611 223.127 266.574 226.775 266.358 229.508M216.58 208.048L216.407 207.607C214.907 208.194 214.311 208.224 213.802 208.022C213.307 207.825 212.846 207.319 212.57 206.665C212.294 206.012 212.247 205.319 212.45 204.81C212.56 204.534 212.729 204.278 213.568 203.802C214.425 203.316 215.881 202.653 218.456 201.529M216.58 208.048L225.636 211.643M266.358 229.508L266.881 229.549M266.358 229.508C266.358 229.508 266.358 229.508 266.358 229.508L266.881 229.549M266.881 229.549C266.712 231.691 266.388 232.616 261.488 244.934L256.548 257.355M266.881 229.549L256.548 257.355M256.548 257.355L256.072 257.556L256.276 258.04L256.764 258.234L256.955 257.753L256.548 257.355ZM225.636 211.643L226.06 211.444C226.746 212.901 227.159 213.331 227.668 213.534C228.163 213.731 228.846 213.679 229.496 213.394C230.145 213.109 230.655 212.636 230.857 212.127C230.967 211.851 231.019 211.549 230.738 210.63C230.45 209.691 229.849 208.215 228.752 205.639C227.54 202.791 226.829 201.227 226.243 200.327C225.957 199.886 225.72 199.637 225.496 199.477C225.286 199.327 225.057 199.236 224.744 199.16C224.725 199.162 224.698 199.166 224.66 199.174C224.56 199.193 224.418 199.229 224.235 199.283C223.87 199.39 223.376 199.557 222.786 199.774C221.607 200.206 220.068 200.826 218.456 201.529M225.636 211.643L226.06 211.444C225.8 210.893 225.538 210.38 225.324 209.994C225.218 209.803 225.119 209.636 225.035 209.509C224.994 209.447 224.951 209.385 224.907 209.333C224.886 209.307 224.858 209.275 224.824 209.244C224.799 209.22 224.733 209.161 224.635 209.122C224.371 209.017 224.165 209.158 224.132 209.182C224.072 209.224 224.034 209.269 224.019 209.287C223.984 209.329 223.957 209.373 223.941 209.399C223.906 209.459 223.866 209.537 223.824 209.622C223.739 209.797 223.624 210.051 223.485 210.371C223.205 211.012 222.817 211.942 222.348 213.089C221.41 215.383 220.146 218.558 218.783 222.059C216.419 228.132 215.176 231.346 214.536 233.236M225.636 211.643L214.536 233.236M218.456 201.529L218.249 201.055L218.456 201.529ZM214.536 233.236C214.216 234.181 214.039 234.818 213.95 235.329M214.536 233.236L213.95 235.329M213.95 235.329C213.859 235.853 213.864 236.23 213.887 236.644L213.95 235.329ZM224.769 199.158C224.769 199.158 224.767 199.158 224.764 199.158C224.768 199.158 224.769 199.158 224.769 199.158Z" fill="#C3ADDE" stroke="white" stroke-width="1.05001"/>
<path d="M486.5 355.113L486.5 407.299C486.5 407.456 486.427 407.604 486.301 407.698L421.544 456.643C421.366 456.778 421.121 456.778 420.942 456.644L355.7 407.693C355.574 407.598 355.5 407.45 355.5 407.293L355.5 355.12C355.5 354.968 355.569 354.824 355.687 354.73L420.93 302.459C421.113 302.313 421.374 302.313 421.556 302.46L486.314 354.724C486.432 354.819 486.5 354.962 486.5 355.113Z" fill="#211432" fill-opacity="0.53" stroke="url(#paint1_linear_1_2)" stroke-width="5"/>
<g filter="url(#filter2_f_1_2)">
<path fill-rule="evenodd" clip-rule="evenodd" d="M387.933 349.648C387.294 350.554 386.096 351.722 385.271 352.243C384.446 352.763 383.771 353.246 383.771 353.316C383.771 353.385 384.5 353.903 385.391 354.466C386.282 355.029 387.484 356.238 388.063 357.153L389.114 358.816L389.681 357.976C390.507 356.753 392.697 354.545 393.748 353.874L394.659 353.294L393.071 352.243C392.198 351.665 390.989 350.474 390.385 349.596C389.781 348.718 389.243 348 389.19 348C389.138 348 388.572 348.741 387.933 349.648ZM415.227 353.601C406.473 354.5 399.9 357.608 397.866 361.807C397.112 363.364 397.094 363.878 397.102 382.802C397.111 404.882 396.979 403.88 400.253 406.761C402.534 408.769 405.75 410.297 409.903 411.348C412.783 412.077 414.133 412.18 420.778 412.18C427.422 412.18 428.772 412.077 431.652 411.348C435.806 410.297 439.021 408.769 441.303 406.761C444.572 403.884 444.445 404.838 444.452 383.148C444.455 371.481 444.314 363.575 444.086 362.754C442.788 358.082 435.6 354.498 425.634 353.553C421.206 353.133 419.715 353.14 415.227 353.601ZM429.837 362.217C432.491 362.957 436.321 364.631 436.321 365.051C436.321 365.598 433.943 367.153 432.232 367.726C427.986 369.147 419.495 369.62 414.45 368.718C410.031 367.927 405.235 365.998 405.235 365.012C405.235 364.349 410.938 362.299 414.857 361.554C417.035 361.14 427.662 361.61 429.837 362.217ZM408.369 375.262C414.411 377.363 427.145 377.363 433.186 375.262C433.994 374.981 435.113 374.639 435.673 374.503C436.633 374.268 436.691 374.326 436.691 375.518C436.691 376.506 436.399 377.037 435.354 377.954C433.581 379.511 433.138 379.652 427.84 380.339C421.849 381.116 417.528 381.083 413.112 380.224C406.756 378.989 404.865 377.909 404.865 375.515C404.865 374.326 404.923 374.268 405.883 374.503C406.442 374.639 407.561 374.981 408.369 375.262ZM408.369 387.101C414.748 389.319 427.082 389.203 433.881 386.861C435.083 386.447 436.207 386.108 436.379 386.108C436.55 386.108 436.691 386.688 436.691 387.398C436.691 388.511 436.474 388.828 435.118 389.7C431.788 391.843 427.216 392.825 420.593 392.82C411.331 392.815 404.865 390.577 404.865 387.377C404.865 386.163 404.92 386.107 405.883 386.342C406.442 386.479 407.561 386.82 408.369 387.101ZM408.369 398.941C414.748 401.159 427.082 401.042 433.881 398.7C435.083 398.286 436.207 397.947 436.379 397.947C436.55 397.947 436.691 398.501 436.691 399.177C436.691 400.439 435.862 401.493 434.197 402.351C430.789 404.108 421.167 405.066 415.154 404.249C408.229 403.307 404.865 401.657 404.865 399.202C404.865 398.004 404.922 397.947 405.883 398.181C406.442 398.318 407.561 398.659 408.369 398.941ZM451.194 408.759C450.577 409.656 449.374 410.851 448.521 411.415C447.668 411.979 447.113 412.561 447.289 412.706C447.464 412.853 448.238 413.434 449.009 413.998C449.78 414.563 450.834 415.694 451.351 416.512L452.29 418L453.433 416.358C454.061 415.456 455.314 414.203 456.217 413.575L457.859 412.432L456.371 411.493C455.553 410.977 454.421 409.923 453.856 409.153C453.292 408.382 452.714 407.611 452.572 407.44C452.431 407.27 451.81 407.863 451.194 408.759Z" fill="#C3ADDE"/>
<path d="M409.912 411.315L410.038 410.814C412.847 411.525 414.137 411.63 420.778 411.63C427.419 411.63 428.709 411.525 431.517 410.814C435.619 409.776 438.744 408.279 440.939 406.348C441.067 406.235 441.188 406.129 441.303 406.03C441.947 405.468 442.381 405.09 442.719 404.597C443.099 404.042 443.372 403.309 443.555 401.936C443.899 399.354 443.9 394.758 443.901 385.436C443.901 384.703 443.901 383.941 443.901 383.148C443.903 377.316 443.868 372.426 443.805 368.893C443.773 367.126 443.735 365.702 443.69 364.67C443.667 364.153 443.643 363.739 443.618 363.431C443.606 363.277 443.593 363.154 443.581 363.06C443.575 363.013 443.57 362.975 443.565 362.947C443.562 362.933 443.56 362.922 443.558 362.914L443.556 362.904L443.555 362.902L443.555 362.901L443.555 362.901L409.912 411.315ZM409.912 411.315L410.038 410.814C405.937 409.776 402.811 408.279 400.616 406.348C400.483 406.23 400.358 406.121 400.239 406.018C399.601 405.462 399.171 405.088 398.835 404.597C398.455 404.04 398.182 403.301 397.999 401.909C397.656 399.299 397.655 394.645 397.653 385.207C397.653 384.438 397.653 383.637 397.652 382.802C397.648 373.333 397.651 368.487 397.749 365.812C397.797 364.472 397.869 363.706 397.968 363.186C398.063 362.689 398.184 362.414 398.362 362.047C399.303 360.104 401.33 358.35 404.262 356.964M409.912 411.315L404.262 356.964M404.262 356.964C407.184 355.583 410.952 354.594 415.283 354.149M404.262 356.964L415.283 354.149M415.283 354.149C419.736 353.691 421.19 353.685 425.582 354.101C430.518 354.569 434.736 355.689 437.864 357.248M415.283 354.149L437.864 357.248M437.864 357.248C441.008 358.816 442.967 360.783 443.555 362.901L437.864 357.248ZM388.383 349.965L388.383 349.965C388.684 349.537 388.968 349.149 389.186 348.861C389.391 349.137 389.654 349.505 389.931 349.908L389.931 349.908C390.575 350.843 391.834 352.085 392.767 352.702C392.767 352.702 392.767 352.702 392.767 352.702L393.648 353.285L393.452 353.41L393.452 353.41C392.872 353.78 392.025 354.537 391.239 355.33C390.448 356.127 389.666 357.014 389.224 357.668C389.224 357.668 389.224 357.668 389.224 357.668L389.129 357.809L388.528 356.859L388.528 356.859C387.907 355.877 386.647 354.609 385.685 354.001C385.286 353.749 384.923 353.507 384.647 353.314C384.896 353.141 385.215 352.929 385.565 352.708L385.565 352.708C386.459 352.144 387.708 350.923 388.383 349.965ZM429.985 361.686L429.985 361.686C429.386 361.519 428.265 361.373 426.936 361.251C425.589 361.127 423.98 361.024 422.373 360.953C420.766 360.882 419.156 360.842 417.809 360.847C416.479 360.852 415.356 360.899 414.754 361.013L414.754 361.013C412.76 361.392 410.326 362.1 408.39 362.796C407.423 363.143 406.565 363.493 405.942 363.804C405.633 363.958 405.362 364.112 405.16 364.261C405.061 364.335 404.958 364.421 404.876 364.521C404.802 364.61 404.684 364.781 404.684 365.012C404.684 365.35 404.88 365.62 405.049 365.799C405.232 365.995 405.479 366.182 405.757 366.36C406.316 366.718 407.089 367.091 407.98 367.449C409.767 368.167 412.107 368.858 414.353 369.26C416.932 369.721 420.363 369.827 423.672 369.643C426.976 369.459 430.217 368.981 432.407 368.248C433.319 367.943 434.384 367.386 435.219 366.839C435.638 366.566 436.016 366.283 436.297 366.022C436.436 365.893 436.565 365.757 436.664 365.619C436.749 365.498 436.871 365.296 436.871 365.051C436.871 364.831 436.756 364.675 436.705 364.612C436.641 364.532 436.564 364.464 436.494 364.408C436.351 364.294 436.162 364.175 435.953 364.056C435.529 363.815 434.947 363.535 434.294 363.249C432.988 362.678 431.342 362.065 429.985 361.686ZM435.542 373.968L435.542 373.968C434.96 374.11 433.823 374.458 433.005 374.742C430.07 375.763 425.448 376.287 420.778 376.287C416.107 376.287 411.485 375.763 408.55 374.742C407.732 374.458 406.596 374.11 406.013 373.968L406.013 373.968C405.781 373.911 405.551 373.858 405.354 373.845C405.154 373.833 404.859 373.852 404.625 374.085C404.418 374.291 404.365 374.567 404.342 374.756C404.317 374.964 404.314 375.223 404.314 375.515C404.314 376.189 404.448 376.81 404.789 377.372C405.127 377.931 405.642 378.388 406.332 378.782C407.688 379.556 409.834 380.148 413.007 380.765C417.497 381.637 421.88 381.667 427.911 380.885C430.54 380.544 432.033 380.332 433.085 379.998C434.19 379.647 434.814 379.161 435.718 378.368C436.253 377.899 436.646 377.485 436.897 377.028C437.158 376.551 437.241 376.073 437.241 375.518C437.241 375.225 437.238 374.965 437.213 374.757C437.19 374.568 437.138 374.292 436.931 374.085C436.697 373.852 436.402 373.833 436.202 373.845C436.005 373.858 435.774 373.911 435.542 373.968ZM433.701 386.34L433.701 386.34C430.379 387.485 425.661 388.096 420.962 388.14C416.261 388.185 411.654 387.661 408.55 386.581C407.732 386.297 406.596 385.949 406.013 385.807L406.013 385.807C405.781 385.75 405.55 385.697 405.352 385.684C405.151 385.672 404.854 385.693 404.62 385.93C404.416 386.138 404.364 386.415 404.342 386.606C404.317 386.815 404.314 387.079 404.314 387.377C404.314 388.382 404.827 389.261 405.656 389.99C406.481 390.714 407.651 391.324 409.076 391.817C411.928 392.804 415.926 393.368 420.592 393.371C427.258 393.376 431.956 392.39 435.416 390.163C436.083 389.734 436.572 389.382 436.868 388.95C437.189 388.48 437.241 387.981 437.241 387.398C437.241 387.012 437.204 386.644 437.134 386.357C437.1 386.218 437.052 386.067 436.978 385.937C436.93 385.851 436.748 385.557 436.379 385.557C436.296 385.557 436.21 385.574 436.162 385.583C436.099 385.596 436.026 385.614 435.948 385.634C435.789 385.675 435.587 385.732 435.357 385.802C434.896 385.941 434.308 386.131 433.701 386.34ZM433.701 398.179L433.701 398.179C430.379 399.324 425.661 399.935 420.962 399.98C416.261 400.024 411.654 399.5 408.55 398.421C407.732 398.136 406.596 397.789 406.013 397.646L406.013 397.646C405.781 397.59 405.55 397.536 405.353 397.524C405.153 397.511 404.857 397.531 404.623 397.766C404.417 397.973 404.365 398.249 404.342 398.439C404.317 398.647 404.314 398.908 404.314 399.202C404.314 400.741 405.387 401.913 407.17 402.787C408.957 403.664 411.6 404.321 415.08 404.794C418.142 405.211 422.096 405.173 425.707 404.813C429.296 404.456 432.645 403.77 434.449 402.841L434.225 402.405L434.449 402.841C436.199 401.939 437.241 400.737 437.241 399.177C437.241 398.807 437.203 398.452 437.133 398.173C437.098 398.038 437.049 397.89 436.973 397.762C436.918 397.671 436.735 397.396 436.379 397.396C436.296 397.396 436.21 397.413 436.162 397.423C436.099 397.435 436.026 397.453 435.948 397.473C435.789 397.514 435.587 397.572 435.357 397.641C434.896 397.78 434.308 397.97 433.701 398.179ZM448.825 411.874L448.825 411.874C449.74 411.268 450.993 410.022 451.647 409.071L451.194 408.759L451.647 409.071C451.927 408.664 452.199 408.336 452.409 408.129C452.657 408.456 453.034 408.962 453.412 409.478L453.412 409.478C454.018 410.305 455.201 411.406 456.077 411.959L456.077 411.959L456.863 412.455L455.902 413.123C454.946 413.788 453.646 415.088 452.981 416.044L452.312 417.004L451.816 416.218L451.816 416.218C451.263 415.343 450.162 414.16 449.335 413.554L449.335 413.554C448.814 413.173 448.302 412.791 447.973 412.541C448.164 412.354 448.458 412.117 448.825 411.874ZM452.148 407.791L452.148 407.792L452.148 407.791ZM447.641 412.283C447.641 412.283 447.641 412.283 447.642 412.284C447.641 412.284 447.641 412.283 447.641 412.283L447.641 412.283Z" stroke="white" stroke-width="1.10124"/>
</g>
<path d="M409.912 411.315L410.038 410.814C412.847 411.525 414.137 411.63 420.778 411.63C427.419 411.63 428.709 411.525 431.517 410.814C435.619 409.776 438.744 408.279 440.939 406.348C441.067 406.235 441.188 406.129 441.303 406.03C441.947 405.468 442.381 405.09 442.719 404.597C443.099 404.042 443.372 403.309 443.555 401.936C443.899 399.354 443.9 394.758 443.901 385.436C443.901 384.703 443.901 383.941 443.901 383.148C443.903 377.316 443.868 372.426 443.805 368.893C443.773 367.126 443.735 365.702 443.69 364.67C443.667 364.153 443.643 363.739 443.618 363.431C443.606 363.277 443.593 363.154 443.581 363.06C443.575 363.013 443.57 362.975 443.565 362.947C443.562 362.933 443.56 362.922 443.558 362.914L443.556 362.904L443.555 362.902L443.555 362.901L443.555 362.901L409.912 411.315ZM409.912 411.315L410.038 410.814C405.937 409.776 402.811 408.279 400.616 406.348C400.483 406.23 400.358 406.121 400.239 406.018C399.601 405.462 399.171 405.088 398.835 404.597C398.455 404.04 398.182 403.301 397.999 401.909C397.656 399.299 397.655 394.645 397.653 385.207C397.653 384.438 397.653 383.637 397.652 382.802C397.648 373.333 397.651 368.487 397.749 365.812C397.797 364.472 397.869 363.706 397.968 363.186C398.063 362.689 398.184 362.414 398.362 362.047C399.303 360.104 401.33 358.35 404.262 356.964M409.912 411.315L404.262 356.964M404.262 356.964C407.184 355.583 410.952 354.594 415.283 354.149M404.262 356.964L415.283 354.149M415.283 354.149C419.736 353.691 421.19 353.685 425.582 354.101C430.518 354.569 434.736 355.689 437.864 357.248M415.283 354.149L437.864 357.248M437.864 357.248C441.008 358.816 442.967 360.783 443.555 362.901L437.864 357.248ZM388.383 349.965L388.383 349.965C388.684 349.537 388.968 349.149 389.186 348.861C389.391 349.137 389.654 349.505 389.931 349.908L389.931 349.908C390.575 350.843 391.834 352.085 392.767 352.702C392.767 352.702 392.767 352.702 392.767 352.702L393.648 353.285L393.452 353.41L393.452 353.41C392.872 353.78 392.025 354.537 391.239 355.33C390.448 356.127 389.666 357.014 389.224 357.668C389.224 357.668 389.224 357.668 389.224 357.668L389.129 357.809L388.528 356.859L388.528 356.859C387.907 355.877 386.647 354.609 385.685 354.001C385.286 353.749 384.923 353.507 384.647 353.314C384.896 353.141 385.215 352.929 385.565 352.708L385.565 352.708C386.459 352.144 387.708 350.923 388.383 349.965ZM429.985 361.686L429.985 361.686C429.386 361.519 428.265 361.373 426.936 361.251C425.589 361.127 423.98 361.024 422.373 360.953C420.766 360.882 419.156 360.842 417.809 360.847C416.479 360.852 415.356 360.899 414.754 361.013L414.754 361.013C412.76 361.392 410.326 362.1 408.39 362.796C407.423 363.143 406.565 363.493 405.942 363.804C405.633 363.958 405.362 364.112 405.16 364.261C405.061 364.335 404.958 364.421 404.876 364.521C404.802 364.61 404.684 364.781 404.684 365.012C404.684 365.35 404.88 365.62 405.049 365.799C405.232 365.995 405.479 366.182 405.757 366.36C406.316 366.718 407.089 367.091 407.98 367.449C409.767 368.167 412.107 368.858 414.353 369.26C416.932 369.721 420.363 369.827 423.672 369.643C426.976 369.459 430.217 368.981 432.407 368.248C433.319 367.943 434.384 367.386 435.219 366.839C435.638 366.566 436.016 366.283 436.297 366.022C436.436 365.893 436.565 365.757 436.664 365.619C436.749 365.498 436.871 365.296 436.871 365.051C436.871 364.831 436.756 364.675 436.705 364.612C436.641 364.532 436.564 364.464 436.494 364.408C436.351 364.294 436.162 364.175 435.953 364.056C435.529 363.815 434.947 363.535 434.294 363.249C432.988 362.678 431.342 362.065 429.985 361.686ZM435.542 373.968L435.542 373.968C434.96 374.11 433.823 374.458 433.005 374.742C430.07 375.763 425.448 376.287 420.778 376.287C416.107 376.287 411.485 375.763 408.55 374.742C407.732 374.458 406.596 374.11 406.013 373.968L406.013 373.968C405.781 373.911 405.551 373.858 405.354 373.845C405.154 373.833 404.859 373.852 404.625 374.085C404.418 374.291 404.365 374.567 404.342 374.756C404.317 374.964 404.314 375.223 404.314 375.515C404.314 376.189 404.448 376.81 404.789 377.372C405.127 377.931 405.642 378.388 406.332 378.782C407.688 379.556 409.834 380.148 413.007 380.765C417.497 381.637 421.88 381.667 427.911 380.885C430.54 380.544 432.033 380.332 433.085 379.998C434.19 379.647 434.814 379.161 435.718 378.368C436.253 377.899 436.646 377.485 436.897 377.028C437.158 376.551 437.241 376.073 437.241 375.518C437.241 375.225 437.238 374.965 437.213 374.757C437.19 374.568 437.138 374.292 436.931 374.085C436.697 373.852 436.402 373.833 436.202 373.845C436.005 373.858 435.774 373.911 435.542 373.968ZM433.701 386.34L433.701 386.34C430.379 387.485 425.661 388.096 420.962 388.14C416.261 388.185 411.654 387.661 408.55 386.581C407.732 386.297 406.596 385.949 406.013 385.807L406.013 385.807C405.781 385.75 405.55 385.697 405.352 385.684C405.151 385.672 404.854 385.693 404.62 385.93C404.416 386.138 404.364 386.415 404.342 386.606C404.317 386.815 404.314 387.079 404.314 387.377C404.314 388.382 404.827 389.261 405.656 389.99C406.481 390.714 407.651 391.324 409.076 391.817C411.928 392.804 415.926 393.368 420.592 393.371C427.258 393.376 431.956 392.39 435.416 390.163C436.083 389.734 436.572 389.382 436.868 388.95C437.189 388.48 437.241 387.981 437.241 387.398C437.241 387.012 437.204 386.644 437.134 386.357C437.1 386.218 437.052 386.067 436.978 385.937C436.93 385.851 436.748 385.557 436.379 385.557C436.296 385.557 436.21 385.574 436.162 385.583C436.099 385.596 436.026 385.614 435.948 385.634C435.789 385.675 435.587 385.732 435.357 385.802C434.896 385.941 434.308 386.131 433.701 386.34ZM433.701 398.179L433.701 398.179C430.379 399.324 425.661 399.935 420.962 399.98C416.261 400.024 411.654 399.5 408.55 398.421C407.732 398.136 406.596 397.789 406.013 397.646L406.013 397.646C405.781 397.59 405.55 397.536 405.353 397.524C405.153 397.511 404.857 397.531 404.623 397.766C404.417 397.973 404.365 398.249 404.342 398.439C404.317 398.647 404.314 398.908 404.314 399.202C404.314 400.741 405.387 401.913 407.17 402.787C408.957 403.664 411.6 404.321 415.08 404.794C418.142 405.211 422.096 405.173 425.707 404.813C429.296 404.456 432.645 403.77 434.449 402.841L434.225 402.405L434.449 402.841C436.199 401.939 437.241 400.737 437.241 399.177C437.241 398.807 437.203 398.452 437.133 398.173C437.098 398.038 437.049 397.89 436.973 397.762C436.918 397.671 436.735 397.396 436.379 397.396C436.296 397.396 436.21 397.413 436.162 397.423C436.099 397.435 436.026 397.453 435.948 397.473C435.789 397.514 435.587 397.572 435.357 397.641C434.896 397.78 434.308 397.97 433.701 398.179ZM448.825 411.874L448.825 411.874C449.74 411.268 450.993 410.022 451.647 409.071L451.194 408.759L451.647 409.071C451.927 408.664 452.199 408.336 452.409 408.129C452.657 408.456 453.034 408.962 453.412 409.478L453.412 409.478C454.018 410.305 455.201 411.406 456.077 411.959L456.077 411.959L456.863 412.455L455.902 413.123C454.946 413.788 453.646 415.088 452.981 416.044L452.312 417.004L451.816 416.218L451.816 416.218C451.263 415.343 450.162 414.16 449.335 413.554L449.335 413.554C448.814 413.173 448.302 412.791 447.973 412.541C448.164 412.354 448.458 412.117 448.825 411.874ZM452.148 407.791L452.148 407.792L452.148 407.791ZM447.641 412.283C447.641 412.283 447.641 412.283 447.642 412.284C447.641 412.284 447.641 412.283 447.641 412.283L447.641 412.283Z" fill="#C3ADDE" stroke="white" stroke-width="1.10124"/>
<path d="M315.5 507.113L315.5 559.299C315.5 559.456 315.427 559.604 315.301 559.698L250.544 608.643C250.366 608.778 250.121 608.778 249.942 608.644L184.7 559.693C184.574 559.598 184.5 559.45 184.5 559.293L184.5 507.12C184.5 506.968 184.569 506.824 184.687 506.73L249.93 454.459C250.113 454.313 250.374 454.313 250.556 454.46L315.314 506.724C315.432 506.819 315.5 506.962 315.5 507.113Z" fill="#211432" fill-opacity="0.53" stroke="url(#paint2_linear_1_2)" stroke-width="5"/>
<g filter="url(#filter3_f_1_2)">
<mask id="path-13-inside-1_1_2" fill="white">
<path fill-rule="evenodd" clip-rule="evenodd" d="M246.237 497.05C244.173 497.21 241.252 497.732 239.251 498.298C232.463 500.219 226.558 503.963 221.835 509.343C217.143 514.689 214.229 521.158 213.245 528.418C212.981 530.363 212.918 534.306 213.118 536.323C213.838 543.584 216.418 549.907 221.009 555.662C222.161 557.106 224.928 559.864 226.411 561.045C231.127 564.803 236.372 567.235 242.202 568.368C246.451 569.194 251.44 569.196 255.763 568.376C260.997 567.382 266.196 565.093 270.47 561.9C277.736 556.472 282.726 548.534 284.394 539.752C285.091 536.082 285.199 531.941 284.698 528.123C283.859 521.738 281.226 515.628 277.062 510.407C275.855 508.893 273.114 506.152 271.589 504.932C270.305 503.906 267.912 502.282 266.602 501.549C262.252 499.113 257.463 497.622 252.387 497.122C251.161 497.001 247.429 496.957 246.237 497.05ZM251.018 500.189C260.212 500.635 269.155 505.341 274.934 512.775C278.792 517.738 281.079 523.472 281.72 529.789C281.871 531.27 281.891 534.286 281.76 535.797C281.362 540.411 279.884 545.215 277.659 549.128C274.703 554.327 270.342 558.687 265.141 561.643C261.887 563.492 257.771 564.91 254.002 565.479C252.269 565.741 250.939 565.833 248.912 565.832C234.097 565.826 221.171 555.936 217.251 541.608C216.105 537.418 215.825 532.648 216.462 528.167C217.937 517.791 224.574 508.527 233.955 503.751C237.524 501.934 240.985 500.859 244.877 500.36C245.886 500.231 249.072 500.068 249.658 500.116C249.779 500.125 250.391 500.158 251.018 500.189ZM265.229 512.697C259.717 513.114 254.435 515.172 249.526 518.815C247.738 520.142 246.342 521.401 243.701 524.067L241.074 526.72L240.388 526.721C240.01 526.721 239.228 526.762 238.649 526.812C234.202 527.192 230.772 528.538 227.465 531.198C226.959 531.605 225.597 532.874 224.439 534.018L222.332 536.098L229.372 536.101C233.244 536.102 236.412 536.133 236.412 536.168C236.412 536.203 236.067 537.269 235.645 538.537L234.878 540.841L238.003 543.965L241.127 547.088L243.403 546.332C244.654 545.916 245.725 545.576 245.782 545.576C245.861 545.576 245.886 547.251 245.887 552.57L245.889 559.564L248.15 557.284C249.394 556.03 250.671 554.668 250.987 554.258C253.754 550.674 255.019 547.052 255.244 542.069C255.299 540.839 255.308 540.793 255.527 540.622C256.637 539.755 259.568 536.773 261.434 534.613C263.896 531.764 265.962 528.536 267.246 525.535C268.194 523.318 268.887 520.914 269.219 518.695C269.428 517.292 269.539 514.714 269.444 513.455L269.38 512.6L267.787 512.612C266.911 512.619 265.76 512.657 265.229 512.697ZM266.285 516.568C265.875 522.145 263.285 527.747 258.712 532.947C257.055 534.83 254.414 537.465 253.284 538.364L252.114 539.292L252.114 540.726C252.114 544.801 251.278 548.118 249.578 550.788C249.334 551.171 249.104 551.514 249.067 551.551C249.03 551.588 249.01 549.272 249.023 546.405C249.035 543.537 249.016 541.191 248.979 541.191C248.942 541.191 247.358 541.709 245.458 542.342L242.005 543.493L240.249 541.737L238.493 539.982L239.646 536.53C240.28 534.632 240.798 533.049 240.798 533.013C240.798 532.977 238.459 532.938 235.6 532.925L230.403 532.903L231.061 532.479C233.817 530.704 237.016 529.881 241.165 529.878L242.541 529.877L243.676 528.627C245.201 526.949 248.688 523.524 249.862 522.551C254.46 518.742 259.637 516.422 264.615 515.937C265.146 515.886 265.698 515.83 265.843 515.813C265.988 515.797 266.16 515.777 266.225 515.77C266.322 515.759 266.333 515.911 266.285 516.568ZM254.547 523.653C252.59 524.145 251.577 526.289 252.458 528.077C253.147 529.476 254.674 530.156 256.134 529.712C256.883 529.485 257.401 529.107 257.837 528.47C258.689 527.223 258.549 525.599 257.497 524.548C257.24 524.291 256.821 523.985 256.565 523.868C256.037 523.626 255.065 523.522 254.547 523.653ZM232.135 544.327C229.877 546.588 228.615 549.614 228.606 552.789C228.605 553.21 228.63 553.294 228.758 553.298C228.842 553.301 229.075 553.323 229.275 553.349C229.788 553.415 231.501 553.231 232.322 553.022C234.397 552.493 236.205 551.422 237.718 549.824L238.444 549.056L237.796 548.408L237.148 547.761L236.481 548.077C235.581 548.505 234.151 548.754 233.539 548.59C233.358 548.542 233.341 548.486 233.341 547.924C233.341 547.16 233.523 546.432 233.932 545.55L234.25 544.866L233.645 544.256C233.311 543.921 232.989 543.646 232.927 543.646C232.865 543.646 232.509 543.953 232.135 544.327Z"/>
</mask>
<path fill-rule="evenodd" clip-rule="evenodd" d="M246.237 497.05C244.173 497.21 241.252 497.732 239.251 498.298C232.463 500.219 226.558 503.963 221.835 509.343C217.143 514.689 214.229 521.158 213.245 528.418C212.981 530.363 212.918 534.306 213.118 536.323C213.838 543.584 216.418 549.907 221.009 555.662C222.161 557.106 224.928 559.864 226.411 561.045C231.127 564.803 236.372 567.235 242.202 568.368C246.451 569.194 251.44 569.196 255.763 568.376C260.997 567.382 266.196 565.093 270.47 561.9C277.736 556.472 282.726 548.534 284.394 539.752C285.091 536.082 285.199 531.941 284.698 528.123C283.859 521.738 281.226 515.628 277.062 510.407C275.855 508.893 273.114 506.152 271.589 504.932C270.305 503.906 267.912 502.282 266.602 501.549C262.252 499.113 257.463 497.622 252.387 497.122C251.161 497.001 247.429 496.957 246.237 497.05ZM251.018 500.189C260.212 500.635 269.155 505.341 274.934 512.775C278.792 517.738 281.079 523.472 281.72 529.789C281.871 531.27 281.891 534.286 281.76 535.797C281.362 540.411 279.884 545.215 277.659 549.128C274.703 554.327 270.342 558.687 265.141 561.643C261.887 563.492 257.771 564.91 254.002 565.479C252.269 565.741 250.939 565.833 248.912 565.832C234.097 565.826 221.171 555.936 217.251 541.608C216.105 537.418 215.825 532.648 216.462 528.167C217.937 517.791 224.574 508.527 233.955 503.751C237.524 501.934 240.985 500.859 244.877 500.36C245.886 500.231 249.072 500.068 249.658 500.116C249.779 500.125 250.391 500.158 251.018 500.189ZM265.229 512.697C259.717 513.114 254.435 515.172 249.526 518.815C247.738 520.142 246.342 521.401 243.701 524.067L241.074 526.72L240.388 526.721C240.01 526.721 239.228 526.762 238.649 526.812C234.202 527.192 230.772 528.538 227.465 531.198C226.959 531.605 225.597 532.874 224.439 534.018L222.332 536.098L229.372 536.101C233.244 536.102 236.412 536.133 236.412 536.168C236.412 536.203 236.067 537.269 235.645 538.537L234.878 540.841L238.003 543.965L241.127 547.088L243.403 546.332C244.654 545.916 245.725 545.576 245.782 545.576C245.861 545.576 245.886 547.251 245.887 552.57L245.889 559.564L248.15 557.284C249.394 556.03 250.671 554.668 250.987 554.258C253.754 550.674 255.019 547.052 255.244 542.069C255.299 540.839 255.308 540.793 255.527 540.622C256.637 539.755 259.568 536.773 261.434 534.613C263.896 531.764 265.962 528.536 267.246 525.535C268.194 523.318 268.887 520.914 269.219 518.695C269.428 517.292 269.539 514.714 269.444 513.455L269.38 512.6L267.787 512.612C266.911 512.619 265.76 512.657 265.229 512.697ZM266.285 516.568C265.875 522.145 263.285 527.747 258.712 532.947C257.055 534.83 254.414 537.465 253.284 538.364L252.114 539.292L252.114 540.726C252.114 544.801 251.278 548.118 249.578 550.788C249.334 551.171 249.104 551.514 249.067 551.551C249.03 551.588 249.01 549.272 249.023 546.405C249.035 543.537 249.016 541.191 248.979 541.191C248.942 541.191 247.358 541.709 245.458 542.342L242.005 543.493L240.249 541.737L238.493 539.982L239.646 536.53C240.28 534.632 240.798 533.049 240.798 533.013C240.798 532.977 238.459 532.938 235.6 532.925L230.403 532.903L231.061 532.479C233.817 530.704 237.016 529.881 241.165 529.878L242.541 529.877L243.676 528.627C245.201 526.949 248.688 523.524 249.862 522.551C254.46 518.742 259.637 516.422 264.615 515.937C265.146 515.886 265.698 515.83 265.843 515.813C265.988 515.797 266.16 515.777 266.225 515.77C266.322 515.759 266.333 515.911 266.285 516.568ZM254.547 523.653C252.59 524.145 251.577 526.289 252.458 528.077C253.147 529.476 254.674 530.156 256.134 529.712C256.883 529.485 257.401 529.107 257.837 528.47C258.689 527.223 258.549 525.599 257.497 524.548C257.24 524.291 256.821 523.985 256.565 523.868C256.037 523.626 255.065 523.522 254.547 523.653ZM232.135 544.327C229.877 546.588 228.615 549.614 228.606 552.789C228.605 553.21 228.63 553.294 228.758 553.298C228.842 553.301 229.075 553.323 229.275 553.349C229.788 553.415 231.501 553.231 232.322 553.022C234.397 552.493 236.205 551.422 237.718 549.824L238.444 549.056L237.796 548.408L237.148 547.761L236.481 548.077C235.581 548.505 234.151 548.754 233.539 548.59C233.358 548.542 233.341 548.486 233.341 547.924C233.341 547.16 233.523 546.432 233.932 545.55L234.25 544.866L233.645 544.256C233.311 543.921 232.989 543.646 232.927 543.646C232.865 543.646 232.509 543.953 232.135 544.327Z" fill="#C3ADDE"/>
<path fill-rule="evenodd" clip-rule="evenodd" d="M246.237 497.05C244.173 497.21 241.252 497.732 239.251 498.298C232.463 500.219 226.558 503.963 221.835 509.343C217.143 514.689 214.229 521.158 213.245 528.418C212.981 530.363 212.918 534.306 213.118 536.323C213.838 543.584 216.418 549.907 221.009 555.662C222.161 557.106 224.928 559.864 226.411 561.045C231.127 564.803 236.372 567.235 242.202 568.368C246.451 569.194 251.44 569.196 255.763 568.376C260.997 567.382 266.196 565.093 270.47 561.9C277.736 556.472 282.726 548.534 284.394 539.752C285.091 536.082 285.199 531.941 284.698 528.123C283.859 521.738 281.226 515.628 277.062 510.407C275.855 508.893 273.114 506.152 271.589 504.932C270.305 503.906 267.912 502.282 266.602 501.549C262.252 499.113 257.463 497.622 252.387 497.122C251.161 497.001 247.429 496.957 246.237 497.05ZM251.018 500.189C260.212 500.635 269.155 505.341 274.934 512.775C278.792 517.738 281.079 523.472 281.72 529.789C281.871 531.27 281.891 534.286 281.76 535.797C281.362 540.411 279.884 545.215 277.659 549.128C274.703 554.327 270.342 558.687 265.141 561.643C261.887 563.492 257.771 564.91 254.002 565.479C252.269 565.741 250.939 565.833 248.912 565.832C234.097 565.826 221.171 555.936 217.251 541.608C216.105 537.418 215.825 532.648 216.462 528.167C217.937 517.791 224.574 508.527 233.955 503.751C237.524 501.934 240.985 500.859 244.877 500.36C245.886 500.231 249.072 500.068 249.658 500.116C249.779 500.125 250.391 500.158 251.018 500.189ZM265.229 512.697C259.717 513.114 254.435 515.172 249.526 518.815C247.738 520.142 246.342 521.401 243.701 524.067L241.074 526.72L240.388 526.721C240.01 526.721 239.228 526.762 238.649 526.812C234.202 527.192 230.772 528.538 227.465 531.198C226.959 531.605 225.597 532.874 224.439 534.018L222.332 536.098L229.372 536.101C233.244 536.102 236.412 536.133 236.412 536.168C236.412 536.203 236.067 537.269 235.645 538.537L234.878 540.841L238.003 543.965L241.127 547.088L243.403 546.332C244.654 545.916 245.725 545.576 245.782 545.576C245.861 545.576 245.886 547.251 245.887 552.57L245.889 559.564L248.15 557.284C249.394 556.03 250.671 554.668 250.987 554.258C253.754 550.674 255.019 547.052 255.244 542.069C255.299 540.839 255.308 540.793 255.527 540.622C256.637 539.755 259.568 536.773 261.434 534.613C263.896 531.764 265.962 528.536 267.246 525.535C268.194 523.318 268.887 520.914 269.219 518.695C269.428 517.292 269.539 514.714 269.444 513.455L269.38 512.6L267.787 512.612C266.911 512.619 265.76 512.657 265.229 512.697ZM266.285 516.568C265.875 522.145 263.285 527.747 258.712 532.947C257.055 534.83 254.414 537.465 253.284 538.364L252.114 539.292L252.114 540.726C252.114 544.801 251.278 548.118 249.578 550.788C249.334 551.171 249.104 551.514 249.067 551.551C249.03 551.588 249.01 549.272 249.023 546.405C249.035 543.537 249.016 541.191 248.979 541.191C248.942 541.191 247.358 541.709 245.458 542.342L242.005 543.493L240.249 541.737L238.493 539.982L239.646 536.53C240.28 534.632 240.798 533.049 240.798 533.013C240.798 532.977 238.459 532.938 235.6 532.925L230.403 532.903L231.061 532.479C233.817 530.704 237.016 529.881 241.165 529.878L242.541 529.877L243.676 528.627C245.201 526.949 248.688 523.524 249.862 522.551C254.46 518.742 259.637 516.422 264.615 515.937C265.146 515.886 265.698 515.83 265.843 515.813C265.988 515.797 266.16 515.777 266.225 515.77C266.322 515.759 266.333 515.911 266.285 516.568ZM254.547 523.653C252.59 524.145 251.577 526.289 252.458 528.077C253.147 529.476 254.674 530.156 256.134 529.712C256.883 529.485 257.401 529.107 257.837 528.47C258.689 527.223 258.549 525.599 257.497 524.548C257.24 524.291 256.821 523.985 256.565 523.868C256.037 523.626 255.065 523.522 254.547 523.653ZM232.135 544.327C229.877 546.588 228.615 549.614 228.606 552.789C228.605 553.21 228.63 553.294 228.758 553.298C228.842 553.301 229.075 553.323 229.275 553.349C229.788 553.415 231.501 553.231 232.322 553.022C234.397 552.493 236.205 551.422 237.718 549.824L238.444 549.056L237.796 548.408L237.148 547.761L236.481 548.077C235.581 548.505 234.151 548.754 233.539 548.59C233.358 548.542 233.341 548.486 233.341 547.924C233.341 547.16 233.523 546.432 233.932 545.55L234.25 544.866L233.645 544.256C233.311 543.921 232.989 543.646 232.927 543.646C232.865 543.646 232.509 543.953 232.135 544.327Z" stroke="white" stroke-width="2.14946" mask="url(#path-13-inside-1_1_2)"/>
</g>
<mask id="path-14-inside-2_1_2" fill="white">
<path fill-rule="evenodd" clip-rule="evenodd" d="M246.237 497.05C244.173 497.21 241.252 497.732 239.251 498.298C232.463 500.219 226.558 503.963 221.835 509.343C217.143 514.689 214.229 521.158 213.245 528.418C212.981 530.363 212.918 534.306 213.118 536.323C213.838 543.584 216.418 549.907 221.009 555.662C222.161 557.106 224.928 559.864 226.411 561.045C231.127 564.803 236.372 567.235 242.202 568.368C246.451 569.194 251.44 569.196 255.763 568.376C260.997 567.382 266.196 565.093 270.47 561.9C277.736 556.472 282.726 548.534 284.394 539.752C285.091 536.082 285.199 531.941 284.698 528.123C283.859 521.738 281.226 515.628 277.062 510.407C275.855 508.893 273.114 506.152 271.589 504.932C270.305 503.906 267.912 502.282 266.602 501.549C262.252 499.113 257.463 497.622 252.387 497.122C251.161 497.001 247.429 496.957 246.237 497.05ZM251.018 500.189C260.212 500.635 269.155 505.341 274.934 512.775C278.792 517.738 281.079 523.472 281.72 529.789C281.871 531.27 281.891 534.286 281.76 535.797C281.362 540.411 279.884 545.215 277.659 549.128C274.703 554.327 270.342 558.687 265.141 561.643C261.887 563.492 257.771 564.91 254.002 565.479C252.269 565.741 250.939 565.833 248.912 565.832C234.097 565.826 221.171 555.936 217.251 541.608C216.105 537.418 215.825 532.648 216.462 528.167C217.937 517.791 224.574 508.527 233.955 503.751C237.524 501.934 240.985 500.859 244.877 500.36C245.886 500.231 249.072 500.068 249.658 500.116C249.779 500.125 250.391 500.158 251.018 500.189ZM265.229 512.697C259.717 513.114 254.435 515.172 249.526 518.815C247.738 520.142 246.342 521.401 243.701 524.067L241.074 526.72L240.388 526.721C240.01 526.721 239.228 526.762 238.649 526.812C234.202 527.192 230.772 528.538 227.465 531.198C226.959 531.605 225.597 532.874 224.439 534.018L222.332 536.098L229.372 536.101C233.244 536.102 236.412 536.133 236.412 536.168C236.412 536.203 236.067 537.269 235.645 538.537L234.878 540.841L238.003 543.965L241.127 547.088L243.403 546.332C244.654 545.916 245.725 545.576 245.782 545.576C245.861 545.576 245.886 547.251 245.887 552.57L245.889 559.564L248.15 557.284C249.394 556.03 250.671 554.668 250.987 554.258C253.754 550.674 255.019 547.052 255.244 542.069C255.299 540.839 255.308 540.793 255.527 540.622C256.637 539.755 259.568 536.773 261.434 534.613C263.896 531.764 265.962 528.536 267.246 525.535C268.194 523.318 268.887 520.914 269.219 518.695C269.428 517.292 269.539 514.714 269.444 513.455L269.38 512.6L267.787 512.612C266.911 512.619 265.76 512.657 265.229 512.697ZM266.285 516.568C265.875 522.145 263.285 527.747 258.712 532.947C257.055 534.83 254.414 537.465 253.284 538.364L252.114 539.292L252.114 540.726C252.114 544.801 251.278 548.118 249.578 550.788C249.334 551.171 249.104 551.514 249.067 551.551C249.03 551.588 249.01 549.272 249.023 546.405C249.035 543.537 249.016 541.191 248.979 541.191C248.942 541.191 247.358 541.709 245.458 542.342L242.005 543.493L240.249 541.737L238.493 539.982L239.646 536.53C240.28 534.632 240.798 533.049 240.798 533.013C240.798 532.977 238.459 532.938 235.6 532.925L230.403 532.903L231.061 532.479C233.817 530.704 237.016 529.881 241.165 529.878L242.541 529.877L243.676 528.627C245.201 526.949 248.688 523.524 249.862 522.551C254.46 518.742 259.637 516.422 264.615 515.937C265.146 515.886 265.698 515.83 265.843 515.813C265.988 515.797 266.16 515.777 266.225 515.77C266.322 515.759 266.333 515.911 266.285 516.568ZM254.547 523.653C252.59 524.145 251.577 526.289 252.458 528.077C253.147 529.476 254.674 530.156 256.134 529.712C256.883 529.485 257.401 529.107 257.837 528.47C258.689 527.223 258.549 525.599 257.497 524.548C257.24 524.291 256.821 523.985 256.565 523.868C256.037 523.626 255.065 523.522 254.547 523.653ZM232.135 544.327C229.877 546.588 228.615 549.614 228.606 552.789C228.605 553.21 228.63 553.294 228.758 553.298C228.842 553.301 229.075 553.323 229.275 553.349C229.788 553.415 231.501 553.231 232.322 553.022C234.397 552.493 236.205 551.422 237.718 549.824L238.444 549.056L237.796 548.408L237.148 547.761L236.481 548.077C235.581 548.505 234.151 548.754 233.539 548.59C233.358 548.542 233.341 548.486 233.341 547.924C233.341 547.16 233.523 546.432 233.932 545.55L234.25 544.866L233.645 544.256C233.311 543.921 232.989 543.646 232.927 543.646C232.865 543.646 232.509 543.953 232.135 544.327Z"/>
</mask>
<path fill-rule="evenodd" clip-rule="evenodd" d="M246.237 497.05C244.173 497.21 241.252 497.732 239.251 498.298C232.463 500.219 226.558 503.963 221.835 509.343C217.143 514.689 214.229 521.158 213.245 528.418C212.981 530.363 212.918 534.306 213.118 536.323C213.838 543.584 216.418 549.907 221.009 555.662C222.161 557.106 224.928 559.864 226.411 561.045C231.127 564.803 236.372 567.235 242.202 568.368C246.451 569.194 251.44 569.196 255.763 568.376C260.997 567.382 266.196 565.093 270.47 561.9C277.736 556.472 282.726 548.534 284.394 539.752C285.091 536.082 285.199 531.941 284.698 528.123C283.859 521.738 281.226 515.628 277.062 510.407C275.855 508.893 273.114 506.152 271.589 504.932C270.305 503.906 267.912 502.282 266.602 501.549C262.252 499.113 257.463 497.622 252.387 497.122C251.161 497.001 247.429 496.957 246.237 497.05ZM251.018 500.189C260.212 500.635 269.155 505.341 274.934 512.775C278.792 517.738 281.079 523.472 281.72 529.789C281.871 531.27 281.891 534.286 281.76 535.797C281.362 540.411 279.884 545.215 277.659 549.128C274.703 554.327 270.342 558.687 265.141 561.643C261.887 563.492 257.771 564.91 254.002 565.479C252.269 565.741 250.939 565.833 248.912 565.832C234.097 565.826 221.171 555.936 217.251 541.608C216.105 537.418 215.825 532.648 216.462 528.167C217.937 517.791 224.574 508.527 233.955 503.751C237.524 501.934 240.985 500.859 244.877 500.36C245.886 500.231 249.072 500.068 249.658 500.116C249.779 500.125 250.391 500.158 251.018 500.189ZM265.229 512.697C259.717 513.114 254.435 515.172 249.526 518.815C247.738 520.142 246.342 521.401 243.701 524.067L241.074 526.72L240.388 526.721C240.01 526.721 239.228 526.762 238.649 526.812C234.202 527.192 230.772 528.538 227.465 531.198C226.959 531.605 225.597 532.874 224.439 534.018L222.332 536.098L229.372 536.101C233.244 536.102 236.412 536.133 236.412 536.168C236.412 536.203 236.067 537.269 235.645 538.537L234.878 540.841L238.003 543.965L241.127 547.088L243.403 546.332C244.654 545.916 245.725 545.576 245.782 545.576C245.861 545.576 245.886 547.251 245.887 552.57L245.889 559.564L248.15 557.284C249.394 556.03 250.671 554.668 250.987 554.258C253.754 550.674 255.019 547.052 255.244 542.069C255.299 540.839 255.308 540.793 255.527 540.622C256.637 539.755 259.568 536.773 261.434 534.613C263.896 531.764 265.962 528.536 267.246 525.535C268.194 523.318 268.887 520.914 269.219 518.695C269.428 517.292 269.539 514.714 269.444 513.455L269.38 512.6L267.787 512.612C266.911 512.619 265.76 512.657 265.229 512.697ZM266.285 516.568C265.875 522.145 263.285 527.747 258.712 532.947C257.055 534.83 254.414 537.465 253.284 538.364L252.114 539.292L252.114 540.726C252.114 544.801 251.278 548.118 249.578 550.788C249.334 551.171 249.104 551.514 249.067 551.551C249.03 551.588 249.01 549.272 249.023 546.405C249.035 543.537 249.016 541.191 248.979 541.191C248.942 541.191 247.358 541.709 245.458 542.342L242.005 543.493L240.249 541.737L238.493 539.982L239.646 536.53C240.28 534.632 240.798 533.049 240.798 533.013C240.798 532.977 238.459 532.938 235.6 532.925L230.403 532.903L231.061 532.479C233.817 530.704 237.016 529.881 241.165 529.878L242.541 529.877L243.676 528.627C245.201 526.949 248.688 523.524 249.862 522.551C254.46 518.742 259.637 516.422 264.615 515.937C265.146 515.886 265.698 515.83 265.843 515.813C265.988 515.797 266.16 515.777 266.225 515.77C266.322 515.759 266.333 515.911 266.285 516.568ZM254.547 523.653C252.59 524.145 251.577 526.289 252.458 528.077C253.147 529.476 254.674 530.156 256.134 529.712C256.883 529.485 257.401 529.107 257.837 528.47C258.689 527.223 258.549 525.599 257.497 524.548C257.24 524.291 256.821 523.985 256.565 523.868C256.037 523.626 255.065 523.522 254.547 523.653ZM232.135 544.327C229.877 546.588 228.615 549.614 228.606 552.789C228.605 553.21 228.63 553.294 228.758 553.298C228.842 553.301 229.075 553.323 229.275 553.349C229.788 553.415 231.501 553.231 232.322 553.022C234.397 552.493 236.205 551.422 237.718 549.824L238.444 549.056L237.796 548.408L237.148 547.761L236.481 548.077C235.581 548.505 234.151 548.754 233.539 548.59C233.358 548.542 233.341 548.486 233.341 547.924C233.341 547.16 233.523 546.432 233.932 545.55L234.25 544.866L233.645 544.256C233.311 543.921 232.989 543.646 232.927 543.646C232.865 543.646 232.509 543.953 232.135 544.327Z" fill="#C3ADDE" stroke="white" stroke-width="2.14946" mask="url(#path-14-inside-2_1_2)"/>
<path d="M519.5 121.113L519.5 173.299C519.5 173.456 519.427 173.604 519.301 173.698L454.544 222.643C454.366 222.778 454.121 222.778 453.942 222.644L388.7 173.693C388.574 173.598 388.5 173.45 388.5 173.293L388.5 121.12C388.5 120.968 388.569 120.824 388.687 120.73L453.93 68.4594C454.113 68.3126 454.374 68.313 454.556 68.4605L519.314 120.724C519.432 120.819 519.5 120.962 519.5 121.113Z" fill="#1F193E" fill-opacity="0.77" stroke="url(#paint3_linear_1_2)" stroke-width="5"/>
<g filter="url(#filter4_f_1_2)">
<mask id="path-16-inside-3_1_2" fill="white">
<path fill-rule="evenodd" clip-rule="evenodd" d="M425.749 103.582C428.969 105.138 433.708 108.158 436.581 110.487C437.572 111.29 438.404 112.008 438.431 112.083C438.458 112.156 438.168 112.556 437.788 112.97C437.408 113.383 437.097 113.785 437.097 113.862C437.097 114.048 441.906 118.841 442.092 118.841C442.172 118.841 442.59 118.522 443.02 118.133L443.804 117.425L444.376 118.083C445.784 119.703 446.909 121.191 448.355 123.345C449.953 125.728 452.519 130.223 452.519 130.643C452.519 130.772 452.613 130.936 452.728 131.007C452.87 131.095 452.897 130.679 452.814 129.684C452.392 124.668 450.738 119.878 448.032 115.835C447.135 114.494 446.981 114.145 447.16 113.857C447.28 113.665 447.379 113.394 447.379 113.255C447.379 112.929 443.003 108.559 442.677 108.559C442.541 108.559 442.273 108.658 442.081 108.778C441.793 108.957 441.437 108.798 440.057 107.872C436.028 105.169 431.185 103.518 426.124 103.123L424.542 103L425.749 103.582ZM444.143 108.5C443.967 108.676 447.196 111.935 447.414 111.8C447.992 111.443 447.078 109.801 445.756 108.826C445.14 108.371 444.418 108.225 444.143 108.5ZM455.422 114.029C455.239 116.711 455.113 118.93 455.142 118.959C455.172 118.989 455.767 116.995 456.464 114.528C457.161 112.061 457.767 109.937 457.811 109.809C457.856 109.676 457.563 109.485 457.132 109.365C455.674 108.96 455.79 108.644 455.422 114.029ZM433.59 118.691C417.052 134.747 415.361 136.448 415.113 137.277C414.484 139.378 416.594 141.444 418.718 140.808C419.359 140.616 420.153 139.914 422.722 137.268C427.194 132.662 431.676 128.055 435.744 123.882C437.652 121.925 439.553 119.94 439.969 119.472L440.723 118.62L439.063 116.951C438.15 116.033 437.335 115.282 437.252 115.282C437.169 115.282 435.521 116.816 433.59 118.691ZM465.766 117.486C465.09 118.316 460.974 123.212 460.151 124.167L459.736 124.648L460.339 124.265C462.546 122.865 468.325 118.916 468.33 118.805C468.334 118.731 467.914 118.213 467.398 117.654L466.458 116.638L465.766 117.486ZM488.599 124.399C487.332 125.681 486.098 126.743 485.637 126.949C485.202 127.144 482.482 128.25 479.592 129.408L474.338 131.514L474.005 132.542C473.822 133.108 472.237 138.375 470.484 144.247C468.73 150.119 467.196 155.022 467.074 155.142C466.953 155.262 462.628 156.409 457.462 157.69L448.071 160.021L438.679 164.723L429.288 169.425L424.544 174.186L419.8 178.947H455.338H490.876V150.574C490.876 134.969 490.853 122.202 490.824 122.202C490.795 122.202 489.794 123.19 488.599 124.399ZM459.044 129.426C454.585 130.131 450.627 132.168 447.369 135.435C443.153 139.662 441.145 144.57 441.174 150.574C441.192 154.326 441.779 156.867 443.355 160.016L444.023 161.351L445.616 160.55L447.209 159.749L446.78 159.021C444.321 154.855 443.947 149.03 445.819 144.05C447.466 139.667 451.313 135.731 455.702 133.941C460.514 131.978 466.867 132.398 471.176 134.965C471.818 135.348 472.366 135.635 472.394 135.604C472.486 135.503 473.28 132.564 473.28 132.325C473.28 132.197 472.677 131.789 471.939 131.418C468.008 129.438 463.435 128.732 459.044 129.426ZM434.029 132.434C434.107 133.059 434.202 133.604 434.241 133.644C434.28 133.685 436.243 133.24 438.602 132.656L442.893 131.593L440.835 131.469C439.704 131.401 437.678 131.334 436.333 131.321L433.889 131.297L434.029 132.434ZM459.439 134.164C448.426 136.391 442.705 147.898 447.619 157.939C447.993 158.704 448.345 159.173 448.543 159.169C449.279 159.156 458.743 156.663 458.7 156.493C458.638 156.253 453.508 148.917 453.321 148.801C453.243 148.753 452.847 148.939 452.442 149.214C451.765 149.674 451.67 149.69 451.272 149.417C450.166 148.656 449.69 148.152 449.802 147.86C449.867 147.692 450.549 147.132 451.318 146.616C452.088 146.1 452.717 145.637 452.717 145.587C452.717 145.537 452.348 144.97 451.896 144.326C451.444 143.682 451.11 143.126 451.154 143.09C451.198 143.055 451.651 142.745 452.16 142.4L453.086 141.775L453.919 142.962C454.377 143.614 454.789 144.148 454.834 144.148C454.879 144.148 455.309 143.848 455.789 143.482L456.662 142.815L455.876 141.717C455.443 141.114 455.09 140.546 455.09 140.456C455.09 140.366 455.492 140.039 455.984 139.728C457.018 139.075 457.107 139.112 458.049 140.58L458.658 141.528L459.889 141.018C461.635 140.294 463.36 140.296 464.599 141.024C465.545 141.581 466.415 142.563 466.756 143.459C466.992 144.079 467.059 145.874 466.869 146.473C466.744 146.868 466.777 146.883 467.386 146.708C467.745 146.605 468.277 146.521 468.571 146.521C469.164 146.521 468.907 147.187 471.03 140.125L471.972 136.991L471.489 136.625C470.756 136.068 468.741 135.125 467.327 134.676C464.74 133.854 461.888 133.669 459.439 134.164ZM444.401 137.896C444.245 138.041 442.292 139.385 440.063 140.883C437.834 142.382 435.888 143.721 435.739 143.86C435.512 144.071 435.573 144.243 436.118 144.921C436.476 145.366 436.872 145.73 436.999 145.73C437.126 145.73 437.566 145.352 437.976 144.89C438.387 144.428 440.103 142.645 441.791 140.928C443.478 139.211 444.82 137.767 444.773 137.72C444.725 137.672 444.558 137.751 444.401 137.896ZM459.696 144.336C458.278 144.98 456.449 146.317 456.618 146.587C457.008 147.209 459.312 150.593 459.447 150.743C459.611 150.925 461.446 149.741 462.663 148.667C464.115 147.386 464.21 145.802 462.906 144.593C462.077 143.824 461.012 143.739 459.696 144.336ZM465.891 149.825C465.383 149.956 463.741 150.934 462.246 151.997L460.999 152.884L461.337 153.409C461.523 153.699 461.945 154.291 462.276 154.726C462.606 155.161 462.893 155.543 462.913 155.575C462.933 155.606 463.78 155.424 464.795 155.169L466.641 154.705L467.318 152.507C467.691 151.299 467.942 150.169 467.876 149.997C467.757 149.688 466.761 149.602 465.891 149.825Z"/>
</mask>
<path fill-rule="evenodd" clip-rule="evenodd" d="M425.749 103.582C428.969 105.138 433.708 108.158 436.581 110.487C437.572 111.29 438.404 112.008 438.431 112.083C438.458 112.156 438.168 112.556 437.788 112.97C437.408 113.383 437.097 113.785 437.097 113.862C437.097 114.048 441.906 118.841 442.092 118.841C442.172 118.841 442.59 118.522 443.02 118.133L443.804 117.425L444.376 118.083C445.784 119.703 446.909 121.191 448.355 123.345C449.953 125.728 452.519 130.223 452.519 130.643C452.519 130.772 452.613 130.936 452.728 131.007C452.87 131.095 452.897 130.679 452.814 129.684C452.392 124.668 450.738 119.878 448.032 115.835C447.135 114.494 446.981 114.145 447.16 113.857C447.28 113.665 447.379 113.394 447.379 113.255C447.379 112.929 443.003 108.559 442.677 108.559C442.541 108.559 442.273 108.658 442.081 108.778C441.793 108.957 441.437 108.798 440.057 107.872C436.028 105.169 431.185 103.518 426.124 103.123L424.542 103L425.749 103.582ZM444.143 108.5C443.967 108.676 447.196 111.935 447.414 111.8C447.992 111.443 447.078 109.801 445.756 108.826C445.14 108.371 444.418 108.225 444.143 108.5ZM455.422 114.029C455.239 116.711 455.113 118.93 455.142 118.959C455.172 118.989 455.767 116.995 456.464 114.528C457.161 112.061 457.767 109.937 457.811 109.809C457.856 109.676 457.563 109.485 457.132 109.365C455.674 108.96 455.79 108.644 455.422 114.029ZM433.59 118.691C417.052 134.747 415.361 136.448 415.113 137.277C414.484 139.378 416.594 141.444 418.718 140.808C419.359 140.616 420.153 139.914 422.722 137.268C427.194 132.662 431.676 128.055 435.744 123.882C437.652 121.925 439.553 119.94 439.969 119.472L440.723 118.62L439.063 116.951C438.15 116.033 437.335 115.282 437.252 115.282C437.169 115.282 435.521 116.816 433.59 118.691ZM465.766 117.486C465.09 118.316 460.974 123.212 460.151 124.167L459.736 124.648L460.339 124.265C462.546 122.865 468.325 118.916 468.33 118.805C468.334 118.731 467.914 118.213 467.398 117.654L466.458 116.638L465.766 117.486ZM488.599 124.399C487.332 125.681 486.098 126.743 485.637 126.949C485.202 127.144 482.482 128.25 479.592 129.408L474.338 131.514L474.005 132.542C473.822 133.108 472.237 138.375 470.484 144.247C468.73 150.119 467.196 155.022 467.074 155.142C466.953 155.262 462.628 156.409 457.462 157.69L448.071 160.021L438.679 164.723L429.288 169.425L424.544 174.186L419.8 178.947H455.338H490.876V150.574C490.876 134.969 490.853 122.202 490.824 122.202C490.795 122.202 489.794 123.19 488.599 124.399ZM459.044 129.426C454.585 130.131 450.627 132.168 447.369 135.435C443.153 139.662 441.145 144.57 441.174 150.574C441.192 154.326 441.779 156.867 443.355 160.016L444.023 161.351L445.616 160.55L447.209 159.749L446.78 159.021C444.321 154.855 443.947 149.03 445.819 144.05C447.466 139.667 451.313 135.731 455.702 133.941C460.514 131.978 466.867 132.398 471.176 134.965C471.818 135.348 472.366 135.635 472.394 135.604C472.486 135.503 473.28 132.564 473.28 132.325C473.28 132.197 472.677 131.789 471.939 131.418C468.008 129.438 463.435 128.732 459.044 129.426ZM434.029 132.434C434.107 133.059 434.202 133.604 434.241 133.644C434.28 133.685 436.243 133.24 438.602 132.656L442.893 131.593L440.835 131.469C439.704 131.401 437.678 131.334 436.333 131.321L433.889 131.297L434.029 132.434ZM459.439 134.164C448.426 136.391 442.705 147.898 447.619 157.939C447.993 158.704 448.345 159.173 448.543 159.169C449.279 159.156 458.743 156.663 458.7 156.493C458.638 156.253 453.508 148.917 453.321 148.801C453.243 148.753 452.847 148.939 452.442 149.214C451.765 149.674 451.67 149.69 451.272 149.417C450.166 148.656 449.69 148.152 449.802 147.86C449.867 147.692 450.549 147.132 451.318 146.616C452.088 146.1 452.717 145.637 452.717 145.587C452.717 145.537 452.348 144.97 451.896 144.326C451.444 143.682 451.11 143.126 451.154 143.09C451.198 143.055 451.651 142.745 452.16 142.4L453.086 141.775L453.919 142.962C454.377 143.614 454.789 144.148 454.834 144.148C454.879 144.148 455.309 143.848 455.789 143.482L456.662 142.815L455.876 141.717C455.443 141.114 455.09 140.546 455.09 140.456C455.09 140.366 455.492 140.039 455.984 139.728C457.018 139.075 457.107 139.112 458.049 140.58L458.658 141.528L459.889 141.018C461.635 140.294 463.36 140.296 464.599 141.024C465.545 141.581 466.415 142.563 466.756 143.459C466.992 144.079 467.059 145.874 466.869 146.473C466.744 146.868 466.777 146.883 467.386 146.708C467.745 146.605 468.277 146.521 468.571 146.521C469.164 146.521 468.907 147.187 471.03 140.125L471.972 136.991L471.489 136.625C470.756 136.068 468.741 135.125 467.327 134.676C464.74 133.854 461.888 133.669 459.439 134.164ZM444.401 137.896C444.245 138.041 442.292 139.385 440.063 140.883C437.834 142.382 435.888 143.721 435.739 143.86C435.512 144.071 435.573 144.243 436.118 144.921C436.476 145.366 436.872 145.73 436.999 145.73C437.126 145.73 437.566 145.352 437.976 144.89C438.387 144.428 440.103 142.645 441.791 140.928C443.478 139.211 444.82 137.767 444.773 137.72C444.725 137.672 444.558 137.751 444.401 137.896ZM459.696 144.336C458.278 144.98 456.449 146.317 456.618 146.587C457.008 147.209 459.312 150.593 459.447 150.743C459.611 150.925 461.446 149.741 462.663 148.667C464.115 147.386 464.21 145.802 462.906 144.593C462.077 143.824 461.012 143.739 459.696 144.336ZM465.891 149.825C465.383 149.956 463.741 150.934 462.246 151.997L460.999 152.884L461.337 153.409C461.523 153.699 461.945 154.291 462.276 154.726C462.606 155.161 462.893 155.543 462.913 155.575C462.933 155.606 463.78 155.424 464.795 155.169L466.641 154.705L467.318 152.507C467.691 151.299 467.942 150.169 467.876 149.997C467.757 149.688 466.761 149.602 465.891 149.825Z" fill="#C3ADDE"/>
<path fill-rule="evenodd" clip-rule="evenodd" d="M425.749 103.582C428.969 105.138 433.708 108.158 436.581 110.487C437.572 111.29 438.404 112.008 438.431 112.083C438.458 112.156 438.168 112.556 437.788 112.97C437.408 113.383 437.097 113.785 437.097 113.862C437.097 114.048 441.906 118.841 442.092 118.841C442.172 118.841 442.59 118.522 443.02 118.133L443.804 117.425L444.376 118.083C445.784 119.703 446.909 121.191 448.355 123.345C449.953 125.728 452.519 130.223 452.519 130.643C452.519 130.772 452.613 130.936 452.728 131.007C452.87 131.095 452.897 130.679 452.814 129.684C452.392 124.668 450.738 119.878 448.032 115.835C447.135 114.494 446.981 114.145 447.16 113.857C447.28 113.665 447.379 113.394 447.379 113.255C447.379 112.929 443.003 108.559 442.677 108.559C442.541 108.559 442.273 108.658 442.081 108.778C441.793 108.957 441.437 108.798 440.057 107.872C436.028 105.169 431.185 103.518 426.124 103.123L424.542 103L425.749 103.582ZM444.143 108.5C443.967 108.676 447.196 111.935 447.414 111.8C447.992 111.443 447.078 109.801 445.756 108.826C445.14 108.371 444.418 108.225 444.143 108.5ZM455.422 114.029C455.239 116.711 455.113 118.93 455.142 118.959C455.172 118.989 455.767 116.995 456.464 114.528C457.161 112.061 457.767 109.937 457.811 109.809C457.856 109.676 457.563 109.485 457.132 109.365C455.674 108.96 455.79 108.644 455.422 114.029ZM433.59 118.691C417.052 134.747 415.361 136.448 415.113 137.277C414.484 139.378 416.594 141.444 418.718 140.808C419.359 140.616 420.153 139.914 422.722 137.268C427.194 132.662 431.676 128.055 435.744 123.882C437.652 121.925 439.553 119.94 439.969 119.472L440.723 118.62L439.063 116.951C438.15 116.033 437.335 115.282 437.252 115.282C437.169 115.282 435.521 116.816 433.59 118.691ZM465.766 117.486C465.09 118.316 460.974 123.212 460.151 124.167L459.736 124.648L460.339 124.265C462.546 122.865 468.325 118.916 468.33 118.805C468.334 118.731 467.914 118.213 467.398 117.654L466.458 116.638L465.766 117.486ZM488.599 124.399C487.332 125.681 486.098 126.743 485.637 126.949C485.202 127.144 482.482 128.25 479.592 129.408L474.338 131.514L474.005 132.542C473.822 133.108 472.237 138.375 470.484 144.247C468.73 150.119 467.196 155.022 467.074 155.142C466.953 155.262 462.628 156.409 457.462 157.69L448.071 160.021L438.679 164.723L429.288 169.425L424.544 174.186L419.8 178.947H455.338H490.876V150.574C490.876 134.969 490.853 122.202 490.824 122.202C490.795 122.202 489.794 123.19 488.599 124.399ZM459.044 129.426C454.585 130.131 450.627 132.168 447.369 135.435C443.153 139.662 441.145 144.57 441.174 150.574C441.192 154.326 441.779 156.867 443.355 160.016L444.023 161.351L445.616 160.55L447.209 159.749L446.78 159.021C444.321 154.855 443.947 149.03 445.819 144.05C447.466 139.667 451.313 135.731 455.702 133.941C460.514 131.978 466.867 132.398 471.176 134.965C471.818 135.348 472.366 135.635 472.394 135.604C472.486 135.503 473.28 132.564 473.28 132.325C473.28 132.197 472.677 131.789 471.939 131.418C468.008 129.438 463.435 128.732 459.044 129.426ZM434.029 132.434C434.107 133.059 434.202 133.604 434.241 133.644C434.28 133.685 436.243 133.24 438.602 132.656L442.893 131.593L440.835 131.469C439.704 131.401 437.678 131.334 436.333 131.321L433.889 131.297L434.029 132.434ZM459.439 134.164C448.426 136.391 442.705 147.898 447.619 157.939C447.993 158.704 448.345 159.173 448.543 159.169C449.279 159.156 458.743 156.663 458.7 156.493C458.638 156.253 453.508 148.917 453.321 148.801C453.243 148.753 452.847 148.939 452.442 149.214C451.765 149.674 451.67 149.69 451.272 149.417C450.166 148.656 449.69 148.152 449.802 147.86C449.867 147.692 450.549 147.132 451.318 146.616C452.088 146.1 452.717 145.637 452.717 145.587C452.717 145.537 452.348 144.97 451.896 144.326C451.444 143.682 451.11 143.126 451.154 143.09C451.198 143.055 451.651 142.745 452.16 142.4L453.086 141.775L453.919 142.962C454.377 143.614 454.789 144.148 454.834 144.148C454.879 144.148 455.309 143.848 455.789 143.482L456.662 142.815L455.876 141.717C455.443 141.114 455.09 140.546 455.09 140.456C455.09 140.366 455.492 140.039 455.984 139.728C457.018 139.075 457.107 139.112 458.049 140.58L458.658 141.528L459.889 141.018C461.635 140.294 463.36 140.296 464.599 141.024C465.545 141.581 466.415 142.563 466.756 143.459C466.992 144.079 467.059 145.874 466.869 146.473C466.744 146.868 466.777 146.883 467.386 146.708C467.745 146.605 468.277 146.521 468.571 146.521C469.164 146.521 468.907 147.187 471.03 140.125L471.972 136.991L471.489 136.625C470.756 136.068 468.741 135.125 467.327 134.676C464.74 133.854 461.888 133.669 459.439 134.164ZM444.401 137.896C444.245 138.041 442.292 139.385 440.063 140.883C437.834 142.382 435.888 143.721 435.739 143.86C435.512 144.071 435.573 144.243 436.118 144.921C436.476 145.366 436.872 145.73 436.999 145.73C437.126 145.73 437.566 145.352 437.976 144.89C438.387 144.428 440.103 142.645 441.791 140.928C443.478 139.211 444.82 137.767 444.773 137.72C444.725 137.672 444.558 137.751 444.401 137.896ZM459.696 144.336C458.278 144.98 456.449 146.317 456.618 146.587C457.008 147.209 459.312 150.593 459.447 150.743C459.611 150.925 461.446 149.741 462.663 148.667C464.115 147.386 464.21 145.802 462.906 144.593C462.077 143.824 461.012 143.739 459.696 144.336ZM465.891 149.825C465.383 149.956 463.741 150.934 462.246 151.997L460.999 152.884L461.337 153.409C461.523 153.699 461.945 154.291 462.276 154.726C462.606 155.161 462.893 155.543 462.913 155.575C462.933 155.606 463.78 155.424 464.795 155.169L466.641 154.705L467.318 152.507C467.691 151.299 467.942 150.169 467.876 149.997C467.757 149.688 466.761 149.602 465.891 149.825Z" stroke="white" stroke-width="0.395433" mask="url(#path-16-inside-3_1_2)"/>
</g>
<mask id="path-17-inside-4_1_2" fill="white">
<path fill-rule="evenodd" clip-rule="evenodd" d="M425.749 103.582C428.969 105.138 433.708 108.158 436.581 110.487C437.572 111.29 438.404 112.008 438.431 112.083C438.458 112.156 438.168 112.556 437.788 112.97C437.408 113.383 437.097 113.785 437.097 113.862C437.097 114.048 441.906 118.841 442.092 118.841C442.172 118.841 442.59 118.522 443.02 118.133L443.804 117.425L444.376 118.083C445.784 119.703 446.909 121.191 448.355 123.345C449.953 125.728 452.519 130.223 452.519 130.643C452.519 130.772 452.613 130.936 452.728 131.007C452.87 131.095 452.897 130.679 452.814 129.684C452.392 124.668 450.738 119.878 448.032 115.835C447.135 114.494 446.981 114.145 447.16 113.857C447.28 113.665 447.379 113.394 447.379 113.255C447.379 112.929 443.003 108.559 442.677 108.559C442.541 108.559 442.273 108.658 442.081 108.778C441.793 108.957 441.437 108.798 440.057 107.872C436.028 105.169 431.185 103.518 426.124 103.123L424.542 103L425.749 103.582ZM444.143 108.5C443.967 108.676 447.196 111.935 447.414 111.8C447.992 111.443 447.078 109.801 445.756 108.826C445.14 108.371 444.418 108.225 444.143 108.5ZM455.422 114.029C455.239 116.711 455.113 118.93 455.142 118.959C455.172 118.989 455.767 116.995 456.464 114.528C457.161 112.061 457.767 109.937 457.811 109.809C457.856 109.676 457.563 109.485 457.132 109.365C455.674 108.96 455.79 108.644 455.422 114.029ZM433.59 118.691C417.052 134.747 415.361 136.448 415.113 137.277C414.484 139.378 416.594 141.444 418.718 140.808C419.359 140.616 420.153 139.914 422.722 137.268C427.194 132.662 431.676 128.055 435.744 123.882C437.652 121.925 439.553 119.94 439.969 119.472L440.723 118.62L439.063 116.951C438.15 116.033 437.335 115.282 437.252 115.282C437.169 115.282 435.521 116.816 433.59 118.691ZM465.766 117.486C465.09 118.316 460.974 123.212 460.151 124.167L459.736 124.648L460.339 124.265C462.546 122.865 468.325 118.916 468.33 118.805C468.334 118.731 467.914 118.213 467.398 117.654L466.458 116.638L465.766 117.486ZM488.599 124.399C487.332 125.681 486.098 126.743 485.637 126.949C485.202 127.144 482.482 128.25 479.592 129.408L474.338 131.514L474.005 132.542C473.822 133.108 472.237 138.375 470.484 144.247C468.73 150.119 467.196 155.022 467.074 155.142C466.953 155.262 462.628 156.409 457.462 157.69L448.071 160.021L438.679 164.723L429.288 169.425L424.544 174.186L419.8 178.947H455.338H490.876V150.574C490.876 134.969 490.853 122.202 490.824 122.202C490.795 122.202 489.794 123.19 488.599 124.399ZM459.044 129.426C454.585 130.131 450.627 132.168 447.369 135.435C443.153 139.662 441.145 144.57 441.174 150.574C441.192 154.326 441.779 156.867 443.355 160.016L444.023 161.351L445.616 160.55L447.209 159.749L446.78 159.021C444.321 154.855 443.947 149.03 445.819 144.05C447.466 139.667 451.313 135.731 455.702 133.941C460.514 131.978 466.867 132.398 471.176 134.965C471.818 135.348 472.366 135.635 472.394 135.604C472.486 135.503 473.28 132.564 473.28 132.325C473.28 132.197 472.677 131.789 471.939 131.418C468.008 129.438 463.435 128.732 459.044 129.426ZM434.029 132.434C434.107 133.059 434.202 133.604 434.241 133.644C434.28 133.685 436.243 133.24 438.602 132.656L442.893 131.593L440.835 131.469C439.704 131.401 437.678 131.334 436.333 131.321L433.889 131.297L434.029 132.434ZM459.439 134.164C448.426 136.391 442.705 147.898 447.619 157.939C447.993 158.704 448.345 159.173 448.543 159.169C449.279 159.156 458.743 156.663 458.7 156.493C458.638 156.253 453.508 148.917 453.321 148.801C453.243 148.753 452.847 148.939 452.442 149.214C451.765 149.674 451.67 149.69 451.272 149.417C450.166 148.656 449.69 148.152 449.802 147.86C449.867 147.692 450.549 147.132 451.318 146.616C452.088 146.1 452.717 145.637 452.717 145.587C452.717 145.537 452.348 144.97 451.896 144.326C451.444 143.682 451.11 143.126 451.154 143.09C451.198 143.055 451.651 142.745 452.16 142.4L453.086 141.775L453.919 142.962C454.377 143.614 454.789 144.148 454.834 144.148C454.879 144.148 455.309 143.848 455.789 143.482L456.662 142.815L455.876 141.717C455.443 141.114 455.09 140.546 455.09 140.456C455.09 140.366 455.492 140.039 455.984 139.728C457.018 139.075 457.107 139.112 458.049 140.58L458.658 141.528L459.889 141.018C461.635 140.294 463.36 140.296 464.599 141.024C465.545 141.581 466.415 142.563 466.756 143.459C466.992 144.079 467.059 145.874 466.869 146.473C466.744 146.868 466.777 146.883 467.386 146.708C467.745 146.605 468.277 146.521 468.571 146.521C469.164 146.521 468.907 147.187 471.03 140.125L471.972 136.991L471.489 136.625C470.756 136.068 468.741 135.125 467.327 134.676C464.74 133.854 461.888 133.669 459.439 134.164ZM444.401 137.896C444.245 138.041 442.292 139.385 440.063 140.883C437.834 142.382 435.888 143.721 435.739 143.86C435.512 144.071 435.573 144.243 436.118 144.921C436.476 145.366 436.872 145.73 436.999 145.73C437.126 145.73 437.566 145.352 437.976 144.89C438.387 144.428 440.103 142.645 441.791 140.928C443.478 139.211 444.82 137.767 444.773 137.72C444.725 137.672 444.558 137.751 444.401 137.896ZM459.696 144.336C458.278 144.98 456.449 146.317 456.618 146.587C457.008 147.209 459.312 150.593 459.447 150.743C459.611 150.925 461.446 149.741 462.663 148.667C464.115 147.386 464.21 145.802 462.906 144.593C462.077 143.824 461.012 143.739 459.696 144.336ZM465.891 149.825C465.383 149.956 463.741 150.934 462.246 151.997L460.999 152.884L461.337 153.409C461.523 153.699 461.945 154.291 462.276 154.726C462.606 155.161 462.893 155.543 462.913 155.575C462.933 155.606 463.78 155.424 464.795 155.169L466.641 154.705L467.318 152.507C467.691 151.299 467.942 150.169 467.876 149.997C467.757 149.688 466.761 149.602 465.891 149.825Z"/>
</mask>
<path fill-rule="evenodd" clip-rule="evenodd" d="M425.749 103.582C428.969 105.138 433.708 108.158 436.581 110.487C437.572 111.29 438.404 112.008 438.431 112.083C438.458 112.156 438.168 112.556 437.788 112.97C437.408 113.383 437.097 113.785 437.097 113.862C437.097 114.048 441.906 118.841 442.092 118.841C442.172 118.841 442.59 118.522 443.02 118.133L443.804 117.425L444.376 118.083C445.784 119.703 446.909 121.191 448.355 123.345C449.953 125.728 452.519 130.223 452.519 130.643C452.519 130.772 452.613 130.936 452.728 131.007C452.87 131.095 452.897 130.679 452.814 129.684C452.392 124.668 450.738 119.878 448.032 115.835C447.135 114.494 446.981 114.145 447.16 113.857C447.28 113.665 447.379 113.394 447.379 113.255C447.379 112.929 443.003 108.559 442.677 108.559C442.541 108.559 442.273 108.658 442.081 108.778C441.793 108.957 441.437 108.798 440.057 107.872C436.028 105.169 431.185 103.518 426.124 103.123L424.542 103L425.749 103.582ZM444.143 108.5C443.967 108.676 447.196 111.935 447.414 111.8C447.992 111.443 447.078 109.801 445.756 108.826C445.14 108.371 444.418 108.225 444.143 108.5ZM455.422 114.029C455.239 116.711 455.113 118.93 455.142 118.959C455.172 118.989 455.767 116.995 456.464 114.528C457.161 112.061 457.767 109.937 457.811 109.809C457.856 109.676 457.563 109.485 457.132 109.365C455.674 108.96 455.79 108.644 455.422 114.029ZM433.59 118.691C417.052 134.747 415.361 136.448 415.113 137.277C414.484 139.378 416.594 141.444 418.718 140.808C419.359 140.616 420.153 139.914 422.722 137.268C427.194 132.662 431.676 128.055 435.744 123.882C437.652 121.925 439.553 119.94 439.969 119.472L440.723 118.62L439.063 116.951C438.15 116.033 437.335 115.282 437.252 115.282C437.169 115.282 435.521 116.816 433.59 118.691ZM465.766 117.486C465.09 118.316 460.974 123.212 460.151 124.167L459.736 124.648L460.339 124.265C462.546 122.865 468.325 118.916 468.33 118.805C468.334 118.731 467.914 118.213 467.398 117.654L466.458 116.638L465.766 117.486ZM488.599 124.399C487.332 125.681 486.098 126.743 485.637 126.949C485.202 127.144 482.482 128.25 479.592 129.408L474.338 131.514L474.005 132.542C473.822 133.108 472.237 138.375 470.484 144.247C468.73 150.119 467.196 155.022 467.074 155.142C466.953 155.262 462.628 156.409 457.462 157.69L448.071 160.021L438.679 164.723L429.288 169.425L424.544 174.186L419.8 178.947H455.338H490.876V150.574C490.876 134.969 490.853 122.202 490.824 122.202C490.795 122.202 489.794 123.19 488.599 124.399ZM459.044 129.426C454.585 130.131 450.627 132.168 447.369 135.435C443.153 139.662 441.145 144.57 441.174 150.574C441.192 154.326 441.779 156.867 443.355 160.016L444.023 161.351L445.616 160.55L447.209 159.749L446.78 159.021C444.321 154.855 443.947 149.03 445.819 144.05C447.466 139.667 451.313 135.731 455.702 133.941C460.514 131.978 466.867 132.398 471.176 134.965C471.818 135.348 472.366 135.635 472.394 135.604C472.486 135.503 473.28 132.564 473.28 132.325C473.28 132.197 472.677 131.789 471.939 131.418C468.008 129.438 463.435 128.732 459.044 129.426ZM434.029 132.434C434.107 133.059 434.202 133.604 434.241 133.644C434.28 133.685 436.243 133.24 438.602 132.656L442.893 131.593L440.835 131.469C439.704 131.401 437.678 131.334 436.333 131.321L433.889 131.297L434.029 132.434ZM459.439 134.164C448.426 136.391 442.705 147.898 447.619 157.939C447.993 158.704 448.345 159.173 448.543 159.169C449.279 159.156 458.743 156.663 458.7 156.493C458.638 156.253 453.508 148.917 453.321 148.801C453.243 148.753 452.847 148.939 452.442 149.214C451.765 149.674 451.67 149.69 451.272 149.417C450.166 148.656 449.69 148.152 449.802 147.86C449.867 147.692 450.549 147.132 451.318 146.616C452.088 146.1 452.717 145.637 452.717 145.587C452.717 145.537 452.348 144.97 451.896 144.326C451.444 143.682 451.11 143.126 451.154 143.09C451.198 143.055 451.651 142.745 452.16 142.4L453.086 141.775L453.919 142.962C454.377 143.614 454.789 144.148 454.834 144.148C454.879 144.148 455.309 143.848 455.789 143.482L456.662 142.815L455.876 141.717C455.443 141.114 455.09 140.546 455.09 140.456C455.09 140.366 455.492 140.039 455.984 139.728C457.018 139.075 457.107 139.112 458.049 140.58L458.658 141.528L459.889 141.018C461.635 140.294 463.36 140.296 464.599 141.024C465.545 141.581 466.415 142.563 466.756 143.459C466.992 144.079 467.059 145.874 466.869 146.473C466.744 146.868 466.777 146.883 467.386 146.708C467.745 146.605 468.277 146.521 468.571 146.521C469.164 146.521 468.907 147.187 471.03 140.125L471.972 136.991L471.489 136.625C470.756 136.068 468.741 135.125 467.327 134.676C464.74 133.854 461.888 133.669 459.439 134.164ZM444.401 137.896C444.245 138.041 442.292 139.385 440.063 140.883C437.834 142.382 435.888 143.721 435.739 143.86C435.512 144.071 435.573 144.243 436.118 144.921C436.476 145.366 436.872 145.73 436.999 145.73C437.126 145.73 437.566 145.352 437.976 144.89C438.387 144.428 440.103 142.645 441.791 140.928C443.478 139.211 444.82 137.767 444.773 137.72C444.725 137.672 444.558 137.751 444.401 137.896ZM459.696 144.336C458.278 144.98 456.449 146.317 456.618 146.587C457.008 147.209 459.312 150.593 459.447 150.743C459.611 150.925 461.446 149.741 462.663 148.667C464.115 147.386 464.21 145.802 462.906 144.593C462.077 143.824 461.012 143.739 459.696 144.336ZM465.891 149.825C465.383 149.956 463.741 150.934 462.246 151.997L460.999 152.884L461.337 153.409C461.523 153.699 461.945 154.291 462.276 154.726C462.606 155.161 462.893 155.543 462.913 155.575C462.933 155.606 463.78 155.424 464.795 155.169L466.641 154.705L467.318 152.507C467.691 151.299 467.942 150.169 467.876 149.997C467.757 149.688 466.761 149.602 465.891 149.825Z" fill="#C3ADDE" stroke="white" stroke-width="1.75876" mask="url(#path-17-inside-4_1_2)"/>
<defs>
<filter id="filter0_f_1_2" x="0.247345" y="0.247345" width="668.505" height="782.505" filterUnits="userSpaceOnUse" color-interpolation-filters="sRGB">
<feFlood flood-opacity="0" result="BackgroundImageFix"/>
<feBlend mode="normal" in="SourceGraphic" in2="BackgroundImageFix" result="shape"/>
<feGaussianBlur stdDeviation="64.3763" result="effect1_foregroundBlur_1_2"/>
</filter>
<filter id="filter1_f_1_2" x="202.192" y="192.333" width="71.0206" height="80.3172" filterUnits="userSpaceOnUse" color-interpolation-filters="sRGB">
<feFlood flood-opacity="0" result="BackgroundImageFix"/>
<feBlend mode="normal" in="SourceGraphic" in2="BackgroundImageFix" result="shape"/>
<feGaussianBlur stdDeviation="3.15002" result="effect1_foregroundBlur_1_2"/>
</filter>
<filter id="filter2_f_1_2" x="378.265" y="342.494" width="85.1004" height="81.0124" filterUnits="userSpaceOnUse" color-interpolation-filters="sRGB">
<feFlood flood-opacity="0" result="BackgroundImageFix"/>
<feBlend mode="normal" in="SourceGraphic" in2="BackgroundImageFix" result="shape"/>
<feGaussianBlur stdDeviation="2.75311" result="effect1_foregroundBlur_1_2"/>
</filter>
<filter id="filter3_f_1_2" x="207.626" y="491.626" width="82.7558" height="82.7365" filterUnits="userSpaceOnUse" color-interpolation-filters="sRGB">
<feFlood flood-opacity="0" result="BackgroundImageFix"/>
<feBlend mode="normal" in="SourceGraphic" in2="BackgroundImageFix" result="shape"/>
<feGaussianBlur stdDeviation="2.68682" result="effect1_foregroundBlur_1_2"/>
</filter>
<filter id="filter4_f_1_2" x="410.848" y="98.848" width="84.1805" height="84.2506" filterUnits="userSpaceOnUse" color-interpolation-filters="sRGB">
<feFlood flood-opacity="0" result="BackgroundImageFix"/>
<feBlend mode="normal" in="SourceGraphic" in2="BackgroundImageFix" result="shape"/>
<feGaussianBlur stdDeviation="2.07602" result="effect1_foregroundBlur_1_2"/>
</filter>
<linearGradient id="paint0_linear_1_2" x1="242.733" y1="158.377" x2="242.733" y2="312.83" gradientUnits="userSpaceOnUse">
<stop offset="0.380208" stop-color="#FBE4FF"/>
<stop offset="0.666667" stop-color="#811FFF"/>
</linearGradient>
<linearGradient id="paint1_linear_1_2" x1="425.733" y1="306.377" x2="425.733" y2="460.83" gradientUnits="userSpaceOnUse">
<stop offset="0.380208" stop-color="#FBE4FF"/>
<stop offset="0.666667" stop-color="#811FFF"/>
</linearGradient>
<linearGradient id="paint2_linear_1_2" x1="254.733" y1="458.377" x2="254.733" y2="612.83" gradientUnits="userSpaceOnUse">
<stop offset="0.380208" stop-color="#FBE4FF"/>
<stop offset="0.666667" stop-color="#811FFF"/>
</linearGradient>
<linearGradient id="paint3_linear_1_2" x1="458.733" y1="72.3773" x2="458.733" y2="226.83" gradientUnits="userSpaceOnUse">
<stop offset="0.380208" stop-color="#FBE4FF"/>
<stop offset="0.666667" stop-color="#811FFF"/>
</linearGradient>
</defs>
</svg>
