<svg width="32" height="32" viewBox="0 0 32 32" fill="none" xmlns="http://www.w3.org/2000/svg">
<path fill-rule="evenodd" clip-rule="evenodd" d="M13.2743 0.202721C9.98073 0.797569 7.22721 2.21998 4.81903 4.57072C1.68978 7.62546 0 11.6269 0 15.9827C0 20.3384 1.68978 24.3398 4.81903 27.3946C11.1094 33.5351 20.8789 33.5351 27.1692 27.3946C30.2985 24.3398 31.9882 20.3384 31.9882 15.9827C31.9882 11.6269 30.2985 7.62546 27.1692 4.57072C24.0473 1.52317 20.2023 -0.0329262 15.8767 0.000528186C15.025 0.00705912 13.8538 0.0980923 13.2743 0.202721ZM23.1959 8.45435C24.0198 8.88046 24.2623 10.1753 23.6536 10.8988C23.143 11.5056 22.5131 11.6668 21.7661 11.3815C21.2458 11.1828 21.1208 11.0566 20.8613 10.4688L20.5603 9.7868L19.0671 9.43639L17.5739 9.08612L17.4569 9.39388C17.3925 9.56315 17.1486 10.3201 16.9147 11.0761C16.6808 11.832 16.4616 12.5257 16.4274 12.6172C16.3857 12.7296 16.5113 12.7844 16.8129 12.7856C17.7409 12.7892 19.7551 13.3076 20.7829 13.8073C21.8167 14.3101 21.835 14.3135 22.2109 14.084C22.4414 13.9434 22.8603 13.8512 23.2717 13.8508C24.1682 13.8498 24.7641 14.2461 25.1056 15.0698C25.4343 15.863 25.321 16.5026 24.7357 17.1569C24.3668 17.5694 24.2841 17.7828 24.223 18.4799C24.0734 20.1851 22.9094 21.6383 20.9144 22.6102C19.1979 23.4466 18.2696 23.6382 15.9275 23.6398C14.2528 23.6409 13.7596 23.5928 12.8898 23.3429C9.7992 22.4551 7.76062 20.5245 7.68411 18.4131C7.65932 17.7305 7.59481 17.5478 7.23294 17.1357C6.66488 16.4889 6.55746 15.8547 6.88267 15.0698C7.21975 14.2565 7.82193 13.8501 8.68987 13.8501C9.04921 13.8501 9.52823 13.9458 9.75442 14.0628C10.1473 14.266 10.1984 14.2596 10.894 13.919C12.2852 13.2378 14.0274 12.7838 15.2508 12.7838H15.8167L16.4676 10.7026C16.8254 9.55795 17.1861 8.5955 17.2689 8.56365C17.3516 8.53193 18.1632 8.68347 19.0725 8.90046L20.7257 9.29485L21.0589 8.91938C21.2422 8.71293 21.5121 8.48008 21.6587 8.40211C22.044 8.19712 22.7444 8.22084 23.1959 8.45435ZM12.5062 16.1866C12.0736 16.4214 11.8027 17.1421 11.9763 17.5962C12.2583 18.3338 13.0495 18.6662 13.71 18.3246C14.508 17.9119 14.6441 17.0113 14.0051 16.3722C13.5697 15.9368 13.0781 15.8759 12.5062 16.1866ZM17.9831 16.3722C17.3442 17.0113 17.4802 17.9119 18.2782 18.3246C19.3258 18.8663 20.4721 17.705 19.9281 16.6531C19.5379 15.8987 18.5932 15.7622 17.9831 16.3722ZM13.0027 20.5023C12.7375 20.9314 13.7106 21.5134 15.0371 21.7192C16.6223 21.9651 18.7331 21.4766 18.9912 20.8042C19.16 20.3642 18.8042 20.3325 18.097 20.7245C17.4448 21.0857 17.2918 21.1141 15.9941 21.1141C14.7138 21.1141 14.5393 21.0829 13.9447 20.7476C13.2397 20.3498 13.1166 20.3179 13.0027 20.5023Z" fill="#933DF6"/>
</svg>
