<svg width="384" height="333" viewBox="0 0 384 333" fill="none" xmlns="http://www.w3.org/2000/svg">
<path d="M343.031 108.446C354.074 130.767 347.956 158.996 329.041 186.621C310.13 214.24 278.455 241.21 238.493 260.971C198.531 280.733 157.868 289.534 124.436 287.799C90.9957 286.064 64.8432 273.793 53.801 251.472C42.7587 229.151 48.8764 200.923 67.7917 173.297C86.7023 145.679 118.377 118.709 158.339 98.9471C198.301 79.1857 238.964 70.3842 272.396 72.1193C305.837 73.8549 331.989 86.1253 343.031 108.446Z" stroke="url(#paint0_linear_2_620)" stroke-width="0.449831"/>
<path d="M307.899 158.388C314.555 171.843 311.11 188.773 300.037 205.306C288.97 221.832 270.315 237.903 246.689 249.587C223.062 261.27 198.965 266.34 179.111 265.105C159.248 263.869 143.699 256.332 137.043 242.877C130.386 229.422 133.832 212.493 144.905 195.959C155.972 179.434 174.627 163.362 198.253 151.679C221.88 139.995 245.977 134.926 265.831 136.161C285.694 137.396 301.243 144.933 307.899 158.388Z" fill="url(#paint1_radial_2_620)" stroke="url(#paint2_linear_2_620)" stroke-width="0.599775"/>
<ellipse rx="49.1631" ry="27.573" transform="matrix(0.896389 -0.443268 0.44341 0.896319 235.177 217.422)" fill="url(#paint3_radial_2_620)" fill-opacity="0.6"/>
<g filter="url(#filter0_d_2_620)">
<path fill-rule="evenodd" clip-rule="evenodd" d="M247.403 242.136C278.264 226.875 296.638 201.072 288.441 184.503C280.245 167.935 248.582 166.875 217.721 182.136C186.859 197.397 168.486 223.2 176.682 239.769C184.879 256.337 216.542 257.397 247.403 242.136ZM247.404 242.136C271.742 230.1 285.999 209.278 279.247 195.629C272.494 181.98 247.29 180.672 222.951 192.707C198.613 204.743 184.356 225.565 191.108 239.214C197.86 252.863 223.065 254.171 247.404 242.136Z" fill="url(#paint4_radial_2_620)" fill-opacity="0.6" shape-rendering="crispEdges"/>
</g>
<g filter="url(#filter1_d_2_620)">
<path fill-rule="evenodd" clip-rule="evenodd" d="M248.726 244.811C292.809 223.012 318.63 185.3 306.4 160.578C294.171 135.857 248.521 133.487 204.438 155.286C160.356 177.085 134.535 214.797 146.764 239.519C158.994 264.24 204.644 266.61 248.726 244.811ZM247.403 242.136C278.264 226.875 296.638 201.072 288.441 184.504C280.245 167.935 248.582 166.875 217.721 182.136C186.859 197.397 168.486 223.2 176.682 239.769C184.879 256.338 216.542 257.397 247.403 242.136Z" fill="url(#paint5_radial_2_620)" shape-rendering="crispEdges"/>
</g>
<path fill-rule="evenodd" clip-rule="evenodd" d="M246.805 240.928C266.757 231.061 278.445 213.991 272.909 202.801C267.374 191.612 246.711 190.539 226.759 200.406C206.806 210.273 195.118 227.343 200.654 238.532C206.189 249.722 226.852 250.794 246.805 240.928ZM246.805 240.927C262.572 233.13 271.808 219.641 267.434 210.799C263.059 201.956 246.731 201.109 230.963 208.906C215.196 216.703 205.96 230.192 210.334 239.035C214.708 247.877 231.037 248.725 246.805 240.927Z" fill="url(#paint6_radial_2_620)"/>
<path d="M291.542 179.751C296.128 189.021 293.595 200.762 285.711 212.277C277.831 223.786 264.627 235.029 247.964 243.269C231.301 251.509 214.35 255.177 200.419 254.454C186.481 253.731 175.61 248.618 171.024 239.348C166.438 230.078 168.972 218.337 176.855 206.823C184.736 195.314 197.939 184.07 214.602 175.83C231.265 167.59 248.216 163.922 262.148 164.645C276.086 165.369 286.956 170.482 291.542 179.751Z" stroke="url(#paint7_linear_2_620)" stroke-width="0.374859"/>
<rect width="0.669057" height="0.669057" transform="matrix(0.9474 0.320299 -0.32036 0.947212 161.495 243.002)" fill="#AD00FF"/>
<rect width="1.35351" height="1.35351" transform="matrix(0.947411 0.320266 -0.320393 0.947201 173.792 251.81)" fill="#AD00FF"/>
<rect width="0.628686" height="0.628686" transform="matrix(-0.947411 -0.320266 -0.320393 0.947201 196.424 241.687)" fill="#AD00FF"/>
<rect width="0.669057" height="0.669057" transform="matrix(0.947411 0.320266 -0.320393 0.947201 192.391 256.985)" fill="#AD00FF"/>
<rect width="0.669057" height="0.669057" transform="matrix(0.947422 0.320233 -0.320426 0.94719 147.557 248.123)" fill="#AD00FF"/>
<rect width="0.669057" height="0.669057" transform="matrix(0.947422 0.320233 -0.320426 0.94719 140.761 226.318)" fill="#7000FF" fill-opacity="0.5"/>
<rect width="0.467488" height="0.467488" transform="matrix(0.947411 0.320266 -0.320393 0.947201 155.777 233.583)" fill="#7000FF" fill-opacity="0.5"/>
<rect width="0.872826" height="0.872826" transform="matrix(0.947411 0.320266 -0.320393 0.947201 149.624 234.016)" fill="#7000FF" fill-opacity="0.5"/>
<g filter="url(#filter2_d_2_620)">
<ellipse rx="15.2193" ry="9.5327" transform="matrix(0.896389 -0.443268 0.44341 0.896319 172.89 224.962)" fill="url(#paint8_linear_2_620)" fill-opacity="0.5" shape-rendering="crispEdges"/>
<path d="M186.398 218.282C187.534 220.579 187.086 223.413 185.398 226.155C183.711 228.895 180.796 231.52 177.05 233.372C173.304 235.225 169.449 235.947 166.247 235.625C163.043 235.303 160.518 233.939 159.382 231.642C158.246 229.345 158.694 226.511 160.382 223.769C162.069 221.03 164.983 218.405 168.729 216.552C172.475 214.7 176.331 213.977 179.533 214.299C182.737 214.622 185.262 215.986 186.398 218.282Z" stroke="url(#paint9_linear_2_620)" stroke-opacity="0.6" stroke-width="0.299887" shape-rendering="crispEdges"/>
</g>
<ellipse rx="19.3081" ry="19.3045" transform="matrix(0.896389 -0.443268 0.44341 0.896319 168.948 216.995)" fill="url(#paint10_radial_2_620)"/>
<g filter="url(#filter3_d_2_620)">
<ellipse rx="18.8769" ry="11.0413" transform="matrix(0.896389 -0.443268 0.44341 0.896319 170.363 219.856)" fill="url(#paint11_linear_2_620)" fill-opacity="0.5" shape-rendering="crispEdges"/>
<path d="M187.15 211.555C188.468 214.22 187.826 217.572 185.665 220.855C183.506 224.134 179.845 227.317 175.192 229.618C170.539 231.919 165.788 232.896 161.87 232.621C157.949 232.346 154.895 230.822 153.576 228.157C152.258 225.492 152.9 222.14 155.061 218.857C157.221 215.578 160.881 212.395 165.534 210.094C170.187 207.793 174.939 206.816 178.856 207.091C182.777 207.366 185.831 208.889 187.15 211.555Z" stroke="url(#paint12_linear_2_620)" stroke-opacity="0.6" stroke-width="0.299887" shape-rendering="crispEdges"/>
</g>
<ellipse rx="14.3019" ry="14.2992" transform="matrix(0.896389 -0.443268 0.44341 0.896319 168.948 216.995)" fill="url(#paint13_radial_2_620)"/>
<ellipse rx="14.3019" ry="14.2992" transform="matrix(0.896389 -0.443268 0.44341 0.896319 168.948 216.995)" fill="url(#paint14_radial_2_620)"/>
<g filter="url(#filter4_d_2_620)">
<ellipse rx="18.6849" ry="10.786" transform="matrix(0.896389 -0.443268 0.44341 0.896319 167.324 213.711)" fill="url(#paint15_linear_2_620)" fill-opacity="0.5" shape-rendering="crispEdges"/>
<path d="M183.939 205.495C185.226 208.097 184.575 211.381 182.424 214.608C180.276 217.83 176.646 220.967 172.04 223.245C167.434 225.522 162.738 226.503 158.872 226.254C155.002 226.005 151.996 224.529 150.71 221.927C149.423 219.326 150.073 216.041 152.224 212.815C154.372 209.592 158.002 206.456 162.608 204.178C167.214 201.9 171.91 200.92 175.776 201.168C179.646 201.417 182.652 202.894 183.939 205.495Z" stroke="url(#paint16_linear_2_620)" stroke-opacity="0.6" stroke-width="0.299887" shape-rendering="crispEdges"/>
</g>
<g filter="url(#filter5_d_2_620)">
<ellipse rx="14.499" ry="9.36999" transform="matrix(0.896389 -0.443268 0.44341 0.896319 164.854 208.72)" fill="url(#paint17_linear_2_620)" fill-opacity="0.5" shape-rendering="crispEdges"/>
<path d="M177.717 202.359C178.834 204.618 178.438 207.381 176.853 210.037C175.27 212.692 172.509 215.22 168.943 216.984C165.376 218.748 161.69 219.407 158.619 219.054C155.546 218.701 153.109 217.339 151.992 215.08C150.875 212.822 151.271 210.059 152.855 207.403C154.438 204.748 157.199 202.22 160.766 200.456C164.333 198.692 168.018 198.033 171.089 198.386C174.162 198.739 176.599 200.101 177.717 202.359Z" stroke="url(#paint18_linear_2_620)" stroke-opacity="0.6" stroke-width="0.299887" shape-rendering="crispEdges"/>
</g>
<g filter="url(#filter6_d_2_620)">
<ellipse rx="9.02452" ry="6.1155" transform="matrix(0.896389 -0.443268 0.44341 0.896319 163.41 205.803)" fill="url(#paint19_linear_2_620)" fill-opacity="0.5" shape-rendering="crispEdges"/>
<path d="M171.365 201.869C172.085 203.324 171.874 205.089 170.917 206.776C169.961 208.462 168.266 210.056 166.055 211.15C163.845 212.243 161.549 212.622 159.628 212.359C157.706 212.095 156.175 211.192 155.455 209.736C154.735 208.281 154.946 206.517 155.903 204.829C156.859 203.143 158.554 201.549 160.765 200.456C162.975 199.362 165.271 198.983 167.192 199.247C169.115 199.51 170.645 200.413 171.365 201.869Z" stroke="url(#paint20_linear_2_620)" stroke-opacity="0.6" stroke-width="0.299887" shape-rendering="crispEdges"/>
</g>
<ellipse rx="19.3081" ry="19.3045" transform="matrix(0.896389 -0.443268 0.44341 0.896319 168.948 216.995)" fill="url(#paint21_radial_2_620)" fill-opacity="0.9"/>
<g filter="url(#filter7_d_2_620)">
<ellipse rx="32.569" ry="20.3998" transform="matrix(0.896389 -0.443268 0.44341 0.896319 251.309 230.122)" fill="url(#paint22_linear_2_620)" fill-opacity="0.5" shape-rendering="crispEdges"/>
<path d="M280.216 215.827C282.648 220.742 281.689 226.807 278.076 232.674C274.466 238.537 268.229 244.155 260.213 248.119C252.196 252.083 243.945 253.629 237.094 252.94C230.238 252.25 224.834 249.331 222.403 244.416C219.971 239.502 220.93 233.436 224.543 227.569C228.153 221.706 234.39 216.089 242.406 212.124C250.423 208.16 258.674 206.614 265.525 207.303C272.381 207.993 277.785 210.912 280.216 215.827Z" stroke="url(#paint23_linear_2_620)" stroke-opacity="0.6" stroke-width="0.641753" shape-rendering="crispEdges"/>
</g>
<ellipse rx="41.319" ry="41.3112" transform="matrix(0.896389 -0.443268 0.44341 0.896319 242.876 213.072)" fill="url(#paint24_radial_2_620)"/>
<g filter="url(#filter8_d_2_620)">
<ellipse rx="40.3963" ry="23.6282" transform="matrix(0.896389 -0.443268 0.44341 0.896319 245.904 219.194)" fill="url(#paint25_linear_2_620)" fill-opacity="0.5" shape-rendering="crispEdges"/>
<path d="M281.827 201.43C284.649 207.134 283.275 214.307 278.649 221.332C274.029 228.349 266.196 235.161 256.239 240.085C246.281 245.009 236.113 247.099 227.73 246.511C219.339 245.923 212.803 242.662 209.981 236.959C207.159 231.255 208.534 224.082 213.159 217.057C217.779 210.04 225.612 203.228 235.57 198.304C245.527 193.38 255.696 191.29 264.078 191.877C272.47 192.465 279.006 195.726 281.827 201.43Z" stroke="url(#paint26_linear_2_620)" stroke-opacity="0.6" stroke-width="0.641753" shape-rendering="crispEdges"/>
</g>
<ellipse rx="30.6058" ry="30.6001" transform="matrix(0.896389 -0.443268 0.44341 0.896319 242.877 213.072)" fill="url(#paint27_radial_2_620)"/>
<ellipse rx="30.6058" ry="30.6001" transform="matrix(0.896389 -0.443268 0.44341 0.896319 242.877 213.072)" fill="url(#paint28_radial_2_620)"/>
<g filter="url(#filter9_d_2_620)">
<ellipse rx="39.9854" ry="23.0817" transform="matrix(0.896389 -0.443268 0.44341 0.896319 239.401 206.046)" fill="url(#paint29_linear_2_620)" fill-opacity="0.5" shape-rendering="crispEdges"/>
<path d="M274.956 188.464C277.71 194.031 276.319 201.06 271.716 207.965C267.118 214.861 259.35 221.573 249.493 226.447C239.637 231.321 229.587 233.42 221.314 232.888C213.032 232.355 206.6 229.195 203.846 223.628C201.092 218.062 202.484 211.033 207.087 204.128C211.684 197.232 219.452 190.519 229.309 185.645C239.165 180.771 249.215 178.672 257.488 179.205C265.77 179.738 272.202 182.898 274.956 188.464Z" stroke="url(#paint30_linear_2_620)" stroke-opacity="0.6" stroke-width="0.641753" shape-rendering="crispEdges"/>
</g>
<g filter="url(#filter10_d_2_620)">
<ellipse rx="31.0275" ry="20.0516" transform="matrix(0.896389 -0.443268 0.44341 0.896319 234.114 195.364)" fill="url(#paint31_linear_2_620)" fill-opacity="0.5" shape-rendering="crispEdges"/>
<path d="M261.64 181.753C264.03 186.586 263.182 192.499 259.792 198.183C256.404 203.864 250.496 209.275 242.863 213.049C235.23 216.824 227.344 218.235 220.772 217.479C214.196 216.724 208.98 213.808 206.589 208.976C204.199 204.143 205.047 198.23 208.437 192.545C211.825 186.865 217.733 181.454 225.366 177.679C232.999 173.905 240.885 172.494 247.457 173.249C254.033 174.005 259.249 176.921 261.64 181.753Z" stroke="url(#paint32_linear_2_620)" stroke-opacity="0.6" stroke-width="0.641753" shape-rendering="crispEdges"/>
</g>
<g filter="url(#filter11_d_2_620)">
<ellipse rx="19.3123" ry="13.087" transform="matrix(0.896389 -0.443268 0.44341 0.896319 231.026 189.121)" fill="url(#paint33_linear_2_620)" fill-opacity="0.5" shape-rendering="crispEdges"/>
<path d="M248.05 180.703C249.591 183.818 249.139 187.593 247.091 191.204C245.044 194.813 241.417 198.224 236.687 200.564C231.956 202.903 227.043 203.715 222.932 203.151C218.819 202.587 215.544 200.655 214.003 197.539C212.461 194.424 212.913 190.649 214.961 187.038C217.008 183.429 220.635 180.018 225.366 177.679C230.096 175.339 235.009 174.528 239.12 175.091C243.234 175.655 246.509 177.588 248.05 180.703Z" stroke="url(#paint34_linear_2_620)" stroke-opacity="0.6" stroke-width="0.641753" shape-rendering="crispEdges"/>
</g>
<ellipse rx="41.319" ry="41.3112" transform="matrix(0.896389 -0.443268 0.44341 0.896319 242.876 213.072)" fill="url(#paint35_radial_2_620)" fill-opacity="0.9"/>
<rect width="0.792726" height="0.792726" transform="matrix(0.947411 0.320266 -0.320393 0.947201 94.2482 177.312)" fill="#0066FF" fill-opacity="0.5"/>
<rect width="1.6016" height="1.6016" transform="matrix(0.947411 0.320266 -0.320393 0.947201 108.8 187.735)" fill="#0066FF" fill-opacity="0.5"/>
<rect width="0.744984" height="0.744984" transform="matrix(-0.947421 -0.320237 -0.320422 0.947191 135.579 175.756)" fill="#0066FF" fill-opacity="0.5"/>
<rect width="0.792726" height="0.792726" transform="matrix(0.947411 0.320266 -0.320393 0.947201 130.808 193.857)" fill="#0066FF" fill-opacity="0.5"/>
<rect width="0.792726" height="0.792726" transform="matrix(0.947411 0.320266 -0.320393 0.947201 77.7552 183.371)" fill="#0066FF" fill-opacity="0.5"/>
<rect width="0.792726" height="0.792726" transform="matrix(0.947411 0.320266 -0.320393 0.947201 69.7128 157.57)" fill="#0500FF" fill-opacity="0.5"/>
<rect width="0.553245" height="0.553245" transform="matrix(0.947398 0.320306 -0.320354 0.947214 87.4827 166.166)" fill="#0500FF" fill-opacity="0.5"/>
<rect width="1.03281" height="1.03281" transform="matrix(0.947411 0.320266 -0.320393 0.947201 80.2016 166.679)" fill="#0500FF" fill-opacity="0.5"/>
<rect width="1.1026" height="1.1026" transform="matrix(0.947411 0.320266 -0.320393 0.947201 94.9455 278.061)" fill="#0066FF" fill-opacity="0.5"/>
<rect width="2.22712" height="2.22712" transform="matrix(0.947415 0.320256 -0.320403 0.947198 115.179 292.553)" fill="#0066FF" fill-opacity="0.5"/>
<rect width="1.03633" height="1.03633" transform="matrix(-0.947411 -0.320266 -0.320393 0.947201 152.415 275.897)" fill="#0066FF" fill-opacity="0.5"/>
<rect width="1.1026" height="1.1026" transform="matrix(0.947418 0.320246 -0.320413 0.947194 145.779 301.066)" fill="#0066FF" fill-opacity="0.5"/>
<rect width="1.1026" height="1.1026" transform="matrix(0.947418 0.320246 -0.320413 0.947194 72.0156 286.486)" fill="#0066FF" fill-opacity="0.5"/>
<rect width="1.1026" height="1.1026" transform="matrix(0.947411 0.320266 -0.320393 0.947201 60.8329 250.612)" fill="#0500FF" fill-opacity="0.5"/>
<rect width="0.770325" height="0.770325" transform="matrix(0.947411 0.320266 -0.320393 0.947201 85.5401 262.564)" fill="#0500FF" fill-opacity="0.5"/>
<rect width="1.43584" height="1.43584" transform="matrix(0.947416 0.320251 -0.320408 0.947196 75.416 263.277)" fill="#0500FF" fill-opacity="0.5"/>
<rect width="0.943831" height="0.943831" transform="matrix(0.511905 -0.859003 0.859182 0.511737 283.098 117.412)" fill="#0066FF" fill-opacity="0.5"/>
<rect width="1.90618" height="1.90618" transform="matrix(0.511905 -0.859003 0.859182 0.511737 298.86 103.084)" fill="#0066FF" fill-opacity="0.5"/>
<rect width="0.886988" height="0.886988" transform="matrix(-0.511905 0.859003 0.859182 0.511737 291.601 68.9416)" fill="#0066FF" fill-opacity="0.5"/>
<rect width="0.943831" height="0.943831" transform="matrix(0.511944 -0.858979 0.859205 0.511697 311.478 79.0089)" fill="#0066FF" fill-opacity="0.5"/>
<rect width="0.943831" height="0.943831" transform="matrix(0.511905 -0.859003 0.859182 0.511737 286.035 138.109)" fill="#0066FF" fill-opacity="0.5"/>
<rect width="0.943831" height="0.943831" transform="matrix(0.511905 -0.859003 0.859182 0.511737 253.997 141.029)" fill="#0500FF" fill-opacity="0.5"/>
<rect width="0.658459" height="0.658459" transform="matrix(0.511877 -0.85902 0.859165 0.511765 268.437 122.502)" fill="#0500FF" fill-opacity="0.5"/>
<rect width="1.22893" height="1.22893" transform="matrix(0.51192 -0.858994 0.859191 0.511722 267.216 131.1)" fill="#0500FF" fill-opacity="0.5"/>
<rect width="1.90618" height="1.90618" transform="matrix(0.95831 -0.286132 0.28615 0.958065 223.145 113.935)" fill="#0066FF" fill-opacity="0.5"/>
<rect width="0.886988" height="0.886988" transform="matrix(-0.95831 0.286132 0.28615 0.958065 240.911 83.8849)" fill="#0066FF" fill-opacity="0.5"/>
<rect width="0.943831" height="0.943831" transform="matrix(0.95831 -0.286132 0.28615 0.958065 248.732 104.746)" fill="#0066FF" fill-opacity="0.5"/>
<rect width="0.943831" height="0.943831" transform="matrix(0.95831 -0.286132 0.28615 0.958065 189.996 131.045)" fill="#0066FF" fill-opacity="0.5"/>
<rect width="0.943831" height="0.943831" transform="matrix(0.95831 -0.286132 0.28615 0.958065 164.434 111.522)" fill="#0500FF" fill-opacity="0.5"/>
<rect width="0.658459" height="0.658459" transform="matrix(0.958306 -0.286146 0.286136 0.958069 187.605 107.649)" fill="#0500FF" fill-opacity="0.5"/>
<rect width="1.22893" height="1.22893" transform="matrix(0.95831 -0.286132 0.28615 0.958065 180.887 113.154)" fill="#0500FF" fill-opacity="0.5"/>
<defs>
<filter id="filter0_d_2_620" x="173.981" y="169.1" width="120.16" height="86.0723" filterUnits="userSpaceOnUse" color-interpolation-filters="sRGB">
<feFlood flood-opacity="0" result="BackgroundImageFix"/>
<feColorMatrix in="SourceAlpha" type="matrix" values="0 0 0 0 0 0 0 0 0 0 0 0 0 0 0 0 0 0 127 0" result="hardAlpha"/>
<feOffset dx="1.49944"/>
<feGaussianBlur stdDeviation="1.12458"/>
<feComposite in2="hardAlpha" operator="out"/>
<feColorMatrix type="matrix" values="0 0 0 0 0.119531 0 0 0 0 0.163828 0 0 0 0 0.5625 0 0 0 0.1 0"/>
<feBlend mode="normal" in2="BackgroundImageFix" result="effect1_dropShadow_2_620"/>
<feBlend mode="normal" in="SourceGraphic" in2="effect1_dropShadow_2_620" result="shape"/>
</filter>
<filter id="filter1_d_2_620" x="142.979" y="137.97" width="170.206" height="123.857" filterUnits="userSpaceOnUse" color-interpolation-filters="sRGB">
<feFlood flood-opacity="0" result="BackgroundImageFix"/>
<feColorMatrix in="SourceAlpha" type="matrix" values="0 0 0 0 0 0 0 0 0 0 0 0 0 0 0 0 0 0 127 0" result="hardAlpha"/>
<feOffset dx="1.49944" dy="-0.149944"/>
<feGaussianBlur stdDeviation="1.12458"/>
<feComposite in2="hardAlpha" operator="out"/>
<feColorMatrix type="matrix" values="0 0 0 0 0.119531 0 0 0 0 0.163828 0 0 0 0 0.5625 0 0 0 0.1 0"/>
<feBlend mode="normal" in2="BackgroundImageFix" result="effect1_dropShadow_2_620"/>
<feBlend mode="normal" in="SourceGraphic" in2="effect1_dropShadow_2_620" result="shape"/>
</filter>
<filter id="filter2_d_2_620" x="156.654" y="212.126" width="33.0704" height="26.2724" filterUnits="userSpaceOnUse" color-interpolation-filters="sRGB">
<feFlood flood-opacity="0" result="BackgroundImageFix"/>
<feColorMatrix in="SourceAlpha" type="matrix" values="0 0 0 0 0 0 0 0 0 0 0 0 0 0 0 0 0 0 127 0" result="hardAlpha"/>
<feOffset dx="0.299887" dy="0.299887"/>
<feGaussianBlur stdDeviation="1.12458"/>
<feComposite in2="hardAlpha" operator="out"/>
<feColorMatrix type="matrix" values="0 0 0 0 0.440043 0 0 0 0 0.20092 0 0 0 0 0.679167 0 0 0 0.2 0"/>
<feBlend mode="normal" in2="BackgroundImageFix" result="effect1_dropShadow_2_620"/>
<feBlend mode="normal" in="SourceGraphic" in2="effect1_dropShadow_2_620" result="shape"/>
</filter>
<filter id="filter3_d_2_620" x="150.794" y="204.947" width="39.7377" height="30.4185" filterUnits="userSpaceOnUse" color-interpolation-filters="sRGB">
<feFlood flood-opacity="0" result="BackgroundImageFix"/>
<feColorMatrix in="SourceAlpha" type="matrix" values="0 0 0 0 0 0 0 0 0 0 0 0 0 0 0 0 0 0 127 0" result="hardAlpha"/>
<feOffset dx="0.299887" dy="0.299887"/>
<feGaussianBlur stdDeviation="1.12458"/>
<feComposite in2="hardAlpha" operator="out"/>
<feColorMatrix type="matrix" values="0 0 0 0 0.440043 0 0 0 0 0.20092 0 0 0 0 0.679167 0 0 0 0.2 0"/>
<feBlend mode="normal" in2="BackgroundImageFix" result="effect1_dropShadow_2_620"/>
<feBlend mode="normal" in="SourceGraphic" in2="effect1_dropShadow_2_620" result="shape"/>
</filter>
<filter id="filter4_d_2_620" x="147.952" y="199.031" width="39.3441" height="29.9595" filterUnits="userSpaceOnUse" color-interpolation-filters="sRGB">
<feFlood flood-opacity="0" result="BackgroundImageFix"/>
<feColorMatrix in="SourceAlpha" type="matrix" values="0 0 0 0 0 0 0 0 0 0 0 0 0 0 0 0 0 0 127 0" result="hardAlpha"/>
<feOffset dx="0.299887" dy="0.299887"/>
<feGaussianBlur stdDeviation="1.12458"/>
<feComposite in2="hardAlpha" operator="out"/>
<feColorMatrix type="matrix" values="0 0 0 0 0.440043 0 0 0 0 0.20092 0 0 0 0 0.679167 0 0 0 0.2 0"/>
<feBlend mode="normal" in2="BackgroundImageFix" result="effect1_dropShadow_2_620"/>
<feBlend mode="normal" in="SourceGraphic" in2="effect1_dropShadow_2_620" result="shape"/>
</filter>
<filter id="filter5_d_2_620" x="149.257" y="196.195" width="31.795" height="25.6503" filterUnits="userSpaceOnUse" color-interpolation-filters="sRGB">
<feFlood flood-opacity="0" result="BackgroundImageFix"/>
<feColorMatrix in="SourceAlpha" type="matrix" values="0 0 0 0 0 0 0 0 0 0 0 0 0 0 0 0 0 0 127 0" result="hardAlpha"/>
<feOffset dx="0.299887" dy="0.299887"/>
<feGaussianBlur stdDeviation="1.12458"/>
<feComposite in2="hardAlpha" operator="out"/>
<feColorMatrix type="matrix" values="0 0 0 0 0.440043 0 0 0 0 0.20092 0 0 0 0 0.679167 0 0 0 0.2 0"/>
<feBlend mode="normal" in2="BackgroundImageFix" result="effect1_dropShadow_2_620"/>
<feBlend mode="normal" in="SourceGraphic" in2="effect1_dropShadow_2_620" result="shape"/>
</filter>
<filter id="filter6_d_2_620" x="152.927" y="197.067" width="21.5667" height="18.0711" filterUnits="userSpaceOnUse" color-interpolation-filters="sRGB">
<feFlood flood-opacity="0" result="BackgroundImageFix"/>
<feColorMatrix in="SourceAlpha" type="matrix" values="0 0 0 0 0 0 0 0 0 0 0 0 0 0 0 0 0 0 127 0" result="hardAlpha"/>
<feOffset dx="0.299887" dy="0.299887"/>
<feGaussianBlur stdDeviation="1.12458"/>
<feComposite in2="hardAlpha" operator="out"/>
<feColorMatrix type="matrix" values="0 0 0 0 0.440043 0 0 0 0 0.20092 0 0 0 0 0.679167 0 0 0 0.2 0"/>
<feBlend mode="normal" in2="BackgroundImageFix" result="effect1_dropShadow_2_620"/>
<feBlend mode="normal" in="SourceGraphic" in2="effect1_dropShadow_2_620" result="shape"/>
</filter>
<filter id="filter7_d_2_620" x="216.566" y="202.652" width="70.77" height="56.2223" filterUnits="userSpaceOnUse" color-interpolation-filters="sRGB">
<feFlood flood-opacity="0" result="BackgroundImageFix"/>
<feColorMatrix in="SourceAlpha" type="matrix" values="0 0 0 0 0 0 0 0 0 0 0 0 0 0 0 0 0 0 127 0" result="hardAlpha"/>
<feOffset dx="0.641753" dy="0.641753"/>
<feGaussianBlur stdDeviation="2.40657"/>
<feComposite in2="hardAlpha" operator="out"/>
<feColorMatrix type="matrix" values="0 0 0 0 0.440043 0 0 0 0 0.20092 0 0 0 0 0.679167 0 0 0 0.2 0"/>
<feBlend mode="normal" in2="BackgroundImageFix" result="effect1_dropShadow_2_620"/>
<feBlend mode="normal" in="SourceGraphic" in2="effect1_dropShadow_2_620" result="shape"/>
</filter>
<filter id="filter8_d_2_620" x="204.027" y="187.289" width="85.0378" height="65.095" filterUnits="userSpaceOnUse" color-interpolation-filters="sRGB">
<feFlood flood-opacity="0" result="BackgroundImageFix"/>
<feColorMatrix in="SourceAlpha" type="matrix" values="0 0 0 0 0 0 0 0 0 0 0 0 0 0 0 0 0 0 127 0" result="hardAlpha"/>
<feOffset dx="0.641753" dy="0.641753"/>
<feGaussianBlur stdDeviation="2.40657"/>
<feComposite in2="hardAlpha" operator="out"/>
<feColorMatrix type="matrix" values="0 0 0 0 0.440043 0 0 0 0 0.20092 0 0 0 0 0.679167 0 0 0 0.2 0"/>
<feBlend mode="normal" in2="BackgroundImageFix" result="effect1_dropShadow_2_620"/>
<feBlend mode="normal" in="SourceGraphic" in2="effect1_dropShadow_2_620" result="shape"/>
</filter>
<filter id="filter9_d_2_620" x="197.945" y="174.632" width="84.1956" height="64.1127" filterUnits="userSpaceOnUse" color-interpolation-filters="sRGB">
<feFlood flood-opacity="0" result="BackgroundImageFix"/>
<feColorMatrix in="SourceAlpha" type="matrix" values="0 0 0 0 0 0 0 0 0 0 0 0 0 0 0 0 0 0 127 0" result="hardAlpha"/>
<feOffset dx="0.641753" dy="0.641753"/>
<feGaussianBlur stdDeviation="2.40657"/>
<feComposite in2="hardAlpha" operator="out"/>
<feColorMatrix type="matrix" values="0 0 0 0 0.440043 0 0 0 0 0.20092 0 0 0 0 0.679167 0 0 0 0.2 0"/>
<feBlend mode="normal" in2="BackgroundImageFix" result="effect1_dropShadow_2_620"/>
<feBlend mode="normal" in="SourceGraphic" in2="effect1_dropShadow_2_620" result="shape"/>
</filter>
<filter id="filter10_d_2_620" x="200.736" y="168.561" width="68.0405" height="54.8911" filterUnits="userSpaceOnUse" color-interpolation-filters="sRGB">
<feFlood flood-opacity="0" result="BackgroundImageFix"/>
<feColorMatrix in="SourceAlpha" type="matrix" values="0 0 0 0 0 0 0 0 0 0 0 0 0 0 0 0 0 0 127 0" result="hardAlpha"/>
<feOffset dx="0.641753" dy="0.641753"/>
<feGaussianBlur stdDeviation="2.40657"/>
<feComposite in2="hardAlpha" operator="out"/>
<feColorMatrix type="matrix" values="0 0 0 0 0.440043 0 0 0 0 0.20092 0 0 0 0 0.679167 0 0 0 0.2 0"/>
<feBlend mode="normal" in2="BackgroundImageFix" result="effect1_dropShadow_2_620"/>
<feBlend mode="normal" in="SourceGraphic" in2="effect1_dropShadow_2_620" result="shape"/>
</filter>
<filter id="filter11_d_2_620" x="208.592" y="170.427" width="46.1523" height="38.6717" filterUnits="userSpaceOnUse" color-interpolation-filters="sRGB">
<feFlood flood-opacity="0" result="BackgroundImageFix"/>
<feColorMatrix in="SourceAlpha" type="matrix" values="0 0 0 0 0 0 0 0 0 0 0 0 0 0 0 0 0 0 127 0" result="hardAlpha"/>
<feOffset dx="0.641753" dy="0.641753"/>
<feGaussianBlur stdDeviation="2.40657"/>
<feComposite in2="hardAlpha" operator="out"/>
<feColorMatrix type="matrix" values="0 0 0 0 0.440043 0 0 0 0 0.20092 0 0 0 0 0.679167 0 0 0 0.2 0"/>
<feBlend mode="normal" in2="BackgroundImageFix" result="effect1_dropShadow_2_620"/>
<feBlend mode="normal" in="SourceGraphic" in2="effect1_dropShadow_2_620" result="shape"/>
</filter>
<linearGradient id="paint0_linear_2_620" x1="213.165" y1="343.825" x2="160.357" y2="141.385" gradientUnits="userSpaceOnUse">
<stop stop-color="white"/>
<stop offset="0.508554" stop-color="#A430FF"/>
<stop offset="1" stop-color="white" stop-opacity="0"/>
</linearGradient>
<radialGradient id="paint1_radial_2_620" cx="0" cy="0" r="1" gradientUnits="userSpaceOnUse" gradientTransform="translate(161.943 286.981) rotate(-71.9972) scale(102.83 183.291)">
<stop stop-color="white"/>
<stop offset="0.462474" stop-color="#3A45AA"/>
<stop offset="1" stop-color="#3A45AA" stop-opacity="0"/>
</radialGradient>
<linearGradient id="paint2_linear_2_620" x1="202.271" y1="269.494" x2="210.211" y2="174.436" gradientUnits="userSpaceOnUse">
<stop stop-color="white"/>
<stop offset="0.442828" stop-color="#7230FF"/>
<stop offset="1" stop-color="white" stop-opacity="0"/>
</linearGradient>
<radialGradient id="paint3_radial_2_620" cx="0" cy="0" r="1" gradientUnits="userSpaceOnUse" gradientTransform="translate(74.7537 2.26984) rotate(141.32) scale(71.5014 127.459)">
<stop offset="0.39201" stop-color="#1B29A4" stop-opacity="0"/>
<stop offset="0.841913" stop-color="#2938BB" stop-opacity="0.5"/>
<stop offset="1" stop-color="#172075" stop-opacity="0.5"/>
</radialGradient>
<radialGradient id="paint4_radial_2_620" cx="0" cy="0" r="1" gradientUnits="userSpaceOnUse" gradientTransform="translate(248.029 170.222) rotate(115.26) scale(99.3955 175.621)">
<stop offset="0.39201" stop-color="#6675FF" stop-opacity="0"/>
<stop offset="0.841913" stop-color="#6675FF" stop-opacity="0.5"/>
<stop offset="1" stop-color="#192059" stop-opacity="0"/>
</radialGradient>
<radialGradient id="paint5_radial_2_620" cx="0" cy="0" r="1" gradientUnits="userSpaceOnUse" gradientTransform="translate(247.809 138.426) rotate(114.037) scale(144.454 257.546)">
<stop offset="0.39201" stop-color="#6675FF" stop-opacity="0"/>
<stop offset="0.841913" stop-color="#6675FF" stop-opacity="0.5"/>
<stop offset="1" stop-color="#DBDEFF" stop-opacity="0"/>
</radialGradient>
<radialGradient id="paint6_radial_2_620" cx="0" cy="0" r="1" gradientUnits="userSpaceOnUse" gradientTransform="translate(246.389 192.775) rotate(115.004) scale(58.6123 104.499)">
<stop offset="0.39201" stop-color="#17217A" stop-opacity="0"/>
<stop offset="0.841913" stop-color="#1A2374" stop-opacity="0.5"/>
<stop offset="1" stop-color="#151E6C" stop-opacity="0.5"/>
</radialGradient>
<linearGradient id="paint7_linear_2_620" x1="216.649" y1="257.317" x2="208.561" y2="177.213" gradientUnits="userSpaceOnUse">
<stop stop-color="white"/>
<stop offset="0.508554" stop-color="#9730FF"/>
<stop offset="1" stop-color="white" stop-opacity="0"/>
</linearGradient>
<linearGradient id="paint8_linear_2_620" x1="30.4386" y1="7.46939" x2="0.00962148" y2="9.666" gradientUnits="userSpaceOnUse">
<stop stop-color="#262A8D" stop-opacity="0.5"/>
<stop offset="0.885417" stop-color="#6833FF" stop-opacity="0.5"/>
<stop offset="1" stop-color="#4A2F98" stop-opacity="0.5"/>
</linearGradient>
<linearGradient id="paint9_linear_2_620" x1="181.336" y1="236.037" x2="173.687" y2="216.289" gradientUnits="userSpaceOnUse">
<stop stop-color="#3F436F"/>
<stop offset="1" stop-color="white" stop-opacity="0"/>
</linearGradient>
<radialGradient id="paint10_radial_2_620" cx="0" cy="0" r="1" gradientUnits="userSpaceOnUse" gradientTransform="translate(1.46708e-06 26.327) rotate(-19.6604) scale(41.0068 41.0008)">
<stop offset="0.249306" stop-color="white"/>
<stop offset="0.48315" stop-color="#FF8FED" stop-opacity="0.5"/>
<stop offset="0.627037" stop-color="#220C7A" stop-opacity="0.5"/>
</radialGradient>
<linearGradient id="paint11_linear_2_620" x1="37.7538" y1="8.65146" x2="0.0406225" y2="11.5668" gradientUnits="userSpaceOnUse">
<stop stop-color="#262A8D" stop-opacity="0.5"/>
<stop offset="0.885417" stop-color="#6833FF" stop-opacity="0.5"/>
<stop offset="1" stop-color="#4A2F98" stop-opacity="0.5"/>
</linearGradient>
<linearGradient id="paint12_linear_2_620" x1="180.342" y1="232.587" x2="171.342" y2="209.755" gradientUnits="userSpaceOnUse">
<stop stop-color="#3F436F"/>
<stop offset="1" stop-color="white" stop-opacity="0"/>
</linearGradient>
<radialGradient id="paint13_radial_2_620" cx="0" cy="0" r="1" gradientUnits="userSpaceOnUse" gradientTransform="translate(18.8981 28.5985) rotate(-107.752) scale(28.7238 28.7282)">
<stop offset="0.223958" stop-color="white"/>
<stop offset="0.466382" stop-color="#A55DB0"/>
<stop offset="0.682292" stop-color="#BABDFF"/>
<stop offset="0.881791" stop-color="white"/>
</radialGradient>
<radialGradient id="paint14_radial_2_620" cx="0" cy="0" r="1" gradientUnits="userSpaceOnUse" gradientTransform="translate(21.3682 28.5985) rotate(-100.379) scale(39.2237 39.2306)">
<stop stop-color="#9F74B9"/>
<stop offset="1" stop-color="white" stop-opacity="0"/>
</radialGradient>
<linearGradient id="paint15_linear_2_620" x1="37.3698" y1="8.45138" x2="0.0461285" y2="11.3749" gradientUnits="userSpaceOnUse">
<stop stop-color="#262A8D" stop-opacity="0.5"/>
<stop offset="0.885417" stop-color="#6833FF" stop-opacity="0.5"/>
<stop offset="1" stop-color="#4A2F98" stop-opacity="0.5"/>
</linearGradient>
<linearGradient id="paint16_linear_2_620" x1="177.111" y1="226.129" x2="168.294" y2="203.832" gradientUnits="userSpaceOnUse">
<stop stop-color="#3F436F"/>
<stop offset="1" stop-color="white" stop-opacity="0"/>
</linearGradient>
<linearGradient id="paint17_linear_2_620" x1="28.9979" y1="7.34189" x2="5.18593e-05" y2="9.37075" gradientUnits="userSpaceOnUse">
<stop stop-color="#262A8D" stop-opacity="0.5"/>
<stop offset="0.885417" stop-color="#6833FF" stop-opacity="0.5"/>
<stop offset="1" stop-color="#4A2F98" stop-opacity="0.5"/>
</linearGradient>
<linearGradient id="paint18_linear_2_620" x1="173.085" y1="219.642" x2="165.622" y2="200.214" gradientUnits="userSpaceOnUse">
<stop stop-color="#3F436F"/>
<stop offset="1" stop-color="white" stop-opacity="0"/>
</linearGradient>
<linearGradient id="paint19_linear_2_620" x1="18.049" y1="4.79183" x2="-0.00793098" y2="5.99665" gradientUnits="userSpaceOnUse">
<stop stop-color="#262A8D" stop-opacity="0.5"/>
<stop offset="0.885417" stop-color="#6833FF" stop-opacity="0.5"/>
<stop offset="1" stop-color="#4A2F98" stop-opacity="0.5"/>
</linearGradient>
<linearGradient id="paint20_linear_2_620" x1="168.713" y1="212.965" x2="163.901" y2="200.269" gradientUnits="userSpaceOnUse">
<stop stop-color="#3F436F"/>
<stop offset="1" stop-color="white" stop-opacity="0"/>
</linearGradient>
<radialGradient id="paint21_radial_2_620" cx="0" cy="0" r="1" gradientUnits="userSpaceOnUse" gradientTransform="translate(11.5536 41.0476) rotate(-65.1322) scale(60.8753 60.8827)">
<stop offset="0.249306" stop-color="#BBB1D7"/>
<stop offset="0.48315" stop-color="#FF8FED" stop-opacity="0.5"/>
<stop offset="0.627037" stop-color="#220C7A" stop-opacity="0"/>
</radialGradient>
<linearGradient id="paint22_linear_2_620" x1="65.138" y1="15.9843" x2="0.0205898" y2="20.685" gradientUnits="userSpaceOnUse">
<stop stop-color="#262A8D" stop-opacity="0.5"/>
<stop offset="0.885417" stop-color="#6833FF" stop-opacity="0.5"/>
<stop offset="1" stop-color="#4A2F98" stop-opacity="0.5"/>
</linearGradient>
<linearGradient id="paint23_linear_2_620" x1="269.385" y1="253.822" x2="253.015" y2="211.562" gradientUnits="userSpaceOnUse">
<stop stop-color="#3F436F"/>
<stop offset="1" stop-color="white" stop-opacity="0"/>
</linearGradient>
<radialGradient id="paint24_radial_2_620" cx="0" cy="0" r="1" gradientUnits="userSpaceOnUse" gradientTransform="translate(3.13952e-06 56.3392) rotate(-19.6604) scale(87.7537 87.7409)">
<stop offset="0.249306" stop-color="white"/>
<stop offset="0.48315" stop-color="#FF8FED" stop-opacity="0.5"/>
<stop offset="0.627037" stop-color="#220C7A" stop-opacity="0.5"/>
</radialGradient>
<linearGradient id="paint25_linear_2_620" x1="80.7924" y1="18.5139" x2="0.0869312" y2="24.7527" gradientUnits="userSpaceOnUse">
<stop stop-color="#262A8D" stop-opacity="0.5"/>
<stop offset="0.885417" stop-color="#6833FF" stop-opacity="0.5"/>
<stop offset="1" stop-color="#4A2F98" stop-opacity="0.5"/>
</linearGradient>
<linearGradient id="paint26_linear_2_620" x1="267.259" y1="246.439" x2="248" y2="197.578" gradientUnits="userSpaceOnUse">
<stop stop-color="#3F436F"/>
<stop offset="1" stop-color="white" stop-opacity="0"/>
</linearGradient>
<radialGradient id="paint27_radial_2_620" cx="0" cy="0" r="1" gradientUnits="userSpaceOnUse" gradientTransform="translate(40.4415 61.2001) rotate(-107.752) scale(61.4684 61.4778)">
<stop offset="0.223958" stop-color="white"/>
<stop offset="0.466382" stop-color="#A55DB0"/>
<stop offset="0.682292" stop-color="#BABDFF"/>
<stop offset="0.881791" stop-color="white"/>
</radialGradient>
<radialGradient id="paint28_radial_2_620" cx="0" cy="0" r="1" gradientUnits="userSpaceOnUse" gradientTransform="translate(45.7275 61.2001) rotate(-100.379) scale(83.938 83.9527)">
<stop stop-color="#9F74B9"/>
<stop offset="1" stop-color="white" stop-opacity="0"/>
</radialGradient>
<linearGradient id="paint29_linear_2_620" x1="79.9706" y1="18.0858" x2="0.0987141" y2="24.342" gradientUnits="userSpaceOnUse">
<stop stop-color="#262A8D" stop-opacity="0.5"/>
<stop offset="0.885417" stop-color="#6833FF" stop-opacity="0.5"/>
<stop offset="1" stop-color="#4A2F98" stop-opacity="0.5"/>
</linearGradient>
<linearGradient id="paint30_linear_2_620" x1="260.344" y1="232.62" x2="241.476" y2="184.906" gradientUnits="userSpaceOnUse">
<stop stop-color="#3F436F"/>
<stop offset="1" stop-color="white" stop-opacity="0"/>
</linearGradient>
<linearGradient id="paint31_linear_2_620" x1="62.0549" y1="15.7115" x2="0.000110921" y2="20.0532" gradientUnits="userSpaceOnUse">
<stop stop-color="#262A8D" stop-opacity="0.5"/>
<stop offset="0.885417" stop-color="#6833FF" stop-opacity="0.5"/>
<stop offset="1" stop-color="#4A2F98" stop-opacity="0.5"/>
</linearGradient>
<linearGradient id="paint32_linear_2_620" x1="251.727" y1="218.737" x2="235.758" y2="177.163" gradientUnits="userSpaceOnUse">
<stop stop-color="#3F436F"/>
<stop offset="1" stop-color="white" stop-opacity="0"/>
</linearGradient>
<linearGradient id="paint33_linear_2_620" x1="38.6245" y1="10.2544" x2="-0.0169722" y2="12.8327" gradientUnits="userSpaceOnUse">
<stop stop-color="#262A8D" stop-opacity="0.5"/>
<stop offset="0.885417" stop-color="#6833FF" stop-opacity="0.5"/>
<stop offset="1" stop-color="#4A2F98" stop-opacity="0.5"/>
</linearGradient>
<linearGradient id="paint34_linear_2_620" x1="242.375" y1="204.448" x2="232.078" y2="177.28" gradientUnits="userSpaceOnUse">
<stop stop-color="#3F436F"/>
<stop offset="1" stop-color="white" stop-opacity="0"/>
</linearGradient>
<radialGradient id="paint35_radial_2_620" cx="0" cy="0" r="1" gradientUnits="userSpaceOnUse" gradientTransform="translate(24.7244 87.8409) rotate(-65.1322) scale(130.272 130.288)">
<stop offset="0.249306" stop-color="#BBB1D7"/>
<stop offset="0.48315" stop-color="#FF8FED" stop-opacity="0.5"/>
<stop offset="0.627037" stop-color="#220C7A" stop-opacity="0"/>
</radialGradient>
</defs>
</svg>
