<svg width="59" height="56" viewBox="0 0 59 56" fill="none" xmlns="http://www.w3.org/2000/svg">
<g filter="url(#filter0_f_0_3)">
<path fill-rule="evenodd" clip-rule="evenodd" d="M6.86485 5.12568C6.42491 5.74965 5.6003 6.55317 5.03248 6.91176C4.46465 7.2701 4 7.60246 4 7.6506C4 7.69848 4.50185 8.05478 5.11527 8.4424C5.72869 8.83003 6.5561 9.66232 6.95427 10.2919L7.67799 11.4364L8.06801 10.8588C8.6366 10.0166 10.1442 8.49639 10.8682 8.03491L11.4951 7.63531L10.402 6.91202C9.80103 6.51446 8.96878 5.69439 8.55278 5.09003C8.13704 4.48567 7.7669 3.99133 7.73047 3.99133C7.6943 3.99133 7.30454 4.50171 6.86485 5.12568ZM25.6532 7.84696C19.6275 8.46583 15.1025 10.6049 13.7027 13.4955C13.1838 14.5672 13.171 14.9212 13.1764 27.9482C13.1828 43.1471 13.0921 42.4577 15.3455 44.4409C16.916 45.8228 19.1295 46.8748 21.9887 47.5984C23.9712 48.1001 24.9005 48.1712 29.4744 48.1712C34.0483 48.1712 34.9776 48.1001 36.96 47.5984C39.8193 46.8748 42.0328 45.8228 43.6033 44.4409C45.8539 42.4602 45.7663 43.1168 45.7709 28.1861C45.7734 20.1549 45.6759 14.7124 45.5189 14.1473C44.6253 10.9314 39.6774 8.4643 32.8171 7.81385C29.7689 7.52478 28.743 7.52962 25.6532 7.84696ZM35.7105 13.7777C37.5373 14.2873 40.1736 15.4395 40.1736 15.7286C40.1736 16.105 38.5369 17.1759 37.3595 17.5699C34.4366 18.5482 28.5915 18.8742 25.1185 18.2527C22.0769 17.7085 18.7751 16.3808 18.7751 15.7021C18.7751 15.2452 22.7008 13.8345 25.3985 13.3216C26.8982 13.0366 34.2137 13.3603 35.7105 13.7777ZM20.9328 22.7578C25.0915 24.2039 33.8573 24.2039 38.016 22.7578C38.5723 22.5642 39.3427 22.3292 39.7278 22.2349C40.3886 22.0737 40.4284 22.1132 40.4284 22.9338C40.4284 23.6143 40.2279 23.9798 39.5085 24.6111C38.2875 25.6828 37.9828 25.7796 34.3359 26.2525C30.2119 26.7876 27.2375 26.7644 24.1974 26.1736C19.8224 25.3232 18.5204 24.5798 18.5204 22.932C18.5204 22.1134 18.5604 22.0737 19.221 22.2349C19.6064 22.3292 20.3765 22.5642 20.9328 22.7578ZM20.9328 30.9076C25.3236 32.4344 33.814 32.3542 38.4941 30.7418C39.3215 30.4568 40.0954 30.2235 40.2136 30.2235C40.3316 30.2235 40.4284 30.6231 40.4284 31.1116C40.4284 31.8777 40.2794 32.0959 39.3457 32.6965C37.0538 34.1713 33.9064 34.8475 29.347 34.8445C22.9715 34.8404 18.5204 33.2998 18.5204 31.0971C18.5204 30.2617 18.5586 30.223 19.221 30.3847C19.6064 30.479 20.3765 30.714 20.9328 30.9076ZM20.9328 39.0574C25.3236 40.5842 33.814 40.504 38.4941 38.8916C39.3215 38.6066 40.0954 38.3733 40.2136 38.3733C40.3316 38.3733 40.4284 38.7546 40.4284 39.2204C40.4284 40.0886 39.8583 40.8142 38.7119 41.4051C36.3657 42.6143 29.7424 43.2742 25.6033 42.7113C20.836 42.0632 18.5204 40.9273 18.5204 39.2372C18.5204 38.4125 18.5596 38.3731 19.221 38.5345C19.6064 38.6288 20.3765 38.8638 20.9328 39.0574ZM50.4118 45.8161C49.9871 46.4332 49.1592 47.2559 48.572 47.6445C47.9849 48.0329 47.603 48.433 47.7237 48.5333C47.8445 48.6339 48.3774 49.034 48.9083 49.4227C49.4389 49.8113 50.1642 50.5901 50.5198 51.1532L51.1664 52.1773L51.953 51.0473C52.3856 50.4259 53.2481 49.5635 53.8697 49.1311L55 48.3446L53.9757 47.6982C53.4124 47.3427 52.6334 46.6176 52.2447 46.0871C51.8559 45.5564 51.4583 45.0261 51.3607 44.9085C51.2634 44.7908 50.8362 45.1993 50.4118 45.8161Z" fill="#C3ADDE"/>
<path d="M15.5959 44.1563C15.5041 44.0755 15.4177 44.0003 15.3363 43.9294C14.8967 43.5467 14.601 43.2893 14.3698 42.9508C14.1084 42.5679 13.9201 42.0592 13.7941 41.101C13.5578 39.3042 13.5571 36.1001 13.5559 29.6039C13.5558 29.0742 13.5557 28.5226 13.5554 27.948C13.5527 21.4299 13.5547 18.0943 13.6217 16.2524C13.6553 15.3303 13.7047 14.8026 13.7731 14.4452C13.8385 14.103 13.9216 13.9132 14.0438 13.6607C14.6915 12.3233 16.0873 11.1159 18.1052 10.162C20.117 9.21108 22.7109 8.53017 25.692 8.224C28.7574 7.90918 29.7583 7.90451 32.7814 8.19119C36.179 8.51334 39.0828 9.28392 41.2364 10.3577C43.4003 11.4367 44.7485 12.7906 45.1537 14.2487L45.1538 14.2488L45.1539 14.2493L45.1543 14.251L45.1558 14.2574C45.157 14.2631 45.1585 14.2706 45.1602 14.2804C45.1637 14.3 45.1675 14.3256 45.1717 14.358C45.18 14.4229 45.1885 14.5079 45.1971 14.6139C45.2143 14.8258 45.2307 15.1108 45.2462 15.4664C45.2772 16.1768 45.3039 17.1574 45.3257 18.3737C45.3694 20.8057 45.3931 24.1716 45.3918 28.1859C45.3917 28.7319 45.3916 29.2568 45.3916 29.7615C45.391 36.1785 45.3907 39.3422 45.1536 41.1196C45.0277 42.0644 44.8396 42.569 44.5781 42.9509C44.3454 43.2907 44.0469 43.5508 43.6033 43.9373C43.5246 44.0059 43.4412 44.0786 43.3529 44.1563C41.8422 45.4856 39.6904 46.5165 36.8671 47.2309L36.9477 47.5494L36.8671 47.231C34.934 47.7202 34.0458 47.7921 29.4744 47.7921C24.903 47.7921 24.0148 47.7202 22.0817 47.231L21.9927 47.5826L22.0817 47.2309C19.2584 46.5165 17.1066 45.4856 15.5959 44.1563ZM15.5959 44.1563L15.3455 44.4409L15.5959 44.1563C15.5959 44.1563 15.5959 44.1563 15.5959 44.1563ZM39.6378 21.8668L39.638 21.8667C39.7975 21.8278 39.9564 21.7911 40.092 21.7824C40.2294 21.7737 40.4327 21.7873 40.5936 21.9478C40.7361 22.09 40.7724 22.28 40.7882 22.4104C40.8054 22.5533 40.8074 22.7325 40.8074 22.9338C40.8074 23.3157 40.7503 23.6454 40.5706 23.9731C40.3978 24.2882 40.1268 24.5728 39.7585 24.896C39.1365 25.442 38.7073 25.7762 37.9466 26.0176C37.2221 26.2476 36.1944 26.3937 34.3847 26.6284M39.6378 21.8668L34.3359 26.2525M39.6378 21.8668C39.237 21.9648 38.4545 22.2039 37.8915 22.3998C35.8711 23.1023 32.6893 23.4633 29.4744 23.4633C26.2595 23.4633 23.0778 23.1023 21.0574 22.3998C20.4944 22.204 19.7121 21.9648 19.311 21.8667L19.3108 21.8667C19.1513 21.8278 18.9925 21.7911 18.8569 21.7825C18.7196 21.7737 18.5166 21.7873 18.3556 21.9474C18.2129 22.0894 18.1764 22.2793 18.1607 22.4096C18.1434 22.5523 18.1414 22.7312 18.1414 22.932C18.1414 23.3959 18.2337 23.8232 18.4679 24.2103C18.7008 24.5951 19.0556 24.9099 19.5303 25.181C20.4636 25.7138 21.9407 26.1211 24.1251 26.5456L24.1974 26.1736M39.6378 21.8668L24.1974 26.1736M34.3847 26.6284L34.3359 26.2525M34.3847 26.6284C34.3847 26.6284 34.3847 26.6284 34.3847 26.6284L34.3359 26.2525M34.3847 26.6284C30.2332 27.1671 27.2161 27.1464 24.1251 26.5456L24.1974 26.1736M34.3359 26.2525C30.2119 26.7876 27.2375 26.7644 24.1974 26.1736M7.17463 5.3441L7.17469 5.34401C7.38208 5.04969 7.57733 4.78223 7.72784 4.58397C7.86895 4.77407 8.04939 5.02703 8.24051 5.30485L8.24057 5.30494C8.68359 5.94855 9.55057 6.80323 10.1928 7.22812C10.1928 7.22812 10.1928 7.22813 10.1928 7.22814L10.7992 7.62937L10.6644 7.71528L10.6644 7.71529C10.2646 7.97017 9.68183 8.49146 9.14067 9.0372C8.59655 9.5859 8.05798 10.1963 7.75386 10.6467L7.6884 10.7437L7.27462 10.0893L7.27461 10.0893C6.84724 9.41355 5.98005 8.54049 5.31774 8.12198C5.04319 7.94849 4.79306 7.78246 4.60324 7.64964C4.77441 7.52997 4.99433 7.38403 5.23476 7.23231L5.23486 7.23224C5.85016 6.84367 6.7098 6.00335 7.17463 5.3441ZM35.8124 13.4126L35.8123 13.4126C35.4001 13.2977 34.6287 13.197 33.7134 13.1128C32.7862 13.0276 31.6784 12.9565 30.5723 12.9076C29.4662 12.8587 28.3582 12.8317 27.4306 12.8349C26.5155 12.8381 25.7425 12.8704 25.3277 12.9492L25.3277 12.9492C23.9549 13.2102 22.2796 13.6972 20.947 14.1762C20.2811 14.4155 19.6906 14.6564 19.2615 14.8703C19.049 14.9763 18.8624 15.0824 18.7237 15.1849C18.6551 15.2357 18.5847 15.2954 18.5278 15.3641C18.4774 15.4251 18.3961 15.5426 18.3961 15.7021C18.3961 15.9344 18.5306 16.1203 18.6468 16.2439C18.7732 16.3782 18.9429 16.5073 19.1343 16.6297C19.5195 16.8761 20.0515 17.1329 20.6648 17.3795C21.8946 17.874 23.5055 18.3492 25.0518 18.6258C26.8273 18.9435 29.1886 19.0167 31.4664 18.8896C33.7412 18.7628 35.9718 18.434 37.4798 17.9294C38.1073 17.7194 38.8403 17.3363 39.4156 16.9598C39.7037 16.7713 39.9642 16.5768 40.1574 16.3975C40.2532 16.3085 40.342 16.2146 40.4098 16.1195C40.4687 16.0367 40.5527 15.8976 40.5527 15.7286C40.5527 15.5772 40.4735 15.4699 40.4384 15.4264C40.394 15.3715 40.341 15.3244 40.2927 15.286C40.1945 15.2079 40.0647 15.1259 39.9204 15.0439C39.6284 14.878 39.2283 14.685 38.7789 14.4886C37.8794 14.0954 36.7466 13.6733 35.8124 13.4126ZM38.3707 30.3834L38.4879 30.7239L38.3707 30.3834C36.0836 31.1714 32.8358 31.5923 29.6014 31.6229C26.3651 31.6534 23.1941 31.2926 21.0573 30.5496C20.4944 30.3537 19.7121 30.1146 19.311 30.0165L19.3109 30.0165C19.1513 29.9775 18.9918 29.9406 18.8558 29.932C18.7172 29.9234 18.5127 29.9379 18.3521 30.1012C18.2112 30.2444 18.1757 30.4351 18.1603 30.5664C18.1433 30.7107 18.1414 30.8922 18.1414 31.0971C18.1414 31.7892 18.4945 32.3944 19.0653 32.896C19.6328 33.3947 20.4386 33.8141 21.4189 34.1535C23.3822 34.833 26.1344 35.2214 29.3468 35.2235C33.9352 35.2266 37.169 34.5479 39.5508 33.0153C40.0101 32.7198 40.3466 32.4779 40.5502 32.1799C40.7711 31.8565 40.8074 31.5131 40.8074 31.1116C40.8074 30.8461 40.7815 30.5929 40.7336 30.3952C40.7105 30.2994 40.6772 30.1954 40.6264 30.1061C40.5928 30.0472 40.4675 29.8445 40.2136 29.8445C40.1565 29.8445 40.0975 29.8559 40.0642 29.8627C40.0212 29.8714 39.9711 29.8834 39.9168 29.8974C39.8078 29.9255 39.6687 29.9652 39.5104 30.0129C39.1932 30.1085 38.7882 30.2396 38.3707 30.3834ZM38.3707 38.5332L38.3707 38.5332C36.0836 39.3212 32.8358 39.7421 29.6014 39.7727C26.3651 39.8033 23.1941 39.4424 21.0573 38.6994C20.4944 38.5036 19.7121 38.2644 19.311 38.1664L19.3109 38.1663C19.1513 38.1274 18.9922 38.0906 18.8564 38.082C18.7187 38.0732 18.5151 38.0872 18.3542 38.2485C18.2122 38.391 18.1761 38.5812 18.1605 38.7118C18.1434 38.8551 18.1414 39.0349 18.1414 39.2372C18.1414 40.2966 18.8799 41.1033 20.1072 41.7053C21.3374 42.3087 23.1565 42.7612 25.5522 43.0869C27.6601 43.3735 30.382 43.3475 32.8675 43.0999C35.3382 42.8537 37.6436 42.3821 38.8856 41.742C40.0898 41.1213 40.8074 40.2937 40.8074 39.2204C40.8074 38.9652 40.7813 38.7207 40.7326 38.529C40.7091 38.436 40.6749 38.3339 40.6225 38.246C40.585 38.1831 40.4587 37.9943 40.2136 37.9943C40.1565 37.9943 40.0975 38.0057 40.0642 38.0125C40.0212 38.0212 39.9711 38.0332 39.9168 38.0472C39.8078 38.0753 39.6687 38.115 39.5104 38.1627C39.1932 38.2583 38.7882 38.3894 38.3707 38.5332ZM50.724 46.031L50.7241 46.031C50.9169 45.7507 51.104 45.5252 51.2487 45.3824C51.4194 45.6076 51.6788 45.9559 51.9389 46.3111L51.9389 46.3112C52.3562 46.8805 53.1704 47.6382 53.7733 48.0187L53.7734 48.0188L54.3142 48.36L53.6532 48.8199C52.9948 49.2781 52.1002 50.1724 51.6419 50.8307L51.1818 51.4917L50.8403 50.9509L50.8403 50.9508C50.4596 50.348 49.7018 49.534 49.1323 49.1169L49.1322 49.1168C48.7738 48.8545 48.4214 48.5919 48.1949 48.4198C48.326 48.2908 48.5285 48.1277 48.7811 47.9606L48.7812 47.9606C49.4114 47.5435 50.2736 46.6856 50.724 46.031ZM51.0686 45.15L51.069 45.1504L51.0686 45.15Z" stroke="white" stroke-width="0.758065"/>
</g>
<path d="M15.5959 44.1563C15.5041 44.0755 15.4177 44.0003 15.3363 43.9294C14.8967 43.5467 14.601 43.2893 14.3698 42.9508C14.1084 42.5679 13.9201 42.0592 13.7941 41.101C13.5578 39.3042 13.5571 36.1001 13.5559 29.6039C13.5558 29.0742 13.5557 28.5226 13.5554 27.948C13.5527 21.4299 13.5547 18.0943 13.6217 16.2524C13.6553 15.3303 13.7047 14.8026 13.7731 14.4452C13.8385 14.103 13.9216 13.9132 14.0438 13.6607C14.6915 12.3233 16.0873 11.1159 18.1052 10.162C20.117 9.21108 22.7109 8.53017 25.692 8.224C28.7574 7.90918 29.7583 7.90451 32.7814 8.19119C36.179 8.51334 39.0828 9.28392 41.2364 10.3577C43.4003 11.4367 44.7485 12.7906 45.1537 14.2487L45.1538 14.2488L45.1539 14.2493L45.1543 14.251L45.1558 14.2574C45.157 14.2631 45.1585 14.2706 45.1602 14.2804C45.1637 14.3 45.1675 14.3256 45.1717 14.358C45.18 14.4229 45.1885 14.5079 45.1971 14.6139C45.2143 14.8258 45.2307 15.1108 45.2462 15.4664C45.2772 16.1768 45.3039 17.1574 45.3257 18.3737C45.3694 20.8057 45.3931 24.1716 45.3918 28.1859C45.3917 28.7319 45.3916 29.2568 45.3916 29.7615C45.391 36.1785 45.3907 39.3422 45.1536 41.1196C45.0277 42.0644 44.8396 42.569 44.5781 42.9509C44.3454 43.2907 44.0469 43.5508 43.6033 43.9373C43.5246 44.0059 43.4412 44.0786 43.3529 44.1563C41.8422 45.4856 39.6904 46.5165 36.8671 47.2309L36.9477 47.5494L36.8671 47.231C34.934 47.7202 34.0458 47.7921 29.4744 47.7921C24.903 47.7921 24.0148 47.7202 22.0817 47.231L21.9927 47.5826L22.0817 47.2309C19.2584 46.5165 17.1066 45.4856 15.5959 44.1563ZM15.5959 44.1563L15.3455 44.4409L15.5959 44.1563C15.5959 44.1563 15.5959 44.1563 15.5959 44.1563ZM39.6378 21.8668L39.638 21.8667C39.7975 21.8278 39.9564 21.7911 40.092 21.7824C40.2294 21.7737 40.4327 21.7873 40.5936 21.9478C40.7361 22.09 40.7724 22.28 40.7882 22.4104C40.8054 22.5533 40.8074 22.7325 40.8074 22.9338C40.8074 23.3157 40.7503 23.6454 40.5706 23.9731C40.3978 24.2882 40.1268 24.5728 39.7585 24.896C39.1365 25.442 38.7073 25.7762 37.9466 26.0176C37.2221 26.2476 36.1944 26.3937 34.3847 26.6284M39.6378 21.8668L34.3359 26.2525M39.6378 21.8668C39.237 21.9648 38.4545 22.2039 37.8915 22.3998C35.8711 23.1023 32.6893 23.4633 29.4744 23.4633C26.2595 23.4633 23.0778 23.1023 21.0574 22.3998C20.4944 22.204 19.7121 21.9648 19.311 21.8667L19.3108 21.8667C19.1513 21.8278 18.9925 21.7911 18.8569 21.7825C18.7196 21.7737 18.5166 21.7873 18.3556 21.9474C18.2129 22.0894 18.1764 22.2793 18.1607 22.4096C18.1434 22.5523 18.1414 22.7312 18.1414 22.932C18.1414 23.3959 18.2337 23.8232 18.4679 24.2103C18.7008 24.5951 19.0556 24.9099 19.5303 25.181C20.4636 25.7138 21.9407 26.1211 24.1251 26.5456L24.1974 26.1736M39.6378 21.8668L24.1974 26.1736M34.3847 26.6284L34.3359 26.2525M34.3847 26.6284C34.3847 26.6284 34.3847 26.6284 34.3847 26.6284L34.3359 26.2525M34.3847 26.6284C30.2332 27.1671 27.2161 27.1464 24.1251 26.5456L24.1974 26.1736M34.3359 26.2525C30.2119 26.7876 27.2375 26.7644 24.1974 26.1736M7.17463 5.3441L7.17469 5.34401C7.38208 5.04969 7.57733 4.78223 7.72784 4.58397C7.86895 4.77407 8.04939 5.02703 8.24051 5.30485L8.24057 5.30494C8.68359 5.94855 9.55057 6.80323 10.1928 7.22812C10.1928 7.22812 10.1928 7.22813 10.1928 7.22814L10.7992 7.62937L10.6644 7.71528L10.6644 7.71529C10.2646 7.97017 9.68183 8.49146 9.14067 9.0372C8.59655 9.5859 8.05798 10.1963 7.75386 10.6467L7.6884 10.7437L7.27462 10.0893L7.27461 10.0893C6.84724 9.41355 5.98005 8.54049 5.31774 8.12198C5.04319 7.94849 4.79306 7.78246 4.60324 7.64964C4.77441 7.52997 4.99433 7.38403 5.23476 7.23231L5.23486 7.23224C5.85016 6.84367 6.7098 6.00335 7.17463 5.3441ZM35.8124 13.4126L35.8123 13.4126C35.4001 13.2977 34.6287 13.197 33.7134 13.1128C32.7862 13.0276 31.6784 12.9565 30.5723 12.9076C29.4662 12.8587 28.3582 12.8317 27.4306 12.8349C26.5155 12.8381 25.7425 12.8704 25.3277 12.9492L25.3277 12.9492C23.9549 13.2102 22.2796 13.6972 20.947 14.1762C20.2811 14.4155 19.6906 14.6564 19.2615 14.8703C19.049 14.9763 18.8624 15.0824 18.7237 15.1849C18.6551 15.2357 18.5847 15.2954 18.5278 15.3641C18.4774 15.4251 18.3961 15.5426 18.3961 15.7021C18.3961 15.9344 18.5306 16.1203 18.6468 16.2439C18.7732 16.3782 18.9429 16.5073 19.1343 16.6297C19.5195 16.8761 20.0515 17.1329 20.6648 17.3795C21.8946 17.874 23.5055 18.3492 25.0518 18.6258C26.8273 18.9435 29.1886 19.0167 31.4664 18.8896C33.7412 18.7628 35.9718 18.434 37.4798 17.9294C38.1073 17.7194 38.8403 17.3363 39.4156 16.9598C39.7037 16.7713 39.9642 16.5768 40.1574 16.3975C40.2532 16.3085 40.342 16.2146 40.4098 16.1195C40.4687 16.0367 40.5527 15.8976 40.5527 15.7286C40.5527 15.5772 40.4735 15.4699 40.4384 15.4264C40.394 15.3715 40.341 15.3244 40.2927 15.286C40.1945 15.2079 40.0647 15.1259 39.9204 15.0439C39.6284 14.878 39.2283 14.685 38.7789 14.4886C37.8794 14.0954 36.7466 13.6733 35.8124 13.4126ZM38.3707 30.3834L38.4879 30.7239L38.3707 30.3834C36.0836 31.1714 32.8358 31.5923 29.6014 31.6229C26.3651 31.6534 23.1941 31.2926 21.0573 30.5496C20.4944 30.3537 19.7121 30.1146 19.311 30.0165L19.3109 30.0165C19.1513 29.9775 18.9918 29.9406 18.8558 29.932C18.7172 29.9234 18.5127 29.9379 18.3521 30.1012C18.2112 30.2444 18.1757 30.4351 18.1603 30.5664C18.1433 30.7107 18.1414 30.8922 18.1414 31.0971C18.1414 31.7892 18.4945 32.3944 19.0653 32.896C19.6328 33.3947 20.4386 33.8141 21.4189 34.1535C23.3822 34.833 26.1344 35.2214 29.3468 35.2235C33.9352 35.2266 37.169 34.5479 39.5508 33.0153C40.0101 32.7198 40.3466 32.4779 40.5502 32.1799C40.7711 31.8565 40.8074 31.5131 40.8074 31.1116C40.8074 30.8461 40.7815 30.5929 40.7336 30.3952C40.7105 30.2994 40.6772 30.1954 40.6264 30.1061C40.5928 30.0472 40.4675 29.8445 40.2136 29.8445C40.1565 29.8445 40.0975 29.8559 40.0642 29.8627C40.0212 29.8714 39.9711 29.8834 39.9168 29.8974C39.8078 29.9255 39.6687 29.9652 39.5104 30.0129C39.1932 30.1085 38.7882 30.2396 38.3707 30.3834ZM38.3707 38.5332L38.3707 38.5332C36.0836 39.3212 32.8358 39.7421 29.6014 39.7727C26.3651 39.8033 23.1941 39.4424 21.0573 38.6994C20.4944 38.5036 19.7121 38.2644 19.311 38.1664L19.3109 38.1663C19.1513 38.1274 18.9922 38.0906 18.8564 38.082C18.7187 38.0732 18.5151 38.0872 18.3542 38.2485C18.2122 38.391 18.1761 38.5812 18.1605 38.7118C18.1434 38.8551 18.1414 39.0349 18.1414 39.2372C18.1414 40.2966 18.8799 41.1033 20.1072 41.7053C21.3374 42.3087 23.1565 42.7612 25.5522 43.0869C27.6601 43.3735 30.382 43.3475 32.8675 43.0999C35.3382 42.8537 37.6436 42.3821 38.8856 41.742C40.0898 41.1213 40.8074 40.2937 40.8074 39.2204C40.8074 38.9652 40.7813 38.7207 40.7326 38.529C40.7091 38.436 40.6749 38.3339 40.6225 38.246C40.585 38.1831 40.4587 37.9943 40.2136 37.9943C40.1565 37.9943 40.0975 38.0057 40.0642 38.0125C40.0212 38.0212 39.9711 38.0332 39.9168 38.0472C39.8078 38.0753 39.6687 38.115 39.5104 38.1627C39.1932 38.2583 38.7882 38.3894 38.3707 38.5332ZM50.724 46.031L50.7241 46.031C50.9169 45.7507 51.104 45.5252 51.2487 45.3824C51.4194 45.6076 51.6788 45.9559 51.9389 46.3111L51.9389 46.3112C52.3562 46.8805 53.1704 47.6382 53.7733 48.0187L53.7734 48.0188L54.3142 48.36L53.6532 48.8199C52.9948 49.2781 52.1002 50.1724 51.6419 50.8307L51.1818 51.4917L50.8403 50.9509L50.8403 50.9508C50.4596 50.348 49.7018 49.534 49.1323 49.1169L49.1322 49.1168C48.7738 48.8545 48.4214 48.5919 48.1949 48.4198C48.326 48.2908 48.5285 48.1277 48.7811 47.9606L48.7812 47.9606C49.4114 47.5435 50.2736 46.6856 50.724 46.031ZM51.0686 45.15L51.069 45.1504L51.0686 45.15Z" fill="#C3ADDE" stroke="white" stroke-width="0.758065"/>
<defs>
<filter id="filter0_f_0_3" x="0.209677" y="0.20101" width="58.5806" height="55.7666" filterUnits="userSpaceOnUse" color-interpolation-filters="sRGB">
<feFlood flood-opacity="0" result="BackgroundImageFix"/>
<feBlend mode="normal" in="SourceGraphic" in2="BackgroundImageFix" result="shape"/>
<feGaussianBlur stdDeviation="1.89516" result="effect1_foregroundBlur_0_3"/>
</filter>
</defs>
</svg>
