<svg width="55" height="52" viewBox="0 0 55 52" fill="none" xmlns="http://www.w3.org/2000/svg">
<g filter="url(#filter0_f_0_3)">
<path fill-rule="evenodd" clip-rule="evenodd" d="M19.3289 4.31917C19.0884 4.26346 17.1964 4.95753 15.1247 5.86144C11.84 7.2947 11.3253 7.58695 11.1037 8.14412C10.761 9.00576 11.3071 10.2976 12.1569 10.6354C12.6133 10.8168 13.105 10.7488 14.0705 10.3704C14.7851 10.0904 15.4234 9.88256 15.4891 9.9087C15.5549 9.93484 14.0931 13.8412 12.2409 18.5893C8.95502 27.013 8.87341 27.2531 8.88429 28.4805C8.90666 31.0347 10.0693 33.7165 11.8875 35.4075C13.2734 36.6965 15.7341 37.7691 17.6792 37.932C20.422 38.1616 23.4015 37.0119 25.3624 34.9671C26.1347 34.1621 26.3761 33.6538 29.0699 27.1599C31.7738 20.6427 31.9987 20.1693 32.7156 19.492C33.8506 18.4195 34.8916 17.946 36.3613 17.8333C39.559 17.588 42.2258 19.8838 42.4771 23.0981L42.582 24.4399L39.358 32.7186L36.1342 40.9971L35.4595 39.5452C34.9417 38.4304 34.6416 38.0362 34.1676 37.8478C33.3132 37.5081 32.0309 38.0708 31.6866 38.9364C31.4637 39.4969 31.6378 40.06 33.0749 43.4262C35.2574 48.5376 34.8844 48.3852 39.9092 46.2201C43.5278 44.6609 43.6861 44.5668 43.9965 43.7864C44.2557 43.1346 44.2452 42.8332 43.9433 42.2562C43.3927 41.2037 42.4593 41.0604 40.7775 41.7699L39.4576 42.3269L42.7928 33.9413C45.9275 26.0598 46.1348 25.468 46.2432 24.0977C46.3876 22.2713 45.7506 19.8634 44.7024 18.2759C41.4532 13.354 33.9702 12.7075 29.8749 16.9952C29.051 17.8579 28.8612 18.2554 26.1243 24.8493C23.4203 31.3649 23.1945 31.8397 22.4776 32.5168C20.6857 34.21 18.4561 34.6596 16.2734 33.7682C14.0808 32.8726 12.809 31.0546 12.6709 28.6183C12.6139 27.6157 12.7526 27.2061 15.781 19.4268C17.5242 14.9488 19.0123 11.3093 19.0879 11.3394C19.1635 11.3694 19.4928 11.9619 19.82 12.6561C20.262 13.594 20.5727 13.981 21.029 14.1624C21.8789 14.5002 23.1632 13.9361 23.5059 13.0744C23.7275 12.5173 23.5544 11.9522 22.156 8.66735C20.6125 5.04141 20.2875 4.54136 19.3289 4.31917Z" fill="#CF80FF"/>
<path d="M9.22022 28.4775L9.22022 28.4776C9.24181 30.9425 10.3678 33.5354 12.1163 35.1616C13.4454 36.3977 15.8346 37.4404 17.7073 37.5972C20.3457 37.8182 23.2268 36.7088 25.1199 34.7347L25.12 34.7346C25.4752 34.3643 25.7098 34.0684 26.1921 33.0528C26.6812 32.0229 27.4111 30.2821 28.7596 27.0313C30.1098 23.7768 30.846 22.0191 31.3345 20.9918C31.8294 19.9508 32.0866 19.6242 32.4849 19.2479C33.6722 18.1259 34.7844 17.6173 36.3357 17.4983L36.3613 17.8333L36.3357 17.4983C39.7199 17.2388 42.5464 19.6745 42.812 23.0719L42.9169 24.4137L42.9229 24.4903L42.895 24.5618L39.671 32.8404L36.4472 41.1189L36.1614 41.8529L35.8295 41.1386L35.1549 39.6868L35.1548 39.6867C34.6335 38.5643 34.3799 38.2937 34.0435 38.1599C33.724 38.0329 33.2863 38.0654 32.8708 38.2477C32.4558 38.4298 32.1293 38.7324 31.9988 39.0604C31.9281 39.2383 31.8941 39.4314 32.0792 40.0299C32.2682 40.6412 32.663 41.6057 33.3839 43.2943C33.4933 43.5505 33.5958 43.7924 33.6927 44.0209C34.0832 44.9421 34.3802 45.6429 34.6546 46.168C35.0007 46.8303 35.2686 47.1246 35.5533 47.241C35.8363 47.3566 36.2255 47.3329 36.9207 47.0976C37.4727 46.9108 38.1594 46.6127 39.0629 46.2205C39.287 46.1232 39.5243 46.0202 39.7763 45.9116C41.5974 45.127 42.5148 44.7243 43.0216 44.4226C43.2682 44.2758 43.3934 44.1663 43.4741 44.0661C43.5553 43.9652 43.6082 43.8536 43.6843 43.6623C43.8089 43.3492 43.8501 43.1633 43.8446 43.005C43.8392 42.8501 43.7877 42.6834 43.6456 42.4119L43.9433 42.2562L43.6456 42.4119C43.4087 41.959 43.1187 41.7435 42.7336 41.6843C42.3154 41.6201 41.7329 41.7314 40.9081 42.0794C40.9081 42.0794 40.9081 42.0794 40.9081 42.0794L39.5881 42.6364L38.8489 42.9483L39.1454 42.2028L42.4806 33.8173C45.6275 25.9051 45.8051 25.3768 45.9083 24.0713C46.0466 22.3225 45.4306 19.9886 44.422 18.4609L44.7024 18.2759L44.422 18.4609C41.293 13.721 34.0657 13.0938 30.1179 17.2271C29.7337 17.6294 29.4995 17.9138 29.0201 18.9177C28.5323 19.9392 27.8049 21.6766 26.4346 24.978C25.0843 28.2316 24.3478 29.9892 23.8592 31.0167C23.364 32.0578 23.1066 32.3848 22.7083 32.761L9.22022 28.4775ZM9.22022 28.4775C9.21755 28.1763 9.22092 27.9558 9.27296 27.6599C9.326 27.3583 9.43148 26.9689 9.64443 26.3414C10.0711 25.0841 10.9092 22.9277 12.5538 18.7114C13.4803 16.3363 14.3094 14.1712 14.8989 12.5959C15.1935 11.8086 15.4288 11.1672 15.5866 10.7201C15.6653 10.4972 15.7258 10.3195 15.7649 10.1952C15.7841 10.1342 15.8001 10.0798 15.8104 10.0372C15.815 10.0181 15.8216 9.98894 15.8249 9.95834C15.8262 9.94573 15.8296 9.91206 15.8245 9.87114C15.822 9.85107 15.8153 9.81005 15.7927 9.76353C15.7693 9.71512 15.7164 9.63756 15.6133 9.59656C15.5446 9.56927 15.4827 9.57032 15.4641 9.57065C15.4358 9.57117 15.4096 9.57429 15.3894 9.57728C15.3483 9.58337 15.303 9.59344 15.2583 9.60468C15.1673 9.62756 15.0508 9.66249 14.9192 9.70534C14.6544 9.79153 14.3099 9.91586 13.9479 10.0577L14.0705 10.3704M9.22022 28.4775L14.0705 10.3704M14.0705 10.3704L13.9479 10.0577C12.988 10.4338 12.6069 10.4528 12.2811 10.3233C11.9644 10.1974 11.6694 9.87363 11.4925 9.45537C11.3159 9.03764 11.2863 8.59394 11.4158 8.26822C11.4861 8.09151 11.5947 7.9281 12.1314 7.62341C12.6797 7.31214 13.6113 6.8883 15.2591 6.1693C16.2902 5.71942 17.2748 5.32255 18.0292 5.04579C18.4071 4.90718 18.723 4.80024 18.9563 4.73188C19.0736 4.69753 19.1642 4.67462 19.2287 4.66202C19.2527 4.65732 19.2701 4.65465 19.2819 4.65323C19.4823 4.70178 19.6287 4.76036 19.7632 4.85608C19.9066 4.95814 20.0581 5.11802 20.2414 5.39996C20.616 5.976 21.0711 6.97646 21.8469 8.79894C22.5484 10.4468 22.9331 11.3913 23.1172 11.9922C23.2973 12.5802 23.2641 12.7735 23.1937 12.9503C23.0642 13.2761 22.7378 13.5783 22.3225 13.7607C21.9067 13.9433 21.4699 13.9761 21.1532 13.8502C20.8274 13.7207 20.5633 13.4453 20.1239 12.5128L19.82 12.6561M14.0705 10.3704L19.82 12.6561M19.82 12.6561L20.1239 12.5128C19.9579 12.1606 19.7904 11.832 19.6533 11.5854C19.5851 11.4628 19.5219 11.3559 19.4686 11.2751C19.4423 11.2353 19.4145 11.1958 19.3867 11.1622C19.3729 11.1455 19.3549 11.125 19.3334 11.1051C19.3172 11.0901 19.275 11.0522 19.2121 11.0272C19.0434 10.9602 18.9118 11.0506 18.8902 11.0658C18.8521 11.0926 18.8275 11.1215 18.818 11.133C18.7958 11.1598 18.7786 11.1877 18.7685 11.2047C18.7458 11.2431 18.7202 11.2929 18.6936 11.3475C18.6391 11.4595 18.5657 11.6219 18.4765 11.8264C18.2976 12.2369 18.0489 12.8318 17.7489 13.5655C17.1486 15.0336 16.34 17.0648 15.4679 19.305C13.9554 23.1905 13.1599 25.247 12.7507 26.4562M19.82 12.6561L12.7507 26.4562M12.7507 26.4562C12.5459 27.0613 12.4327 27.469 12.3759 27.7956M12.7507 26.4562L12.3759 27.7956M12.3759 27.7956C12.3176 28.131 12.3204 28.3724 12.3355 28.6373L12.3759 27.7956ZM19.2981 4.65187C19.2981 4.6519 19.297 4.65196 19.2951 4.65195C19.2972 4.65183 19.2981 4.65184 19.2981 4.65187Z" stroke="white" stroke-width="0.67184"/>
</g>
<path d="M9.22022 28.4775L9.22022 28.4776C9.24181 30.9425 10.3678 33.5354 12.1163 35.1616C13.4454 36.3977 15.8346 37.4404 17.7073 37.5972C20.3457 37.8182 23.2268 36.7088 25.1199 34.7347L25.12 34.7346C25.4752 34.3643 25.7098 34.0684 26.1921 33.0528C26.6812 32.0229 27.4111 30.2821 28.7596 27.0313C30.1098 23.7768 30.846 22.0191 31.3345 20.9918C31.8294 19.9508 32.0866 19.6242 32.4849 19.2479C33.6722 18.1259 34.7844 17.6173 36.3357 17.4983L36.3613 17.8333L36.3357 17.4983C39.7199 17.2388 42.5464 19.6745 42.812 23.0719L42.9169 24.4137L42.9229 24.4903L42.895 24.5618L39.671 32.8404L36.4472 41.1189L36.1614 41.8529L35.8295 41.1386L35.1549 39.6868L35.1548 39.6867C34.6335 38.5643 34.3799 38.2937 34.0435 38.1599C33.724 38.0329 33.2863 38.0654 32.8708 38.2477C32.4558 38.4298 32.1293 38.7324 31.9988 39.0604C31.9281 39.2383 31.8941 39.4314 32.0792 40.0299C32.2682 40.6412 32.663 41.6057 33.3839 43.2943C33.4933 43.5505 33.5958 43.7924 33.6927 44.0209C34.0832 44.9421 34.3802 45.6429 34.6546 46.168C35.0007 46.8303 35.2686 47.1246 35.5533 47.241C35.8363 47.3566 36.2255 47.3329 36.9207 47.0976C37.4727 46.9108 38.1594 46.6127 39.0629 46.2205C39.287 46.1232 39.5243 46.0202 39.7763 45.9116C41.5974 45.127 42.5148 44.7243 43.0216 44.4226C43.2682 44.2758 43.3934 44.1663 43.4741 44.0661C43.5553 43.9652 43.6082 43.8536 43.6843 43.6623C43.8089 43.3492 43.8501 43.1633 43.8446 43.005C43.8392 42.8501 43.7877 42.6834 43.6456 42.4119L43.9433 42.2562L43.6456 42.4119C43.4087 41.959 43.1187 41.7435 42.7336 41.6843C42.3154 41.6201 41.7329 41.7314 40.9081 42.0794C40.9081 42.0794 40.9081 42.0794 40.9081 42.0794L39.5881 42.6364L38.8489 42.9483L39.1454 42.2028L42.4806 33.8173C45.6275 25.9051 45.8051 25.3768 45.9083 24.0713C46.0466 22.3225 45.4306 19.9886 44.422 18.4609L44.7024 18.2759L44.422 18.4609C41.293 13.721 34.0657 13.0938 30.1179 17.2271C29.7337 17.6294 29.4995 17.9138 29.0201 18.9177C28.5323 19.9392 27.8049 21.6766 26.4346 24.978C25.0843 28.2316 24.3478 29.9892 23.8592 31.0167C23.364 32.0578 23.1066 32.3848 22.7083 32.761L9.22022 28.4775ZM9.22022 28.4775C9.21755 28.1763 9.22092 27.9558 9.27296 27.6599C9.326 27.3583 9.43148 26.9689 9.64443 26.3414C10.0711 25.0841 10.9092 22.9277 12.5538 18.7114C13.4803 16.3363 14.3094 14.1712 14.8989 12.5959C15.1935 11.8086 15.4288 11.1672 15.5866 10.7201C15.6653 10.4972 15.7258 10.3195 15.7649 10.1952C15.7841 10.1342 15.8001 10.0798 15.8104 10.0372C15.815 10.0181 15.8216 9.98894 15.8249 9.95834C15.8262 9.94573 15.8296 9.91206 15.8245 9.87114C15.822 9.85107 15.8153 9.81005 15.7927 9.76353C15.7693 9.71512 15.7164 9.63756 15.6133 9.59656C15.5446 9.56927 15.4827 9.57032 15.4641 9.57065C15.4358 9.57117 15.4096 9.57429 15.3894 9.57728C15.3483 9.58337 15.303 9.59344 15.2583 9.60468C15.1673 9.62756 15.0508 9.66249 14.9192 9.70534C14.6544 9.79153 14.3099 9.91586 13.9479 10.0577L14.0705 10.3704M9.22022 28.4775L14.0705 10.3704M14.0705 10.3704L13.9479 10.0577C12.988 10.4338 12.6069 10.4528 12.2811 10.3233C11.9644 10.1974 11.6694 9.87363 11.4925 9.45537C11.3159 9.03764 11.2863 8.59394 11.4158 8.26822C11.4861 8.09151 11.5947 7.9281 12.1314 7.62341C12.6797 7.31214 13.6113 6.8883 15.2591 6.1693C16.2902 5.71942 17.2748 5.32255 18.0292 5.04579C18.4071 4.90718 18.723 4.80024 18.9563 4.73188C19.0736 4.69753 19.1642 4.67462 19.2287 4.66202C19.2527 4.65732 19.2701 4.65465 19.2819 4.65323C19.4823 4.70178 19.6287 4.76036 19.7632 4.85608C19.9066 4.95814 20.0581 5.11802 20.2414 5.39996C20.616 5.976 21.0711 6.97646 21.8469 8.79894C22.5484 10.4468 22.9331 11.3913 23.1172 11.9922C23.2973 12.5802 23.2641 12.7735 23.1937 12.9503C23.0642 13.2761 22.7378 13.5783 22.3225 13.7607C21.9067 13.9433 21.4699 13.9761 21.1532 13.8502C20.8274 13.7207 20.5633 13.4453 20.1239 12.5128L19.82 12.6561M14.0705 10.3704L19.82 12.6561M19.82 12.6561L20.1239 12.5128C19.9579 12.1606 19.7904 11.832 19.6533 11.5854C19.5851 11.4628 19.5219 11.3559 19.4686 11.2751C19.4423 11.2353 19.4145 11.1958 19.3867 11.1622C19.3729 11.1455 19.3549 11.125 19.3334 11.1051C19.3172 11.0901 19.275 11.0522 19.2121 11.0272C19.0434 10.9602 18.9118 11.0506 18.8902 11.0658C18.8521 11.0926 18.8275 11.1215 18.818 11.133C18.7958 11.1598 18.7786 11.1877 18.7685 11.2047C18.7458 11.2431 18.7202 11.2929 18.6936 11.3475C18.6391 11.4595 18.5657 11.6219 18.4765 11.8264C18.2976 12.2369 18.0489 12.8318 17.7489 13.5655C17.1486 15.0336 16.34 17.0648 15.4679 19.305C13.9554 23.1905 13.1599 25.247 12.7507 26.4562M19.82 12.6561L12.7507 26.4562M12.7507 26.4562C12.5459 27.0613 12.4327 27.469 12.3759 27.7956M12.7507 26.4562L12.3759 27.7956M12.3759 27.7956C12.3176 28.131 12.3204 28.3724 12.3355 28.6373L12.3759 27.7956ZM19.2981 4.65187C19.2981 4.6519 19.297 4.65196 19.2951 4.65195C19.2972 4.65183 19.2981 4.65184 19.2981 4.65187Z" fill="#C3ADDE" stroke="white" stroke-width="0.67184"/>
<defs>
<filter id="filter0_f_0_3" x="4.85259" y="0.285001" width="45.442" height="51.3904" filterUnits="userSpaceOnUse" color-interpolation-filters="sRGB">
<feFlood flood-opacity="0" result="BackgroundImageFix"/>
<feBlend mode="normal" in="SourceGraphic" in2="BackgroundImageFix" result="shape"/>
<feGaussianBlur stdDeviation="2.01552" result="effect1_foregroundBlur_0_3"/>
</filter>
</defs>
</svg>
