<svg width="47" height="52" viewBox="0 0 47 52" fill="none" xmlns="http://www.w3.org/2000/svg">
<g filter="url(#filter0_d_1_207)">
<path fill-rule="evenodd" clip-rule="evenodd" d="M15.3289 3.31914C15.0884 3.26343 13.1964 3.9575 11.1247 4.86141C7.84005 6.29466 7.32529 6.58691 7.10368 7.14409C6.76098 8.00573 7.3071 9.29752 8.15695 9.63537C8.61327 9.81677 9.10496 9.74875 10.0705 9.37039C10.7851 9.09035 11.4234 8.88252 11.4891 8.90866C11.5549 8.9348 10.0931 12.8412 8.24085 17.5893C4.95502 26.0129 4.87341 26.2531 4.88429 27.4805C4.90666 30.0347 6.06928 32.7165 7.88745 34.4075C9.27344 35.6965 11.7341 36.7691 13.6792 36.9319C16.422 37.1616 19.4015 36.0118 21.3624 33.9671C22.1347 33.162 22.3761 32.6538 25.0699 26.1599C27.7738 19.6426 27.9987 19.1693 28.7156 18.492C29.8506 17.4195 30.8916 16.946 32.3613 16.8332C35.559 16.588 38.2258 18.8837 38.4771 22.0981L38.582 23.4399L35.358 31.7185L32.1342 39.997L31.4595 38.5452C30.9417 37.4304 30.6416 37.0362 30.1676 36.8477C29.3132 36.5081 28.0309 37.0707 27.6866 37.9363C27.4637 38.4968 27.6378 39.06 29.0749 42.4262C31.2574 47.5376 30.8844 47.3852 35.9092 45.2201C39.5278 43.6609 39.6861 43.5668 39.9965 42.7864C40.2557 42.1346 40.2452 41.8332 39.9433 41.2561C39.3927 40.2037 38.4593 40.0604 36.7775 40.7699L35.4576 41.3269L38.7928 32.9413C41.9275 25.0598 42.1348 24.468 42.2432 23.0977C42.3876 21.2713 41.7506 18.8634 40.7024 17.2758C37.4532 12.3539 29.9702 11.7075 25.8749 15.9951C25.051 16.8578 24.8612 17.2553 22.1243 23.8493C19.4203 30.3648 19.1945 30.8396 18.4776 31.5168C16.6857 33.21 14.4561 33.6596 12.2734 32.7681C10.0808 31.8725 8.80896 30.0545 8.67086 27.6182C8.61385 26.6157 8.7526 26.2061 11.781 18.4268C13.5242 13.9488 15.0123 10.3093 15.0879 10.3393C15.1635 10.3694 15.4928 10.9618 15.82 11.656C16.262 12.5939 16.5727 12.9809 17.029 13.1623C17.8789 13.5002 19.1632 12.936 19.5059 12.0744C19.7275 11.5172 19.5544 10.9522 18.156 7.66732C16.6125 4.04138 16.2875 3.54133 15.3289 3.31914Z" fill="#C3ADDE"/>
<path d="M5.22022 27.4775L5.22022 27.4775C5.24181 29.9424 6.36783 32.5353 8.11627 34.1615C9.44535 35.3976 11.8346 36.4404 13.7073 36.5972C16.3457 36.8181 19.2268 35.7087 21.1199 33.7346L21.12 33.7346C21.4752 33.3643 21.7098 33.0684 22.1921 32.0528C22.6812 31.0229 23.4111 29.2821 24.7596 26.0312C26.1098 22.7767 26.846 21.0191 27.3345 19.9918C27.8294 18.9508 28.0866 18.6242 28.4849 18.2479C29.6722 17.1258 30.7844 16.6173 32.3357 16.4983L32.3613 16.8332L32.3357 16.4983C35.7199 16.2388 38.5464 18.6745 38.812 22.0719L38.9169 23.4137L38.9229 23.4902L38.895 23.5618L35.671 31.8404L32.4472 40.1189L32.1614 40.8528L31.8295 40.1386L31.1549 38.6868L31.1548 38.6867C30.6335 37.5642 30.3799 37.2936 30.0435 37.1599C29.724 37.0329 29.2863 37.0654 28.8708 37.2477C28.4558 37.4297 28.1293 37.7324 27.9988 38.0604C27.9281 38.2383 27.8941 38.4313 28.0792 39.0299C28.2682 39.6412 28.663 40.6056 29.3839 42.2943C29.4933 42.5504 29.5958 42.7924 29.6927 43.0208C30.0832 43.942 30.3802 44.6428 30.6546 45.168C31.0007 45.8302 31.2686 46.1245 31.5533 46.2409C31.8363 46.3566 32.2255 46.3329 32.9207 46.0976C33.4727 45.9107 34.1594 45.6127 35.0629 45.2205C35.287 45.1232 35.5243 45.0202 35.7763 44.9116C37.5974 44.127 38.5148 43.7243 39.0216 43.4226C39.2682 43.2758 39.3934 43.1663 39.4741 43.066C39.5553 42.9651 39.6082 42.8536 39.6843 42.6623C39.8089 42.3492 39.8501 42.1633 39.8446 42.0049C39.8392 41.85 39.7877 41.6833 39.6456 41.4119L39.9433 41.2561L39.6456 41.4118C39.4087 40.959 39.1187 40.7434 38.7336 40.6843C38.3154 40.62 37.7329 40.7314 36.9081 41.0793C36.9081 41.0793 36.9081 41.0793 36.9081 41.0793L35.5881 41.6363L34.8489 41.9483L35.1454 41.2028L38.4806 32.8172C41.6275 24.905 41.8051 24.3768 41.9083 23.0713C42.0466 21.3224 41.4306 18.9885 40.422 17.4609L40.7024 17.2758L40.422 17.4609C37.293 12.721 30.0657 12.0938 26.1179 16.2271C25.7337 16.6293 25.4995 16.9138 25.0201 17.9177C24.5323 18.9391 23.8049 20.6766 22.4346 23.978C21.0843 27.2316 20.3478 28.9892 19.8592 30.0167C19.364 31.0578 19.1066 31.3847 18.7083 31.7609L5.22022 27.4775ZM5.22022 27.4775C5.21755 27.1763 5.22092 26.9558 5.27296 26.6599C5.326 26.3583 5.43148 25.9689 5.64443 25.3414C6.0711 24.0841 6.90915 21.9276 8.55382 17.7113C9.48032 15.3363 10.3094 13.1711 10.8989 11.5959C11.1935 10.8086 11.4288 10.1672 11.5866 9.72008C11.6653 9.49714 11.7258 9.31944 11.7649 9.19514C11.7841 9.13416 11.8001 9.07978 11.8104 9.03721C11.815 9.01802 11.8216 8.98891 11.8249 8.95831C11.8262 8.94569 11.8296 8.91203 11.8245 8.87111C11.822 8.85103 11.8153 8.81001 11.7927 8.7635C11.7693 8.71508 11.7164 8.63753 11.6133 8.59653C11.5446 8.56924 11.4827 8.57028 11.4641 8.57062C11.4358 8.57114 11.4096 8.57425 11.3894 8.57725C11.3483 8.58333 11.303 8.59341 11.2583 8.60465C11.1673 8.62753 11.0508 8.66246 10.9192 8.70531C10.6544 8.79149 10.3099 8.91583 9.94795 9.05765L10.0705 9.37039M5.22022 27.4775L10.0705 9.37039M10.0705 9.37039L9.94795 9.05765C8.98805 9.4338 8.60688 9.45274 8.28109 9.32323C7.9644 9.19733 7.66937 8.8736 7.49254 8.45533C7.31594 8.03761 7.28629 7.59391 7.41584 7.26818C7.48612 7.09148 7.59467 6.92807 8.13139 6.62338C8.6797 6.3121 9.61129 5.88826 11.2591 5.16927C12.2902 4.71938 13.2748 4.32252 14.0292 4.04576C14.4071 3.90715 14.723 3.80021 14.9563 3.73185C15.0736 3.69749 15.1642 3.67459 15.2287 3.66199C15.2527 3.65729 15.2701 3.65461 15.2819 3.65319C15.4823 3.70175 15.6287 3.76033 15.7632 3.85605C15.9066 3.95811 16.0581 4.11798 16.2414 4.39992C16.616 4.97597 17.0711 5.97643 17.8469 7.7989C18.5484 9.4468 18.9331 10.3912 19.1172 10.9922C19.2973 11.5802 19.2641 11.7734 19.1937 11.9503C19.0642 12.276 18.7378 12.5782 18.3225 12.7607C17.9067 12.9433 17.4699 12.9761 17.1532 12.8502C16.8274 12.7207 16.5633 12.4452 16.1239 11.5128L15.82 11.656M10.0705 9.37039L15.82 11.656M15.82 11.656L16.1239 11.5128C15.9579 11.1606 15.7904 10.832 15.6533 10.5854C15.5851 10.4628 15.5219 10.3559 15.4686 10.2751C15.4423 10.2353 15.4145 10.1958 15.3867 10.1621C15.3729 10.1454 15.3549 10.125 15.3334 10.1051C15.3172 10.0901 15.275 10.0522 15.2121 10.0272C15.0434 9.96014 14.9118 10.0506 14.8902 10.0658C14.8521 10.0925 14.8275 10.1214 14.818 10.133C14.7958 10.1598 14.7786 10.1877 14.7685 10.2047C14.7458 10.243 14.7202 10.2928 14.6936 10.3475C14.6391 10.4594 14.5657 10.6219 14.4765 10.8264C14.2976 11.2369 14.0489 11.8317 13.7489 12.5654C13.1486 14.0336 12.34 16.0648 11.4679 18.305C9.95536 22.1905 9.15988 24.2469 8.75068 25.4562M15.82 11.656L8.75068 25.4562M8.75068 25.4562C8.54594 26.0612 8.43271 26.4689 8.37592 26.7956M8.75068 25.4562L8.37592 26.7956M8.37592 26.7956C8.31763 27.1309 8.3204 27.3724 8.33546 27.6373L8.37592 26.7956ZM15.2981 3.65183C15.2981 3.65187 15.297 3.65193 15.2951 3.65192C15.2972 3.6518 15.2981 3.6518 15.2981 3.65183Z" stroke="white" stroke-width="0.67184"/>
</g>
<defs>
<filter id="filter0_d_1_207" x="0.883606" y="0.31604" width="45.3799" height="51.3282" filterUnits="userSpaceOnUse" color-interpolation-filters="sRGB">
<feFlood flood-opacity="0" result="BackgroundImageFix"/>
<feColorMatrix in="SourceAlpha" type="matrix" values="0 0 0 0 0 0 0 0 0 0 0 0 0 0 0 0 0 0 127 0" result="hardAlpha"/>
<feOffset dy="1"/>
<feGaussianBlur stdDeviation="2"/>
<feComposite in2="hardAlpha" operator="out"/>
<feColorMatrix type="matrix" values="0 0 0 0 1 0 0 0 0 1 0 0 0 0 1 0 0 0 1 0"/>
<feBlend mode="normal" in2="BackgroundImageFix" result="effect1_dropShadow_1_207"/>
<feBlend mode="normal" in="SourceGraphic" in2="effect1_dropShadow_1_207" result="shape"/>
</filter>
</defs>
</svg>
