<svg width="84" height="81" viewBox="0 0 84 81" fill="none" xmlns="http://www.w3.org/2000/svg">
<g filter="url(#filter0_f_1402_2)">
<path fill-rule="evenodd" clip-rule="evenodd" d="M28.8171 6.6379C28.4413 6.55082 25.4843 7.63558 22.2465 9.04828C17.1129 11.2883 16.3084 11.7451 15.9621 12.6158C15.4265 13.9625 16.28 15.9814 17.6082 16.5094C18.3214 16.7929 19.0898 16.6866 20.5988 16.0953C21.7157 15.6576 22.7133 15.3328 22.816 15.3737C22.9188 15.4145 20.6341 21.5197 17.7393 28.9405C12.604 42.1057 12.4764 42.481 12.4934 44.3993C12.5284 48.3912 14.3454 52.5825 17.187 55.2254C19.3531 57.24 23.1988 58.9162 26.2389 59.1708C30.5254 59.5297 35.1821 57.7328 38.2468 54.5371C39.4538 53.2789 39.831 52.4845 44.0412 42.3353C48.267 32.1496 48.6186 31.4099 49.7391 30.3513C51.5128 28.6751 53.1398 27.935 55.4368 27.7588C60.4344 27.3756 64.6023 30.9636 64.9951 35.9872L65.159 38.0843L60.1202 51.0229L55.0818 63.9612L54.0274 61.6921C53.2182 59.9498 52.7491 59.3337 52.0083 59.0392C50.673 58.5084 48.6689 59.3877 48.1308 60.7405C47.7824 61.6166 48.0545 62.4967 50.3005 67.7576C53.7115 75.7462 53.1285 75.508 60.9818 72.1242C66.6372 69.6874 66.8846 69.5402 67.3697 68.3206C67.7749 67.3019 67.7584 66.8308 67.2865 65.929C66.426 64.2842 64.9673 64.0602 62.3388 65.169L60.2759 66.0396L65.4884 52.9339C70.3876 40.616 70.7117 39.6911 70.8811 37.5495C71.1068 34.695 70.1111 30.9317 68.4729 28.4506C63.3949 20.7582 51.6998 19.7479 45.2993 26.449C44.0116 27.7973 43.715 28.4185 39.4376 38.7241C35.2115 48.9072 34.8586 49.6493 33.7382 50.7075C30.9376 53.3538 27.4531 54.0564 24.0418 52.6633C20.6149 51.2635 18.6272 48.4222 18.4114 44.6145C18.3223 43.0477 18.5391 42.4075 23.2722 30.2494C25.9966 23.2507 28.3224 17.5627 28.4405 17.6096C28.5587 17.6566 29.0733 18.5825 29.5846 19.6675C30.2754 21.1333 30.7611 21.7382 31.4742 22.0217C32.8024 22.5497 34.8096 21.668 35.3452 20.3214C35.6916 19.4506 35.421 18.5675 33.2356 13.4336C30.8232 7.76667 30.3152 6.98515 28.8171 6.6379Z" fill="#CF80FF"/>
<path d="M20.5988 16.0953L20.4073 15.6065C20.9729 15.3849 21.5115 15.1906 21.9253 15.0559C22.131 14.9889 22.3131 14.9343 22.4553 14.8985C22.5251 14.881 22.596 14.8652 22.6601 14.8557C22.6916 14.851 22.7326 14.8462 22.7769 14.8454C22.8059 14.8448 22.9028 14.8432 23.01 14.8858C23.1712 14.9499 23.2538 15.0711 23.2905 15.1468C23.3257 15.2195 23.3362 15.2836 23.3401 15.315C23.3481 15.3789 23.3429 15.4315 23.3407 15.4513C23.3356 15.4991 23.3253 15.5446 23.3181 15.5746C23.302 15.6411 23.2769 15.7261 23.247 15.8214C23.1859 16.0157 23.0913 16.2934 22.9683 16.6418C22.7217 17.3405 22.354 18.343 21.8935 19.5735C20.9722 22.0354 19.6765 25.4193 18.2285 29.1312C15.658 35.7208 14.3483 39.0911 13.6814 41.0561C13.3486 42.0368 13.1837 42.6454 13.1008 43.1168C13.0195 43.5792 13.0143 43.9239 13.0184 44.3946L13.0184 44.3946C13.0522 48.247 14.812 52.2994 17.5446 54.841C19.6218 56.7728 23.3559 58.4026 26.2827 58.6476L26.2459 59.0866L26.2827 58.6476C30.4062 58.9929 34.909 57.259 37.8679 54.1738L37.8679 54.1737C38.4231 53.5949 38.7898 53.1325 39.5435 51.5452C40.3079 49.9356 41.4486 47.215 43.5563 42.1342C45.6664 37.0479 46.8171 34.3009 47.5804 32.6953C48.354 31.0683 48.756 30.5578 49.3785 29.9697C51.2341 28.2161 52.9724 27.4214 55.3967 27.2354C60.6858 26.8298 65.1033 30.6366 65.5185 35.9462L65.6825 38.0434L65.6918 38.163L65.6483 38.2748L60.6095 51.2133L55.5711 64.1516L55.1244 65.2987L54.6057 64.1825L53.5513 61.9134L53.5512 61.9133C52.7364 60.159 52.3401 59.7361 51.8143 59.527C51.3149 59.3285 50.6309 59.3793 49.9815 59.6642C49.3329 59.9488 48.8226 60.4218 48.6187 60.9345C48.5081 61.2124 48.4551 61.5142 48.7444 62.4496C49.0398 63.4051 49.6567 64.9124 50.7834 67.5515C50.9544 67.9519 51.1147 68.3301 51.266 68.6871C51.8763 70.1268 52.3406 71.2221 52.7695 72.0428C53.3103 73.0778 53.729 73.5377 54.174 73.7197C54.6163 73.9005 55.2245 73.8634 56.3111 73.4956C57.1738 73.2036 58.247 72.7378 59.6592 72.1248C60.0093 71.9728 60.3803 71.8118 60.774 71.6421C63.6201 70.4158 65.054 69.7865 65.846 69.3149C66.2314 69.0855 66.4271 68.9143 66.5532 68.7577C66.6801 68.6 66.7629 68.4257 66.8818 68.1267C67.0765 67.6373 67.1409 67.3467 67.1323 67.0993C67.1239 66.8572 67.0433 66.5967 66.8213 66.1724L67.2865 65.929L66.8213 66.1724C66.451 65.4646 65.9978 65.1277 65.3959 65.0353C64.7424 64.9349 63.832 65.1089 62.5429 65.6527C62.5429 65.6527 62.5429 65.6527 62.5429 65.6527L60.48 66.5232L59.3246 67.0108L59.788 65.8456L65.0005 52.74C69.9188 40.3741 70.1963 39.5485 70.3577 37.5082M20.5988 16.0953L70.3577 37.5082M20.5988 16.0953L20.4073 15.6065C18.9071 16.1944 18.3114 16.224 17.8022 16.0216C17.3073 15.8248 16.8462 15.3189 16.5698 14.6652C16.2938 14.0123 16.2475 13.3189 16.4499 12.8098C16.5598 12.5336 16.7294 12.2782 17.5682 11.802C18.4252 11.3156 19.8812 10.6531 22.4564 9.52943M20.5988 16.0953L22.4564 9.52943M70.3577 37.5082C70.5738 34.7749 69.6111 31.1274 68.0348 28.7398L68.0348 28.7398C63.1445 21.3319 51.8491 20.3517 45.679 26.8115C45.0786 27.4402 44.7126 27.8848 43.9634 29.4537C43.201 31.0502 42.0641 33.7656 39.9225 38.9253M70.3577 37.5082L39.9225 38.9253M39.9225 38.9253C37.8122 44.0103 36.6611 46.7572 35.8974 48.363M39.9225 38.9253L35.8974 48.363M22.4564 9.52943C24.0679 8.82631 25.6067 8.20607 26.7858 7.77352M22.4564 9.52943L26.7858 7.77352M26.7858 7.77352C27.3764 7.55688 27.8701 7.38975 28.2348 7.28291C28.4181 7.22923 28.5598 7.19342 28.6604 7.17373C28.698 7.16639 28.7252 7.16221 28.7436 7.15999C29.0568 7.23587 29.2856 7.32743 29.4958 7.47702C29.7199 7.63653 29.9568 7.8864 30.2433 8.32704C30.8286 9.22733 31.54 10.7909 32.7525 13.6392C33.8488 16.2147 34.4501 17.6907 34.7378 18.6299C35.0193 19.549 34.9673 19.851 34.8574 20.1274C34.6549 20.6365 34.1449 21.1088 33.4958 21.3939C32.8459 21.6794 32.1632 21.7306 31.6683 21.5339C31.1591 21.3314 30.7464 20.9009 30.0596 19.4437L29.6289 19.6466M26.7858 7.77352L29.6289 19.6466M29.6289 19.6466L30.0596 19.4436C29.8001 18.8931 29.5383 18.3796 29.3241 17.9942C29.2175 17.8026 29.1188 17.6355 29.0354 17.5092C28.9944 17.447 28.9509 17.3853 28.9075 17.3327C28.8859 17.3066 28.8578 17.2747 28.8242 17.2436C28.7989 17.2201 28.7329 17.1609 28.6345 17.1218C28.371 17.017 28.1653 17.1584 28.1315 17.1821C28.072 17.2239 28.0336 17.2691 28.0186 17.2871C27.9839 17.3291 27.9571 17.3726 27.9413 17.3992C27.9058 17.4591 27.8658 17.537 27.8242 17.6224C27.739 17.7973 27.6243 18.0512 27.4849 18.3709C27.2053 19.0124 26.8166 19.9421 26.3477 21.0888C25.4095 23.3833 24.1458 26.5579 22.7829 30.0591C20.4189 36.1316 19.1757 39.3456 18.5361 41.2355M29.6289 19.6466L18.5361 41.2355M34.0988 51.0891C31.1572 53.8686 27.4561 54.6248 23.8432 53.1493C20.2217 51.6701 18.1141 48.6463 17.8872 44.6444L34.0988 51.0891ZM34.0988 51.0891C34.7212 50.5012 35.1235 49.9901 35.8974 48.363M34.0988 51.0891L35.8974 48.363M18.5361 41.2355C18.2161 42.1812 18.0392 42.8183 17.9504 43.3289M18.5361 41.2355L17.9504 43.3289M17.9504 43.3289C17.8593 43.853 17.8636 44.2303 17.8872 44.6443L17.9504 43.3289ZM28.8481 17.9288C28.8482 17.9288 28.8477 17.9295 28.8467 17.931L28.8481 17.9288ZM28.769 7.15786C28.7689 7.15791 28.7673 7.15801 28.7643 7.158C28.7675 7.15781 28.769 7.15781 28.769 7.15786Z" stroke="white" stroke-width="1.05001"/>
</g>
<path d="M12.9934 44.3949L12.9934 44.3948C12.9892 43.9237 12.9944 43.5772 13.0762 43.1125C13.1594 42.6392 13.3247 42.0292 13.6577 41.0481C14.3247 39.0824 15.6348 35.7114 18.2051 29.1221C19.6531 25.4103 20.9488 22.0265 21.87 19.5648C22.3305 18.3343 22.6982 17.332 22.9447 16.6335C23.0676 16.2851 23.1621 16.0077 23.2231 15.8139C23.253 15.7187 23.2778 15.6344 23.2937 15.5687C23.3009 15.539 23.3108 15.4948 23.3158 15.4486C23.3179 15.4295 23.3228 15.3792 23.3152 15.3181C23.3115 15.2881 23.3015 15.227 23.2679 15.1577C23.233 15.0856 23.1543 14.9701 23.0007 14.9091C22.8983 14.8683 22.8055 14.8698 22.7773 14.8704C22.7345 14.8711 22.6947 14.8758 22.6637 14.8804C22.6007 14.8898 22.5308 14.9053 22.4613 14.9228C22.3199 14.9583 22.1384 15.0127 21.9329 15.0796C21.5197 15.2141 20.9817 15.4083 20.4164 15.6298L20.5988 16.0953L20.4164 15.6298C18.9157 16.2178 18.3118 16.2511 17.7929 16.0448C17.2899 15.8449 16.8248 15.3327 16.5467 14.6749C16.269 14.018 16.221 13.3175 16.4266 12.8006C16.5395 12.5168 16.7148 12.2578 17.5558 11.7803C18.4142 11.293 19.8715 10.63 22.4464 9.50652C24.0582 8.80324 25.5975 8.1828 26.7772 7.75005C27.368 7.53333 27.8623 7.36598 28.2277 7.25892C28.4113 7.20513 28.5539 7.1691 28.6556 7.1492C28.6966 7.14117 28.7259 7.1368 28.7451 7.13464C29.0624 7.21118 29.2956 7.3039 29.5102 7.45665C29.7378 7.6186 29.9767 7.8712 30.2642 8.31341C30.851 9.21594 31.5632 10.7818 32.7755 13.6295C33.8716 16.2045 34.4735 17.6819 34.7617 18.6226C35.0439 19.5442 34.9935 19.8526 34.8805 20.1367C34.675 20.6536 34.159 21.1299 33.5058 21.4168C32.8519 21.704 32.162 21.757 31.659 21.5571C31.1401 21.3508 30.7239 20.912 30.0369 19.4543L29.5846 19.6675L30.0369 19.4543C29.7776 18.9042 29.5161 18.3912 29.3021 18.0064C29.1958 17.815 29.0974 17.6485 29.0145 17.523C28.9737 17.4611 28.9308 17.4002 28.8881 17.3486C28.867 17.323 28.8396 17.292 28.8072 17.2619C28.7825 17.2391 28.7193 17.1824 28.6252 17.145C28.3741 17.0452 28.1781 17.1799 28.1459 17.2025C28.089 17.2425 28.0522 17.2857 28.0378 17.3031C28.0044 17.3435 27.9784 17.3856 27.9628 17.412C27.9278 17.471 27.8882 17.5481 27.8467 17.6333C27.7617 17.8078 27.6471 18.0613 27.5078 18.3809C27.2283 19.0221 26.8397 19.9516 26.3708 21.0982C25.4327 23.3926 24.1691 26.567 22.8061 30.0681C20.442 36.141 19.199 39.3543 18.5598 41.2435C18.2399 42.1888 18.0634 42.8245 17.975 43.3332C17.8843 43.8547 17.8886 44.23 17.9121 44.643C18.1384 48.6356 20.2404 51.6507 23.8526 53.1261C27.456 54.5977 31.1467 53.8441 34.0816 51.0709C34.701 50.4858 35.1017 49.9776 35.8747 48.3523C36.6381 46.7472 37.7889 44.001 39.8994 38.9157C42.0408 33.7563 43.178 31.0401 43.9407 29.4429C44.6909 27.872 45.0584 27.4251 45.6609 26.7943C51.8419 20.3229 63.1563 21.3046 68.0556 28.726L68.0556 28.7261C69.6348 31.118 70.5991 34.7711 70.3826 37.5102C70.2208 39.5553 69.9411 40.3857 65.0237 52.7492L60.6386 63.7744C60.1673 64.9594 61.358 66.1255 62.5331 65.6297C63.8234 65.0853 64.7391 64.9091 65.3996 65.0106C66.011 65.1045 66.4703 65.4476 66.8434 66.1608L67.2865 65.929L66.8434 66.1608C67.0661 66.5864 67.1486 66.8508 67.1572 67.0984C67.166 67.3511 67.1 67.6456 66.905 68.1359C66.786 68.4352 66.7021 68.6125 66.5726 68.7734C66.444 68.9332 66.2455 69.1061 65.8588 69.3364C65.065 69.809 63.6291 70.4391 60.7839 71.6651C60.3904 71.8346 60.0197 71.9955 59.6697 72.1475C58.2573 72.7605 57.1828 73.2269 56.319 73.5193C55.2317 73.8874 54.6158 73.9273 54.1645 73.7428C53.7107 73.5572 53.2884 73.09 52.7472 72.0544C52.3179 71.2327 51.8531 70.1362 51.2427 68.6963C51.0914 68.3394 50.9312 67.9614 50.7604 67.5613C49.6338 64.9226 49.0163 63.414 48.7204 62.457C48.4304 61.5191 48.4818 61.2108 48.5954 60.9252C48.8024 60.4047 49.3187 59.9277 49.9714 59.6413C50.6249 59.3546 51.3161 59.3021 51.8234 59.5038C52.3596 59.7169 52.7593 60.149 53.5738 61.9028L53.5739 61.9029L53.6403 62.0457C54.197 63.2439 55.9191 63.1889 56.3985 61.9577L60.5861 51.2042L65.542 38.4787C65.6239 38.2684 65.6572 38.0424 65.6397 37.8175L65.4935 35.9482L64.995 35.9872L65.4935 35.9482C65.0794 30.6521 60.6738 26.8558 55.3986 27.2603L55.4368 27.7588L55.3986 27.2603C52.9803 27.4458 51.2473 28.238 49.3955 29.988C48.7761 30.5732 48.3757 31.0808 47.603 32.706C46.8399 34.3109 45.6896 37.0571 43.5793 42.1438C41.4718 47.2243 40.3308 49.9456 39.5661 51.5559C38.8114 53.145 38.4434 53.6099 37.8859 54.191L37.8858 54.1911C34.922 57.2816 30.4118 59.0185 26.2806 58.6726L26.2388 59.1708L26.2806 58.6726C23.3484 58.427 19.609 56.7951 17.5275 54.8593C14.7897 52.3129 13.0272 48.2539 12.9934 44.3949ZM28.7679 7.13289C28.7679 7.13294 28.7664 7.13302 28.7637 7.13299C28.7666 7.13283 28.768 7.13285 28.7679 7.13289Z" fill="#C3ADDE" stroke="white"/>
<defs>
<filter id="filter0_f_1402_2" x="6.19233" y="0.332953" width="71.0206" height="80.3172" filterUnits="userSpaceOnUse" color-interpolation-filters="sRGB">
<feFlood flood-opacity="0" result="BackgroundImageFix"/>
<feBlend mode="normal" in="SourceGraphic" in2="BackgroundImageFix" result="shape"/>
<feGaussianBlur stdDeviation="3.15002" result="effect1_foregroundBlur_1402_2"/>
</filter>
</defs>
</svg>
