<svg width="200" height="197" viewBox="0 0 200 197" fill="none" xmlns="http://www.w3.org/2000/svg">
<path d="M131.076 77.9644C152.16 80.866 171.499 87.1165 182.841 91.3926C194.184 95.6687 198.369 100.013 194.663 103.663C190.957 107.313 179.596 110.035 162.576 111.352C145.556 112.668 123.964 112.494 101.593 110.861C79.221 109.227 57.4991 106.239 40.2421 102.419C22.9861 98.6013 11.2974 94.1962 7.22954 89.9787C3.1616 85.7612 6.97443 82.0007 17.9987 79.3576C29.0228 76.7145 49.4125 73.3265 70.3714 73.4943" stroke="url(#paint0_radial_1_2)" stroke-width="0.787944"/>
<path d="M176.553 104.661C173.368 146.085 136.43 176.304 93.4607 173C50.4915 169.696 20.3148 132.189 23.5 90.7642C26.6852 49.3396 62.105 19.8957 105.074 23.1997C148.043 26.5037 179.739 63.2359 176.553 104.661Z" stroke="url(#paint1_linear_1_2)" stroke-width="29"/>
<g style="mix-blend-mode:hard-light" filter="url(#filter0_f_1_2)">
<path d="M160.925 103.459C158.386 136.485 129.032 161.175 95.3421 158.585C61.6515 155.994 36.4169 127.107 38.9564 94.0803C41.4958 61.0543 70.8501 36.3636 104.541 38.9541C138.23 41.5446 163.465 70.4327 160.925 103.459Z" stroke="#E551DF" stroke-width="1.01593"/>
</g>
<g style="mix-blend-mode:hard-light" filter="url(#filter1_f_1_2)">
<path d="M160.77 103.447C158.237 136.384 128.96 161.014 95.354 158.43C61.7472 155.845 36.5803 127.029 39.1129 94.0925C41.6455 61.1553 70.9219 36.526 104.529 39.1101C138.134 41.6941 163.302 70.5097 160.77 103.447Z" stroke="#C751E5" stroke-width="1.32853"/>
</g>
<g style="mix-blend-mode:hard-light" filter="url(#filter2_ddi_1_2)">
<path d="M160.925 103.459C158.386 136.485 129.032 161.175 95.3421 158.585C61.6515 155.994 36.4169 127.107 38.9564 94.0803C41.4958 61.0543 70.8501 36.3636 104.541 38.9541C138.23 41.5446 163.465 70.4327 160.925 103.459Z" stroke="#811FFF" stroke-width="1.01593"/>
</g>
<g filter="url(#filter3_f_1_2)">
<path d="M161.12 103.474C158.572 136.611 129.121 161.378 95.3274 158.779C61.5331 156.181 36.2142 127.203 38.7622 94.0654C41.3102 60.9283 70.7616 36.1609 104.556 38.7594C138.349 41.3578 163.668 70.3365 161.12 103.474Z" stroke="#E551C4" stroke-width="0.625188"/>
</g>
<g filter="url(#filter4_f_1_2)">
<path d="M161.277 103.486C158.722 136.712 129.192 161.541 95.3153 158.936C61.4373 156.331 36.0519 127.279 38.6066 94.0536C41.1614 60.8275 70.6899 35.9987 104.568 38.6036C138.445 41.2084 163.831 70.2598 161.277 103.486Z" stroke="white" stroke-width="0.312594"/>
</g>
<path d="M187.147 104.973C183.535 151.94 142.313 187.122 95.0133 183.485C47.7129 179.848 9.88869 138.966 13.5 92C17.1113 45.0338 60.7987 9.6628 108.099 13.2998C155.398 16.9367 190.758 58.0073 187.147 104.973Z" stroke="url(#paint2_linear_1_2)" stroke-width="11.3126"/>
<path d="M176.8 104.62C173.613 146.073 136.735 177.204 94.243 173.937C51.7514 170.67 20.0661 134.266 23.2534 92.814C26.4408 51.3613 63.3189 20.2307 105.81 23.4979C148.302 26.7652 179.988 63.1677 176.8 104.62Z" stroke="url(#paint3_linear_1_2)" stroke-width="10"/>
<path d="M181.312 104.967C177.926 148.993 138.796 181.9 93.8959 178.448C48.9945 174.995 15.3562 136.493 18.7415 92.4671C22.1266 48.4415 61.2557 15.5339 106.157 18.9865C151.058 22.4389 184.697 60.9418 181.312 104.967Z" stroke="url(#paint4_linear_1_2)" stroke-width="0.950395"/>
<path d="M171.163 104.246C168.175 143.104 133.639 172.15 94.008 169.103C54.377 166.055 24.687 132.071 27.6749 93.213C30.6627 54.3547 65.1991 25.3093 104.83 28.3566C144.461 31.4039 174.151 65.3877 171.163 104.246Z" stroke="url(#paint5_linear_1_2)" stroke-width="0.838849"/>
<g style="mix-blend-mode:hard-light" filter="url(#filter5_f_1_2)">
<path d="M191.707 105.324C187.887 155 143.735 192.138 93.0607 188.242C42.3873 184.345 4.43091 140.893 8.25052 91.218C12.0702 41.5425 56.2232 4.40442 106.897 8.30077C157.571 12.1972 195.527 55.6487 191.707 105.324Z" stroke="#B480FD" stroke-width="1.52809"/>
</g>
<g style="mix-blend-mode:hard-light" filter="url(#filter6_f_1_2)">
<path d="M191.473 105.306C187.663 154.848 143.627 191.894 93.0786 188.007C42.5298 184.121 4.67551 140.778 8.48485 91.2361C12.2942 41.6942 56.3297 4.64842 106.879 8.53519C157.427 12.422 195.282 55.7644 191.473 105.306Z" stroke="#A463FD" stroke-width="1.99828"/>
</g>
<g style="mix-blend-mode:hard-light" filter="url(#filter7_ddi_1_2)">
<path d="M191.707 105.324C187.887 155 143.735 192.138 93.0607 188.242C42.3873 184.345 4.43091 140.893 8.25052 91.218C12.0702 41.5425 56.2232 4.40442 106.897 8.30077C157.571 12.1972 195.527 55.6487 191.707 105.324Z" stroke="#811FFF" stroke-width="1.52809"/>
</g>
<g filter="url(#filter8_f_1_2)">
<path d="M192 105.347C188.168 155.19 143.869 192.443 93.0382 188.535C42.2082 184.626 4.12499 141.038 7.95748 91.1954C11.79 41.3527 56.0892 4.09924 106.919 8.00763C157.75 11.9161 195.833 55.504 192 105.347Z" stroke="#811FFF" stroke-width="0.940366"/>
</g>
<g filter="url(#filter9_f_1_2)">
<path d="M192.043 105.446C188.204 155.37 143.791 192.673 92.8357 188.755C41.8801 184.837 3.69258 141.183 7.53128 91.2591C11.37 41.3358 55.7824 4.0328 106.738 7.95085C157.694 11.8689 195.881 55.5231 192.043 105.446Z" stroke="white" stroke-width="0.470183"/>
</g>
<path d="M96.4644 134.975C116.695 136.53 134.396 120.863 136.002 99.9801C137.607 79.0974 122.509 60.9077 102.279 59.3522C82.0491 57.7966 64.3477 73.4644 62.742 94.347C61.1363 115.23 76.2344 133.419 96.4644 134.975Z" fill="url(#paint6_linear_1_2)"/>
<path d="M96.4644 134.975C116.695 136.53 134.396 120.863 136.002 99.9801C137.607 79.0974 122.509 60.9077 102.279 59.3522C82.0491 57.7966 64.3477 73.4644 62.742 94.347C61.1363 115.23 76.2344 133.419 96.4644 134.975Z" fill="url(#paint7_linear_1_2)"/>
<path d="M136.002 99.9802C134.396 120.863 116.695 136.53 96.4645 134.975C94.0148 134.786 81.8402 116.822 83.4459 95.9391C85.0516 75.0564 94.4906 61.2796 102.279 59.3523C122.51 60.9078 137.607 79.0975 136.002 99.9802Z" fill="url(#paint8_linear_1_2)"/>
<path d="M136.002 99.9802C134.396 120.863 116.695 136.53 96.4645 134.975C94.0148 134.786 81.8402 116.822 83.4459 95.9391C85.0516 75.0564 94.4906 61.2796 102.279 59.3523C122.51 60.9078 137.607 79.0975 136.002 99.9802Z" fill="url(#paint9_linear_1_2)"/>
<path d="M50.7142 74.424C57.0963 73.6503 64.7785 73.8649 69.0541 73.9303L70.3102 73.9249L68.0568 77.9005C68.0568 77.9005 66.5153 80.6255 65.7299 82.4664C65.0421 84.0802 64.3283 86.5033 64.3283 86.5033C63.5353 86.7851 61.2587 86.6666 63.3051 88.3058C65.3524 89.9449 74.045 92.4101 80.8539 93.8996C93.3865 96.6414 111.508 97.3433 113.964 97.5322C116.419 97.7209 127.462 96.6984 129.774 96.1794C134.297 95.1642 135.546 93.067 135.546 93.067C135.552 92.3681 135.305 90.207 134.502 87.3593C133.508 83.8313 132.906 81.7344 131.629 78.6398C133.027 78.879 135.675 79.5665 137.162 79.7598C139.02 80.0015 153.418 81.9335 158.358 83.2024C163.298 84.4714 183.094 90.1569 189.19 93.0953C195.287 96.0337 195.794 99.6207 195.794 99.6207C195.794 99.6207 195.751 101.453 195.593 102.231C195.434 103.009 194.344 104.038 192.795 104.906C191.526 105.994 182.328 108.729 179.412 109.394C176.497 110.058 165.506 111.966 153.011 112.586C140.516 113.206 117.106 113.05 95.034 111.19C73.3651 109.365 44.2376 104.002 40.2361 103.124C30.5218 100.994 21.4504 97.1033 12.635 93.561C9.59514 92.3393 5.47153 88.8969 5.55459 87.8166C5.63765 86.7364 6.11255 84.7093 7.41934 83.1304C8.72613 81.5516 16.9363 79.0224 21.8765 77.7229C26.8166 76.4234 42.7376 75.3912 50.7142 74.424Z" fill="#130029"/>
<path d="M131.65 78.5221C152.972 81.4813 171.026 85.5865 182.604 90.1081C194.181 94.6297 198.533 99.2751 194.885 103.219C191.237 107.162 179.826 110.149 162.68 111.646C145.533 113.145 123.762 113.059 101.234 111.403C78.7062 109.747 56.8811 106.629 39.636 102.603C22.3919 98.5758 10.8442 93.9027 7.04655 89.4116C3.24876 84.9208 7.44627 80.9039 18.8934 78.0746C30.34 75.2454 48.5389 73.7149 69.8113 73.8865" stroke="#9F5AFD"/>
<g style="mix-blend-mode:hard-light" filter="url(#filter10_f_1_2)">
<path d="M132.173 78.2398C153.495 81.1991 171.55 85.3043 183.127 89.8259C194.705 94.3476 199.056 98.9929 195.408 102.936C191.76 106.88 180.35 109.866 163.203 111.365C146.057 112.864 124.285 112.777 101.757 111.121C79.2296 109.465 57.4045 106.347 40.1595 102.32C22.9153 98.2941 11.3677 93.62 7.56998 89.1294C3.7722 84.6386 7.9697 80.6217 19.4168 77.7925C30.8634 74.9632 48.818 73.5048 70.0915 73.6766" stroke="#BE93FD" stroke-width="0.65"/>
</g>
<g style="mix-blend-mode:hard-light" filter="url(#filter11_f_1_2)">
<path d="M132.173 78.2398C153.495 81.1991 171.55 85.3043 183.127 89.8259C194.705 94.3476 199.056 98.9929 195.408 102.936C191.76 106.88 180.35 109.866 163.203 111.365C146.057 112.864 124.285 112.777 101.757 111.121C79.2296 109.465 57.4045 106.347 40.1595 102.32C22.9153 98.2941 11.3677 93.62 7.56998 89.1294C3.7722 84.6386 7.9697 80.6217 19.4168 77.7925C30.8634 74.9632 48.818 73.5048 70.0915 73.6766" stroke="#BE93FD" stroke-width="0.85"/>
</g>
<g style="mix-blend-mode:hard-light" filter="url(#filter12_ddi_1_2)">
<path d="M131.667 78.1412C152.989 81.1005 171.549 85.3043 183.127 89.8259C194.704 94.3476 199.056 98.9929 195.408 102.936C191.76 106.88 180.349 109.866 163.203 111.365C146.057 112.864 124.285 112.777 101.757 111.121C79.2295 109.465 57.4043 106.347 40.1593 102.32C22.9152 98.2941 11.3675 93.62 7.56981 89.1294C3.77203 84.6386 7.96954 80.6217 19.4166 77.7925C30.8632 74.9632 49.0375 73.7532 70.3099 73.9249" stroke="#C49CFD" stroke-width="0.65"/>
</g>
<g filter="url(#filter13_f_1_2)">
<path d="M131.667 78.1412C152.989 81.1005 171.549 85.3043 183.127 89.8259C194.704 94.3476 199.056 98.9929 195.408 102.936C191.76 106.88 180.349 109.866 163.203 111.365C146.057 112.864 124.285 112.777 101.757 111.121C79.2295 109.465 57.4043 106.347 40.1593 102.32C22.9152 98.2941 11.3675 93.62 7.56981 89.1294C3.77203 84.6386 7.96954 80.6217 19.4166 77.7925C30.8632 74.9632 49.0375 73.7532 70.3099 73.9249" stroke="#C49CFD" stroke-width="0.4"/>
</g>
<g filter="url(#filter14_f_1_2)">
<path d="M131.169 78.1029C152.491 81.0622 171.549 85.3043 183.127 89.8259C194.704 94.3476 199.056 98.9929 195.408 102.936C191.76 106.88 180.349 109.866 163.203 111.365C146.057 112.864 124.285 112.777 101.757 111.121C79.2295 109.465 57.4043 106.347 40.1593 102.32C22.9152 98.2941 11.3675 93.62 7.56981 89.1294C3.77203 84.6386 7.96954 80.6217 19.4166 77.7925C30.8632 74.9632 49.0375 73.7532 70.3099 73.9249" stroke="white" stroke-width="0.2"/>
</g>
<path d="M65.6316 82.5917L68.0091 77.7598C64.6015 77.8321 56.4279 78.3737 50.1298 80.8983C47.3999 81.9922 42.5725 83.3261 42.4191 85.3202C42.2658 87.3143 42.1891 88.3114 45.9428 91.1074C49.6965 93.9034 55.7812 95.8757 58.5232 97.0894C61.2643 98.3032 75.7647 101.424 80.7994 102.313C85.8341 103.201 97.0954 104.255 103.87 104.588C121.944 105.476 130.551 104.132 136.264 103.569C141.977 103.005 152.165 100.779 155.478 97.0223C156.939 95.3643 156.309 93.5759 155.297 91.9936C154.285 90.4114 149.929 88.0705 146.06 86.7701C142.966 85.7298 134.793 83.2292 133.278 83.2799C133.278 83.2799 134.402 87.3781 134.85 88.917C135.342 90.6009 135.541 92.9819 135.541 92.9819L134.467 93.9023C134.467 93.9023 128.677 97.4689 103.355 96.5249C97.1419 96.2932 77.3665 93.0221 72.9564 91.6801C69.4744 90.6204 66.3787 90.1713 63.6761 88.4591L62.2188 87.8456L61.7969 86.8102L62.3338 86.35L64.3279 86.5033L65.6316 82.5917Z" fill="url(#paint10_linear_1_2)"/>
<g style="mix-blend-mode:hard-light" filter="url(#filter15_f_1_2)">
<path d="M140.157 92.8877C138.264 95.7057 132.731 96.2609 125.459 96.616C118.187 96.9712 108.951 96.7787 99.3716 96.0725C89.7926 95.3661 80.4833 94.1911 73.0797 92.7539C65.675 91.3167 59.8896 89.0265 58.1241 87.5307C56.3586 86.0349 58.2391 86.0351 58.2391 86.0351L59.3657 86.1217" stroke="#E56951" stroke-width="0.512164"/>
</g>
<g style="mix-blend-mode:hard-light" filter="url(#filter16_f_1_2)">
<path d="M135.464 93.9789C134.055 95.2449 129.712 96.1668 123.198 96.5827C116.684 96.9986 108.415 96.882 99.8442 96.2533C91.2731 95.6246 82.948 94.5241 76.3303 93.1449C69.7125 91.7657 65.2257 90.1961 63.6568 88.7116" stroke="#E56951" stroke-width="0.669752"/>
</g>
<g style="mix-blend-mode:hard-light" filter="url(#filter17_di_1_2)">
<path d="M63.6278 86.4931C63.2026 86.4274 62.2918 86.3111 62.1282 86.3778C61.9232 86.4611 61.817 86.5519 61.7791 87.0443C61.7488 87.4382 62.3815 87.7665 62.5663 87.9458C64.1232 89.4292 69.6335 91.5667 76.2064 92.9425C82.7793 94.3182 91.0697 95.6093 99.5829 96.2337C108.095 96.8578 116.309 96.9702 122.779 96.551C129.249 96.1317 133.564 95.2077 134.965 93.9412C135.143 93.7989 135.508 93.4155 135.538 93.0191" stroke="white" stroke-opacity="0.2" stroke-width="0.512164"/>
</g>
<g filter="url(#filter18_f_1_2)">
<path d="M63.4844 86.4383C63.2231 86.4183 62.6199 86.3719 62.3058 86.3477C61.912 86.3174 61.6853 86.6956 61.8591 87.0055C61.9985 87.2536 62.4065 87.608 62.5929 87.7542C64.1439 89.2348 69.3062 91.7383 75.8532 93.1105C82.3993 94.4826 90.6358 95.5756 99.115 96.1973C107.594 96.819 116.13 97.4066 122.576 96.987C129.021 96.5673 133.342 95.4614 134.955 94.0794L135.492 93.6187C135.492 93.6187 135.499 93.5189 135.53 93.1197" stroke="#E56951" stroke-width="0.315178"/>
</g>
<g filter="url(#filter19_f_1_2)">
<path d="M62.8378 86.4101C62.607 86.3596 62.7269 86.3664 62.325 86.4139C61.823 86.4733 61.808 86.6681 61.8005 86.7655C61.7931 86.8629 61.7631 87.2525 62.129 87.6725C62.4211 88.0085 63.3569 88.4252 63.6402 88.6409C65.5722 89.7842 69.6691 91.6648 76.2557 93.032C82.8432 94.3994 90.8344 95.5909 99.3645 96.2168C107.896 96.8427 116.125 96.962 122.608 96.5536C129.09 96.1453 133.413 95.2355 134.815 93.9839C135.044 93.8191 135.51 93.3905 135.54 92.995" stroke="white" stroke-width="0.157589"/>
</g>
<g style="mix-blend-mode:hard-light" filter="url(#filter20_f_1_2)">
<path d="M132.745 79.7285C149.79 82.4168 163.758 85.9649 172.293 89.7742C180.828 93.5836 183.409 97.4213 179.599 100.64C175.79 103.859 165.824 106.262 151.381 107.443C136.939 108.625 118.904 108.513 100.319 107.126C81.7334 105.74 63.734 103.164 49.357 99.8327C34.9801 96.5007 25.1057 92.6181 21.3976 88.8385C17.6894 85.0591 20.3754 81.6143 29.0027 79.0852C37.63 76.5562 51.6712 75.0974 68.7563 74.9552" stroke="white" stroke-width="0.65"/>
</g>
<g style="mix-blend-mode:hard-light" filter="url(#filter21_i_1_2)">
<path d="M132.745 79.7285C149.79 82.4168 163.758 85.9649 172.293 89.7742C180.828 93.5836 183.409 97.4213 179.599 100.64C175.79 103.859 165.824 106.262 151.381 107.443C136.939 108.625 118.904 108.513 100.319 107.126C81.7334 105.74 63.734 103.164 49.357 99.8327C34.9801 96.5007 25.1057 92.6181 21.3976 88.8385C17.6894 85.0591 20.3754 81.6143 29.0027 79.0852C37.63 76.5562 51.6712 75.0974 68.7563 74.9552" stroke="#49306A" stroke-width="0.85"/>
</g>
<path d="M132.745 79.7285C149.79 82.4168 163.758 85.9649 172.293 89.7742C180.828 93.5836 183.409 97.4213 179.599 100.64C175.79 103.859 165.824 106.262 151.381 107.443C136.939 108.625 118.904 108.513 100.319 107.126C81.7334 105.74 63.734 103.164 49.357 99.8327C34.9801 96.5007 25.1057 92.6181 21.3976 88.8385C17.6894 85.0591 20.3754 81.6143 29.0027 79.0852C37.63 76.5562 52.6485 75.0258 69.7347 74.8835" stroke="white" stroke-opacity="0.62" stroke-width="0.4"/>
<path d="M132.745 79.7285C149.79 82.4168 163.758 85.9649 172.293 89.7742C180.828 93.5836 183.409 97.4213 179.599 100.64C175.79 103.859 165.824 106.262 151.381 107.443C136.939 108.625 118.904 108.513 100.319 107.126C81.7334 105.74 63.734 103.164 49.357 99.8327C34.9801 96.5007 25.1057 92.6181 21.3976 88.8385C17.6894 85.0591 20.3754 81.6143 29.0027 79.0852C37.63 76.5562 52.6485 75.0258 69.7347 74.8835" stroke="#49306A" stroke-width="0.2"/>
<g style="mix-blend-mode:hard-light" filter="url(#filter22_f_1_2)">
<path d="M133.089 82.9573C142.935 85.3181 150.205 88.1609 153.839 91.0709C157.473 93.9808 157.28 96.8053 153.288 99.1321C149.296 101.459 141.715 103.166 131.65 104.005C121.586 104.844 109.567 104.769 97.3456 103.793C85.1244 102.818 73.3428 100.991 63.7193 98.5801C54.0958 96.1692 47.1362 93.3001 43.8545 90.3923C40.5728 87.4847 41.1427 84.6901 45.4797 82.4168C49.8168 80.1436 57.6952 78.5106 67.9632 77.7561" stroke="#E56951" stroke-width="0.65"/>
</g>
<g style="mix-blend-mode:hard-light" filter="url(#filter23_f_1_2)">
<path d="M133.089 82.9573C142.935 85.3181 150.205 88.1609 153.839 91.0709C157.473 93.9808 157.28 96.8053 153.288 99.1321C149.296 101.459 141.715 103.166 131.65 104.005C121.586 104.844 109.567 104.769 97.3456 103.793C85.1244 102.818 73.3428 100.991 63.7193 98.5801C54.0958 96.1692 47.1362 93.3001 43.8545 90.3923C40.5728 87.4847 41.1427 84.6901 45.4797 82.4168C49.8168 80.1436 57.6952 78.5106 67.9632 77.7561" stroke="#E56951" stroke-width="0.85"/>
</g>
<g style="mix-blend-mode:hard-light" filter="url(#filter24_ddi_1_2)">
<path d="M133.089 82.9573C142.935 85.3181 150.205 88.1609 153.839 91.0709C157.473 93.9808 157.28 96.8053 153.288 99.1321C149.296 101.459 141.715 103.166 131.65 104.005C121.586 104.844 109.567 104.769 97.3456 103.793C85.1244 102.818 73.3428 100.991 63.7193 98.5801C54.0958 96.1692 47.1362 93.3001 43.8545 90.3923C40.5728 87.4847 41.1427 84.6901 45.4797 82.4168C49.8168 80.1436 57.6952 78.5106 67.9632 77.7561" stroke="#DB5C3A" stroke-opacity="0.2" stroke-width="0.65"/>
</g>
<g filter="url(#filter25_f_1_2)">
<path d="M133.089 82.9573C142.935 85.3181 150.205 88.1609 153.839 91.0709C157.473 93.9808 157.28 96.8053 153.288 99.1321C149.296 101.459 141.715 103.166 131.65 104.005C121.586 104.844 109.567 104.769 97.3456 103.793C85.1244 102.818 73.3428 100.991 63.7193 98.5801C54.0958 96.1692 47.1362 93.3001 43.8545 90.3923C40.5728 87.4847 41.1427 84.6901 45.4797 82.4168C49.8168 80.1436 57.6952 78.5106 67.9632 77.7561" stroke="#FF9983" stroke-width="0.4"/>
</g>
<g filter="url(#filter26_f_1_2)">
<path d="M133.089 82.9573C142.935 85.3181 150.205 88.1609 153.839 91.0709C157.473 93.9808 157.28 96.8053 153.288 99.1321C149.296 101.459 141.715 103.166 131.65 104.005C121.586 104.844 109.567 104.769 97.3456 103.793C85.1244 102.818 73.3428 100.991 63.7193 98.5801C54.0958 96.1692 47.1362 93.3001 43.8545 90.3923C40.5728 87.4847 41.1427 84.6901 45.4797 82.4168C49.8168 80.1436 57.6952 78.5106 67.9632 77.7561" stroke="white" stroke-width="0.2"/>
</g>
<path d="M134.025 85.3105C140.062 87.308 143.929 89.5114 145.145 91.6466C146.361 93.7818 144.872 95.7547 140.863 97.3197C136.855 98.8848 130.504 99.9731 122.6 100.449C114.697 100.925 105.589 100.769 96.41 99.9976C87.2311 99.2266 78.3855 97.8765 70.9748 96.1143C63.5631 94.3522 57.9132 92.2563 54.7271 90.0871C51.541 87.9179 50.9589 85.7711 53.0534 83.9139C55.148 82.0566 59.8276 80.5709 66.5086 79.6413" stroke="#E56951"/>
<g style="mix-blend-mode:hard-light" filter="url(#filter27_f_1_2)">
<path d="M134.024 85.3192C140.062 87.3168 143.928 89.5201 145.144 91.6554C146.36 93.7906 144.871 95.7633 140.863 97.3284C136.855 98.8936 130.504 99.9818 122.6 100.458C114.696 100.934 105.588 100.777 96.4095 100.006C87.2306 99.2354 78.385 97.8853 70.9743 96.1231C63.5626 94.361 57.9127 92.265 54.7266 90.0958C51.5405 87.9266 50.9584 85.7799 53.0529 83.9227C55.1475 82.0654 59.8272 80.5797 66.5081 79.6501" stroke="#FF9983" stroke-width="0.65"/>
</g>
<g style="mix-blend-mode:hard-light" filter="url(#filter28_f_1_2)">
<path d="M134.024 85.3192C140.062 87.3168 143.928 89.5201 145.144 91.6554C146.36 93.7906 144.871 95.7633 140.863 97.3284C136.855 98.8936 130.504 99.9818 122.6 100.458C114.696 100.934 105.588 100.777 96.4095 100.006C87.2306 99.2354 78.385 97.8853 70.9743 96.1231C63.5626 94.361 57.9127 92.265 54.7266 90.0958C51.5405 87.9266 50.9584 85.7799 53.0529 83.9227C55.1475 82.0654 59.8272 80.5797 66.5081 79.6501" stroke="#FF9983" stroke-width="0.85"/>
</g>
<g style="mix-blend-mode:hard-light" filter="url(#filter29_ddi_1_2)">
<path d="M134.024 85.3192C140.062 87.3168 143.928 89.5201 145.144 91.6554C146.36 93.7906 144.871 95.7633 140.863 97.3284C136.855 98.8936 130.504 99.9818 122.6 100.458C114.696 100.934 105.588 100.777 96.4095 100.006C87.2306 99.2354 78.385 97.8853 70.9743 96.1231C63.5626 94.361 57.9127 92.265 54.7266 90.0958C51.5405 87.9266 50.9584 85.7799 53.0529 83.9227C55.1475 82.0654 59.8272 80.5797 66.5081 79.6501" stroke="#E56951" stroke-opacity="0.2" stroke-width="0.65"/>
</g>
<g filter="url(#filter30_f_1_2)">
<path d="M134.024 85.3192C140.062 87.3168 143.928 89.5201 145.144 91.6554C146.36 93.7906 144.871 95.7633 140.863 97.3284C136.855 98.8936 130.504 99.9818 122.6 100.458C114.696 100.934 105.588 100.777 96.4095 100.006C87.2306 99.2354 78.385 97.8853 70.9743 96.1231C63.5626 94.361 57.9127 92.265 54.7266 90.0958C51.5405 87.9266 50.9584 85.7799 53.0529 83.9227C55.1475 82.0654 59.8272 80.5797 66.5081 79.6501" stroke="#FF9983" stroke-width="0.4"/>
</g>
<g filter="url(#filter31_f_1_2)">
<path d="M134.024 85.3192C140.062 87.3168 143.928 89.5201 145.144 91.6554C146.36 93.7906 144.871 95.7633 140.863 97.3284C136.855 98.8936 130.504 99.9818 122.6 100.458C114.696 100.934 105.588 100.777 96.4095 100.006C87.2306 99.2354 78.385 97.8853 70.9743 96.1231C63.5626 94.361 57.9127 92.265 54.7266 90.0958C51.5405 87.9266 50.9584 85.7799 53.0529 83.9227C55.1475 82.0654 59.8272 80.5797 66.5081 79.6501" stroke="white" stroke-width="0.2"/>
</g>
<defs>
<filter id="filter0_f_1_2" x="33.5834" y="33.5707" width="132.715" height="130.398" filterUnits="userSpaceOnUse" color-interpolation-filters="sRGB">
<feFlood flood-opacity="0" result="BackgroundImageFix"/>
<feBlend mode="normal" in="SourceGraphic" in2="BackgroundImageFix" result="shape"/>
<feGaussianBlur stdDeviation="2.34446" result="effect1_foregroundBlur_1_2"/>
</filter>
<filter id="filter1_f_1_2" x="36.71" y="36.6967" width="126.463" height="124.146" filterUnits="userSpaceOnUse" color-interpolation-filters="sRGB">
<feFlood flood-opacity="0" result="BackgroundImageFix"/>
<feBlend mode="normal" in="SourceGraphic" in2="BackgroundImageFix" result="shape"/>
<feGaussianBlur stdDeviation="0.781485" result="effect1_foregroundBlur_1_2"/>
</filter>
<filter id="filter2_ddi_1_2" x="36.2405" y="37.7907" width="127.401" height="125.084" filterUnits="userSpaceOnUse" color-interpolation-filters="sRGB">
<feFlood flood-opacity="0" result="BackgroundImageFix"/>
<feColorMatrix in="SourceAlpha" type="matrix" values="0 0 0 0 0 0 0 0 0 0 0 0 0 0 0 0 0 0 127 0" result="hardAlpha"/>
<feOffset dy="1.01593"/>
<feGaussianBlur stdDeviation="0.390743"/>
<feColorMatrix type="matrix" values="0 0 0 0 0.540365 0 0 0 0 0.256043 0 0 0 0 0.193631 0 0 0 0.7 0"/>
<feBlend mode="multiply" in2="BackgroundImageFix" result="effect1_dropShadow_1_2"/>
<feColorMatrix in="SourceAlpha" type="matrix" values="0 0 0 0 0 0 0 0 0 0 0 0 0 0 0 0 0 0 127 0" result="hardAlpha"/>
<feOffset dy="1.56297"/>
<feGaussianBlur stdDeviation="1.01593"/>
<feColorMatrix type="matrix" values="0 0 0 0 0.541176 0 0 0 0 0.254902 0 0 0 0 0.192157 0 0 0 1 0"/>
<feBlend mode="color-dodge" in2="effect1_dropShadow_1_2" result="effect2_dropShadow_1_2"/>
<feBlend mode="normal" in="SourceGraphic" in2="effect2_dropShadow_1_2" result="shape"/>
<feColorMatrix in="SourceAlpha" type="matrix" values="0 0 0 0 0 0 0 0 0 0 0 0 0 0 0 0 0 0 127 0" result="hardAlpha"/>
<feOffset dx="-0.101593" dy="0.203186"/>
<feGaussianBlur stdDeviation="0.0507965"/>
<feComposite in2="hardAlpha" operator="arithmetic" k2="-1" k3="1"/>
<feColorMatrix type="matrix" values="0 0 0 0 1 0 0 0 0 1 0 0 0 0 1 0 0 0 0.5 0"/>
<feBlend mode="normal" in2="shape" result="effect3_innerShadow_1_2"/>
</filter>
<filter id="filter3_f_1_2" x="38.1166" y="38.1033" width="123.649" height="121.332" filterUnits="userSpaceOnUse" color-interpolation-filters="sRGB">
<feFlood flood-opacity="0" result="BackgroundImageFix"/>
<feBlend mode="normal" in="SourceGraphic" in2="BackgroundImageFix" result="shape"/>
<feGaussianBlur stdDeviation="0.0781486" result="effect1_foregroundBlur_1_2"/>
</filter>
<filter id="filter4_f_1_2" x="38.169" y="38.1555" width="123.545" height="121.229" filterUnits="userSpaceOnUse" color-interpolation-filters="sRGB">
<feFlood flood-opacity="0" result="BackgroundImageFix"/>
<feBlend mode="normal" in="SourceGraphic" in2="BackgroundImageFix" result="shape"/>
<feGaussianBlur stdDeviation="0.052099" result="effect1_foregroundBlur_1_2"/>
</filter>
<filter id="filter5_f_1_2" x="0.168886" y="0.203394" width="199.62" height="196.136" filterUnits="userSpaceOnUse" color-interpolation-filters="sRGB">
<feFlood flood-opacity="0" result="BackgroundImageFix"/>
<feBlend mode="normal" in="SourceGraphic" in2="BackgroundImageFix" result="shape"/>
<feGaussianBlur stdDeviation="3.52637" result="effect1_foregroundBlur_1_2"/>
</filter>
<filter id="filter6_f_1_2" x="4.87062" y="4.90522" width="190.216" height="186.732" filterUnits="userSpaceOnUse" color-interpolation-filters="sRGB">
<feFlood flood-opacity="0" result="BackgroundImageFix"/>
<feBlend mode="normal" in="SourceGraphic" in2="BackgroundImageFix" result="shape"/>
<feGaussianBlur stdDeviation="1.17546" result="effect1_foregroundBlur_1_2"/>
</filter>
<filter id="filter7_ddi_1_2" x="4.16545" y="6.55086" width="191.627" height="188.142" filterUnits="userSpaceOnUse" color-interpolation-filters="sRGB">
<feFlood flood-opacity="0" result="BackgroundImageFix"/>
<feColorMatrix in="SourceAlpha" type="matrix" values="0 0 0 0 0 0 0 0 0 0 0 0 0 0 0 0 0 0 127 0" result="hardAlpha"/>
<feOffset dy="1.52809"/>
<feGaussianBlur stdDeviation="0.587729"/>
<feColorMatrix type="matrix" values="0 0 0 0 0.492313 0 0 0 0 0.192157 0 0 0 0 0.541176 0 0 0 0.7 0"/>
<feBlend mode="multiply" in2="BackgroundImageFix" result="effect1_dropShadow_1_2"/>
<feColorMatrix in="SourceAlpha" type="matrix" values="0 0 0 0 0 0 0 0 0 0 0 0 0 0 0 0 0 0 127 0" result="hardAlpha"/>
<feOffset dy="2.35091"/>
<feGaussianBlur stdDeviation="1.52809"/>
<feColorMatrix type="matrix" values="0 0 0 0 0.541176 0 0 0 0 0.192157 0 0 0 0 0.485333 0 0 0 1 0"/>
<feBlend mode="color-dodge" in2="effect1_dropShadow_1_2" result="effect2_dropShadow_1_2"/>
<feBlend mode="normal" in="SourceGraphic" in2="effect2_dropShadow_1_2" result="shape"/>
<feColorMatrix in="SourceAlpha" type="matrix" values="0 0 0 0 0 0 0 0 0 0 0 0 0 0 0 0 0 0 127 0" result="hardAlpha"/>
<feOffset dx="-0.152809" dy="0.305619"/>
<feGaussianBlur stdDeviation="0.0764047"/>
<feComposite in2="hardAlpha" operator="arithmetic" k2="-1" k3="1"/>
<feColorMatrix type="matrix" values="0 0 0 0 1 0 0 0 0 1 0 0 0 0 1 0 0 0 0.5 0"/>
<feBlend mode="normal" in2="shape" result="effect3_innerShadow_1_2"/>
</filter>
<filter id="filter8_f_1_2" x="6.98648" y="7.0209" width="185.985" height="182.5" filterUnits="userSpaceOnUse" color-interpolation-filters="sRGB">
<feFlood flood-opacity="0" result="BackgroundImageFix"/>
<feBlend mode="normal" in="SourceGraphic" in2="BackgroundImageFix" result="shape"/>
<feGaussianBlur stdDeviation="0.117546" result="effect1_foregroundBlur_1_2"/>
</filter>
<filter id="filter9_f_1_2" x="6.87361" y="7.27658" width="185.827" height="182.153" filterUnits="userSpaceOnUse" color-interpolation-filters="sRGB">
<feFlood flood-opacity="0" result="BackgroundImageFix"/>
<feBlend mode="normal" in="SourceGraphic" in2="BackgroundImageFix" result="shape"/>
<feGaussianBlur stdDeviation="0.0783638" result="effect1_foregroundBlur_1_2"/>
</filter>
<filter id="filter10_f_1_2" x="2.88184" y="70.338" width="197.108" height="45.4163" filterUnits="userSpaceOnUse" color-interpolation-filters="sRGB">
<feFlood flood-opacity="0" result="BackgroundImageFix"/>
<feBlend mode="normal" in="SourceGraphic" in2="BackgroundImageFix" result="shape"/>
<feGaussianBlur stdDeviation="1.5" result="effect1_foregroundBlur_1_2"/>
</filter>
<filter id="filter11_f_1_2" x="4.78185" y="72.238" width="193.308" height="41.6163" filterUnits="userSpaceOnUse" color-interpolation-filters="sRGB">
<feFlood flood-opacity="0" result="BackgroundImageFix"/>
<feBlend mode="normal" in="SourceGraphic" in2="BackgroundImageFix" result="shape"/>
<feGaussianBlur stdDeviation="0.5" result="effect1_foregroundBlur_1_2"/>
</filter>
<filter id="filter12_ddi_1_2" x="4.58168" y="73.2839" width="193.708" height="41.7704" filterUnits="userSpaceOnUse" color-interpolation-filters="sRGB">
<feFlood flood-opacity="0" result="BackgroundImageFix"/>
<feColorMatrix in="SourceAlpha" type="matrix" values="0 0 0 0 0 0 0 0 0 0 0 0 0 0 0 0 0 0 127 0" result="hardAlpha"/>
<feOffset dy="0.65"/>
<feGaussianBlur stdDeviation="0.25"/>
<feColorMatrix type="matrix" values="0 0 0 0 1 0 0 0 0 0.6 0 0 0 0 0.513726 0 0 0 0.15 0"/>
<feBlend mode="multiply" in2="BackgroundImageFix" result="effect1_dropShadow_1_2"/>
<feColorMatrix in="SourceAlpha" type="matrix" values="0 0 0 0 0 0 0 0 0 0 0 0 0 0 0 0 0 0 127 0" result="hardAlpha"/>
<feOffset dy="1"/>
<feGaussianBlur stdDeviation="0.65"/>
<feColorMatrix type="matrix" values="0 0 0 0 1 0 0 0 0 0.6 0 0 0 0 0.513726 0 0 0 0.56 0"/>
<feBlend mode="color-dodge" in2="effect1_dropShadow_1_2" result="effect2_dropShadow_1_2"/>
<feBlend mode="normal" in="SourceGraphic" in2="effect2_dropShadow_1_2" result="shape"/>
<feColorMatrix in="SourceAlpha" type="matrix" values="0 0 0 0 0 0 0 0 0 0 0 0 0 0 0 0 0 0 127 0" result="hardAlpha"/>
<feOffset dx="-0.065" dy="0.13"/>
<feGaussianBlur stdDeviation="0.0325"/>
<feComposite in2="hardAlpha" operator="arithmetic" k2="-1" k3="1"/>
<feColorMatrix type="matrix" values="0 0 0 0 1 0 0 0 0 1 0 0 0 0 1 0 0 0 0.5 0"/>
<feBlend mode="normal" in2="shape" result="effect3_innerShadow_1_2"/>
</filter>
<filter id="filter13_f_1_2" x="5.90668" y="73.6089" width="191.058" height="39.1204" filterUnits="userSpaceOnUse" color-interpolation-filters="sRGB">
<feFlood flood-opacity="0" result="BackgroundImageFix"/>
<feBlend mode="normal" in="SourceGraphic" in2="BackgroundImageFix" result="shape"/>
<feGaussianBlur stdDeviation="0.05" result="effect1_foregroundBlur_1_2"/>
</filter>
<filter id="filter14_f_1_2" x="6.04002" y="73.7423" width="190.792" height="38.8537" filterUnits="userSpaceOnUse" color-interpolation-filters="sRGB">
<feFlood flood-opacity="0" result="BackgroundImageFix"/>
<feBlend mode="normal" in="SourceGraphic" in2="BackgroundImageFix" result="shape"/>
<feGaussianBlur stdDeviation="0.0333333" result="effect1_foregroundBlur_1_2"/>
</filter>
<filter id="filter15_f_1_2" x="54.7482" y="83.4152" width="87.985" height="15.9947" filterUnits="userSpaceOnUse" color-interpolation-filters="sRGB">
<feFlood flood-opacity="0" result="BackgroundImageFix"/>
<feBlend mode="normal" in="SourceGraphic" in2="BackgroundImageFix" result="shape"/>
<feGaussianBlur stdDeviation="1.18192" result="effect1_foregroundBlur_1_2"/>
</filter>
<filter id="filter16_f_1_2" x="62.6387" y="87.6805" width="73.8374" height="10.2699" filterUnits="userSpaceOnUse" color-interpolation-filters="sRGB">
<feFlood flood-opacity="0" result="BackgroundImageFix"/>
<feBlend mode="normal" in="SourceGraphic" in2="BackgroundImageFix" result="shape"/>
<feGaussianBlur stdDeviation="0.393972" result="effect1_foregroundBlur_1_2"/>
</filter>
<filter id="filter17_di_1_2" x="60.4976" y="85.8654" width="76.3202" height="13.0031" filterUnits="userSpaceOnUse" color-interpolation-filters="sRGB">
<feFlood flood-opacity="0" result="BackgroundImageFix"/>
<feColorMatrix in="SourceAlpha" type="matrix" values="0 0 0 0 0 0 0 0 0 0 0 0 0 0 0 0 0 0 127 0" result="hardAlpha"/>
<feOffset dy="0.787944"/>
<feGaussianBlur stdDeviation="0.512164"/>
<feColorMatrix type="matrix" values="0 0 0 0 0.675 0 0 0 0 0.352171 0 0 0 0 0.289688 0 0 0 1 0"/>
<feBlend mode="color-dodge" in2="BackgroundImageFix" result="effect1_dropShadow_1_2"/>
<feBlend mode="normal" in="SourceGraphic" in2="effect1_dropShadow_1_2" result="shape"/>
<feColorMatrix in="SourceAlpha" type="matrix" values="0 0 0 0 0 0 0 0 0 0 0 0 0 0 0 0 0 0 127 0" result="hardAlpha"/>
<feOffset dx="-0.0512164" dy="0.102433"/>
<feGaussianBlur stdDeviation="0.0256082"/>
<feComposite in2="hardAlpha" operator="arithmetic" k2="-1" k3="1"/>
<feColorMatrix type="matrix" values="0 0 0 0 1 0 0 0 0 1 0 0 0 0 1 0 0 0 0.5 0"/>
<feBlend mode="normal" in2="shape" result="effect2_innerShadow_1_2"/>
</filter>
<filter id="filter18_f_1_2" x="61.563" y="86.1096" width="74.2031" height="11.2553" filterUnits="userSpaceOnUse" color-interpolation-filters="sRGB">
<feFlood flood-opacity="0" result="BackgroundImageFix"/>
<feBlend mode="normal" in="SourceGraphic" in2="BackgroundImageFix" result="shape"/>
<feGaussianBlur stdDeviation="0.0393972" result="effect1_foregroundBlur_1_2"/>
</filter>
<filter id="filter19_f_1_2" x="61.6654" y="86.2438" width="74.0057" height="10.6794" filterUnits="userSpaceOnUse" color-interpolation-filters="sRGB">
<feFlood flood-opacity="0" result="BackgroundImageFix"/>
<feBlend mode="normal" in="SourceGraphic" in2="BackgroundImageFix" result="shape"/>
<feGaussianBlur stdDeviation="0.0262648" result="effect1_foregroundBlur_1_2"/>
</filter>
<filter id="filter20_f_1_2" x="16.4485" y="71.6302" width="168.191" height="39.9495" filterUnits="userSpaceOnUse" color-interpolation-filters="sRGB">
<feFlood flood-opacity="0" result="BackgroundImageFix"/>
<feBlend mode="normal" in="SourceGraphic" in2="BackgroundImageFix" result="shape"/>
<feGaussianBlur stdDeviation="1.5" result="effect1_foregroundBlur_1_2"/>
</filter>
<filter id="filter21_i_1_2" x="19.3485" y="74.5302" width="162.391" height="39.1495" filterUnits="userSpaceOnUse" color-interpolation-filters="sRGB">
<feFlood flood-opacity="0" result="BackgroundImageFix"/>
<feBlend mode="normal" in="SourceGraphic" in2="BackgroundImageFix" result="shape"/>
<feColorMatrix in="SourceAlpha" type="matrix" values="0 0 0 0 0 0 0 0 0 0 0 0 0 0 0 0 0 0 127 0" result="hardAlpha"/>
<feOffset dy="5"/>
<feGaussianBlur stdDeviation="11"/>
<feComposite in2="hardAlpha" operator="arithmetic" k2="-1" k3="1"/>
<feColorMatrix type="matrix" values="0 0 0 0 0.675 0 0 0 0 0.419062 0 0 0 0 0.6204 0 0 0 1 0"/>
<feBlend mode="normal" in2="shape" result="effect1_innerShadow_1_2"/>
</filter>
<filter id="filter22_f_1_2" x="38.4254" y="74.432" width="121.329" height="33.4769" filterUnits="userSpaceOnUse" color-interpolation-filters="sRGB">
<feFlood flood-opacity="0" result="BackgroundImageFix"/>
<feBlend mode="normal" in="SourceGraphic" in2="BackgroundImageFix" result="shape"/>
<feGaussianBlur stdDeviation="1.5" result="effect1_foregroundBlur_1_2"/>
</filter>
<filter id="filter23_f_1_2" x="40.3253" y="76.3323" width="117.53" height="29.6766" filterUnits="userSpaceOnUse" color-interpolation-filters="sRGB">
<feFlood flood-opacity="0" result="BackgroundImageFix"/>
<feBlend mode="normal" in="SourceGraphic" in2="BackgroundImageFix" result="shape"/>
<feGaussianBlur stdDeviation="0.5" result="effect1_foregroundBlur_1_2"/>
</filter>
<filter id="filter24_ddi_1_2" x="40.1254" y="77.132" width="117.929" height="30.0769" filterUnits="userSpaceOnUse" color-interpolation-filters="sRGB">
<feFlood flood-opacity="0" result="BackgroundImageFix"/>
<feColorMatrix in="SourceAlpha" type="matrix" values="0 0 0 0 0 0 0 0 0 0 0 0 0 0 0 0 0 0 127 0" result="hardAlpha"/>
<feOffset dy="0.65"/>
<feGaussianBlur stdDeviation="0.25"/>
<feColorMatrix type="matrix" values="0 0 0 0 0.898039 0 0 0 0 0.411765 0 0 0 0 0.317647 0 0 0 0.01 0"/>
<feBlend mode="multiply" in2="BackgroundImageFix" result="effect1_dropShadow_1_2"/>
<feColorMatrix in="SourceAlpha" type="matrix" values="0 0 0 0 0 0 0 0 0 0 0 0 0 0 0 0 0 0 127 0" result="hardAlpha"/>
<feOffset dy="1"/>
<feGaussianBlur stdDeviation="0.65"/>
<feColorMatrix type="matrix" values="0 0 0 0 0.898039 0 0 0 0 0.411765 0 0 0 0 0.317647 0 0 0 1 0"/>
<feBlend mode="color-dodge" in2="effect1_dropShadow_1_2" result="effect2_dropShadow_1_2"/>
<feBlend mode="normal" in="SourceGraphic" in2="effect2_dropShadow_1_2" result="shape"/>
<feColorMatrix in="SourceAlpha" type="matrix" values="0 0 0 0 0 0 0 0 0 0 0 0 0 0 0 0 0 0 127 0" result="hardAlpha"/>
<feOffset dx="-0.065" dy="0.13"/>
<feGaussianBlur stdDeviation="0.0325"/>
<feComposite in2="hardAlpha" operator="arithmetic" k2="-1" k3="1"/>
<feColorMatrix type="matrix" values="0 0 0 0 1 0 0 0 0 1 0 0 0 0 1 0 0 0 0.5 0"/>
<feBlend mode="normal" in2="shape" result="effect3_innerShadow_1_2"/>
</filter>
<filter id="filter25_f_1_2" x="41.4506" y="77.4567" width="115.279" height="27.4273" filterUnits="userSpaceOnUse" color-interpolation-filters="sRGB">
<feFlood flood-opacity="0" result="BackgroundImageFix"/>
<feBlend mode="normal" in="SourceGraphic" in2="BackgroundImageFix" result="shape"/>
<feGaussianBlur stdDeviation="0.05" result="effect1_foregroundBlur_1_2"/>
</filter>
<filter id="filter26_f_1_2" x="41.584" y="77.5897" width="115.012" height="27.1609" filterUnits="userSpaceOnUse" color-interpolation-filters="sRGB">
<feFlood flood-opacity="0" result="BackgroundImageFix"/>
<feBlend mode="normal" in="SourceGraphic" in2="BackgroundImageFix" result="shape"/>
<feGaussianBlur stdDeviation="0.0333333" result="effect1_foregroundBlur_1_2"/>
</filter>
<filter id="filter27_f_1_2" x="48.4939" y="76.3282" width="100.387" height="27.7244" filterUnits="userSpaceOnUse" color-interpolation-filters="sRGB">
<feFlood flood-opacity="0" result="BackgroundImageFix"/>
<feBlend mode="normal" in="SourceGraphic" in2="BackgroundImageFix" result="shape"/>
<feGaussianBlur stdDeviation="1.5" result="effect1_foregroundBlur_1_2"/>
</filter>
<filter id="filter28_f_1_2" x="50.3938" y="78.2291" width="96.5875" height="23.9235" filterUnits="userSpaceOnUse" color-interpolation-filters="sRGB">
<feFlood flood-opacity="0" result="BackgroundImageFix"/>
<feBlend mode="normal" in="SourceGraphic" in2="BackgroundImageFix" result="shape"/>
<feGaussianBlur stdDeviation="0.5" result="effect1_foregroundBlur_1_2"/>
</filter>
<filter id="filter29_ddi_1_2" x="50.1939" y="79.0282" width="96.9874" height="24.3244" filterUnits="userSpaceOnUse" color-interpolation-filters="sRGB">
<feFlood flood-opacity="0" result="BackgroundImageFix"/>
<feColorMatrix in="SourceAlpha" type="matrix" values="0 0 0 0 0 0 0 0 0 0 0 0 0 0 0 0 0 0 127 0" result="hardAlpha"/>
<feOffset dy="0.65"/>
<feGaussianBlur stdDeviation="0.25"/>
<feColorMatrix type="matrix" values="0 0 0 0 0.898039 0 0 0 0 0.411765 0 0 0 0 0.317647 0 0 0 0.03 0"/>
<feBlend mode="multiply" in2="BackgroundImageFix" result="effect1_dropShadow_1_2"/>
<feColorMatrix in="SourceAlpha" type="matrix" values="0 0 0 0 0 0 0 0 0 0 0 0 0 0 0 0 0 0 127 0" result="hardAlpha"/>
<feOffset dy="1"/>
<feGaussianBlur stdDeviation="0.65"/>
<feColorMatrix type="matrix" values="0 0 0 0 0.898039 0 0 0 0 0.411765 0 0 0 0 0.317647 0 0 0 1 0"/>
<feBlend mode="color-dodge" in2="effect1_dropShadow_1_2" result="effect2_dropShadow_1_2"/>
<feBlend mode="normal" in="SourceGraphic" in2="effect2_dropShadow_1_2" result="shape"/>
<feColorMatrix in="SourceAlpha" type="matrix" values="0 0 0 0 0 0 0 0 0 0 0 0 0 0 0 0 0 0 127 0" result="hardAlpha"/>
<feOffset dx="-0.065" dy="0.13"/>
<feGaussianBlur stdDeviation="0.0325"/>
<feComposite in2="hardAlpha" operator="arithmetic" k2="-1" k3="1"/>
<feColorMatrix type="matrix" values="0 0 0 0 1 0 0 0 0 1 0 0 0 0 1 0 0 0 0.5 0"/>
<feBlend mode="normal" in2="shape" result="effect3_innerShadow_1_2"/>
</filter>
<filter id="filter30_f_1_2" x="51.519" y="79.352" width="94.3372" height="21.6756" filterUnits="userSpaceOnUse" color-interpolation-filters="sRGB">
<feFlood flood-opacity="0" result="BackgroundImageFix"/>
<feBlend mode="normal" in="SourceGraphic" in2="BackgroundImageFix" result="shape"/>
<feGaussianBlur stdDeviation="0.05" result="effect1_foregroundBlur_1_2"/>
</filter>
<filter id="filter31_f_1_2" x="51.6525" y="79.4844" width="94.0704" height="21.4099" filterUnits="userSpaceOnUse" color-interpolation-filters="sRGB">
<feFlood flood-opacity="0" result="BackgroundImageFix"/>
<feBlend mode="normal" in="SourceGraphic" in2="BackgroundImageFix" result="shape"/>
<feGaussianBlur stdDeviation="0.0333333" result="effect1_foregroundBlur_1_2"/>
</filter>
<radialGradient id="paint0_radial_1_2" cx="0" cy="0" r="1" gradientUnits="userSpaceOnUse" gradientTransform="translate(99.3184 69.5956) rotate(89.7245) scale(41.1097 223.794)">
<stop stop-color="#D951E5" stop-opacity="0"/>
<stop offset="1" stop-color="#E551D6"/>
</radialGradient>
<linearGradient id="paint1_linear_1_2" x1="185.279" y1="98.3108" x2="-0.869856" y2="84.2021" gradientUnits="userSpaceOnUse">
<stop offset="0.453325" stop-color="#23516B"/>
</linearGradient>
<linearGradient id="paint2_linear_1_2" x1="193.822" y1="91.9469" x2="8.83023" y2="78.2099" gradientUnits="userSpaceOnUse">
<stop offset="0.5001" stop-color="#522F59"/>
</linearGradient>
<linearGradient id="paint3_linear_1_2" x1="195.548" y1="95.5898" x2="10.5551" y2="81.867" gradientUnits="userSpaceOnUse">
<stop offset="0.510517" stop-color="#6B4C66"/>
</linearGradient>
<linearGradient id="paint4_linear_1_2" x1="182.781" y1="92.0536" x2="11.9918" y2="85.9558" gradientUnits="userSpaceOnUse">
<stop stop-color="#811FFF"/>
<stop offset="0.971702" stop-color="#BDB1A9"/>
</linearGradient>
<linearGradient id="paint5_linear_1_2" x1="172.423" y1="93.3466" x2="21.6786" y2="87.9644" gradientUnits="userSpaceOnUse">
<stop stop-color="#811FFF"/>
<stop offset="0.971702" stop-color="#BDB1A9"/>
</linearGradient>
<linearGradient id="paint6_linear_1_2" x1="109.992" y1="65.6779" x2="62.8256" y2="122.803" gradientUnits="userSpaceOnUse">
<stop offset="0.355949" stop-color="#371D4A"/>
<stop offset="0.723164" stop-color="#693D7E"/>
<stop offset="1" stop-color="#9B6CB1"/>
</linearGradient>
<linearGradient id="paint7_linear_1_2" x1="109.992" y1="65.6779" x2="62.8256" y2="122.803" gradientUnits="userSpaceOnUse">
<stop offset="0.177373" stop-color="#5A0141"/>
<stop offset="0.723164" stop-color="#76065D"/>
<stop offset="1" stop-color="#99005C"/>
</linearGradient>
<linearGradient id="paint8_linear_1_2" x1="81.6566" y1="64.1907" x2="134.514" y2="119.327" gradientUnits="userSpaceOnUse">
<stop offset="0.0311237" stop-color="#6E2B95" stop-opacity="0.698809"/>
<stop offset="0.194111" stop-color="#4F1472" stop-opacity="0.782676"/>
<stop offset="0.616457" stop-color="#B55CE9"/>
<stop offset="1" stop-color="#DDA3FF" stop-opacity="0"/>
</linearGradient>
<linearGradient id="paint9_linear_1_2" x1="87.9897" y1="139.852" x2="123.5" y2="113.54" gradientUnits="userSpaceOnUse">
<stop offset="0.406226" stop-color="#CE7A55"/>
<stop offset="1" stop-color="#F4EEB9"/>
</linearGradient>
<linearGradient id="paint10_linear_1_2" x1="100.067" y1="81.2138" x2="98.2968" y2="104.231" gradientUnits="userSpaceOnUse">
<stop offset="0.435229" stop-color="#EAB494"/>
<stop offset="1" stop-color="#CE7A55"/>
</linearGradient>
</defs>
</svg>
